<svg xmlns="http://www.w3.org/2000/svg" xmlns:xlink="http://www.w3.org/1999/xlink" width="240" height="235.04" viewBox="0 0 180 176.28"><clipPath id="a"><path transform="matrix(1 0 0 -1 0 176.28)" d="M0 176.28h180V0H0" fill-rule="evenodd"/></clipPath><g clip-path="url(#a)"><path stroke-width="2" stroke-linecap="round" stroke-linejoin="round" fill="none" stroke="#000" d="M55.758 41.88v7.43"/></g><clipPath id="b"><path transform="matrix(1 0 0 -1 0 176.28)" d="M0 176.28h180V0H0" fill-rule="evenodd"/></clipPath><g clip-path="url(#b)"><path stroke-width="2" stroke-linecap="round" stroke-linejoin="round" fill="none" stroke="#000" d="M55.758 49.31 64 51.57"/></g><clipPath id="c"><path transform="matrix(1 0 0 -1 0 176.28)" d="M0 176.28h180V0H0" fill-rule="evenodd"/></clipPath><g clip-path="url(#c)"><path stroke-width="2" stroke-linecap="round" stroke-linejoin="round" fill="none" stroke="#000" d="M64 51.57 47.687 55.4"/></g><clipPath id="d"><path transform="matrix(1 0 0 -1 0 176.28)" d="M0 176.28h180V0H0" fill-rule="evenodd"/></clipPath><g clip-path="url(#d)"><path stroke-width="2" stroke-linecap="round" stroke-linejoin="round" fill="none" stroke="#000" d="M47.687 55.4 64 59.23"/></g><path stroke-width="2" stroke-linecap="round" stroke-linejoin="round" fill="none" stroke="#000" d="m64 59.23-16.313 4.08L64 67.39M64 67.39l-16.313 4.59 8.199 2.56v6.12"/><clipPath id="e"><path transform="matrix(1 0 0 -1 0 176.28)" d="M0 176.28h180V0H0" fill-rule="evenodd"/></clipPath><g clip-path="url(#e)"><path stroke-width="2" stroke-linecap="round" stroke-linejoin="round" fill="none" stroke="#000" d="M55.758 41.88v7.43"/></g><clipPath id="f"><path transform="matrix(1 0 0 -1 0 176.28)" d="M0 176.28h180V0H0" fill-rule="evenodd"/></clipPath><g clip-path="url(#f)"><path stroke-width="2" stroke-linecap="round" stroke-linejoin="round" fill="none" stroke="#000" d="M55.758 49.31 64 51.57"/></g><clipPath id="g"><path transform="matrix(1 0 0 -1 0 176.28)" d="M0 176.28h180V0H0" fill-rule="evenodd"/></clipPath><g clip-path="url(#g)"><path stroke-width="2" stroke-linecap="round" stroke-linejoin="round" fill="none" stroke="#000" d="M64 51.57 47.687 55.4"/></g><clipPath id="h"><path transform="matrix(1 0 0 -1 0 176.28)" d="M0 176.28h180V0H0" fill-rule="evenodd"/></clipPath><g clip-path="url(#h)"><path stroke-width="2" stroke-linecap="round" stroke-linejoin="round" fill="none" stroke="#000" d="M47.687 55.4 64 59.23"/></g><path stroke-width="2" stroke-linecap="round" stroke-linejoin="round" fill="none" stroke="#000" d="m64 59.23-16.313 4.08L64 67.39M64 67.39l-16.313 4.59 8.199 2.56v6.12"/><clipPath id="i"><path transform="matrix(1 0 0 -1 0 176.28)" d="M0 176.28h180V0H0" fill-rule="evenodd"/></clipPath><g clip-path="url(#i)"><path stroke-width="2" stroke-linecap="round" stroke-linejoin="round" fill="none" stroke="#000" d="M142.15 61.02v15.514"/></g><path stroke-width="2" stroke-linecap="round" stroke-linejoin="round" fill="none" stroke="#000" d="M128.06 76.534h28.38M128.92 85.645c8.47-5.279 18.19-5.279 26.66 0"/><clipPath id="j"><path transform="matrix(1 0 0 -1 0 176.28)" d="M0 176.28h180V0H0" fill-rule="evenodd"/></clipPath><g clip-path="url(#j)"><path stroke-width="2" stroke-linecap="round" stroke-linejoin="round" fill="none" stroke="#000" d="M142.15 83.066v27.742"/></g><clipPath id="k"><path transform="matrix(1 0 0 -1 0 176.28)" d="M0 176.28h180V0H0" fill-rule="evenodd"/></clipPath><g clip-path="url(#k)"><path stroke-width="2" stroke-linecap="round" stroke-linejoin="round" fill="none" stroke="#000" d="M142.15 61.02v15.514"/></g><path stroke-width="2" stroke-linecap="round" stroke-linejoin="round" fill="none" stroke="#000" d="M128.06 76.534h28.38M128.92 85.645c8.47-5.279 18.19-5.279 26.66 0"/><clipPath id="l"><path transform="matrix(1 0 0 -1 0 176.28)" d="M0 176.28h180V0H0" fill-rule="evenodd"/></clipPath><g clip-path="url(#l)"><path stroke-width="2" stroke-linecap="round" stroke-linejoin="round" fill="none" stroke="#000" d="M142.15 83.066v27.742"/></g><clipPath id="m"><path transform="matrix(1 0 0 -1 0 176.28)" d="M23.126 122.63h26.249V95.62H23.126v27.01z" fill-rule="evenodd"/></clipPath><g clip-path="url(#m)"><clipPath id="n"><path transform="matrix(1.03662 0 0 -1.0458 23.126 80.66)" d="M0 0h25.322v25.831H0z" fill-rule="evenodd"/></clipPath><g clip-path="url(#n)"><clipPath id="o"><path transform="matrix(1.03662 0 0 -1.0458 23.126 80.66)" d="M0 .055h25.32v25.776H0z" fill-rule="evenodd"/></clipPath><g clip-path="url(#o)"><symbol id="p"><path d="M.44.305A.181.181 0 0 0 .482.26.21.21 0 0 0 .505.194L.52.126A.318.318 0 0 1 .534.073a.078.078 0 0 1 .02-.026.083.083 0 0 1 .032-.015L.58 0H.405a.78.78 0 0 0-.028.109l-.016.08a.27.27 0 0 1-.016.059.067.067 0 0 1-.023.03.069.069 0 0 1-.038.01h-.03L.217.131A.34.34 0 0 1 .212.075C.212.06.216.049.223.043A.064.064 0 0 1 .26.033L.252 0H0l.007.032a.07.07 0 0 1 .04.028.231.231 0 0 1 .026.072l.089.403c.004.019.006.038.006.057 0 .013-.003.023-.01.03-.006.006-.016.01-.03.012l.006.033h.244A.801.801 0 0 0 .46.663.23.23 0 0 0 .523.648.153.153 0 0 0 .573.62.12.12 0 0 0 .605.575.187.187 0 0 0 .571.391.296.296 0 0 0 .44.31V.305m-.142.04c.042 0 .075.006.098.018a.14.14 0 0 1 .057.06.195.195 0 0 1 .02.092C.473.547.466.57.45.585.433.603.408.61.373.61h-.05L.266.343h.03z"/></symbol><use xlink:href="#p" transform="matrix(14.60388 0 0 -14.73316 28.16 67.626)"/></g><clipPath id="q"><path transform="matrix(1.03662 0 0 -1.0458 23.126 80.66)" d="M0 .055h25.32v25.776H0z" fill-rule="evenodd"/></clipPath><g clip-path="url(#q)"><symbol id="r"><path d="M.314.136c0-.019.001-.033.003-.043A.056.056 0 0 1 .33.07.059.059 0 0 1 .352.056.216.216 0 0 1 .39.048.792.792 0 0 1 .45.044V0H.03v.044a.715.715 0 0 1 .076.007.096.096 0 0 1 .036.012.046.046 0 0 1 .018.024c.004.01.006.026.006.05v.352c0 .014-.003.023-.008.03a.025.025 0 0 1-.02.008.086.086 0 0 1-.035-.011A.794.794 0 0 1 .03.47L0 .52l.255.153h.062a2.211 2.211 0 0 1-.003-.13V.136z"/></symbol><use xlink:href="#r" transform="matrix(10.3496 0 0 -10.44122 38.832 70.638)"/></g><clipPath id="s"><path transform="matrix(1.03662 0 0 -1.0458 23.126 80.66)" d="M0 .055h25.32v25.776H0z" fill-rule="evenodd"/></clipPath><g clip-path="url(#s)"><symbol id="t"><path d="M0 0z"/></symbol><use xlink:href="#t" transform="matrix(14.60388 0 0 -14.73316 44.746 67.626)"/></g></g></g><clipPath id="u"><path transform="matrix(1 0 0 -1 0 176.28)" d="M19 86.411h26.249V59.397H19v27.014z" fill-rule="evenodd"/></clipPath><g clip-path="url(#u)"><clipPath id="v"><path transform="matrix(1.03662 0 0 -1.0458 19 116.883)" d="M0 0h25.322v25.831H0z" fill-rule="evenodd"/></clipPath><g clip-path="url(#v)"><clipPath id="w"><path transform="matrix(1.03662 0 0 -1.0458 19 116.883)" d="M0 .055h25.32v25.776H0z" fill-rule="evenodd"/></clipPath><g clip-path="url(#w)"><symbol id="x"><path d="M.547.658.516.516H.452a.246.246 0 0 1-.01.065.062.062 0 0 1-.022.033.071.071 0 0 1-.043.011.129.129 0 0 1-.08-.032.304.304 0 0 1-.075-.098.72.72 0 0 1-.075-.314c0-.027.002-.05.007-.068A.08.08 0 0 1 .181.072.084.084 0 0 1 .233.057c.034 0 .062.009.084.026a.214.214 0 0 1 .06.087h.064L.411.026A.614.614 0 0 0 .214 0C.146 0 .093.019.055.057.02.095 0 .149 0 .22a.609.609 0 0 0 .056.248c.021.046.049.086.082.118s.07.056.111.072a.375.375 0 0 0 .134.023c.055 0 .11-.008.164-.024z"/></symbol><use xlink:href="#x" transform="matrix(14.60388 0 0 -14.73316 25.088 103.964)"/></g><clipPath id="y"><path transform="matrix(1.03662 0 0 -1.0458 19 116.883)" d="M0 .055h25.32v25.776H0z" fill-rule="evenodd"/></clipPath><g clip-path="url(#y)"><use xlink:href="#r" transform="matrix(10.3496 0 0 -10.44122 34.084 106.86)"/></g><clipPath id="z"><path transform="matrix(1.03662 0 0 -1.0458 19 116.883)" d="M0 .055h25.32v25.776H0z" fill-rule="evenodd"/></clipPath><g clip-path="url(#z)"><use xlink:href="#t" transform="matrix(14.60388 0 0 -14.73316 40.122 103.85)"/></g></g></g><clipPath id="A"><path transform="matrix(1 0 0 -1 0 176.28)" d="M0 176.28h180V0H0" fill-rule="evenodd"/></clipPath><g clip-path="url(#A)"><path stroke-width="2" stroke-linecap="round" stroke-linejoin="round" fill="none" stroke="#000" d="M55.85 80.71v15.136"/></g><path stroke-width="2" stroke-linecap="round" stroke-linejoin="round" fill="none" stroke="#000" d="M42.106 95.846h27.688M42.945 104.737c8.262-5.279 17.747-5.279 26.01 0"/><clipPath id="B"><path transform="matrix(1 0 0 -1 0 176.28)" d="M0 176.28h180V0H0" fill-rule="evenodd"/></clipPath><g clip-path="url(#B)"><path stroke-width="2" stroke-linecap="round" stroke-linejoin="round" fill="none" stroke="#000" d="M55.85 102.22v27.072"/></g><clipPath id="C"><path transform="matrix(1 0 0 -1 0 176.28)" d="M0 176.28h180V0H0" fill-rule="evenodd"/></clipPath><g clip-path="url(#C)"><path stroke-width="2" stroke-linecap="round" stroke-linejoin="round" fill="none" stroke="#000" d="M55.85 80.71v15.136"/></g><path stroke-width="2" stroke-linecap="round" stroke-linejoin="round" fill="none" stroke="#000" d="M42.106 95.846h27.688M42.945 104.737c8.262-5.279 17.747-5.279 26.01 0"/><clipPath id="D"><path transform="matrix(1 0 0 -1 0 176.28)" d="M0 176.28h180V0H0" fill-rule="evenodd"/></clipPath><g clip-path="url(#D)"><path stroke-width="2" stroke-linecap="round" stroke-linejoin="round" fill="none" stroke="#000" d="M55.85 102.22v27.072"/></g><clipPath id="E"><path transform="matrix(1 0 0 -1 0 176.28)" d="M0 176.28h180V0H0" fill-rule="evenodd"/></clipPath><g clip-path="url(#E)"><path stroke-width="2" stroke-linecap="round" stroke-linejoin="round" fill="none" stroke="#000" d="M55.754 121.773v26.651"/></g><path stroke-width="2" stroke-linecap="round" stroke-linejoin="round" fill="none" stroke="#000" d="M47.302 148.424h16.135M50.101 152.866h10.724M54.063 157.308h3.17"/><clipPath id="F"><path transform="matrix(1 0 0 -1 0 176.28)" d="M0 176.28h180V0H0" fill-rule="evenodd"/></clipPath><g clip-path="url(#F)"><path stroke-width="2" stroke-linecap="round" stroke-linejoin="round" fill="none" stroke="#000" d="M55.754 121.773v26.651"/></g><path stroke-width="2" stroke-linecap="round" stroke-linejoin="round" fill="none" stroke="#000" d="M47.302 148.424h16.135M50.101 152.866h10.724M54.063 157.308h3.17"/><clipPath id="G"><path transform="matrix(1 0 0 -1 0 176.28)" d="M0 176.28h180V0H0" fill-rule="evenodd"/></clipPath><g clip-path="url(#G)"><path stroke-width="2" stroke-linecap="round" stroke-linejoin="round" fill="none" stroke="#000" d="M142.19 121.773v26.651"/></g><path stroke-width="2" stroke-linecap="round" stroke-linejoin="round" fill="none" stroke="#000" d="M133.74 148.424h16.13M136.54 152.866h10.72M140.5 157.308h3.17"/><clipPath id="H"><path transform="matrix(1 0 0 -1 0 176.28)" d="M0 176.28h180V0H0" fill-rule="evenodd"/></clipPath><g clip-path="url(#H)"><path stroke-width="2" stroke-linecap="round" stroke-linejoin="round" fill="none" stroke="#000" d="M142.19 121.773v26.651"/></g><path stroke-width="2" stroke-linecap="round" stroke-linejoin="round" fill="none" stroke="#000" d="M133.74 148.424h16.13M136.54 152.866h10.72M140.5 157.308h3.17"/><clipPath id="I"><path transform="matrix(1 0 0 -1 0 176.28)" d="M0 176.28h180V0H0" fill-rule="evenodd"/></clipPath><g clip-path="url(#I)"><path stroke-width="2" stroke-linecap="round" stroke-linejoin="round" fill="none" stroke="#000" d="M142.19 125.71v-18"/></g><path stroke-width="2" stroke-linecap="round" stroke-linejoin="round" fill="none" stroke="#000" d="M55.758 41.88H158.5"/><clipPath id="J"><path transform="matrix(1 0 0 -1 0 176.28)" d="M0 176.28h180V0H0" fill-rule="evenodd"/></clipPath><g clip-path="url(#J)"><path stroke-width="2" stroke-linecap="round" stroke-linejoin="round" fill="none" stroke="#000" d="M142.15 61.02V41.88"/></g><path d="M155.94 41.88c0-1.41 1.15-2.56 2.56-2.56 1.41 0 2.56 1.15 2.56 2.56 0 1.41-1.15 2.56-2.56 2.56-1.41 0-2.56-1.15-2.56-2.56z" fill-rule="evenodd"/><path stroke-width="2" stroke-linecap="round" stroke-linejoin="round" fill="none" stroke="#000" d="M155.94 41.88c0-1.41 1.15-2.56 2.56-2.56 1.41 0 2.56 1.15 2.56 2.56 0 1.41-1.15 2.56-2.56 2.56-1.41 0-2.56-1.15-2.56-2.56zM55.758 41.88H44.875"/><path d="M42.317 41.88c0-1.41 1.145-2.56 2.558-2.56a2.561 2.561 0 0 1 2.558 2.56c0 1.41-1.145 2.56-2.558 2.56a2.561 2.561 0 0 1-2.558-2.56z" fill-rule="evenodd"/><path stroke-width="2" stroke-linecap="round" stroke-linejoin="round" fill="none" stroke="#000" d="M42.317 41.88c0-1.41 1.145-2.56 2.558-2.56a2.561 2.561 0 0 1 2.558 2.56c0 1.41-1.145 2.56-2.558 2.56a2.561 2.561 0 0 1-2.558-2.56z"/><clipPath id="K"><path transform="matrix(1 0 0 -1 0 176.28)" d="M105.4 104.57h25.2V78.86h-25.2v25.71z" fill-rule="evenodd"/></clipPath><g clip-path="url(#K)"><clipPath id="L"><path transform="matrix(.99571 0 0 -.99396 105.4 97.42)" d="M0 0h25.308v25.867H0z" fill-rule="evenodd"/></clipPath><g clip-path="url(#L)"><clipPath id="M"><path transform="matrix(.99571 0 0 -.99396 105.4 97.42)" d="M0 .02h25.344v25.847H0z" fill-rule="evenodd"/></clipPath><g clip-path="url(#M)"><use xlink:href="#x" transform="matrix(14.07543 0 0 -14.05062 111.25 85.035)"/></g><clipPath id="N"><path transform="matrix(.99571 0 0 -.99396 105.4 97.42)" d="M0 .02h25.344v25.847H0z" fill-rule="evenodd"/></clipPath><g clip-path="url(#N)"><symbol id="O"><path d="M.315.12C.337.12.352.12.363.124.373.127.38.133.387.14c.006.008.011.02.015.035h.056L.448 0H0v.032a.986.986 0 0 0 .154.223c.035.041.062.075.08.102a.362.362 0 0 1 .041.076C.285.456.29.48.29.506A.132.132 0 0 1 .265.59.078.078 0 0 1 .2.621C.147.621.113.583.098.506H.01v.116a.804.804 0 0 0 .128.042.5.5 0 0 0 .103.01.3.3 0 0 0 .117-.02.133.133 0 0 0 .066-.051.141.141 0 0 0 .02-.077A.176.176 0 0 0 .43.454.317.317 0 0 0 .38.378 1.52 1.52 0 0 0 .26.257 1.15 1.15 0 0 1 .143.125V.12h.173z"/></symbol><use xlink:href="#O" transform="matrix(9.98901 0 0 -9.9714 119.65 87.811)"/></g><clipPath id="P"><path transform="matrix(.99571 0 0 -.99396 105.4 97.42)" d="M0 .02h25.344v25.847H0z" fill-rule="evenodd"/></clipPath><g clip-path="url(#P)"><use xlink:href="#t" transform="matrix(14.07543 0 0 -14.05062 125.689 84.925)"/></g></g></g><clipPath id="Q"><path transform="matrix(1 0 0 -1 0 176.28)" d="M82.191 131.57H117v25.71H82.191z" fill-rule="evenodd"/></clipPath><g clip-path="url(#Q)"><clipPath id="R"><path transform="matrix(.997 0 0 -.99396 82.191 44.71)" d="M0 0h34.913v25.867H0z" fill-rule="evenodd"/></clipPath><g clip-path="url(#R)"><clipPath id="S"><path transform="matrix(.997 0 0 -.99396 82.191 44.71)" d="M0 .02h34.92v25.847H0z" fill-rule="evenodd"/></clipPath><g clip-path="url(#S)"><symbol id="T"><path d="M.366.457a.83.83 0 0 1 .047.095.137.137 0 0 1 .008.045c0 .024-.013.037-.041.04L.387.67h.208L.588.638a.08.08 0 0 1-.03-.014.11.11 0 0 1-.025-.025A.58.58 0 0 1 .5.545L.197 0H.074l-.02.522a.517.517 0 0 1-.005.05.133.133 0 0 1-.009.036.046.046 0 0 1-.016.02.051.051 0 0 1-.024.01L.007.67H.26L.252.638A.062.062 0 0 1 .22.627.053.053 0 0 1 .202.602.168.168 0 0 1 .197.555V.511L.201.34.203.16h.005l.158.297z"/></symbol><use xlink:href="#T" transform="matrix(14.09347 0 0 -14.05062 82.845 32.263)"/></g><clipPath id="U"><path transform="matrix(.997 0 0 -.99396 82.191 44.71)" d="M0 .02h34.92v25.847H0z" fill-rule="evenodd"/></clipPath><g clip-path="url(#U)"><symbol id="V"><path d="M.575.667.536.49H.474a.342.342 0 0 1-.007.075.06.06 0 0 1-.019.033.053.053 0 0 1-.036.011H.37L.264.132A.36.36 0 0 1 .257.075C.257.06.261.049.27.043a.064.064 0 0 1 .036-.01L.298 0h-.26l.007.032A.07.07 0 0 1 .08.045.071.071 0 0 1 .1.074a.327.327 0 0 1 .018.058l.105.477H.184A.098.098 0 0 1 .141.601.116.116 0 0 1 .104.567.315.315 0 0 1 .064.5H0l.037.167h.538z"/></symbol><symbol id="W"><path d="M.294.058C.31.058.322.06.33.062a.072.072 0 0 1 .024.012.198.198 0 0 1 .05.061.476.476 0 0 1 .025.059h.067L.447 0H0l.007.032a.07.07 0 0 1 .04.028.231.231 0 0 1 .026.072l.089.403c.004.019.006.038.006.057 0 .013-.003.023-.01.03-.006.006-.016.01-.03.012l.006.033H.38L.373.634A.07.07 0 0 1 .332.607.231.231 0 0 1 .307.535L.202.058h.092z"/></symbol><use xlink:href="#x" transform="matrix(10.00182 0 0 -9.9714 91.967 35.18)"/><use xlink:href="#V" transform="matrix(10.00182 0 0 -9.9714 97.85 35.101)"/><use xlink:href="#p" transform="matrix(10.00182 0 0 -9.9714 103.988 35.101)"/><use xlink:href="#W" transform="matrix(10.00182 0 0 -9.9714 110.99 35.101)"/></g><clipPath id="X"><path transform="matrix(.997 0 0 -.99396 82.191 44.71)" d="M0 .02h34.92v25.847H0z" fill-rule="evenodd"/></clipPath><g clip-path="url(#X)"><use xlink:href="#t" transform="matrix(14.09347 0 0 -14.05062 117.006 32.215)"/></g></g></g></svg>