<svg xmlns="http://www.w3.org/2000/svg" xmlns:xlink="http://www.w3.org/1999/xlink" width="402.56" height="219.84" viewBox="0 0 301.92 164.88"><clipPath id="a"><path transform="matrix(1 0 0 -1 0 164.88)" d="M0 164.88h301.92V0H0" fill-rule="evenodd"/></clipPath><g clip-path="url(#a)"><path stroke-width="2" stroke-linecap="round" stroke-linejoin="round" fill="none" stroke="#000" d="M141.44 29.27v7.43"/></g><clipPath id="b"><path transform="matrix(1 0 0 -1 0 164.88)" d="M0 164.88h301.92V0H0" fill-rule="evenodd"/></clipPath><g clip-path="url(#b)"><path stroke-width="2" stroke-linecap="round" stroke-linejoin="round" fill="none" stroke="#000" d="m141.44 36.7 8.24 2.26"/></g><clipPath id="c"><path transform="matrix(1 0 0 -1 0 164.88)" d="M0 164.88h301.92V0H0" fill-rule="evenodd"/></clipPath><g clip-path="url(#c)"><path stroke-width="2" stroke-linecap="round" stroke-linejoin="round" fill="none" stroke="#000" d="m149.68 38.96-16.31 3.83"/></g><clipPath id="d"><path transform="matrix(1 0 0 -1 0 164.88)" d="M0 164.88h301.92V0H0" fill-rule="evenodd"/></clipPath><g clip-path="url(#d)"><path stroke-width="2" stroke-linecap="round" stroke-linejoin="round" fill="none" stroke="#000" d="m133.37 42.79 16.31 3.83"/></g><path stroke-width="2" stroke-linecap="round" stroke-linejoin="round" fill="none" stroke="#000" d="m149.68 46.62-16.31 4.08 16.31 4.08M149.68 54.78l-16.31 4.59 8.2 2.56v6.12"/><clipPath id="e"><path transform="matrix(1 0 0 -1 0 164.88)" d="M0 164.88h301.92V0H0" fill-rule="evenodd"/></clipPath><g clip-path="url(#e)"><path stroke-width="2" stroke-linecap="round" stroke-linejoin="round" fill="none" stroke="#000" d="M141.44 29.27v7.43"/></g><clipPath id="f"><path transform="matrix(1 0 0 -1 0 164.88)" d="M0 164.88h301.92V0H0" fill-rule="evenodd"/></clipPath><g clip-path="url(#f)"><path stroke-width="2" stroke-linecap="round" stroke-linejoin="round" fill="none" stroke="#000" d="m141.44 36.7 8.24 2.26"/></g><clipPath id="g"><path transform="matrix(1 0 0 -1 0 164.88)" d="M0 164.88h301.92V0H0" fill-rule="evenodd"/></clipPath><g clip-path="url(#g)"><path stroke-width="2" stroke-linecap="round" stroke-linejoin="round" fill="none" stroke="#000" d="m149.68 38.96-16.31 3.83"/></g><clipPath id="h"><path transform="matrix(1 0 0 -1 0 164.88)" d="M0 164.88h301.92V0H0" fill-rule="evenodd"/></clipPath><g clip-path="url(#h)"><path stroke-width="2" stroke-linecap="round" stroke-linejoin="round" fill="none" stroke="#000" d="m133.37 42.79 16.31 3.83"/></g><path stroke-width="2" stroke-linecap="round" stroke-linejoin="round" fill="none" stroke="#000" d="m149.68 46.62-16.31 4.08 16.31 4.08M149.68 54.78l-16.31 4.59 8.2 2.56v6.12"/><clipPath id="i"><path transform="matrix(1 0 0 -1 0 164.88)" d="M172.83 124.99h25.2V99.276h-25.2v25.714z" fill-rule="evenodd"/></clipPath><g clip-path="url(#i)"><clipPath id="j"><path transform="matrix(.99571 0 0 -.99396 172.83 65.604)" d="M0 0h25.308v25.867H0z" fill-rule="evenodd"/></clipPath><g clip-path="url(#j)"><clipPath id="k"><path transform="matrix(.99571 0 0 -.99396 172.83 65.604)" d="M0 .02h25.344v25.847H0z" fill-rule="evenodd"/></clipPath><g clip-path="url(#k)"><symbol id="l"><path d="M.44.305A.181.181 0 0 0 .482.26.21.21 0 0 0 .505.194L.52.126A.318.318 0 0 1 .534.073a.078.078 0 0 1 .02-.026.083.083 0 0 1 .032-.015L.58 0H.405a.78.78 0 0 0-.028.109l-.016.08a.27.27 0 0 1-.016.059.067.067 0 0 1-.023.03.069.069 0 0 1-.038.01h-.03L.217.131A.34.34 0 0 1 .212.075C.212.06.216.049.223.043A.064.064 0 0 1 .26.033L.252 0H0l.007.032a.07.07 0 0 1 .04.028.231.231 0 0 1 .026.072l.089.403c.004.019.006.038.006.057 0 .013-.003.023-.01.03-.006.006-.016.01-.03.012l.006.033h.244A.801.801 0 0 0 .46.663.23.23 0 0 0 .523.648.153.153 0 0 0 .573.62.12.12 0 0 0 .605.575.187.187 0 0 0 .571.391.296.296 0 0 0 .44.31V.305m-.142.04c.042 0 .075.006.098.018a.14.14 0 0 1 .057.06.195.195 0 0 1 .02.092C.473.547.466.57.45.585.433.603.408.61.373.61h-.05L.266.343h.03z"/></symbol><use xlink:href="#l" transform="matrix(14.07543 0 0 -14.05062 177.667 53.109)"/></g><clipPath id="m"><path transform="matrix(.99571 0 0 -.99396 172.83 65.604)" d="M0 .02h25.344v25.847H0z" fill-rule="evenodd"/></clipPath><g clip-path="url(#m)"><symbol id="n"><path d="M.01.514v.115a.578.578 0 0 0 .223.053C.295.682.344.67.381.645A.12.12 0 0 0 .436.54C.436.502.426.47.403.442A.291.291 0 0 0 .295.366V.36A.198.198 0 0 0 .407.304.152.152 0 0 0 .45.195a.186.186 0 0 0-.028-.1.184.184 0 0 0-.084-.07A.335.335 0 0 0 .201 0a.6.6 0 0 0-.108.01A.41.41 0 0 0 0 .038v.123h.088A.171.171 0 0 1 .128.08.094.094 0 0 1 .196.055c.069 0 .103.042.103.128C.3.229.287.263.263.285.239.308.202.32.153.32h-.04v.056c.057.002.1.015.13.04.029.023.044.059.044.105C.287.556.279.583.265.6.25.62.229.63.2.63a.087.087 0 0 1-.068-.03.17.17 0 0 1-.036-.085H.01z"/></symbol><use xlink:href="#n" transform="matrix(9.98901 0 0 -9.9714 187.77 56.073)"/></g><clipPath id="o"><path transform="matrix(.99571 0 0 -.99396 172.83 65.604)" d="M0 .02h25.344v25.847H0z" fill-rule="evenodd"/></clipPath><g clip-path="url(#o)"><symbol id="p"><path d="M0 0z"/></symbol><use xlink:href="#p" transform="matrix(14.07543 0 0 -14.05062 193.62 53.109)"/></g></g></g><clipPath id="q"><path transform="matrix(1 0 0 -1 0 164.88)" d="M49.5 67.42h26.249v27.014H49.5z" fill-rule="evenodd"/></clipPath><g clip-path="url(#q)"><clipPath id="r"><path transform="matrix(1.03662 0 0 -1.0458 49.5 97.46)" d="M0 0h25.322v25.831H0z" fill-rule="evenodd"/></clipPath><g clip-path="url(#r)"><clipPath id="s"><path transform="matrix(1.03662 0 0 -1.0458 49.5 97.46)" d="M0 .055h25.32v25.776H0z" fill-rule="evenodd"/></clipPath><g clip-path="url(#s)"><symbol id="t"><path d="M.547.658.516.516H.452a.246.246 0 0 1-.01.065.062.062 0 0 1-.022.033.071.071 0 0 1-.043.011.129.129 0 0 1-.08-.032.304.304 0 0 1-.075-.098.72.72 0 0 1-.075-.314c0-.027.002-.05.007-.068A.08.08 0 0 1 .181.072.084.084 0 0 1 .233.057c.034 0 .062.009.084.026a.214.214 0 0 1 .06.087h.064L.411.026A.614.614 0 0 0 .214 0C.146 0 .093.019.055.057.02.095 0 .149 0 .22a.609.609 0 0 0 .056.248c.021.046.049.086.082.118s.07.056.111.072a.375.375 0 0 0 .134.023c.055 0 .11-.008.164-.024z"/></symbol><use xlink:href="#t" transform="matrix(14.60388 0 0 -14.73316 55.588 84.541)"/></g><clipPath id="u"><path transform="matrix(1.03662 0 0 -1.0458 49.5 97.46)" d="M0 .055h25.32v25.776H0z" fill-rule="evenodd"/></clipPath><g clip-path="url(#u)"><symbol id="v"><path d="M.314.136c0-.019.001-.033.003-.043A.056.056 0 0 1 .33.07.059.059 0 0 1 .352.056.216.216 0 0 1 .39.048.792.792 0 0 1 .45.044V0H.03v.044a.715.715 0 0 1 .076.007.096.096 0 0 1 .036.012.046.046 0 0 1 .018.024c.004.01.006.026.006.05v.352c0 .014-.003.023-.008.03a.025.025 0 0 1-.02.008.086.086 0 0 1-.035-.011A.794.794 0 0 1 .03.47L0 .52l.255.153h.062a2.211 2.211 0 0 1-.003-.13V.136z"/></symbol><use xlink:href="#v" transform="matrix(10.3496 0 0 -10.44122 64.584 87.438)"/></g><clipPath id="w"><path transform="matrix(1.03662 0 0 -1.0458 49.5 97.46)" d="M0 .055h25.32v25.776H0z" fill-rule="evenodd"/></clipPath><g clip-path="url(#w)"><use xlink:href="#p" transform="matrix(14.60388 0 0 -14.73316 70.622 84.426)"/></g></g></g><clipPath id="x"><path transform="matrix(1 0 0 -1 0 164.88)" d="M0 164.88h301.92V0H0" fill-rule="evenodd"/></clipPath><g clip-path="url(#x)"><path stroke-width="2" stroke-linecap="round" stroke-linejoin="round" fill="none" stroke="#000" d="M141.53 68.1v15.136"/></g><path stroke-width="2" stroke-linecap="round" stroke-linejoin="round" fill="none" stroke="#000" d="M127.79 83.236h27.69M128.63 92.127c8.26-5.279 17.75-5.279 26.01 0"/><clipPath id="y"><path transform="matrix(1 0 0 -1 0 164.88)" d="M0 164.88h301.92V0H0" fill-rule="evenodd"/></clipPath><g clip-path="url(#y)"><path stroke-width="2" stroke-linecap="round" stroke-linejoin="round" fill="none" stroke="#000" d="M141.53 89.61v27.071"/></g><clipPath id="z"><path transform="matrix(1 0 0 -1 0 164.88)" d="M0 164.88h301.92V0H0" fill-rule="evenodd"/></clipPath><g clip-path="url(#z)"><path stroke-width="2" stroke-linecap="round" stroke-linejoin="round" fill="none" stroke="#000" d="M141.53 68.1v15.136"/></g><path stroke-width="2" stroke-linecap="round" stroke-linejoin="round" fill="none" stroke="#000" d="M127.79 83.236h27.69M128.63 92.127c8.26-5.279 17.75-5.279 26.01 0"/><clipPath id="A"><path transform="matrix(1 0 0 -1 0 164.88)" d="M0 164.88h301.92V0H0" fill-rule="evenodd"/></clipPath><g clip-path="url(#A)"><path stroke-width="2" stroke-linecap="round" stroke-linejoin="round" fill="none" stroke="#000" d="M141.53 89.61v27.071"/></g><clipPath id="B"><path transform="matrix(1 0 0 -1 0 164.88)" d="M0 164.88h301.92V0H0" fill-rule="evenodd"/></clipPath><g clip-path="url(#B)"><path stroke-width="2" stroke-linecap="round" stroke-linejoin="round" fill="none" stroke="#000" d="M141.44 109.163v26.651"/></g><path stroke-width="2" stroke-linecap="round" stroke-linejoin="round" fill="none" stroke="#000" d="M132.99 135.814h16.13M135.79 140.256h10.72M139.75 144.698h3.17"/><clipPath id="C"><path transform="matrix(1 0 0 -1 0 164.88)" d="M0 164.88h301.92V0H0" fill-rule="evenodd"/></clipPath><g clip-path="url(#C)"><path stroke-width="2" stroke-linecap="round" stroke-linejoin="round" fill="none" stroke="#000" d="M141.44 109.163v26.651"/></g><path stroke-width="2" stroke-linecap="round" stroke-linejoin="round" fill="none" stroke="#000" d="M132.99 135.814h16.13M135.79 140.256h10.72M139.75 144.698h3.17M141.44 29.27h24.3M141.44 29.27H55.493"/><clipPath id="D"><path transform="matrix(1 0 0 -1 0 164.88)" d="M0 164.88h301.92V0H0" fill-rule="evenodd"/></clipPath><g clip-path="url(#D)"><path stroke-width="2" stroke-linecap="round" stroke-linejoin="round" fill="none" stroke="#000" d="M79.332 48.41v15.51"/></g><path stroke-width="2" stroke-linecap="round" stroke-linejoin="round" fill="none" stroke="#000" d="M65.247 63.92h28.374M66.107 73.035c8.467-5.279 18.187-5.279 26.654 0"/><clipPath id="E"><path transform="matrix(1 0 0 -1 0 164.88)" d="M0 164.88h301.92V0H0" fill-rule="evenodd"/></clipPath><g clip-path="url(#E)"><path stroke-width="2" stroke-linecap="round" stroke-linejoin="round" fill="none" stroke="#000" d="M79.332 70.455v27.743"/></g><clipPath id="F"><path transform="matrix(1 0 0 -1 0 164.88)" d="M0 164.88h301.92V0H0" fill-rule="evenodd"/></clipPath><g clip-path="url(#F)"><path stroke-width="2" stroke-linecap="round" stroke-linejoin="round" fill="none" stroke="#000" d="M79.332 48.41v15.51"/></g><path stroke-width="2" stroke-linecap="round" stroke-linejoin="round" fill="none" stroke="#000" d="M65.247 63.92h28.374M66.107 73.035c8.467-5.279 18.187-5.279 26.654 0"/><clipPath id="G"><path transform="matrix(1 0 0 -1 0 164.88)" d="M0 164.88h301.92V0H0" fill-rule="evenodd"/></clipPath><g clip-path="url(#G)"><path stroke-width="2" stroke-linecap="round" stroke-linejoin="round" fill="none" stroke="#000" d="M79.332 70.455v27.743"/></g><clipPath id="H"><path transform="matrix(1 0 0 -1 0 164.88)" d="M0 164.88h301.92V0H0" fill-rule="evenodd"/></clipPath><g clip-path="url(#H)"><path stroke-width="2" stroke-linecap="round" stroke-linejoin="round" fill="none" stroke="#000" d="M79.373 109.163v26.651"/></g><path stroke-width="2" stroke-linecap="round" stroke-linejoin="round" fill="none" stroke="#000" d="M70.921 135.814h16.136M73.72 140.256h10.724M77.682 144.698h3.17"/><clipPath id="I"><path transform="matrix(1 0 0 -1 0 164.88)" d="M0 164.88h301.92V0H0" fill-rule="evenodd"/></clipPath><g clip-path="url(#I)"><path stroke-width="2" stroke-linecap="round" stroke-linejoin="round" fill="none" stroke="#000" d="M79.373 109.163v26.651"/></g><path stroke-width="2" stroke-linecap="round" stroke-linejoin="round" fill="none" stroke="#000" d="M70.921 135.814h16.136M73.72 140.256h10.724M77.682 144.698h3.17"/><clipPath id="J"><path transform="matrix(1 0 0 -1 0 164.88)" d="M0 164.88h301.92V0H0" fill-rule="evenodd"/></clipPath><g clip-path="url(#J)"><path stroke-width="2" stroke-linecap="round" stroke-linejoin="round" fill="none" stroke="#000" d="M79.373 113.1v-18"/></g><clipPath id="K"><path transform="matrix(1 0 0 -1 0 164.88)" d="M0 164.88h301.92V0H0" fill-rule="evenodd"/></clipPath><g clip-path="url(#K)"><path stroke-width="2" stroke-linecap="round" stroke-linejoin="round" fill="none" stroke="#000" d="M79.332 48.41V29.27"/></g><clipPath id="L"><path transform="matrix(1 0 0 -1 0 164.88)" d="M105.84 83.778h25.2V58.067h-25.2v25.711z" fill-rule="evenodd"/></clipPath><g clip-path="url(#L)"><clipPath id="M"><path transform="matrix(.99571 0 0 -.99396 105.84 106.813)" d="M0 0h25.308v25.867H0z" fill-rule="evenodd"/></clipPath><g clip-path="url(#M)"><clipPath id="N"><path transform="matrix(.99571 0 0 -.99396 105.84 106.813)" d="M0 .02h25.344v25.847H0z" fill-rule="evenodd"/></clipPath><g clip-path="url(#N)"><use xlink:href="#t" transform="matrix(14.07543 0 0 -14.05062 111.69 94.428)"/></g><clipPath id="O"><path transform="matrix(.99571 0 0 -.99396 105.84 106.813)" d="M0 .02h25.344v25.847H0z" fill-rule="evenodd"/></clipPath><g clip-path="url(#O)"><symbol id="P"><path d="M.315.12C.337.12.352.12.363.124.373.127.38.133.387.14c.006.008.011.02.015.035h.056L.448 0H0v.032a.986.986 0 0 0 .154.223c.035.041.062.075.08.102a.362.362 0 0 1 .041.076C.285.456.29.48.29.506A.132.132 0 0 1 .265.59.078.078 0 0 1 .2.621C.147.621.113.583.098.506H.01v.116a.804.804 0 0 0 .128.042.5.5 0 0 0 .103.01.3.3 0 0 0 .117-.02.133.133 0 0 0 .066-.051.141.141 0 0 0 .02-.077A.176.176 0 0 0 .43.454.317.317 0 0 0 .38.378 1.52 1.52 0 0 0 .26.257 1.15 1.15 0 0 1 .143.125V.12h.173z"/></symbol><use xlink:href="#P" transform="matrix(9.98901 0 0 -9.9714 120.09 97.204)"/></g><clipPath id="Q"><path transform="matrix(.99571 0 0 -.99396 105.84 106.813)" d="M0 .02h25.344v25.847H0z" fill-rule="evenodd"/></clipPath><g clip-path="url(#Q)"><use xlink:href="#p" transform="matrix(14.07543 0 0 -14.05062 126.129 94.318)"/></g></g></g><path stroke-width="2" stroke-linecap="round" stroke-linejoin="round" fill="none" stroke="#000" d="M204.82 29.16h-7.43"/><clipPath id="R"><path transform="matrix(1 0 0 -1 0 164.88)" d="M0 164.88h301.92V0H0" fill-rule="evenodd"/></clipPath><g clip-path="url(#R)"><path stroke-width="2" stroke-linecap="round" stroke-linejoin="round" fill="none" stroke="#000" d="m197.39 29.16-2.26 8.24"/></g><clipPath id="S"><path transform="matrix(1 0 0 -1 0 164.88)" d="M0 164.88h301.92V0H0" fill-rule="evenodd"/></clipPath><g clip-path="url(#S)"><path stroke-width="2" stroke-linecap="round" stroke-linejoin="round" fill="none" stroke="#000" d="m195.13 37.4-3.83-16.31"/></g><clipPath id="T"><path transform="matrix(1 0 0 -1 0 164.88)" d="M0 164.88h301.92V0H0" fill-rule="evenodd"/></clipPath><g clip-path="url(#T)"><path stroke-width="2" stroke-linecap="round" stroke-linejoin="round" fill="none" stroke="#000" d="m191.3 21.09-3.83 16.31"/></g><clipPath id="U"><path transform="matrix(1 0 0 -1 0 164.88)" d="M0 164.88h301.92V0H0" fill-rule="evenodd"/></clipPath><g clip-path="url(#U)"><path stroke-width="2" stroke-linecap="round" stroke-linejoin="round" fill="none" stroke="#000" d="m187.47 37.4-4.08-16.31-4.08 16.31"/></g><clipPath id="V"><path transform="matrix(1 0 0 -1 0 164.88)" d="M0 164.88h301.92V0H0" fill-rule="evenodd"/></clipPath><g clip-path="url(#V)"><path stroke-width="2" stroke-linecap="round" stroke-linejoin="round" fill="none" stroke="#000" d="m179.31 37.4-4.6-16.31-2.55 8.19h-6.12"/></g><path stroke-width="2" stroke-linecap="round" stroke-linejoin="round" fill="none" stroke="#000" d="M204.82 29.16h-7.43"/><clipPath id="W"><path transform="matrix(1 0 0 -1 0 164.88)" d="M0 164.88h301.92V0H0" fill-rule="evenodd"/></clipPath><g clip-path="url(#W)"><path stroke-width="2" stroke-linecap="round" stroke-linejoin="round" fill="none" stroke="#000" d="m197.39 29.16-2.26 8.24"/></g><clipPath id="X"><path transform="matrix(1 0 0 -1 0 164.88)" d="M0 164.88h301.92V0H0" fill-rule="evenodd"/></clipPath><g clip-path="url(#X)"><path stroke-width="2" stroke-linecap="round" stroke-linejoin="round" fill="none" stroke="#000" d="m195.13 37.4-3.83-16.31"/></g><clipPath id="Y"><path transform="matrix(1 0 0 -1 0 164.88)" d="M0 164.88h301.92V0H0" fill-rule="evenodd"/></clipPath><g clip-path="url(#Y)"><path stroke-width="2" stroke-linecap="round" stroke-linejoin="round" fill="none" stroke="#000" d="m191.3 21.09-3.83 16.31"/></g><clipPath id="Z"><path transform="matrix(1 0 0 -1 0 164.88)" d="M0 164.88h301.92V0H0" fill-rule="evenodd"/></clipPath><g clip-path="url(#Z)"><path stroke-width="2" stroke-linecap="round" stroke-linejoin="round" fill="none" stroke="#000" d="m187.47 37.4-4.08-16.31-4.08 16.31"/></g><clipPath id="aa"><path transform="matrix(1 0 0 -1 0 164.88)" d="M0 164.88h301.92V0H0" fill-rule="evenodd"/></clipPath><g clip-path="url(#aa)"><path stroke-width="2" stroke-linecap="round" stroke-linejoin="round" fill="none" stroke="#000" d="m179.31 37.4-4.6-16.31-2.55 8.19h-6.12"/></g><clipPath id="ab"><path transform="matrix(1 0 0 -1 0 164.88)" d="M0 164.88h301.92V0H0" fill-rule="evenodd"/></clipPath><g clip-path="url(#ab)"><path stroke-width="2" stroke-linecap="round" stroke-linejoin="round" fill="none" stroke="#000" d="M219.14 49.68v15.506"/></g><path stroke-width="2" stroke-linecap="round" stroke-linejoin="round" fill="none" stroke="#000" d="M205.05 65.186h28.38M205.91 74.297c8.47-5.279 18.19-5.279 26.66 0"/><clipPath id="ac"><path transform="matrix(1 0 0 -1 0 164.88)" d="M0 164.88h301.92V0H0" fill-rule="evenodd"/></clipPath><g clip-path="url(#ac)"><path stroke-width="2" stroke-linecap="round" stroke-linejoin="round" fill="none" stroke="#000" d="M219.14 71.718V99.46"/></g><clipPath id="ad"><path transform="matrix(1 0 0 -1 0 164.88)" d="M0 164.88h301.92V0H0" fill-rule="evenodd"/></clipPath><g clip-path="url(#ad)"><path stroke-width="2" stroke-linecap="round" stroke-linejoin="round" fill="none" stroke="#000" d="M219.14 49.68v15.506"/></g><path stroke-width="2" stroke-linecap="round" stroke-linejoin="round" fill="none" stroke="#000" d="M205.05 65.186h28.38M205.91 74.297c8.47-5.279 18.19-5.279 26.66 0"/><clipPath id="ae"><path transform="matrix(1 0 0 -1 0 164.88)" d="M0 164.88h301.92V0H0" fill-rule="evenodd"/></clipPath><g clip-path="url(#ae)"><path stroke-width="2" stroke-linecap="round" stroke-linejoin="round" fill="none" stroke="#000" d="M219.14 71.718V99.46"/></g><clipPath id="af"><path transform="matrix(1 0 0 -1 0 164.88)" d="M0 164.88h301.92V0H0" fill-rule="evenodd"/></clipPath><g clip-path="url(#af)"><path stroke-width="2" stroke-linecap="round" stroke-linejoin="round" fill="none" stroke="#000" d="M219.18 110.425v26.651"/></g><path stroke-width="2" stroke-linecap="round" stroke-linejoin="round" fill="none" stroke="#000" d="M210.73 137.076h16.13M213.53 141.518h10.72M217.49 145.96h3.17"/><clipPath id="ag"><path transform="matrix(1 0 0 -1 0 164.88)" d="M0 164.88h301.92V0H0" fill-rule="evenodd"/></clipPath><g clip-path="url(#ag)"><path stroke-width="2" stroke-linecap="round" stroke-linejoin="round" fill="none" stroke="#000" d="M219.18 110.425v26.651"/></g><path stroke-width="2" stroke-linecap="round" stroke-linejoin="round" fill="none" stroke="#000" d="M210.73 137.076h16.13M213.53 141.518h10.72M217.49 145.96h3.17"/><clipPath id="ah"><path transform="matrix(1 0 0 -1 0 164.88)" d="M0 164.88h301.92V0H0" fill-rule="evenodd"/></clipPath><g clip-path="url(#ah)"><path stroke-width="2" stroke-linecap="round" stroke-linejoin="round" fill="none" stroke="#000" d="M219.18 114.363v-18"/></g><clipPath id="ai"><path transform="matrix(1 0 0 -1 0 164.88)" d="M0 164.88h301.92V0H0" fill-rule="evenodd"/></clipPath><g clip-path="url(#ai)"><path stroke-width="2" stroke-linecap="round" stroke-linejoin="round" fill="none" stroke="#000" d="M219.14 49.68V30.53"/></g><path stroke-width="2" stroke-linecap="round" stroke-linejoin="round" fill="none" stroke="#000" d="M204.82 29.16h34.05"/><path d="M52.935 29.27c0-1.41 1.145-2.56 2.558-2.56a2.561 2.561 0 0 1 0 5.12 2.561 2.561 0 0 1-2.558-2.56z" fill-rule="evenodd"/><path stroke-width="2" stroke-linecap="round" stroke-linejoin="round" fill="none" stroke="#000" d="M52.935 29.27c0-1.41 1.145-2.56 2.558-2.56a2.561 2.561 0 0 1 0 5.12 2.561 2.561 0 0 1-2.558-2.56z"/><path d="M236.31 29.16c0-1.42 1.14-2.56 2.56-2.56 1.41 0 2.56 1.14 2.56 2.56 0 1.41-1.15 2.55-2.56 2.55a2.55 2.55 0 0 1-2.56-2.55z" fill-rule="evenodd"/><path stroke-width="2" stroke-linecap="round" stroke-linejoin="round" fill="none" stroke="#000" d="M236.31 29.16c0-1.42 1.14-2.56 2.56-2.56 1.41 0 2.56 1.14 2.56 2.56 0 1.41-1.15 2.55-2.56 2.55a2.55 2.55 0 0 1-2.56-2.55z"/><clipPath id="aj"><path transform="matrix(1 0 0 -1 0 164.88)" d="M248.23 120.17h34.809v25.71H248.23z" fill-rule="evenodd"/></clipPath><g clip-path="url(#aj)"><clipPath id="ak"><path transform="matrix(.997 0 0 -.99396 248.23 44.71)" d="M0 0h34.913v25.867H0z" fill-rule="evenodd"/></clipPath><g clip-path="url(#ak)"><clipPath id="al"><path transform="matrix(.997 0 0 -.99396 248.23 44.71)" d="M0 .02h34.92v25.847H0z" fill-rule="evenodd"/></clipPath><g clip-path="url(#al)"><symbol id="am"><path d="M.366.457a.83.83 0 0 1 .047.095.137.137 0 0 1 .008.045c0 .024-.013.037-.041.04L.387.67h.208L.588.638a.08.08 0 0 1-.03-.014.11.11 0 0 1-.025-.025A.58.58 0 0 1 .5.545L.197 0H.074l-.02.522a.517.517 0 0 1-.005.05.133.133 0 0 1-.009.036.046.046 0 0 1-.016.02.051.051 0 0 1-.024.01L.007.67H.26L.252.638A.062.062 0 0 1 .22.627.053.053 0 0 1 .202.602.168.168 0 0 1 .197.555V.511L.201.34.203.16h.005l.158.297z"/></symbol><use xlink:href="#am" transform="matrix(14.09347 0 -.00001 -14.05062 248.884 32.263)"/></g><clipPath id="an"><path transform="matrix(.997 0 0 -.99396 248.23 44.71)" d="M0 .02h34.92v25.847H0z" fill-rule="evenodd"/></clipPath><g clip-path="url(#an)"><symbol id="ao"><path d="M.575.667.536.49H.474a.342.342 0 0 1-.007.075.06.06 0 0 1-.019.033.053.053 0 0 1-.036.011H.37L.264.132A.36.36 0 0 1 .257.075C.257.06.261.049.27.043a.064.064 0 0 1 .036-.01L.298 0h-.26l.007.032A.07.07 0 0 1 .08.045.071.071 0 0 1 .1.074a.327.327 0 0 1 .018.058l.105.477H.184A.098.098 0 0 1 .141.601.116.116 0 0 1 .104.567.315.315 0 0 1 .064.5H0l.037.167h.538z"/></symbol><symbol id="ap"><path d="M.294.058C.31.058.322.06.33.062a.072.072 0 0 1 .024.012.198.198 0 0 1 .05.061.476.476 0 0 1 .025.059h.067L.447 0H0l.007.032a.07.07 0 0 1 .04.028.231.231 0 0 1 .026.072l.089.403c.004.019.006.038.006.057 0 .013-.003.023-.01.03-.006.006-.016.01-.03.012l.006.033H.38L.373.634A.07.07 0 0 1 .332.607.231.231 0 0 1 .307.535L.202.058h.092z"/></symbol><use xlink:href="#t" transform="matrix(10.00182 0 -.00001 -9.9714 258.006 35.18)"/><use xlink:href="#ao" transform="matrix(10.00182 0 -.00001 -9.9714 263.89 35.101)"/><use xlink:href="#l" transform="matrix(10.00182 0 -.00001 -9.9714 270.027 35.101)"/><use xlink:href="#ap" transform="matrix(10.00182 0 -.00001 -9.9714 277.028 35.101)"/></g><clipPath id="aq"><path transform="matrix(.997 0 0 -.99396 248.23 44.71)" d="M0 .02h34.92v25.847H0z" fill-rule="evenodd"/></clipPath><g clip-path="url(#aq)"><use xlink:href="#p" transform="matrix(14.09347 0 -.00001 -14.05062 283.045 32.215)"/></g></g></g><clipPath id="ar"><path transform="matrix(1 0 0 -1 0 164.88)" d="M109.8 122.54H135V96.83h-25.2v25.71z" fill-rule="evenodd"/></clipPath><g clip-path="url(#ar)"><clipPath id="as"><path transform="matrix(.99571 0 0 -.99396 109.8 68.05)" d="M0 0h25.308v25.867H0z" fill-rule="evenodd"/></clipPath><g clip-path="url(#as)"><clipPath id="at"><path transform="matrix(.99571 0 0 -.99396 109.8 68.05)" d="M0 .02h25.344v25.847H0z" fill-rule="evenodd"/></clipPath><g clip-path="url(#at)"><use xlink:href="#l" transform="matrix(14.07543 0 0 -14.05062 114.637 55.555)"/></g><clipPath id="au"><path transform="matrix(.99571 0 0 -.99396 109.8 68.05)" d="M0 .02h25.344v25.847H0z" fill-rule="evenodd"/></clipPath><g clip-path="url(#au)"><use xlink:href="#P" transform="matrix(9.98901 0 0 -9.9714 124.647 58.441)"/></g><clipPath id="av"><path transform="matrix(.99571 0 0 -.99396 109.8 68.05)" d="M0 .02h25.344v25.847H0z" fill-rule="evenodd"/></clipPath><g clip-path="url(#av)"><use xlink:href="#p" transform="matrix(14.07543 0 0 -14.05062 130.59 55.555)"/></g></g></g><clipPath id="aw"><path transform="matrix(1 0 0 -1 0 164.88)" d="M184.27 94.768h25.2v-25.71h-25.2v25.71z" fill-rule="evenodd"/></clipPath><g clip-path="url(#aw)"><clipPath id="ax"><path transform="matrix(.99571 0 0 -.99396 184.27 95.822)" d="M0 0h25.308v25.867H0z" fill-rule="evenodd"/></clipPath><g clip-path="url(#ax)"><clipPath id="ay"><path transform="matrix(.99571 0 0 -.99396 184.27 95.822)" d="M0 .02h25.344v25.847H0z" fill-rule="evenodd"/></clipPath><g clip-path="url(#ay)"><use xlink:href="#t" transform="matrix(14.07543 0 0 -14.05062 190.12 83.437)"/></g><clipPath id="az"><path transform="matrix(.99571 0 0 -.99396 184.27 95.822)" d="M0 .02h25.344v25.847H0z" fill-rule="evenodd"/></clipPath><g clip-path="url(#az)"><use xlink:href="#n" transform="matrix(9.98901 0 0 -9.9714 198.612 86.291)"/></g><clipPath id="aA"><path transform="matrix(.99571 0 0 -.99396 184.27 95.822)" d="M0 .02h25.344v25.847H0z" fill-rule="evenodd"/></clipPath><g clip-path="url(#aA)"><use xlink:href="#p" transform="matrix(14.07543 0 0 -14.05062 204.559 83.327)"/></g></g></g><clipPath id="aB"><path transform="matrix(1 0 0 -1 0 164.88)" d="M19 113.14h52.243v27.553H19z" fill-rule="evenodd"/></clipPath><g clip-path="url(#aB)"><clipPath id="aC"><path transform="matrix(.9982 0 0 -.99424 19 51.74)" d="M0 0h52.338v27.712H0z" fill-rule="evenodd"/></clipPath><g clip-path="url(#aC)"><clipPath id="aD"><path transform="matrix(.9982 0 0 -.99424 19 51.74)" d="M0-.008h52.296v27.72H0z" fill-rule="evenodd"/></clipPath><g clip-path="url(#aD)"><use xlink:href="#t" transform="matrix(14.08652 0 0 -14.03073 19.929 37.373)"/></g><clipPath id="aE"><path transform="matrix(.9982 0 0 -.99424 19 51.74)" d="M0-.008h52.296v27.72H0z" fill-rule="evenodd"/></clipPath><g clip-path="url(#aE)"><symbol id="aF"><path d="M.378.667A.807.807 0 0 0 .46.663.223.223 0 0 0 .522.648a.15.15 0 0 0 .051-.03.12.12 0 0 0 .031-.045.16.16 0 0 0 .011-.06A.215.215 0 0 0 .537.34.25.25 0 0 0 .444.29.485.485 0 0 0 .315.277H.3c-.02 0-.037 0-.05.002L.218.132A.31.31 0 0 1 .212.075C.212.06.216.049.223.043A.064.064 0 0 1 .26.033L.252 0H0l.007.032a.07.07 0 0 1 .04.028.231.231 0 0 1 .026.072l.089.403c.004.019.006.038.006.057 0 .013-.003.023-.01.03-.006.006-.016.01-.03.012l.006.033h.244M.288.333c.045 0 .08.007.104.021a.135.135 0 0 1 .055.063c.012.028.019.06.019.094C.466.544.458.57.442.585.427.601.403.609.371.609a.99.99 0 0 1-.048 0L.263.332H.29z"/></symbol><use xlink:href="#aF" transform="matrix(14.08652 0 0 -14.03073 28.16 37.264)"/></g><clipPath id="aG"><path transform="matrix(.9982 0 0 -.99424 19 51.74)" d="M0-.008h52.296v27.72H0z" fill-rule="evenodd"/></clipPath><g clip-path="url(#aG)"><symbol id="aH"><path d="M.182 0a.223.223 0 0 0-.095.019.148.148 0 0 0-.064.059A.189.189 0 0 0 0 .174c0 .038.006.078.018.12.012.043.03.08.056.112a.232.232 0 0 0 .092.071A.308.308 0 0 0 .287.5.21.21 0 0 0 .39.478a.138.138 0 0 0 .06-.062.2.2 0 0 0 .02-.092.41.41 0 0 0-.021-.13.315.315 0 0 0-.06-.108.23.23 0 0 0-.09-.065A.31.31 0 0 0 .183 0m-.05.142A.13.13 0 0 1 .145.073C.156.058.172.051.193.051c.028 0 .052.013.072.04.02.027.038.068.051.122.014.054.02.101.02.141a.133.133 0 0 1-.014.072C.312.442.297.45.276.45.249.45.225.436.205.41A.587.587 0 0 1 .132.142z"/></symbol><symbol id="aI"><path d="M.435.492h.14L.495.154A.215.215 0 0 1 .49.104C.49.094.491.085.495.08.498.074.505.07.513.07c.01 0 .021.005.033.014.012.01.025.023.04.041L.623.09A.397.397 0 0 0 .534.019.169.169 0 0 0 .456 0 .091.091 0 0 0 .39.022a.08.08 0 0 0-.024.06c0 .009 0 .016.003.024L.365.11A.384.384 0 0 0 .277.027.173.173 0 0 0 .181 0C.148 0 .121.01.103.028a.105.105 0 0 0-.028.077.325.325 0 0 0 .01.081l.04.152C.13.36.133.38.133.396.133.408.13.417.126.422a.023.023 0 0 1-.018.007C.1.43.088.425.077.416A.33.33 0 0 1 .035.375L0 .41a.391.391 0 0 0 .087.07C.112.493.14.5.17.5.203.5.229.491.244.474.26.457.27.432.27.4a.385.385 0 0 0-.015-.09L.233.227a.502.502 0 0 1-.02-.112C.213.085.224.07.247.07c.01 0 .022.004.034.012.012.008.025.02.04.036a.221.221 0 0 1 .036.053c.01.02.018.043.023.07l.055.25z"/></symbol><symbol id="aJ"><path d="M.312.097A.345.345 0 0 0 .22.02.21.21 0 0 0 .124 0C.086 0 .058.01.038.028a.105.105 0 0 0-.03.08c0 .015.001.03.004.043l.014.068.05.212H0l.01.04A.16.16 0 0 1 .06.477c.012.004.022.01.03.02a.132.132 0 0 1 .023.038.678.678 0 0 1 .026.08h.117L.23.491h.119L.334.432h-.12L.168.235A1.548 1.548 0 0 1 .15.159.27.27 0 0 1 .146.115C.146.1.149.09.154.082.16.075.168.072.18.072a.08.08 0 0 1 .045.015c.015.01.032.026.05.048L.312.097z"/></symbol><symbol id="aK"><path d="M.257.592a.36.36 0 0 0 .087.084c.028.017.06.026.097.026a.1.1 0 0 0 .086-.04.187.187 0 0 0 .03-.116.463.463 0 0 0-.018-.13.347.347 0 0 0-.055-.113.256.256 0 0 0-.212-.1.238.238 0 0 0-.084.014L.17.13A.99.99 0 0 1 .162.075c0-.014.003-.024.01-.03A.073.073 0 0 1 .21.031L.205 0H.002l.123.55a.247.247 0 0 1 .008.048c0 .01-.002.019-.006.025C.124.628.117.63.11.63A.055.055 0 0 1 .076.618a.312.312 0 0 1-.04-.04L0 .611a.38.38 0 0 0 .086.07.17.17 0 0 0 .08.02A.09.09 0 0 0 .232.68.077.077 0 0 0 .255.62.092.092 0 0 0 .252.597L.257.592M.222.391A.334.334 0 0 1 .214.32c0-.024.004-.041.012-.051.008-.01.022-.016.04-.016.017 0 .032.004.045.01.013.008.026.02.038.037a.53.53 0 0 1 .076.26.103.103 0 0 1-.01.053.035.035 0 0 1-.033.017C.36.63.338.62.316.6A.245.245 0 0 1 .263.526.553.553 0 0 1 .226.409L.222.39z"/></symbol><use xlink:href="#aH" transform="matrix(9.98993 0 0 -9.95036 37.911 40.205)"/><use xlink:href="#aI" transform="matrix(9.98993 0 0 -9.95036 43.286 40.205)"/><use xlink:href="#aJ" transform="matrix(9.98993 0 0 -9.95036 50.133 40.205)"/><use xlink:href="#aK" transform="matrix(9.98993 0 0 -9.95036 53.875 42.216)"/><use xlink:href="#aI" transform="matrix(9.98993 0 0 -9.95036 60.07 40.205)"/><use xlink:href="#aJ" transform="matrix(9.98993 0 0 -9.95036 66.916 40.205)"/></g><clipPath id="aL"><path transform="matrix(.9982 0 0 -.99424 19 51.74)" d="M0-.008h52.296v27.72H0z" fill-rule="evenodd"/></clipPath><g clip-path="url(#aL)"><use xlink:href="#p" transform="matrix(14.08652 0 0 -14.03073 71.202 37.264)"/></g></g></g></svg>