<svg xmlns="http://www.w3.org/2000/svg" xmlns:xlink="http://www.w3.org/1999/xlink" width="693.6" height="318.24" viewBox="0 0 520.2 238.68"><clipPath id="a"><path transform="matrix(1 0 0 -1 0 238.68)" d="M0 238.68h520.2V0H0" fill-rule="evenodd"/></clipPath><g clip-path="url(#a)"><path stroke-width="2" stroke-linecap="round" stroke-dasharray="0,6" stroke-linejoin="round" fill="none" stroke="#0070c0" d="M428.37 193.865V25.05"/></g><clipPath id="b"><path transform="matrix(1 0 0 -1 0 238.68)" d="M0 238.68h520.2V0H0" fill-rule="evenodd"/></clipPath><g clip-path="url(#b)"><path stroke-width="2" stroke-linecap="round" stroke-dasharray="0,6" stroke-linejoin="round" fill="none" stroke="red" d="M154.12 193.865V24.27"/></g><clipPath id="c"><path transform="matrix(1 0 0 -1 0 238.68)" d="M0 238.68h520.2V0H0" fill-rule="evenodd"/></clipPath><g clip-path="url(#c)"><path stroke-width="2" stroke-linecap="round" stroke-dasharray="0,6" stroke-linejoin="round" fill="none" stroke="red" d="M414.87 193.865V24.48"/></g><clipPath id="d"><path transform="matrix(1 0 0 -1 0 238.68)" d="M0 238.68h520.2V0H0" fill-rule="evenodd"/></clipPath><g clip-path="url(#d)"><path stroke-width="2" stroke-linecap="round" stroke-dasharray="0,6" stroke-linejoin="round" fill="none" stroke="#0070c0" d="M275.37 193.865V24.58"/></g><clipPath id="e"><path transform="matrix(1 0 0 -1 0 238.68)" d="M0 238.68h520.2V0H0" fill-rule="evenodd"/></clipPath><g clip-path="url(#e)"><path stroke-width="2" stroke-linecap="round" stroke-dasharray="0,6" stroke-linejoin="round" fill="none" stroke="#0070c0" d="M128.25 193.865V25.13"/></g><clipPath id="f"><path transform="matrix(1 0 0 -1 0 238.68)" d="M19 60.688h42.746V82.43H19z" fill-rule="evenodd"/></clipPath><g clip-path="url(#f)"><clipPath id="g"><path transform="matrix(1.03743 0 0 -1.04457 19 177.992)" d="M0 0h41.203v20.814H0z" fill-rule="evenodd"/></clipPath><g clip-path="url(#g)"><clipPath id="h"><path transform="matrix(1.03743 0 0 -1.04457 19 177.992)" d="M0 .102h41.232v20.712H0z" fill-rule="evenodd"/></clipPath><g clip-path="url(#h)"><symbol id="i"><path d="m0 0 .007.032a.07.07 0 0 1 .04.028.231.231 0 0 1 .026.072l.089.403c.004.019.006.038.006.057 0 .013-.003.023-.01.03-.006.006-.016.01-.03.012l.006.033h.198a.752.752 0 0 0 .129-.01.273.273 0 0 0 .08-.026.206.206 0 0 0 .058-.042A.197.197 0 0 0 .64.518a.29.29 0 0 0 .015-.1.52.52 0 0 0-.014-.125.43.43 0 0 0-.044-.11A.348.348 0 0 0 .36.009.666.666 0 0 0 .24 0H0m.202.06A.437.437 0 0 1 .238.058c.042 0 .078.008.109.025.03.016.057.041.08.075a.402.402 0 0 1 .056.125.55.55 0 0 1 .02.148.274.274 0 0 1-.01.084A.143.143 0 0 1 .46.57.109.109 0 0 1 .416.6.162.162 0 0 1 .36.61L.323.607.203.06z"/></symbol><symbol id="j"><path d="M.71.48C.723.506.733.53.74.546c.007.018.01.033.01.044 0 .01 0 .018-.003.024a.03.03 0 0 1-.013.014.066.066 0 0 1-.025.009L.717.67h.208L.917.638A.073.073 0 0 1 .89.626.114.114 0 0 1 .865.603a1.95 1.95 0 0 1-.05-.086L.534 0H.417v.464H.411A1.323 1.323 0 0 0 .378.396L.18 0H.062l-.01.52a.32.32 0 0 1-.007.07.073.073 0 0 1-.016.034A.049.049 0 0 1 0 .638L.007.67h.25L.25.638A.078.078 0 0 1 .225.63.044.044 0 0 1 .21.617.06.06 0 0 1 .2.597.131.131 0 0 1 .197.572V.51L.193.328C.194.295.192.243.19.172h.007c.01.025.035.074.071.147l.176.35H.55V.35L.552.307c0-.046 0-.09-.003-.135h.006l.083.165.072.142z"/></symbol><symbol id="k"><path d="M.134.667H.32L.414.39C.44.315.46.25.475.19h.006c.01.057.022.12.038.188l.034.157a.27.27 0 0 1 .006.057c0 .013-.003.023-.01.03C.543.628.533.632.52.634l.006.033h.18L.698.634a.07.07 0 0 1-.04-.027.231.231 0 0 1-.026-.072L.515 0H.403L.286.341a2.763 2.763 0 0 0-.05.164H.229A2.52 2.52 0 0 0 .187.291L.152.131A.31.31 0 0 1 .146.076c0-.014.003-.024.01-.03a.056.056 0 0 1 .03-.013L.18 0H0l.007.032a.07.07 0 0 1 .04.028.231.231 0 0 1 .026.072l.089.403c.004.019.006.038.006.057 0 .013-.003.023-.01.03-.006.006-.016.01-.03.012l.006.033z"/></symbol><use xlink:href="#i" transform="matrix(10.35772 0 0 -10.42903 27.654 166.178)"/><use xlink:href="#j" transform="matrix(10.35772 0 0 -10.42903 35.562 166.214)"/><use xlink:href="#k" transform="matrix(10.35772 0 0 -10.42903 45.46 166.178)"/></g><clipPath id="l"><path transform="matrix(1.03743 0 0 -1.04457 19 177.992)" d="M0 .102h41.232v20.712H0z" fill-rule="evenodd"/></clipPath><g clip-path="url(#l)"><symbol id="m"><path d="M0 0z"/></symbol><use xlink:href="#m" transform="matrix(10.35772 0 0 -10.42903 53.31 166.178)"/></g></g></g><clipPath id="n"><path transform="matrix(1 0 0 -1 0 238.68)" d="M22.373 155.57h42.746v21.742H22.373z" fill-rule="evenodd"/></clipPath><g clip-path="url(#n)"><clipPath id="o"><path transform="matrix(1.03743 0 0 -1.04457 22.373 83.11)" d="M0 0h41.203v20.814H0z" fill-rule="evenodd"/></clipPath><g clip-path="url(#o)"><clipPath id="p"><path transform="matrix(1.03743 0 0 -1.04457 22.373 83.11)" d="M0 .102h41.232v20.712H0z" fill-rule="evenodd"/></clipPath><g clip-path="url(#p)"><symbol id="q"><path d="M.44.305A.181.181 0 0 0 .482.26.21.21 0 0 0 .505.194L.52.126A.318.318 0 0 1 .534.073a.078.078 0 0 1 .02-.026.083.083 0 0 1 .032-.015L.58 0H.405a.78.78 0 0 0-.028.109l-.016.08a.27.27 0 0 1-.016.059.067.067 0 0 1-.023.03.069.069 0 0 1-.038.01h-.03L.217.131A.34.34 0 0 1 .212.075C.212.06.216.049.223.043A.064.064 0 0 1 .26.033L.252 0H0l.007.032a.07.07 0 0 1 .04.028.231.231 0 0 1 .026.072l.089.403c.004.019.006.038.006.057 0 .013-.003.023-.01.03-.006.006-.016.01-.03.012l.006.033h.244A.801.801 0 0 0 .46.663.23.23 0 0 0 .523.648.153.153 0 0 0 .573.62.12.12 0 0 0 .605.575.187.187 0 0 0 .571.391.296.296 0 0 0 .44.31V.305m-.142.04c.042 0 .075.006.098.018a.14.14 0 0 1 .057.06.195.195 0 0 1 .02.092C.473.547.466.57.45.585.433.603.408.61.373.61h-.05L.266.343h.03z"/></symbol><symbol id="r"><path d="M.407.11A.332.332 0 0 0 .301.026.284.284 0 0 0 .178 0 .215.215 0 0 0 .08.02.135.135 0 0 0 .02.08.206.206 0 0 0 0 .172a.393.393 0 0 0 .035.16.268.268 0 0 0 .153.146c.035.014.073.021.114.021.1 0 .15-.036.15-.108A.137.137 0 0 0 .437.327a.141.141 0 0 0-.05-.052A.298.298 0 0 0 .29.238.784.784 0 0 0 .137.222.276.276 0 0 1 .13.162C.13.133.137.11.15.095.161.08.18.071.206.071c.029 0 .055.006.078.017A.37.37 0 0 1 .366.15L.407.11M.148.272a.26.26 0 0 1 .138.035.103.103 0 0 1 .047.09c0 .017-.003.03-.011.038A.04.04 0 0 1 .29.449C.26.45.232.434.208.404a.361.361 0 0 1-.06-.13z"/></symbol><symbol id="s"><path d="m.139.642.008.04c.023 0 .039.001.048.004.01.003.017.008.023.016a.127.127 0 0 1 .017.044c.008.03.019.056.031.076A.188.188 0 0 0 .384.91a.458.458 0 0 0 .18.002L.541.813H.479a.099.099 0 0 1-.01.043C.464.864.455.869.444.869A.04.04 0 0 1 .413.855a.11.11 0 0 1-.02-.037.526.526 0 0 1-.018-.062L.363.703h.105L.455.642H.35L.26.233A.347.347 0 0 0 .178.058.195.195 0 0 0 .034 0C.02 0 .008 0 0 .002l.012.055A.12.12 0 0 1 .029.056c.019 0 .034.01.046.03.013.02.023.052.033.093l.104.463H.14z"/></symbol><use xlink:href="#q" transform="matrix(10.35772 0 0 -10.42903 34.637 71.296)"/><use xlink:href="#r" transform="matrix(10.35772 0 0 -10.42903 42.13 71.377)"/><use xlink:href="#s" transform="matrix(10.35772 0 0 -10.42903 47.324 73.572)"/></g><clipPath id="t"><path transform="matrix(1.03743 0 0 -1.04457 22.373 83.11)" d="M0 .102h41.232v20.712H0z" fill-rule="evenodd"/></clipPath><g clip-path="url(#t)"><use xlink:href="#m" transform="matrix(10.35772 0 0 -10.42903 53.172 71.296)"/></g></g></g><clipPath id="u"><path transform="matrix(1 0 0 -1 0 238.68)" d="M22.373 120.77h42.746v21.742H22.373z" fill-rule="evenodd"/></clipPath><g clip-path="url(#u)"><clipPath id="v"><path transform="matrix(1.03743 0 0 -1.04457 22.373 117.91)" d="M0 0h41.203v20.814H0z" fill-rule="evenodd"/></clipPath><g clip-path="url(#v)"><clipPath id="w"><path transform="matrix(1.03743 0 0 -1.04457 22.373 117.91)" d="M0 .102h41.232v20.712H0z" fill-rule="evenodd"/></clipPath><g clip-path="url(#w)"><symbol id="x"><path d="M.218.132A.31.31 0 0 1 .212.075C.212.06.216.049.223.043A.064.064 0 0 1 .26.033L.252 0H0l.007.032a.07.07 0 0 1 .04.028.231.231 0 0 1 .026.072l.089.403c.004.019.006.038.006.057 0 .013-.003.023-.01.03-.006.006-.016.01-.03.012l.006.033h.462L.562.509H.499A.271.271 0 0 1 .49.574a.049.049 0 0 1-.02.027.07.07 0 0 1-.036.008h-.11L.27.365h.065a.06.06 0 0 1 .046.019.205.205 0 0 1 .036.06h.054L.42.226H.37c0 .023-.002.04-.004.05a.04.04 0 0 1-.013.025C.347.306.337.308.324.308H.257L.218.132z"/></symbol><symbol id="y"><path d="M.219.408.225.406a.335.335 0 0 0 .08.072A.174.174 0 0 0 .394.5.101.101 0 0 0 .48.46.187.187 0 0 0 .51.344.49.49 0 0 0 .473.158a.298.298 0 0 0-.045-.07A.245.245 0 0 0 .3.01.312.312 0 0 0 .16.008a.224.224 0 0 0-.061.027L.053 0 0 .008.124.56a.35.35 0 0 1 .01.07C.134.64.132.646.129.65a.024.024 0 0 1-.012.01.184.184 0 0 1-.032.006L.093.7l.143.008h.057L.22.408M.175.188a.334.334 0 0 1-.008-.07C.167.094.171.077.18.066.187.056.201.051.22.051c.017 0 .032.003.045.01.014.008.026.02.038.037a.53.53 0 0 1 .076.26.103.103 0 0 1-.01.053.035.035 0 0 1-.033.017C.313.428.292.418.269.396A.245.245 0 0 1 .216.324.553.553 0 0 1 .179.207L.175.188z"/></symbol><use xlink:href="#x" transform="matrix(10.35772 0 0 -10.42903 37.5 106.096)"/><use xlink:href="#y" transform="matrix(10.35772 0 0 -10.42903 44.203 106.177)"/></g><clipPath id="z"><path transform="matrix(1.03743 0 0 -1.04457 22.373 117.91)" d="M0 .102h41.232v20.712H0z" fill-rule="evenodd"/></clipPath><g clip-path="url(#z)"><use xlink:href="#m" transform="matrix(10.35772 0 0 -10.42903 50.184 106.096)"/></g></g></g><clipPath id="A"><path transform="matrix(1 0 0 -1 0 238.68)" d="M22.748 91.124h42.746v21.742H22.748z" fill-rule="evenodd"/></clipPath><g clip-path="url(#A)"><clipPath id="B"><path transform="matrix(1.03743 0 0 -1.04457 22.748 147.556)" d="M0 0h41.203v20.814H0z" fill-rule="evenodd"/></clipPath><g clip-path="url(#B)"><clipPath id="C"><path transform="matrix(1.03743 0 0 -1.04457 22.748 147.556)" d="M0 .102h41.232v20.712H0z" fill-rule="evenodd"/></clipPath><g clip-path="url(#C)"><symbol id="D"><path d="M.481.24A.462.462 0 0 0 .443.127.23.23 0 0 0 .386.053.213.213 0 0 0 .31.013.392.392 0 0 0 .123.01a.183.183 0 0 0-.064.033A.16.16 0 0 0 0 .176L.003.23C.006.248.011.277.02.317l.05.225A.26.26 0 0 1 .078.6c0 .013-.003.023-.01.03C.061.635.051.64.037.641l.006.032H.29L.282.642a.07.07 0 0 1-.04-.027.231.231 0 0 1-.026-.073L.15.243A.524.524 0 0 1 .138.147C.138.117.145.095.16.08.174.065.196.057.224.057c.027 0 .05.006.069.018.019.012.033.03.044.051a.372.372 0 0 1 .03.087l.072.33A.22.22 0 0 1 .445.6c0 .013-.003.023-.01.03C.43.635.42.64.406.641l.007.032H.62L.613.642A.072.072 0 0 1 .57.614.225.225 0 0 1 .547.542L.48.24z"/></symbol><use xlink:href="#D" transform="matrix(10.35772 0 0 -10.42903 37.556 135.823)"/></g><clipPath id="E"><path transform="matrix(1.03743 0 0 -1.04457 22.748 147.556)" d="M0 .102h41.232v20.712H0z" fill-rule="evenodd"/></clipPath><g clip-path="url(#E)"><symbol id="F"><path d="M.378.667A.807.807 0 0 0 .46.663.223.223 0 0 0 .522.648a.15.15 0 0 0 .051-.03.12.12 0 0 0 .031-.045.16.16 0 0 0 .011-.06A.215.215 0 0 0 .537.34.25.25 0 0 0 .444.29.485.485 0 0 0 .315.277H.3c-.02 0-.037 0-.05.002L.218.132A.31.31 0 0 1 .212.075C.212.06.216.049.223.043A.064.064 0 0 1 .26.033L.252 0H0l.007.032a.07.07 0 0 1 .04.028.231.231 0 0 1 .026.072l.089.403c.004.019.006.038.006.057 0 .013-.003.023-.01.03-.006.006-.016.01-.03.012l.006.033h.244M.288.333c.045 0 .08.007.104.021a.135.135 0 0 1 .055.063c.012.028.019.06.019.094C.466.544.458.57.442.585.427.601.403.609.371.609a.99.99 0 0 1-.048 0L.263.332H.29z"/></symbol><use xlink:href="#F" transform="matrix(10.35772 0 0 -10.42903 44.499 135.742)"/></g><clipPath id="G"><path transform="matrix(1.03743 0 0 -1.04457 22.748 147.556)" d="M0 .102h41.232v20.712H0z" fill-rule="evenodd"/></clipPath><g clip-path="url(#G)"><use xlink:href="#m" transform="matrix(10.35772 0 0 -10.42903 51.43 135.742)"/></g></g></g><clipPath id="H"><path transform="matrix(1 0 0 -1 0 238.68)" d="M24.627 51.236h42.746V7.725H24.627v43.511z" fill-rule="evenodd"/></clipPath><g clip-path="url(#H)"><clipPath id="I"><path transform="matrix(1.03743 0 0 -1.03624 24.627 230.955)" d="M0 0h41.203v41.991H0z" fill-rule="evenodd"/></clipPath><g clip-path="url(#I)"><use xlink:href="#q" transform="matrix(10.35772 0 0 -10.34587 33.406 197.29)"/><symbol id="J"><path d="M.094.17A.176.176 0 0 1 .107.103.073.073 0 0 1 .141.067a.133.133 0 0 1 .056-.01c.036 0 .064.01.084.03.02.02.031.05.031.086a.12.12 0 0 1-.04.092.616.616 0 0 1-.07.057.251.251 0 0 0-.07.076.174.174 0 0 0-.007.163.18.18 0 0 0 .049.064c.022.019.049.033.082.042.033.01.071.015.115.015A.695.695 0 0 0 .545.66l-.03-.14H.453C.452.557.444.584.43.6.416.618.394.626.362.626a.114.114 0 0 1-.08-.028.098.098 0 0 1-.03-.076C.251.5.258.477.274.457A.364.364 0 0 1 .347.392.466.466 0 0 0 .414.333.18.18 0 0 0 .449.28.2.2 0 0 0 .386.057a.246.246 0 0 0-.08-.043A.398.398 0 0 0 .188 0 .603.603 0 0 0 0 .03l.03.14h.064z"/></symbol><symbol id="K"><path d="M.575.667.536.49H.474a.342.342 0 0 1-.007.075.06.06 0 0 1-.019.033.053.053 0 0 1-.036.011H.37L.264.132A.36.36 0 0 1 .257.075C.257.06.261.049.27.043a.064.064 0 0 1 .036-.01L.298 0h-.26l.007.032A.07.07 0 0 1 .08.045.071.071 0 0 1 .1.074a.327.327 0 0 1 .018.058l.105.477H.184A.098.098 0 0 1 .141.601.116.116 0 0 1 .104.567.315.315 0 0 1 .064.5H0l.037.167h.538z"/></symbol><use xlink:href="#J" transform="matrix(10.35772 0 0 -10.34587 40.414 197.372)"/><use xlink:href="#K" transform="matrix(10.35772 0 0 -10.34587 46.596 197.29)"/><use xlink:href="#m" transform="matrix(10.35772 0 0 -10.34587 52.687 197.29)"/><use xlink:href="#m" transform="matrix(10.35772 0 0 -10.34587 24.627 218.754)"/></g></g><path stroke-width="2" stroke-linecap="round" stroke-linejoin="round" fill="none" stroke="#000" d="M54.873 193.865H165.12M165.12 193.865l.37-20.25h17.63"/><clipPath id="L"><path transform="matrix(1 0 0 -1 0 238.68)" d="M0 238.68h520.2V0H0" fill-rule="evenodd"/></clipPath><g clip-path="url(#L)"><path stroke-width="2" stroke-linecap="round" stroke-linejoin="round" fill="none" stroke="#000" d="M183.12 193.865v-20.25"/></g><path stroke-width="2" stroke-linecap="round" stroke-linejoin="round" fill="none" stroke="#000" d="M183.12 193.865h245.25v-20.25h18v20.25h31.5M54.873 164.615h98.997v-20.25h18v20.25h243v-22.5h18v22.5h45M477.87 133.11h-45v-22.5h-153"/><path stroke-width="2" stroke-linecap="round" stroke-linejoin="round" fill="none" stroke="#000" d="M54.873 133.11h74.247v-20.25h40.5v20.25h105.75v-22.5h13.5M54.873 101.61h98.997V81.36h135v22.5h126v-22.5h63M477.87 52.11h-49.5v18h-76.5v-18h-76.5v18h-69.19v-18h-80.74v18M54.873 70.11h70.567"/><clipPath id="M"><path transform="matrix(1 0 0 -1 0 238.68)" d="M0 238.68h520.2V0H0" fill-rule="evenodd"/></clipPath><g clip-path="url(#M)"><path stroke-width="2" stroke-linecap="round" stroke-dasharray="2,4" stroke-linejoin="round" fill="none" stroke="#cbcbcb" d="M414.87 193.865V24.48"/></g><clipPath id="N"><path transform="matrix(1 0 0 -1 0 238.68)" d="M0 238.68h520.2V0H0" fill-rule="evenodd"/></clipPath><g clip-path="url(#N)"><path stroke-width="2" stroke-linecap="round" stroke-dasharray="2,4" stroke-linejoin="round" fill="none" stroke="#cbcbcb" d="M428.37 193.865V24.48"/></g><clipPath id="O"><path transform="matrix(1 0 0 -1 0 238.68)" d="M0 238.68h520.2V0H0" fill-rule="evenodd"/></clipPath><g clip-path="url(#O)"><path stroke-width="2" stroke-linecap="round" stroke-dasharray="2,4" stroke-linejoin="round" fill="none" stroke="#cbcbcb" d="M418.37 193.865V24.48"/></g><clipPath id="P"><path transform="matrix(1 0 0 -1 0 238.68)" d="M0 238.68h520.2V0H0" fill-rule="evenodd"/></clipPath><g clip-path="url(#P)"><path stroke-width="2" stroke-linecap="round" stroke-dasharray="2,4" stroke-linejoin="round" fill="none" stroke="#cbcbcb" d="M422.87 193.865V24.48"/></g><clipPath id="Q"><path transform="matrix(1 0 0 -1 0 238.68)" d="M0 238.68h520.2V0H0" fill-rule="evenodd"/></clipPath><g clip-path="url(#Q)"><path stroke-width="2" stroke-linecap="round" stroke-dasharray="2,4" stroke-linejoin="round" fill="none" stroke="#cbcbcb" d="M425.66 193.865V24.48"/></g><clipPath id="R"><path transform="matrix(1 0 0 -1 0 238.68)" d="M0 238.68h520.2V0H0" fill-rule="evenodd"/></clipPath><g clip-path="url(#R)"><path stroke-width="2" stroke-linecap="round" stroke-dasharray="0,6" stroke-linejoin="round" fill="none" stroke="#0070c0" d="M445.37 193.877V25.06"/></g><clipPath id="S"><path transform="matrix(1 0 0 -1 0 238.68)" d="M0 238.68h520.2V0H0" fill-rule="evenodd"/></clipPath><g clip-path="url(#S)"><path stroke-width="2" stroke-linecap="round" stroke-dasharray="0,6" stroke-linejoin="round" fill="none" stroke="red" d="M431.87 193.877V24.49"/></g><clipPath id="T"><path transform="matrix(1 0 0 -1 0 238.68)" d="M0 238.68h520.2V0H0" fill-rule="evenodd"/></clipPath><g clip-path="url(#T)"><path stroke-width="2" stroke-linecap="round" stroke-dasharray="2,4" stroke-linejoin="round" fill="none" stroke="#cbcbcb" d="M431.87 193.877V24.49"/></g><clipPath id="U"><path transform="matrix(1 0 0 -1 0 238.68)" d="M0 238.68h520.2V0H0" fill-rule="evenodd"/></clipPath><g clip-path="url(#U)"><path stroke-width="2" stroke-linecap="round" stroke-dasharray="2,4" stroke-linejoin="round" fill="none" stroke="#cbcbcb" d="M445.37 193.877V24.49"/></g><clipPath id="V"><path transform="matrix(1 0 0 -1 0 238.68)" d="M0 238.68h520.2V0H0" fill-rule="evenodd"/></clipPath><g clip-path="url(#V)"><path stroke-width="2" stroke-linecap="round" stroke-dasharray="2,4" stroke-linejoin="round" fill="none" stroke="#cbcbcb" d="M435.37 193.877V24.49"/></g><clipPath id="W"><path transform="matrix(1 0 0 -1 0 238.68)" d="M0 238.68h520.2V0H0" fill-rule="evenodd"/></clipPath><g clip-path="url(#W)"><path stroke-width="2" stroke-linecap="round" stroke-dasharray="2,4" stroke-linejoin="round" fill="none" stroke="#cbcbcb" d="M439.87 193.877V24.49"/></g><clipPath id="X"><path transform="matrix(1 0 0 -1 0 238.68)" d="M0 238.68h520.2V0H0" fill-rule="evenodd"/></clipPath><g clip-path="url(#X)"><path stroke-width="2" stroke-linecap="round" stroke-dasharray="2,4" stroke-linejoin="round" fill="none" stroke="#cbcbcb" d="M442.66 193.877V24.49"/></g><clipPath id="Y"><path transform="matrix(1 0 0 -1 0 238.68)" d="M0 238.68h520.2V0H0" fill-rule="evenodd"/></clipPath><g clip-path="url(#Y)"><path stroke-width="2" stroke-linecap="round" stroke-linejoin="round" fill="none" stroke="#0070c0" d="M465.62 32.12c-1.11.28-2.24.29-3.37.28-12.35-.04-24.9-1.37-30.99 8.11"/></g><clipPath id="Z"><path transform="matrix(1 0 0 -1 0 238.68)" d="M0 238.68h520.2V0H0" fill-rule="evenodd"/></clipPath><g clip-path="url(#Z)"><path d="m435.88 41.11-7.51 6.76-.9-10.07 8.41 3.31z" fill="#0070c0" fill-rule="evenodd"/></g><clipPath id="aa"><path transform="matrix(1 0 0 -1 0 238.68)" d="M452.49 219.68h48.76v-21.74h-48.76v21.74z" fill-rule="evenodd"/></clipPath><g clip-path="url(#aa)"><clipPath id="ab"><path transform="matrix(1.03463 0 0 -1.04457 452.49 40.74)" d="M0 0h47.125v20.814H0z" fill-rule="evenodd"/></clipPath><g clip-path="url(#ab)"><clipPath id="ac"><path transform="matrix(1.03463 0 0 -1.04457 452.49 40.74)" d="M0 .174h47.04v20.64H0z" fill-rule="evenodd"/></clipPath><g clip-path="url(#ac)"><symbol id="ad"><path d="M.294.058C.31.058.322.06.33.062a.072.072 0 0 1 .024.012.198.198 0 0 1 .05.061.476.476 0 0 1 .025.059h.067L.447 0H0l.007.032a.07.07 0 0 1 .04.028.231.231 0 0 1 .026.072l.089.403c.004.019.006.038.006.057 0 .013-.003.023-.01.03-.006.006-.016.01-.03.012l.006.033H.38L.373.634A.07.07 0 0 1 .332.607.231.231 0 0 1 .307.535L.202.058h.092z"/></symbol><symbol id="ae"><path d="M.182 0a.223.223 0 0 0-.095.019.148.148 0 0 0-.064.059A.189.189 0 0 0 0 .174c0 .038.006.078.018.12.012.043.03.08.056.112a.232.232 0 0 0 .092.071A.308.308 0 0 0 .287.5.21.21 0 0 0 .39.478a.138.138 0 0 0 .06-.062.2.2 0 0 0 .02-.092.41.41 0 0 0-.021-.13.315.315 0 0 0-.06-.108.23.23 0 0 0-.09-.065A.31.31 0 0 0 .183 0m-.05.142A.13.13 0 0 1 .145.073C.156.058.172.051.193.051c.028 0 .052.013.072.04.02.027.038.068.051.122.014.054.02.101.02.141a.133.133 0 0 1-.014.072C.312.442.297.45.276.45.249.45.225.436.205.41A.587.587 0 0 1 .132.142z"/></symbol><symbol id="af"><path d="M.09.145a.118.118 0 0 1 .022-.07C.125.06.146.052.174.052.2.05.22.057.234.069c.014.013.02.03.02.054a.08.08 0 0 1-.006.034.085.085 0 0 1-.022.028.396.396 0 0 1-.051.035.236.236 0 0 0-.071.06.122.122 0 0 0-.022.071c0 .048.017.085.053.11A.254.254 0 0 0 .285.5a.553.553 0 0 0 .16-.022L.42.36H.358a.117.117 0 0 1-.024.067C.322.442.304.449.281.449A.078.078 0 0 1 .228.432a.056.056 0 0 1-.02-.045C.208.37.214.355.225.342A.29.29 0 0 1 .29.294.232.232 0 0 0 .364.231.132.132 0 0 0 .386.154.136.136 0 0 0 .36.07.155.155 0 0 0 .287.017.3.3 0 0 0 .182 0 .695.695 0 0 0 0 .023l.027.122H.09z"/></symbol><symbol id="ag"><path d="M.312.097A.345.345 0 0 0 .22.02.21.21 0 0 0 .124 0C.086 0 .058.01.038.028a.105.105 0 0 0-.03.08c0 .015.001.03.004.043l.014.068.05.212H0l.01.04A.16.16 0 0 1 .06.477c.012.004.022.01.03.02a.132.132 0 0 1 .023.038.678.678 0 0 1 .026.08h.117L.23.491h.119L.334.432h-.12L.168.235A1.548 1.548 0 0 1 .15.159.27.27 0 0 1 .146.115C.146.1.149.09.154.082.16.075.168.072.18.072a.08.08 0 0 1 .045.015c.015.01.032.026.05.048L.312.097z"/></symbol><use xlink:href="#ad" transform="matrix(10.3546 0 -.00001 -10.4541 452.778 28.926)" fill="#2e75b6"/><use xlink:href="#ae" transform="matrix(10.3546 0 -.00001 -10.4541 458.907 29.008)" fill="#2e75b6"/><use xlink:href="#af" transform="matrix(10.3546 0 -.00001 -10.4541 464.578 29.008)" fill="#2e75b6"/><use xlink:href="#ag" transform="matrix(10.3546 0 -.00001 -10.4541 470.156 29.008)" fill="#2e75b6"/></g><clipPath id="ah"><path transform="matrix(1.03463 0 0 -1.04457 452.49 40.74)" d="M0 .174h47.04v20.64H0z" fill-rule="evenodd"/></clipPath><g clip-path="url(#ah)"><symbol id="ai"><path d="M0 0z"/></symbol><use xlink:href="#ai" transform="matrix(10.3546 0 -.00001 -10.4541 473.92 28.926)" fill="#2e75b6"/></g><clipPath id="aj"><path transform="matrix(1.03463 0 0 -1.04457 452.49 40.74)" d="M0 .174h47.04v20.64H0z" fill-rule="evenodd"/></clipPath><g clip-path="url(#aj)"><symbol id="ak"><path d="M.523.125.558.09A.397.397 0 0 0 .47.019.169.169 0 0 0 .392 0a.091.091 0 0 0-.065.022.08.08 0 0 0-.024.06c0 .009 0 .016.003.024L.299.107A.395.395 0 0 0 .212.025.176.176 0 0 0 .116 0 .102.102 0 0 0 .03.04.19.19 0 0 0 0 .156C0 .2.006.243.019.286.032.33.05.368.074.399a.25.25 0 0 0 .09.075.267.267 0 0 0 .205.012L.386.56a.574.574 0 0 1 .01.07c0 .007 0 .012-.002.016a.022.022 0 0 1-.006.01.028.028 0 0 1-.012.006.192.192 0 0 1-.029.005L.355.7l.146.008h.055L.433.16A.257.257 0 0 1 .425.104c0-.01.002-.019.006-.024C.434.074.44.07.449.07.46.07.47.076.482.085c.012.01.025.023.04.041M.337.312a.339.339 0 0 1 .008.071.083.083 0 0 1-.012.05C.323.443.31.449.292.449.262.45.234.434.21.403a.521.521 0 0 1-.078-.26C.133.119.136.1.143.089A.036.036 0 0 1 .176.072c.021 0 .043.01.065.031a.25.25 0 0 1 .054.074.54.54 0 0 1 .037.116l.004.019z"/></symbol><symbol id="al"><path d="M.136.178a.112.112 0 0 1-.019-.03.094.094 0 0 1-.005-.031c0-.022.008-.039.023-.05a.12.12 0 0 1 .07-.016c.05 0 .09.018.118.056A.527.527 0 0 1 .397.31L.391.315A.353.353 0 0 0 .31.235.174.174 0 0 0 .214.21a.103.103 0 0 0-.086.04.187.187 0 0 0-.03.116c0 .045.006.089.019.132A.348.348 0 0 0 .172.61a.253.253 0 0 0 .212.1.242.242 0 0 0 .063-.007.194.194 0 0 0 .06-.028L.55.71.605.703.563.512A7.051 7.051 0 0 0 .508.244.572.572 0 0 0 .471.129.206.206 0 0 0 .34.017.45.45 0 0 0 .207 0C.138 0 .087.01.052.028a.09.09 0 0 0-.03.14.225.225 0 0 0 .063.05l.05-.04m.298.344a.332.332 0 0 1 .008.07c0 .023-.004.04-.012.051C.42.654.407.66.389.66.359.66.333.645.309.616A.35.35 0 0 1 .253.494.525.525 0 0 1 .23.353C.23.329.233.312.24.3A.036.036 0 0 1 .273.282a.08.08 0 0 1 .042.013.25.25 0 0 1 .085.11c.011.026.02.06.03.1l.003.017z"/></symbol><use xlink:href="#r" transform="matrix(10.3546 0 -.00001 -10.4541 476.685 29.008)" fill="#2e75b6"/><use xlink:href="#ak" transform="matrix(10.3546 0 -.00001 -10.4541 482.411 29.008)" fill="#2e75b6"/><use xlink:href="#al" transform="matrix(10.3546 0 -.00001 -10.4541 488.638 31.208)" fill="#2e75b6"/><use xlink:href="#r" transform="matrix(10.3546 0 -.00001 -10.4541 495.996 29.008)" fill="#2e75b6"/></g><clipPath id="am"><path transform="matrix(1.03463 0 0 -1.04457 452.49 40.74)" d="M0 .174h47.04v20.64H0z" fill-rule="evenodd"/></clipPath><g clip-path="url(#am)"><use xlink:href="#m" transform="matrix(10.3546 0 -.00001 -10.4541 501.308 28.926)" fill="#2e75b6"/></g></g></g><path stroke-width=".75" stroke-linecap="round" stroke-linejoin="round" fill="none" stroke="#0070c0" d="M434.12 61.09c0-7.46-2.52-13.5-5.62-13.5-3.11 0-5.63 6.04-5.63 13.5s2.52 13.5 5.63 13.5c3.1 0 5.62-6.04 5.62-13.5z"/></svg>