<svg xmlns="http://www.w3.org/2000/svg" xmlns:xlink="http://www.w3.org/1999/xlink" width="380.48" height="606.56" viewBox="0 0 285.36 454.92"><path d="M72.265 427.769h60.28v-75.35h-60.28z" fill="#fff" fill-rule="evenodd"/><path stroke-width="2" stroke-linecap="round" stroke-linejoin="round" fill="none" stroke="#000" d="M115.59 407.361h11.3m-54.625-23.89 11.302 6.279-11.302 6.966m0 31.053h60.275V352.42H72.265v75.349z"/><path d="M76.032 371.256h15.07v-12.558h-15.07zM113.71 421.489h15.07v-12.558h-15.07z" fill="#fff" fill-rule="evenodd"/><clipPath id="a"><path transform="matrix(1 0 0 -1 0 454.92)" d="M0 0h285.36v454.92H0z" fill-rule="evenodd"/></clipPath><g clip-path="url(#a)"><symbol id="b"><path d="M.574.056.573.046A.086.086 0 0 0 .567.022.05.05 0 0 0 .562.011.032.032 0 0 0 .556.003.012.012 0 0 0 .548 0 .227.227 0 0 0 .48.027a.388.388 0 0 0-.109.09.256.256 0 0 0-.067-.025.346.346 0 0 0-.179.005.185.185 0 0 0-.07.041.178.178 0 0 0-.042.069A.284.284 0 0 0 0 .3a.647.647 0 0 0 .03.187.503.503 0 0 0 .045.093c.018.03.04.055.066.078a.3.3 0 0 0 .092.055c.036.014.076.02.121.02A.29.29 0 0 0 .451.72.174.174 0 0 0 .563.607.29.29 0 0 0 .578.512a.543.543 0 0 0-.092-.3A.348.348 0 0 0 .438.16.444.444 0 0 1 .527.093a.457.457 0 0 1 .04-.02.014.014 0 0 0 .005-.007.027.027 0 0 0 .002-.01m-.086.45A.235.235 0 0 1 .48.57a.128.128 0 0 1-.025.05.111.111 0 0 1-.045.03.176.176 0 0 1-.069.013.2.2 0 0 1-.155-.068.28.28 0 0 1-.046-.07.477.477 0 0 1-.043-.278.12.12 0 0 1 .026-.048.117.117 0 0 1 .045-.031.195.195 0 0 1 .07-.011.203.203 0 0 1 .153.066C.41.242.425.264.437.29a.428.428 0 0 1 .046.152.495.495 0 0 1 .005.064z"/></symbol><use xlink:href="#b" transform="matrix(13.32 0 0 -13.32 117.621 420.557)"/></g><path d="M113.71 371.256h15.07v-12.558h-15.07z" fill="#fff" fill-rule="evenodd"/><clipPath id="c"><path transform="matrix(1 0 0 -1 0 454.92)" d="M0 0h285.36v454.92H0z" fill-rule="evenodd"/></clipPath><g clip-path="url(#c)"><use xlink:href="#b" transform="matrix(13.32 0 0 -13.32 117.621 370.301)"/></g><path d="M76.869 421.489h15.07v-12.558h-15.07z" fill="#fff" fill-rule="evenodd"/><path d="M91.102 424.629h22.605v-69.071H91.102z" fill="#fff" fill-rule="evenodd"/><clipPath id="d"><path transform="matrix(1 0 0 -1 0 454.92)" d="M0 0h285.36v454.92H0z" fill-rule="evenodd"/></clipPath><g clip-path="url(#d)"><symbol id="e"><path d="M.448.593a.104.104 0 0 0-.01-.042.026.026 0 0 0-.005-.008.01.01 0 0 0-.007-.002C.422.54.417.543.41.547a.234.234 0 0 1-.06.027.16.16 0 0 1-.1-.003.104.104 0 0 1-.067-.1c0-.014.003-.027.009-.037a.124.124 0 0 1 .025-.03A.269.269 0 0 1 .253.38 6.43 6.43 0 0 0 .334.33a.166.166 0 0 0 .06-.074A.141.141 0 0 0 .404.2.182.182 0 0 0 .338.06.24.24 0 0 0 .262.016a.297.297 0 0 0-.155-.01.312.312 0 0 0-.08.027.106.106 0 0 0-.02.015C.001.052 0 .058 0 .066v.009A.256.256 0 0 0 .01.11a.036.036 0 0 0 .006.008.01.01 0 0 0 .008.004.038.038 0 0 0 .02-.008.305.305 0 0 1 .07-.034A.181.181 0 0 1 .17.072c.023 0 .043.003.061.01a.137.137 0 0 1 .045.025.113.113 0 0 1 .038.086.075.075 0 0 1-.01.038.112.112 0 0 1-.024.03.209.209 0 0 1-.035.024 3.079 3.079 0 0 0-.08.05.168.168 0 0 0-.06.074.174.174 0 0 0 .049.187c.02.017.042.03.068.04a.253.253 0 0 0 .133.01.266.266 0 0 0 .068-.021.073.073 0 0 0 .016-.011.028.028 0 0 0 .007-.01.028.028 0 0 0 .002-.01z"/></symbol><symbol id="f"><path d="M.463.616A.097.097 0 0 0 .461.597.094.094 0 0 0 .454.573.03.03 0 0 0 .447.565.014.014 0 0 0 .438.562H.191L.151.364h.213C.368.364.37.362.373.36.375.357.375.353.375.348A.217.217 0 0 0 .37.318.054.054 0 0 0 .365.306.03.03 0 0 0 .36.299.014.014 0 0 0 .35.296H.138L.092.07h.252A.01.01 0 0 0 .352.066C.354.063.355.059.355.054A.098.098 0 0 0 .35.022.047.047 0 0 0 .345.011.024.024 0 0 0 .338.003.014.014 0 0 0 .329 0H.025a.04.04 0 0 0-.01.001.026.026 0 0 0-.01.006.027.027 0 0 0-.004.011C0 .023.001.028.002.034l.113.564C.117.61.122.619.13.624a.041.041 0 0 0 .023.008h.3c.007 0 .01-.006.01-.016z"/></symbol><symbol id="g"><path d="M.477.618a.098.098 0 0 0-.002-.02.116.116 0 0 0-.003-.012.05.05 0 0 0-.005-.011.03.03 0 0 0-.008-.009.014.014 0 0 0-.008-.003H.273L.163.016A.014.014 0 0 0 .16.009.018.018 0 0 0 .151.004.12.12 0 0 0 .097.002a.066.066 0 0 0-.012.002L.08.009a.01.01 0 0 0 0 .007l.108.547H.012c-.005 0-.008.002-.01.005A.025.025 0 0 0 0 .58.085.085 0 0 0 .002.6a.134.134 0 0 0 .004.012.054.054 0 0 0 .011.02.013.013 0 0 0 .009.003h.44C.47.635.471.633.473.63A.025.025 0 0 0 .477.618z"/></symbol><use xlink:href="#e" transform="matrix(6.6 0 0 -6.6 97.717 361.477)"/><use xlink:href="#f" transform="matrix(6.6 0 0 -6.6 100.99 361.416)"/><use xlink:href="#g" transform="matrix(6.6 0 0 -6.6 104.467 361.435)"/></g><clipPath id="h"><path transform="matrix(1 0 0 -1 0 454.92)" d="M0 0h285.36v454.92H0z" fill-rule="evenodd"/></clipPath><g clip-path="url(#h)"><symbol id="i"><path d="M.503.575A.119.119 0 0 0 .49.525C.487.52.483.518.48.518.474.517.469.52.462.526a.174.174 0 0 1-.127.048A.175.175 0 0 1 .261.56.213.213 0 0 1 .2.517a.29.29 0 0 1-.048-.06.415.415 0 0 1-.06-.22.23.23 0 0 1 .01-.069.142.142 0 0 1 .027-.051.118.118 0 0 1 .046-.032.227.227 0 0 1 .174.017.566.566 0 0 1 .033.019C.39.126.398.129.403.129.407.13.41.13.411.125A.022.022 0 0 0 .414.114L.413.106A.144.144 0 0 0 .409.085.074.074 0 0 0 .4.062.03.03 0 0 0 .394.053.263.263 0 0 0 .332.02.38.38 0 0 0 .218 0a.26.26 0 0 0-.09.015.187.187 0 0 0-.068.044.205.205 0 0 0-.044.072.302.302 0 0 0-.015.1.485.485 0 0 0 .039.19C.05.452.067.481.086.51.106.536.127.56.152.58a.296.296 0 0 0 .256.058.22.22 0 0 0 .085-.042.03.03 0 0 0 .01-.022z"/></symbol><symbol id="j"><path d="M.332.056a.05.05 0 0 0 0-.008.088.088 0 0 0-.003-.011.09.09 0 0 0-.007-.025.032.032 0 0 0-.007-.009A.013.013 0 0 0 .306 0h-.28l-.01.001a.026.026 0 0 0-.01.006.024.024 0 0 0-.005.011C0 .023.001.028.002.034L.119.62l.003.006A.018.018 0 0 0 .13.63a.117.117 0 0 0 .053.003C.19.633.194.632.197.63.2.63.201.628.202.626a.009.009 0 0 0 0-.006L.095.073H.32C.325.073.327.07.33.068A.022.022 0 0 0 .331.056z"/></symbol><symbol id="k"><path d="M.478.502a.207.207 0 0 0-.01-.064A.174.174 0 0 0 .44.383.202.202 0 0 0 .39.337.258.258 0 0 0 .324.306a.078.078 0 0 0 .042-.04A.266.266 0 0 0 .39.189l.026-.14A.45.45 0 0 0 .42.017C.42.014.42.01.418.009A.018.018 0 0 0 .41.004.225.225 0 0 0 .351 0 .034.034 0 0 0 .34.004.017.017 0 0 0 .334.01.053.053 0 0 0 .33.02L.306.17a.26.26 0 0 1-.01.047.107.107 0 0 1-.02.036.081.081 0 0 1-.033.024.116.116 0 0 1-.048.009H.139L.085.015A.017.017 0 0 0 .08.01.018.018 0 0 0 .073.004.12.12 0 0 0 .04 0a.17.17 0 0 0-.032.003.014.014 0 0 0-.006.005.01.01 0 0 0 0 .007l.117.586C.12.613.126.622.133.627A.046.046 0 0 0 .16.635h.138c.03 0 .056-.003.078-.009A.162.162 0 0 0 .432.6.103.103 0 0 0 .466.56.128.128 0 0 0 .478.502M.388.49A.08.08 0 0 1 .381.52a.061.061 0 0 1-.019.024A.083.083 0 0 1 .33.56a.186.186 0 0 1-.048.005H.195L.152.353h.074C.256.353.28.356.3.364a.14.14 0 0 1 .05.031.118.118 0 0 1 .028.044.14.14 0 0 1 .01.05z"/></symbol><use xlink:href="#i" transform="matrix(6.6 0 0 -6.6 97.883 419.044)"/><use xlink:href="#j" transform="matrix(6.6 0 0 -6.6 101.27 418.992)"/><use xlink:href="#k" transform="matrix(6.6 0 0 -6.6 104.022 419.011)"/></g><path d="M76.032 371.256h15.07v-12.558h-15.07z" fill="#fff" fill-rule="evenodd"/><clipPath id="l"><path transform="matrix(1 0 0 -1 0 454.92)" d="M0 0h285.36v454.92H0z" fill-rule="evenodd"/></clipPath><g clip-path="url(#l)"><symbol id="m"><path d="M.553.404A.529.529 0 0 0 .51.202.367.367 0 0 0 .422.083.354.354 0 0 0 .276.01.491.491 0 0 0 .168 0h-.14a.05.05 0 0 0-.012.001.025.025 0 0 0-.01.006.02.02 0 0 0-.005.01C0 .023.001.028.002.035l.112.564C.117.61.121.619.13.624a.046.046 0 0 0 .026.008H.29a.394.394 0 0 0 .12-.016.208.208 0 0 0 .08-.044A.179.179 0 0 0 .537.5.266.266 0 0 0 .553.404M.463.397a.206.206 0 0 1-.01.066.127.127 0 0 1-.03.052.145.145 0 0 1-.056.034.253.253 0 0 1-.088.013H.19L.093.07H.18c.04 0 .073.005.1.014A.252.252 0 0 1 .436.25a.393.393 0 0 1 .027.147z"/></symbol><use xlink:href="#m" transform="matrix(13.92 0 0 -13.92 79.925 369.264)"/></g><path d="M76.869 421.489h15.07v-12.558h-15.07zM76.032 371.256h15.07v-12.558h-15.07z" fill="#fff" fill-rule="evenodd"/><path d="M76.869 421.489h15.07v-12.558h-15.07zM90.265 373.769h38.25v-18h-38.25z" fill="#fff" fill-rule="evenodd"/><path d="M83.515 423.269h47.25v-20.25h-47.25z" fill="#fff" fill-rule="evenodd"/><path stroke-width="2" stroke-linecap="round" stroke-linejoin="round" fill="none" stroke="#000" d="M39.9 369.844h32.063M52.015 389.87h20.25"/><clipPath id="n"><path transform="matrix(1 0 0 -1 0 454.92)" d="M23.723 77.089h20.183V49.451H23.723v27.638z" fill-rule="evenodd"/></clipPath><g clip-path="url(#n)"><clipPath id="o"><path transform="matrix(.99454 0 0 -.99427 23.723 405.469)" d="M0 0h20.293v27.797H0z" fill-rule="evenodd"/></clipPath><g clip-path="url(#o)"><clipPath id="p"><path transform="matrix(.99454 0 0 -.99427 23.723 405.469)" d="M0 .03h20.256v27.767H0z" fill-rule="evenodd"/></clipPath><g clip-path="url(#p)"><symbol id="q"><path d="m.139.642.008.04c.023 0 .039.001.048.004.01.003.017.008.023.016a.127.127 0 0 1 .017.044c.008.03.019.056.031.076A.188.188 0 0 0 .384.91a.458.458 0 0 0 .18.002L.541.813H.479a.099.099 0 0 1-.01.043C.464.864.455.869.444.869A.04.04 0 0 1 .413.855a.11.11 0 0 1-.02-.037.526.526 0 0 1-.018-.062L.363.703h.105L.455.642H.35L.26.233A.347.347 0 0 0 .178.058.195.195 0 0 0 .034 0C.02 0 .008 0 0 .002l.012.055A.12.12 0 0 1 .029.056c.019 0 .034.01.046.03.013.02.023.052.033.093l.104.463H.14z"/></symbol><use xlink:href="#q" transform="matrix(14.03495 0 0 -14.0312 23.62 393.97)"/></g><clipPath id="r"><path transform="matrix(.99454 0 0 -.99427 23.723 405.469)" d="M0 .03h20.256v27.767H0z" fill-rule="evenodd"/></clipPath><g clip-path="url(#r)"><symbol id="s"><path d="M.219.408.225.406a.335.335 0 0 0 .08.072A.174.174 0 0 0 .394.5.101.101 0 0 0 .48.46.187.187 0 0 0 .51.344.49.49 0 0 0 .473.158a.298.298 0 0 0-.045-.07A.245.245 0 0 0 .3.01.312.312 0 0 0 .16.008a.224.224 0 0 0-.061.027L.053 0 0 .008.124.56a.35.35 0 0 1 .01.07C.134.64.132.646.129.65a.024.024 0 0 1-.012.01.184.184 0 0 1-.032.006L.093.7l.143.008h.057L.22.408M.175.188a.334.334 0 0 1-.008-.07C.167.094.171.077.18.066.187.056.201.051.22.051c.017 0 .032.003.045.01.014.008.026.02.038.037a.53.53 0 0 1 .076.26.103.103 0 0 1-.01.053.035.035 0 0 1-.033.017C.313.428.292.418.269.396A.245.245 0 0 1 .216.324.553.553 0 0 1 .179.207L.175.188z"/></symbol><use xlink:href="#q" transform="matrix(9.95336 0 0 -9.9507 31.575 395.967)"/><use xlink:href="#s" transform="matrix(9.95336 0 0 -9.9507 37.768 393.873)"/></g><clipPath id="t"><path transform="matrix(.99454 0 0 -.99427 23.723 405.469)" d="M0 .03h20.256v27.767H0z" fill-rule="evenodd"/></clipPath><g clip-path="url(#t)"><symbol id="u"><path d="M0 0z"/></symbol><use xlink:href="#u" transform="matrix(14.03495 0 0 -14.0312 43.868 390.908)"/></g></g></g><path d="M56.093 389.87a4.078 4.078 0 1 0-8.157 0 4.078 4.078 0 0 0 8.157 0z" fill-rule="evenodd"/><path stroke-width="2" stroke-linecap="round" stroke-linejoin="round" fill="none" stroke="#000" d="M56.093 389.87a4.078 4.078 0 1 0-8.157 0 4.078 4.078 0 0 0 8.157 0z"/><clipPath id="v"><path transform="matrix(1 0 0 -1 0 454.92)" d="M83.515 73.276h27.435v-25.71H83.515v25.71z" fill-rule="evenodd"/></clipPath><g clip-path="url(#v)"><clipPath id="w"><path transform="matrix(.99608 0 0 -.99396 83.515 407.354)" d="M0 0h27.547v25.867H0z" fill-rule="evenodd"/></clipPath><g clip-path="url(#w)"><clipPath id="x"><path transform="matrix(.99608 0 0 -.99396 83.515 407.354)" d="M0 .02h27.648v25.847H0z" fill-rule="evenodd"/></clipPath><g clip-path="url(#x)"><symbol id="y"><path d="M.547.658.516.516H.452a.246.246 0 0 1-.01.065.062.062 0 0 1-.022.033.071.071 0 0 1-.043.011.129.129 0 0 1-.08-.032.304.304 0 0 1-.075-.098.72.72 0 0 1-.075-.314c0-.027.002-.05.007-.068A.08.08 0 0 1 .181.072.084.084 0 0 1 .233.057c.034 0 .062.009.084.026a.214.214 0 0 1 .06.087h.064L.411.026A.614.614 0 0 0 .214 0C.146 0 .093.019.055.057.02.095 0 .149 0 .22a.609.609 0 0 0 .056.248c.021.046.049.086.082.118s.07.056.111.072a.375.375 0 0 0 .134.023c.055 0 .11-.008.164-.024z"/></symbol><symbol id="z"><path d="M.294.058C.31.058.322.06.33.062a.072.072 0 0 1 .024.012.198.198 0 0 1 .05.061.476.476 0 0 1 .025.059h.067L.447 0H0l.007.032a.07.07 0 0 1 .04.028.231.231 0 0 1 .026.072l.089.403c.004.019.006.038.006.057 0 .013-.003.023-.01.03-.006.006-.016.01-.03.012l.006.033H.38L.373.634A.07.07 0 0 1 .332.607.231.231 0 0 1 .307.535L.202.058h.092z"/></symbol><symbol id="A"><path d="M.27.37h.008c.014 0 .026.002.037.006A.178.178 0 0 1 .352.4L.417.46c.03.03.052.054.065.07.014.016.024.03.03.04A.07.07 0 0 1 .52.603c0 .011-.003.02-.008.023C.507.63.498.633.486.635l.008.032h.238L.725.633A.126.126 0 0 1 .696.624a.167.167 0 0 1-.03-.021A1.215 1.215 0 0 1 .61.553L.435.383.538.13A.517.517 0 0 1 .563.074a.105.105 0 0 1 .023-.03.081.081 0 0 1 .03-.012L.61 0H.366l.007.032C.382.033.388.035.392.04c.003.004.005.01.005.018a.119.119 0 0 1-.005.03.642.642 0 0 1-.02.06L.326.261a.145.145 0 0 1-.018.034.045.045 0 0 1-.017.016.06.06 0 0 1-.026.004H.26L.219.132A.36.36 0 0 1 .211.075c0-.014.003-.024.01-.03a.056.056 0 0 1 .03-.013L.246 0H0l.007.032a.07.07 0 0 1 .04.028.231.231 0 0 1 .026.072l.089.403c.004.019.006.038.006.057 0 .013-.003.023-.01.03-.006.006-.016.01-.03.012l.006.033H.38L.373.634A.07.07 0 0 1 .332.607.231.231 0 0 1 .307.535L.271.37z"/></symbol><use xlink:href="#y" transform="matrix(14.0806 0 0 -14.05062 84.443 394.969)"/><use xlink:href="#z" transform="matrix(14.0806 0 0 -14.05062 92.778 394.859)"/><use xlink:href="#A" transform="matrix(14.0806 0 0 -14.05062 100.663 394.859)"/></g><clipPath id="B"><path transform="matrix(.99608 0 0 -.99396 83.515 407.354)" d="M0 .02h27.648v25.847H0z" fill-rule="evenodd"/></clipPath><g clip-path="url(#B)"><use xlink:href="#u" transform="matrix(14.0806 0 0 -14.05062 111.055 394.859)"/></g></g></g><clipPath id="C"><path transform="matrix(1 0 0 -1 0 454.92)" d="M77.498 93.362h10.517V67.651H77.498v25.711z" fill-rule="evenodd"/></clipPath><g clip-path="url(#C)"><clipPath id="D"><path transform="matrix(.98915 0 0 -.99396 77.498 387.269)" d="M0 0h10.632v25.867H0z" fill-rule="evenodd"/></clipPath><g clip-path="url(#D)"><clipPath id="E"><path transform="matrix(.98915 0 0 -.99396 77.498 387.269)" d="M0 .02h10.728v25.847H0z" fill-rule="evenodd"/></clipPath><g clip-path="url(#E)"><symbol id="F"><path d="m0 0 .007.032a.07.07 0 0 1 .04.028.231.231 0 0 1 .026.072l.089.403c.004.019.006.038.006.057 0 .013-.003.023-.01.03-.006.006-.016.01-.03.012l.006.033h.198a.752.752 0 0 0 .129-.01.273.273 0 0 0 .08-.026.206.206 0 0 0 .058-.042A.197.197 0 0 0 .64.518a.29.29 0 0 0 .015-.1.52.52 0 0 0-.014-.125.43.43 0 0 0-.044-.11A.348.348 0 0 0 .36.009.666.666 0 0 0 .24 0H0m.202.06A.437.437 0 0 1 .238.058c.042 0 .078.008.109.025.03.016.057.041.08.075a.402.402 0 0 1 .056.125.55.55 0 0 1 .02.148.274.274 0 0 1-.01.084A.143.143 0 0 1 .46.57.109.109 0 0 1 .416.6.162.162 0 0 1 .36.61L.323.607.203.06z"/></symbol><use xlink:href="#F" transform="matrix(13.9826 0 0 -14.05062 77.887 374.774)"/></g><clipPath id="G"><path transform="matrix(.98915 0 0 -.99396 77.498 387.269)" d="M0 .02h10.728v25.847H0z" fill-rule="evenodd"/></clipPath><g clip-path="url(#G)"><use xlink:href="#u" transform="matrix(13.9826 0 0 -14.05062 88.11 374.774)"/></g></g></g><path stroke-width="2" stroke-linecap="round" stroke-linejoin="round" fill="none" stroke="#000" d="M133.58 389.87h43.31"/><clipPath id="H"><path transform="matrix(1 0 0 -1 0 454.92)" d="M118.82 73.276h10.26v-25.71h-10.26v25.71z" fill-rule="evenodd"/></clipPath><g clip-path="url(#H)"><clipPath id="I"><path transform="matrix(.98889 0 0 -.99396 118.82 407.354)" d="M0 0h10.377v25.867H0z" fill-rule="evenodd"/></clipPath><g clip-path="url(#I)"><clipPath id="J"><path transform="matrix(.98889 0 0 -.99396 118.82 407.354)" d="M0 .02h10.272v25.847H0z" fill-rule="evenodd"/></clipPath><g clip-path="url(#J)"><symbol id="K"><path d="m.324.19.002.001.01-.028a.26.26 0 0 1 .02-.045.067.067 0 0 1 .021-.022.056.056 0 0 1 .031-.008c.013 0 .025.003.037.01a.194.194 0 0 1 .04.033L.523.094A.436.436 0 0 0 .435.022.17.17 0 0 0 .349 0 .135.135 0 0 0 .26.03a.195.195 0 0 0-.056.093l-.02.058h.002a.198.198 0 0 0-.139.067A.247.247 0 0 0 0 .409a.578.578 0 0 0 .085.299c.022.032.048.06.077.084.03.023.063.04.099.052A.366.366 0 0 0 .375.86c.074 0 .13-.019.168-.058C.581.764.601.708.601.634A.605.605 0 0 0 .499.31.316.316 0 0 0 .324.19M.147.364c0-.045.006-.078.02-.098C.18.246.2.236.23.236c.019 0 .037.006.056.017A.211.211 0 0 1 .35.317.518.518 0 0 1 .41.44a.92.92 0 0 1 .044.238.181.181 0 0 1-.02.096C.421.794.4.804.37.804A.121.121 0 0 1 .288.768.35.35 0 0 1 .215.662.743.743 0 0 1 .147.364z"/></symbol><use xlink:href="#K" transform="matrix(13.97894 0 0 -14.05062 119.741 397.487)"/></g><clipPath id="L"><path transform="matrix(.98889 0 0 -.99396 118.82 407.354)" d="M0 .02h10.272v25.847H0z" fill-rule="evenodd"/></clipPath><g clip-path="url(#L)"><use xlink:href="#u" transform="matrix(13.97894 0 0 -14.05062 128.978 394.859)"/></g></g></g><path d="M73.004 114.44h60.28V39.09h-60.28z" fill="#fff" fill-rule="evenodd"/><path stroke-width="2" stroke-linecap="round" stroke-linejoin="round" fill="none" stroke="#000" d="M116.33 94.04h11.3M73.004 70.15l11.302 6.28-11.302 6.96m0 31.05h60.276V39.09H73.004v75.35z"/><path d="M76.771 57.93h15.07V45.372h-15.07zM114.45 108.16h15.07V95.602h-15.07z" fill="#fff" fill-rule="evenodd"/><clipPath id="M"><path transform="matrix(1 0 0 -1 0 454.92)" d="M0 0h285.36v454.92H0z" fill-rule="evenodd"/></clipPath><g clip-path="url(#M)"><use xlink:href="#b" transform="matrix(13.32 0 0 -13.32 118.361 107.14)"/></g><path d="M114.45 57.93h15.07V45.372h-15.07z" fill="#fff" fill-rule="evenodd"/><clipPath id="N"><path transform="matrix(1 0 0 -1 0 454.92)" d="M0 0h285.36v454.92H0z" fill-rule="evenodd"/></clipPath><g clip-path="url(#N)"><use xlink:href="#b" transform="matrix(13.32 0 0 -13.32 118.361 56.89)"/></g><path d="M77.609 108.16h15.07V95.602h-15.07z" fill="#fff" fill-rule="evenodd"/><path d="M91.841 111.3h22.605V42.229H91.841z" fill="#fff" fill-rule="evenodd"/><clipPath id="O"><path transform="matrix(1 0 0 -1 0 454.92)" d="M0 0h285.36v454.92H0z" fill-rule="evenodd"/></clipPath><g clip-path="url(#O)"><use xlink:href="#e" transform="matrix(6.6 0 0 -6.6 98.46 48.061)"/><use xlink:href="#f" transform="matrix(6.6 0 0 -6.6 101.735 48)"/><use xlink:href="#g" transform="matrix(6.6 0 0 -6.6 105.21 48.02)"/></g><clipPath id="P"><path transform="matrix(1 0 0 -1 0 454.92)" d="M0 0h285.36v454.92H0z" fill-rule="evenodd"/></clipPath><g clip-path="url(#P)"><use xlink:href="#i" transform="matrix(6.6 0 0 -6.6 98.627 105.632)"/><use xlink:href="#j" transform="matrix(6.6 0 0 -6.6 102.014 105.58)"/><use xlink:href="#k" transform="matrix(6.6 0 0 -6.6 104.766 105.6)"/></g><path d="M76.771 57.93h15.07V45.372h-15.07z" fill="#fff" fill-rule="evenodd"/><clipPath id="Q"><path transform="matrix(1 0 0 -1 0 454.92)" d="M0 0h285.36v454.92H0z" fill-rule="evenodd"/></clipPath><g clip-path="url(#Q)"><use xlink:href="#m" transform="matrix(13.92 0 0 -13.92 80.645 55.85)"/></g><path d="M77.609 108.16h15.07V95.602h-15.07zM76.771 57.93h15.07V45.372h-15.07z" fill="#fff" fill-rule="evenodd"/><path d="M77.609 108.16h15.07V95.602h-15.07zM91.004 60.44h38.25v-18h-38.25z" fill="#fff" fill-rule="evenodd"/><path d="M84.254 109.94h47.25V89.69h-47.25z" fill="#fff" fill-rule="evenodd"/><path stroke-width="2" stroke-linecap="round" stroke-linejoin="round" fill="none" stroke="#000" d="M52.754 76.55h20.25"/><clipPath id="R"><path transform="matrix(1 0 0 -1 0 454.92)" d="M19 364.56h24.973v27.638H19z" fill-rule="evenodd"/></clipPath><g clip-path="url(#R)"><clipPath id="S"><path transform="matrix(.99567 0 0 -.99427 19 90.36)" d="M0 0h25.082v27.797H0z" fill-rule="evenodd"/></clipPath><g clip-path="url(#S)"><clipPath id="T"><path transform="matrix(.99567 0 0 -.99427 19 90.36)" d="M0 .03h25.08v27.767H0z" fill-rule="evenodd"/></clipPath><g clip-path="url(#T)"><use xlink:href="#q" transform="matrix(14.05086 .00002 0 -14.0312 18.897 78.861)"/></g><clipPath id="U"><path transform="matrix(.99567 0 0 -.99427 19 90.36)" d="M0 .03h25.08v27.767H0z" fill-rule="evenodd"/></clipPath><g clip-path="url(#U)"><symbol id="V"><path d="M.254.375A.338.338 0 0 0 .34.462c.03.02.063.03.1.03a.275.275 0 0 0 .068-.01L.479.353H.392a.099.099 0 0 1-.008.045C.38.405.372.41.36.41A.057.057 0 0 1 .332.4a.252.252 0 0 1-.07-.087.335.335 0 0 1-.02-.063L.187 0h-.14l.078.34a.234.234 0 0 1 .008.048c0 .01-.002.019-.006.025C.124.418.117.42.11.42A.055.055 0 0 1 .076.408a.312.312 0 0 1-.04-.04L0 .401a.38.38 0 0 0 .086.07.17.17 0 0 0 .08.02A.09.09 0 0 0 .232.47.077.077 0 0 0 .255.41.133.133 0 0 0 .25.377L.254.375z"/></symbol><symbol id="W"><path d="M.407.11A.332.332 0 0 0 .301.026.284.284 0 0 0 .178 0 .215.215 0 0 0 .08.02.135.135 0 0 0 .02.08.206.206 0 0 0 0 .172a.393.393 0 0 0 .035.16.268.268 0 0 0 .153.146c.035.014.073.021.114.021.1 0 .15-.036.15-.108A.137.137 0 0 0 .437.327a.141.141 0 0 0-.05-.052A.298.298 0 0 0 .29.238.784.784 0 0 0 .137.222.276.276 0 0 1 .13.162C.13.133.137.11.15.095.161.08.18.071.206.071c.029 0 .055.006.078.017A.37.37 0 0 1 .366.15L.407.11M.148.272a.26.26 0 0 1 .138.035.103.103 0 0 1 .047.09c0 .017-.003.03-.011.038A.04.04 0 0 1 .29.449C.26.45.232.434.208.404a.361.361 0 0 1-.06-.13z"/></symbol><use xlink:href="#V" transform="matrix(9.96464 .00001 0 -9.9507 27.045 78.686)"/><use xlink:href="#W" transform="matrix(9.96464 .00001 0 -9.9507 32.925 78.764)"/><use xlink:href="#q" transform="matrix(9.96464 .00001 0 -9.9507 37.921 80.858)"/></g><clipPath id="X"><path transform="matrix(.99567 0 0 -.99427 19 90.36)" d="M0 .03h25.08v27.767H0z" fill-rule="evenodd"/></clipPath><g clip-path="url(#X)"><use xlink:href="#u" transform="matrix(14.05086 .00002 0 -14.0312 43.971 75.799)"/></g></g></g><path d="M56.832 76.55c0-2.26-1.826-4.08-4.078-4.08a4.075 4.075 0 1 0 0 8.15 4.073 4.073 0 0 0 4.078-4.07z" fill-rule="evenodd"/><path stroke-width="2" stroke-linecap="round" stroke-linejoin="round" fill="none" stroke="#000" d="M56.832 76.55c0-2.26-1.826-4.08-4.078-4.08a4.075 4.075 0 1 0 0 8.15 4.073 4.073 0 0 0 4.078-4.07z"/><clipPath id="Y"><path transform="matrix(1 0 0 -1 0 454.92)" d="M84.254 386.6h27.436v-25.71H84.254v25.71z" fill-rule="evenodd"/></clipPath><g clip-path="url(#Y)"><clipPath id="Z"><path transform="matrix(.99608 0 0 -.99396 84.254 94.03)" d="M0 0h27.547v25.867H0z" fill-rule="evenodd"/></clipPath><g clip-path="url(#Z)"><clipPath id="aa"><path transform="matrix(.99608 0 0 -.99396 84.254 94.03)" d="M0 .02h27.648v25.847H0z" fill-rule="evenodd"/></clipPath><g clip-path="url(#aa)"><use xlink:href="#y" transform="matrix(14.0806 .00001 0 -14.05062 85.182 81.645)"/><use xlink:href="#z" transform="matrix(14.0806 .00001 0 -14.05062 93.517 81.535)"/><use xlink:href="#A" transform="matrix(14.0806 .00001 0 -14.05062 101.402 81.535)"/></g><clipPath id="ab"><path transform="matrix(.99608 0 0 -.99396 84.254 94.03)" d="M0 .02h27.648v25.847H0z" fill-rule="evenodd"/></clipPath><g clip-path="url(#ab)"><use xlink:href="#u" transform="matrix(14.0806 .00001 0 -14.05062 111.794 81.535)"/></g></g></g><clipPath id="ac"><path transform="matrix(1 0 0 -1 0 454.92)" d="M78.237 406.69h10.517v-25.71H78.237v25.71z" fill-rule="evenodd"/></clipPath><g clip-path="url(#ac)"><clipPath id="ad"><path transform="matrix(.98915 0 0 -.99396 78.237 73.94)" d="M0 0h10.632v25.867H0z" fill-rule="evenodd"/></clipPath><g clip-path="url(#ad)"><clipPath id="ae"><path transform="matrix(.98915 0 0 -.99396 78.237 73.94)" d="M0 .02h10.728v25.847H0z" fill-rule="evenodd"/></clipPath><g clip-path="url(#ae)"><use xlink:href="#F" transform="matrix(13.9826 .00004 0 -14.05062 78.626 61.445)"/></g><clipPath id="af"><path transform="matrix(.98915 0 0 -.99396 78.237 73.94)" d="M0 .02h10.728v25.847H0z" fill-rule="evenodd"/></clipPath><g clip-path="url(#af)"><use xlink:href="#u" transform="matrix(13.9826 .00004 0 -14.05062 88.849 61.445)"/></g></g></g><path stroke-width="2" stroke-linecap="round" stroke-linejoin="round" fill="none" stroke="#000" d="M134.32 76.55h43.31"/><clipPath id="ag"><path transform="matrix(1 0 0 -1 0 454.92)" d="M119.55 386.6h10.27v-25.71h-10.27v25.71z" fill-rule="evenodd"/></clipPath><g clip-path="url(#ag)"><clipPath id="ah"><path transform="matrix(.98889 0 0 -.99396 119.55 94.03)" d="M0 0h10.377v25.867H0z" fill-rule="evenodd"/></clipPath><g clip-path="url(#ah)"><clipPath id="ai"><path transform="matrix(.98889 0 0 -.99396 119.55 94.03)" d="M0 .02h10.272v25.847H0z" fill-rule="evenodd"/></clipPath><g clip-path="url(#ai)"><use xlink:href="#K" transform="matrix(13.97894 .00004 0 -14.05062 120.471 84.163)"/></g><clipPath id="aj"><path transform="matrix(.98889 0 0 -.99396 119.55 94.03)" d="M0 .02h10.272v25.847H0z" fill-rule="evenodd"/></clipPath><g clip-path="url(#aj)"><use xlink:href="#u" transform="matrix(13.97894 .00004 0 -14.05062 129.708 81.535)"/></g></g></g><path d="M190.7 250.59h-27c-13.67-3.45-21.94-17.34-18.49-31.01 2.3-9.09 9.4-16.19 18.49-18.49h27v49.5z" fill="#fff" fill-rule="evenodd"/><path stroke-width="2" stroke-linecap="round" stroke-linejoin="round" fill="none" stroke="#000" d="M190.7 250.59h-27c-13.67-3.45-21.94-17.34-18.49-31.01 2.3-9.09 9.4-16.19 18.49-18.49h27v49.5zM190.7 237.39h16.59M191.55 214.47h16.58M144.44 225.28H102.8"/><clipPath id="ak"><path transform="matrix(1 0 0 -1 0 454.92)" d="M0 454.92h285.36V0H0" fill-rule="evenodd"/></clipPath><g clip-path="url(#ak)"><path stroke-width="2" stroke-linecap="round" stroke-linejoin="round" fill="none" stroke="#000" d="m103.14 114.44-.74 237.98"/></g><path d="M99.265 225.49c0-2.06 1.665-3.72 3.725-3.72s3.73 1.66 3.73 3.72a3.73 3.73 0 0 1-3.73 3.73 3.726 3.726 0 0 1-3.725-3.73z" fill-rule="evenodd"/><path stroke-width="2" stroke-linecap="round" stroke-linejoin="round" fill="none" stroke="#000" d="M99.265 225.49c0-2.06 1.665-3.72 3.725-3.72s3.73 1.66 3.73 3.72a3.73 3.73 0 0 1-3.73 3.73 3.726 3.726 0 0 1-3.725-3.73z"/><clipPath id="al"><path transform="matrix(1 0 0 -1 0 454.92)" d="M98.268 332.58h9.751v25.71h-9.751z" fill-rule="evenodd"/></clipPath><g clip-path="url(#al)"><clipPath id="am"><path transform="matrix(.98827 0 0 -.99396 98.268 122.34)" d="M0 0h9.867v25.867H0z" fill-rule="evenodd"/></clipPath><g clip-path="url(#am)"><clipPath id="an"><path transform="matrix(.98827 0 0 -.99396 98.268 122.34)" d="M0 .02h9.816v25.847H0z" fill-rule="evenodd"/></clipPath><g clip-path="url(#an)"><symbol id="ao"><path d="M.44.305A.181.181 0 0 0 .482.26.21.21 0 0 0 .505.194L.52.126A.318.318 0 0 1 .534.073a.078.078 0 0 1 .02-.026.083.083 0 0 1 .032-.015L.58 0H.405a.78.78 0 0 0-.028.109l-.016.08a.27.27 0 0 1-.016.059.067.067 0 0 1-.023.03.069.069 0 0 1-.038.01h-.03L.217.131A.34.34 0 0 1 .212.075C.212.06.216.049.223.043A.064.064 0 0 1 .26.033L.252 0H0l.007.032a.07.07 0 0 1 .04.028.231.231 0 0 1 .026.072l.089.403c.004.019.006.038.006.057 0 .013-.003.023-.01.03-.006.006-.016.01-.03.012l.006.033h.244A.801.801 0 0 0 .46.663.23.23 0 0 0 .523.648.153.153 0 0 0 .573.62.12.12 0 0 0 .605.575.187.187 0 0 0 .571.391.296.296 0 0 0 .44.31V.305m-.142.04c.042 0 .075.006.098.018a.14.14 0 0 1 .057.06.195.195 0 0 1 .02.092C.473.547.466.57.45.585.433.603.408.61.373.61h-.05L.266.343h.03z"/></symbol><use xlink:href="#ao" transform="matrix(13.97023 .00004 0 -14.05062 98.657 109.845)"/></g><clipPath id="ap"><path transform="matrix(.98827 0 0 -.99396 98.268 122.34)" d="M0 .02h9.816v25.847H0z" fill-rule="evenodd"/></clipPath><g clip-path="url(#ap)"><use xlink:href="#u" transform="matrix(13.97023 .00004 0 -14.05062 107.969 109.845)"/></g></g></g><clipPath id="aq"><path transform="matrix(1 0 0 -1 0 454.92)" d="M96.639 77.296h9.751v25.71H96.64z" fill-rule="evenodd"/></clipPath><g clip-path="url(#aq)"><clipPath id="ar"><path transform="matrix(.98827 0 0 -.99396 96.639 377.624)" d="M0 0h9.867v25.867H0z" fill-rule="evenodd"/></clipPath><g clip-path="url(#ar)"><clipPath id="as"><path transform="matrix(.98827 0 0 -.99396 96.639 377.624)" d="M0 .02h9.816v25.847H0z" fill-rule="evenodd"/></clipPath><g clip-path="url(#as)"><use xlink:href="#ao" transform="matrix(13.97023 .00001 0 -14.05062 97.028 365.129)"/></g><clipPath id="at"><path transform="matrix(.98827 0 0 -.99396 96.639 377.624)" d="M0 .02h9.816v25.847H0z" fill-rule="evenodd"/></clipPath><g clip-path="url(#at)"><use xlink:href="#u" transform="matrix(13.97023 .00001 0 -14.05062 106.34 365.129)"/></g></g></g><path stroke-width="2" stroke-linecap="round" stroke-linejoin="round" fill="none" stroke="#000" d="M30.9 351.56h18"/><clipPath id="au"><path transform="matrix(1 0 0 -1 0 454.92)" d="M26.973 123.17h30.104V97.46H26.973v25.71z" fill-rule="evenodd"/></clipPath><g clip-path="url(#au)"><clipPath id="av"><path transform="matrix(.99648 0 0 -.99396 26.973 357.46)" d="M0 0h30.21v25.867H0z" fill-rule="evenodd"/></clipPath><g clip-path="url(#av)"><clipPath id="aw"><path transform="matrix(.99648 0 0 -.99396 26.973 357.46)" d="M0 .02h30.264v25.847H0z" fill-rule="evenodd"/></clipPath><g clip-path="url(#aw)"><symbol id="ax"><path d="M.366.457a.83.83 0 0 1 .047.095.137.137 0 0 1 .008.045c0 .024-.013.037-.041.04L.387.67h.208L.588.638a.08.08 0 0 1-.03-.014.11.11 0 0 1-.025-.025A.58.58 0 0 1 .5.545L.197 0H.074l-.02.522a.517.517 0 0 1-.005.05.133.133 0 0 1-.009.036.046.046 0 0 1-.016.02.051.051 0 0 1-.024.01L.007.67H.26L.252.638A.062.062 0 0 1 .22.627.053.053 0 0 1 .202.602.168.168 0 0 1 .197.555V.511L.201.34.203.16h.005l.158.297z"/></symbol><use xlink:href="#ax" transform="matrix(14.08626 0 0 -14.05062 27.626 345.013)"/><use xlink:href="#F" transform="matrix(14.08626 0 0 -14.05062 36.38 344.965)"/><use xlink:href="#F" transform="matrix(14.08626 0 0 -14.05062 47.085 344.965)"/></g><clipPath id="ay"><path transform="matrix(.99648 0 0 -.99396 26.973 357.46)" d="M0 .02h30.264v25.847H0z" fill-rule="evenodd"/></clipPath><g clip-path="url(#ay)"><use xlink:href="#u" transform="matrix(14.08626 0 0 -14.05062 57.13 344.965)"/></g></g></g><clipPath id="az"><path transform="matrix(1 0 0 -1 0 454.92)" d="M0 454.92h285.36V0H0" fill-rule="evenodd"/></clipPath><g clip-path="url(#az)"><path stroke-width="2" stroke-linecap="round" stroke-linejoin="round" fill="none" stroke="#000" d="M39.9 351.84v18.004"/></g><path stroke-width="2" stroke-linecap="round" stroke-linejoin="round" fill="none" stroke="#000" d="M40.192 57.09h32.062M31.192 38.81h18"/><clipPath id="aA"><path transform="matrix(1 0 0 -1 0 454.92)" d="M27.265 435.92h30.104v-25.71H27.265v25.71z" fill-rule="evenodd"/></clipPath><g clip-path="url(#aA)"><clipPath id="aB"><path transform="matrix(.99648 0 0 -.99396 27.265 44.71)" d="M0 0h30.21v25.867H0z" fill-rule="evenodd"/></clipPath><g clip-path="url(#aB)"><clipPath id="aC"><path transform="matrix(.99648 0 0 -.99396 27.265 44.71)" d="M0 .02h30.264v25.847H0z" fill-rule="evenodd"/></clipPath><g clip-path="url(#aC)"><use xlink:href="#ax" transform="matrix(14.08626 .00001 0 -14.05062 27.918 32.263)"/><use xlink:href="#F" transform="matrix(14.08626 .00001 0 -14.05062 36.672 32.215)"/><use xlink:href="#F" transform="matrix(14.08626 .00001 0 -14.05062 47.377 32.215)"/></g><clipPath id="aD"><path transform="matrix(.99648 0 0 -.99396 27.265 44.71)" d="M0 .02h30.264v25.847H0z" fill-rule="evenodd"/></clipPath><g clip-path="url(#aD)"><use xlink:href="#u" transform="matrix(14.08626 .00001 0 -14.05062 57.423 32.215)"/></g></g></g><clipPath id="aE"><path transform="matrix(1 0 0 -1 0 454.92)" d="M0 454.92h285.36V0H0" fill-rule="evenodd"/></clipPath><g clip-path="url(#aE)"><path stroke-width="2" stroke-linecap="round" stroke-linejoin="round" fill="none" stroke="#000" d="M40.192 39.09v18"/></g><path stroke-width="2" stroke-linecap="round" stroke-linejoin="round" fill="none" stroke="#000" d="M176.89 389.87h50.38"/><path d="m226.37 385.35 4.52 4.52-4.52 4.52v-9.04z" fill-rule="evenodd"/><clipPath id="aF"><path transform="matrix(1 0 0 -1 0 454.92)" d="M0 454.92h285.36V0H0" fill-rule="evenodd"/></clipPath><g clip-path="url(#aF)"><path stroke-width="2" stroke-linecap="round" stroke-linejoin="round" fill="none" stroke="#000" d="M207.29 237.39v152.48"/></g><path d="M203.75 389.531a3.726 3.726 0 1 1 7.45 0 3.727 3.727 0 0 1-3.72 3.727 3.729 3.729 0 0 1-3.73-3.727z" fill-rule="evenodd"/><path stroke-width="2" stroke-linecap="round" stroke-linejoin="round" fill="none" stroke="#000" d="M203.75 389.531a3.726 3.726 0 1 1 7.45 0 3.727 3.727 0 0 1-3.72 3.727 3.729 3.729 0 0 1-3.73-3.727z"/><clipPath id="aG"><path transform="matrix(1 0 0 -1 0 454.92)" d="M0 454.92h285.36V0H0" fill-rule="evenodd"/></clipPath><g clip-path="url(#aG)"><path stroke-width="2" stroke-linecap="round" stroke-linejoin="round" fill="none" stroke="#000" d="M208.13 214.47V77.34"/></g><path stroke-width="2" stroke-linecap="round" stroke-linejoin="round" fill="none" stroke="#000" d="M177.63 76.55h49.64"/><path d="m226.37 72.03 4.52 4.52-4.52 4.52v-9.04zM204.31 77.55c0-2.05 1.67-3.72 3.73-3.72a3.72 3.72 0 0 1 3.72 3.72c0 2.06-1.66 3.73-3.72 3.73a3.73 3.73 0 0 1-3.73-3.73z" fill-rule="evenodd"/><path stroke-width="2" stroke-linecap="round" stroke-linejoin="round" fill="none" stroke="#000" d="M204.31 77.55c0-2.05 1.67-3.72 3.73-3.72a3.72 3.72 0 0 1 3.72 3.72c0 2.06-1.66 3.73-3.72 3.73a3.73 3.73 0 0 1-3.73-3.73z"/><clipPath id="aH"><path transform="matrix(1 0 0 -1 0 454.92)" d="M234.5 360.87h19.786v25.71H234.5z" fill-rule="evenodd"/></clipPath><g clip-path="url(#aH)"><clipPath id="aI"><path transform="matrix(.99442 0 0 -.99396 234.5 94.05)" d="M0 0h19.897v25.867H0z" fill-rule="evenodd"/></clipPath><g clip-path="url(#aI)"><clipPath id="aJ"><path transform="matrix(.99442 0 0 -.99396 234.5 94.05)" d="M0 .02h19.944v25.847H0z" fill-rule="evenodd"/></clipPath><g clip-path="url(#aJ)"><symbol id="aK"><path d="M.481.24A.462.462 0 0 0 .443.127.23.23 0 0 0 .386.053.213.213 0 0 0 .31.013.392.392 0 0 0 .123.01a.183.183 0 0 0-.064.033A.16.16 0 0 0 0 .176L.003.23C.006.248.011.277.02.317l.05.225A.26.26 0 0 1 .078.6c0 .013-.003.023-.01.03C.061.635.051.64.037.641l.006.032H.29L.282.642a.07.07 0 0 1-.04-.027.231.231 0 0 1-.026-.073L.15.243A.524.524 0 0 1 .138.147C.138.117.145.095.16.08.174.065.196.057.224.057c.027 0 .05.006.069.018.019.012.033.03.044.051a.372.372 0 0 1 .03.087l.072.33A.22.22 0 0 1 .445.6c0 .013-.003.023-.01.03C.43.635.42.64.406.641l.007.032H.62L.613.642A.072.072 0 0 1 .57.614.225.225 0 0 1 .547.542L.48.24z"/></symbol><symbol id="aL"><path d="M.378.667A.807.807 0 0 0 .46.663.223.223 0 0 0 .522.648a.15.15 0 0 0 .051-.03.12.12 0 0 0 .031-.045.16.16 0 0 0 .011-.06A.215.215 0 0 0 .537.34.25.25 0 0 0 .444.29.485.485 0 0 0 .315.277H.3c-.02 0-.037 0-.05.002L.218.132A.31.31 0 0 1 .212.075C.212.06.216.049.223.043A.064.064 0 0 1 .26.033L.252 0H0l.007.032a.07.07 0 0 1 .04.028.231.231 0 0 1 .026.072l.089.403c.004.019.006.038.006.057 0 .013-.003.023-.01.03-.006.006-.016.01-.03.012l.006.033h.244M.288.333c.045 0 .08.007.104.021a.135.135 0 0 1 .055.063c.012.028.019.06.019.094C.466.544.458.57.442.585.427.601.403.609.371.609a.99.99 0 0 1-.048 0L.263.332H.29z"/></symbol><use xlink:href="#aK" transform="matrix(14.0571 .00002 -.00001 -14.05062 235.64 81.665)"/><use xlink:href="#aL" transform="matrix(14.0571 .00002 -.00001 -14.05062 245.153 81.555)"/></g><clipPath id="aM"><path transform="matrix(.99442 0 0 -.99396 234.5 94.05)" d="M0 .02h19.944v25.847H0z" fill-rule="evenodd"/></clipPath><g clip-path="url(#aM)"><use xlink:href="#u" transform="matrix(14.0571 .00002 -.00001 -14.05062 254.333 81.555)"/></g></g></g><clipPath id="aN"><path transform="matrix(1 0 0 -1 0 454.92)" d="M231.55 48.116h34.923v25.71H231.55z" fill-rule="evenodd"/></clipPath><g clip-path="url(#aN)"><clipPath id="aO"><path transform="matrix(.99705 0 0 -.99396 231.55 406.804)" d="M0 0h35.027v25.867H0z" fill-rule="evenodd"/></clipPath><g clip-path="url(#aO)"><clipPath id="aP"><path transform="matrix(.99705 0 0 -.99396 231.55 406.804)" d="M0 .02h35.064v25.847H0z" fill-rule="evenodd"/></clipPath><g clip-path="url(#aP)"><symbol id="aQ"><path d="M.71.48C.723.506.733.53.74.546c.007.018.01.033.01.044 0 .01 0 .018-.003.024a.03.03 0 0 1-.013.014.066.066 0 0 1-.025.009L.717.67h.208L.917.638A.073.073 0 0 1 .89.626.114.114 0 0 1 .865.603a1.95 1.95 0 0 1-.05-.086L.534 0H.417v.464H.411A1.323 1.323 0 0 0 .378.396L.18 0H.062l-.01.52a.32.32 0 0 1-.007.07.073.073 0 0 1-.016.034A.049.049 0 0 1 0 .638L.007.67h.25L.25.638A.078.078 0 0 1 .225.63.044.044 0 0 1 .21.617.06.06 0 0 1 .2.597.131.131 0 0 1 .197.572V.51L.193.328C.194.295.192.243.19.172h.007c.01.025.035.074.071.147l.176.35H.55V.35L.552.307c0-.046 0-.09-.003-.135h.006l.083.165.072.142z"/></symbol><symbol id="aR"><path d="M.134.667H.32L.414.39C.44.315.46.25.475.19h.006c.01.057.022.12.038.188l.034.157a.27.27 0 0 1 .006.057c0 .013-.003.023-.01.03C.543.628.533.632.52.634l.006.033h.18L.698.634a.07.07 0 0 1-.04-.027.231.231 0 0 1-.026-.072L.515 0H.403L.286.341a2.763 2.763 0 0 0-.05.164H.229A2.52 2.52 0 0 0 .187.291L.152.131A.31.31 0 0 1 .146.076c0-.014.003-.024.01-.03a.056.056 0 0 1 .03-.013L.18 0H0l.007.032a.07.07 0 0 1 .04.028.231.231 0 0 1 .026.072l.089.403c.004.019.006.038.006.057 0 .013-.003.023-.01.03-.006.006-.016.01-.03.012l.006.033z"/></symbol><use xlink:href="#F" transform="matrix(14.09427 0 -.00001 -14.05062 231.942 394.309)"/><use xlink:href="#aQ" transform="matrix(14.09427 0 -.00001 -14.05062 242.984 394.357)"/><use xlink:href="#aR" transform="matrix(14.09427 0 -.00001 -14.05062 256.452 394.309)"/></g><clipPath id="aS"><path transform="matrix(.99705 0 0 -.99396 231.55 406.804)" d="M0 .02h35.064v25.847H0z" fill-rule="evenodd"/></clipPath><g clip-path="url(#aS)"><use xlink:href="#u" transform="matrix(14.09427 0 -.00001 -14.05062 266.51 394.309)"/></g></g></g><clipPath id="aT"><path transform="matrix(1 0 0 -1 0 454.92)" d="M154.19 186.7h26.759v52.157H154.19z" fill-rule="evenodd"/></clipPath><g clip-path="url(#aT)"><clipPath id="aU"><path transform="matrix(.99598 0 0 -.99628 154.19 268.22)" d="M0 0h26.867v52.352H0z" fill-rule="evenodd"/></clipPath><g clip-path="url(#aU)"><clipPath id="aV"><path transform="matrix(.99598 0 0 -.99628 154.19 268.22)" d="M0 .056h26.904v52.296H0z" fill-rule="evenodd"/></clipPath><g clip-path="url(#aV)"><symbol id="aW"><path d="M.433.16A.243.243 0 0 1 .425.104c0-.01.002-.019.006-.024C.434.074.44.07.449.07.46.07.47.076.482.085c.012.01.025.023.04.041L.559.09A.397.397 0 0 0 .47.019.169.169 0 0 0 .392 0a.091.091 0 0 0-.065.022.08.08 0 0 0-.024.06c0 .009 0 .016.003.024H.299A.531.531 0 0 0 .237.044.175.175 0 0 0 .12 0C.08 0 .05.013.03.04A.19.19 0 0 0 0 .156C0 .2.006.243.019.286.032.33.05.368.074.399a.25.25 0 0 0 .09.075A.268.268 0 0 0 .285.5C.334.5.376.488.41.465L.457.5.512.492.432.16M.337.312a.341.341 0 0 1 .008.072.082.082 0 0 1-.012.049C.323.443.31.449.292.449.262.45.234.434.21.403a.521.521 0 0 1-.078-.26C.133.119.136.1.143.089A.036.036 0 0 1 .176.072c.021 0 .043.01.065.031a.25.25 0 0 1 .054.074.54.54 0 0 1 .037.116l.004.019z"/></symbol><symbol id="aX"><path d="M.035.375 0 .41a.38.38 0 0 0 .086.07.17.17 0 0 0 .08.02.09.09 0 0 0 .065-.023.077.077 0 0 0 .024-.06.092.092 0 0 0-.003-.023L.257.39c.03.038.06.066.087.084C.372.49.404.5.441.5.474.5.5.49.52.472A.103.103 0 0 0 .548.395a.373.373 0 0 0-.01-.08L.499.161A.237.237 0 0 1 .491.104C.49.092.493.083.497.078A.023.023 0 0 1 .515.071c.01 0 .02.004.032.013a.32.32 0 0 1 .041.041L.624.09A.38.38 0 0 0 .538.02.17.17 0 0 0 .455 0C.42 0 .395.008.379.025.363.043.355.068.355.101c0 .024.005.054.014.091l.022.081a.923.923 0 0 1 .02.112C.41.4.408.411.4.418a.033.033 0 0 1-.026.01C.359.429.341.42.32.4A.261.261 0 0 1 .271.34a.272.272 0 0 1-.03-.082L.188.008h-.14l.078.34a.234.234 0 0 1 .008.048C.133.406.13.415.127.42.124.426.117.43.11.43A.055.055 0 0 1 .076.415a.312.312 0 0 1-.04-.041z"/></symbol><symbol id="aY"><path d="M.523.125.558.09A.397.397 0 0 0 .47.019.169.169 0 0 0 .392 0a.091.091 0 0 0-.065.022.08.08 0 0 0-.024.06c0 .009 0 .016.003.024L.299.107A.395.395 0 0 0 .212.025.176.176 0 0 0 .116 0 .102.102 0 0 0 .03.04.19.19 0 0 0 0 .156C0 .2.006.243.019.286.032.33.05.368.074.399a.25.25 0 0 0 .09.075.267.267 0 0 0 .205.012L.386.56a.574.574 0 0 1 .01.07c0 .007 0 .012-.002.016a.022.022 0 0 1-.006.01.028.028 0 0 1-.012.006.192.192 0 0 1-.029.005L.355.7l.146.008h.055L.433.16A.257.257 0 0 1 .425.104c0-.01.002-.019.006-.024C.434.074.44.07.449.07.46.07.47.076.482.085c.012.01.025.023.04.041M.337.312a.339.339 0 0 1 .008.071.083.083 0 0 1-.012.05C.323.443.31.449.292.449.262.45.234.434.21.403a.521.521 0 0 1-.078-.26C.133.119.136.1.143.089A.036.036 0 0 1 .176.072c.021 0 .043.01.065.031a.25.25 0 0 1 .054.074.54.54 0 0 1 .037.116l.004.019z"/></symbol><use xlink:href="#aW" transform="matrix(14.00753 0 0 -14.0117 154.908 229.347)"/><use xlink:href="#aX" transform="matrix(14.00753 0 0 -14.0117 163.179 229.347)"/><use xlink:href="#aY" transform="matrix(14.00753 0 0 -14.0117 172.978 229.347)"/></g><clipPath id="aZ"><path transform="matrix(.99598 0 0 -.99628 154.19 268.22)" d="M0 .056h26.904v52.296H0z" fill-rule="evenodd"/></clipPath><g clip-path="url(#aZ)"><use xlink:href="#u" transform="matrix(14.00753 0 0 -14.0117 180.986 229.238)"/></g><clipPath id="ba"><path transform="matrix(.99598 0 0 -.99628 154.19 268.22)" d="M0 .056h26.904v52.296H0z" fill-rule="evenodd"/></clipPath><g clip-path="url(#ba)"><use xlink:href="#u" transform="matrix(14.00753 0 0 -14.0117 154.19 254.99)"/></g></g></g></svg>