<svg xmlns="http://www.w3.org/2000/svg" xmlns:xlink="http://www.w3.org/1999/xlink" width="461.44" height="340.96" viewBox="0 0 346.08 255.72"><clipPath id="a"><path transform="matrix(1 0 0 -1 0 255.72)" d="M0 255.72h346.08V0H0" fill-rule="evenodd"/></clipPath><g clip-path="url(#a)"><path stroke-width="2" stroke-linecap="round" stroke-linejoin="round" fill="none" stroke="#000" d="M40.117 227.776V28.01"/></g><clipPath id="b"><path transform="matrix(1 0 0 -1 0 255.72)" d="M0 255.72h346.08V0H0" fill-rule="evenodd"/></clipPath><g clip-path="url(#b)"><path d="m44.637 226.872-4.52 4.52-4.52-4.52h9.04z" fill-rule="evenodd"/></g><clipPath id="c"><path transform="matrix(1 0 0 -1 0 255.72)" d="M0 255.72h346.08V0H0" fill-rule="evenodd"/></clipPath><g clip-path="url(#c)"><path d="m35.597 28.91 4.52-4.52 4.52 4.52h-9.04z" fill-rule="evenodd"/></g><path stroke-width="2" stroke-linecap="round" stroke-linejoin="round" fill="none" stroke="#000" d="M40.117 127.89H318.15"/><path d="m317.24 123.37 4.52 4.52-4.52 4.52v-9.04z" fill-rule="evenodd"/><clipPath id="d"><path transform="matrix(1 0 0 -1 0 255.72)" d="M0 255.72h346.08V0H0" fill-rule="evenodd"/></clipPath><g clip-path="url(#d)"><path stroke-width="2" stroke-linecap="round" stroke-linejoin="round" fill="none" stroke="#000" d="M112.12 177.392V127.89"/></g><clipPath id="e"><path transform="matrix(1 0 0 -1 0 255.72)" d="M0 255.72h346.08V0H0" fill-rule="evenodd"/></clipPath><g clip-path="url(#e)"><path stroke-width="2" stroke-linecap="round" stroke-linejoin="round" fill="none" stroke="#000" d="M238.12 127.89v-49.5"/></g><clipPath id="f"><path transform="matrix(1 0 0 -1 0 255.72)" d="M0 255.72h346.08V0H0" fill-rule="evenodd"/></clipPath><g clip-path="url(#f)"><path stroke-width="2" stroke-linecap="round" stroke-linejoin="round" fill="none" stroke="#000" d="m112.12 177.392 126-99.002"/></g><clipPath id="g"><path transform="matrix(1 0 0 -1 0 255.72)" d="M63.743 148.08h96.747v-22.51H63.744l-.001 22.51z" fill-rule="evenodd"/></clipPath><g clip-path="url(#g)"><clipPath id="h"><path transform="matrix(1.0496 0 0 -1.0201 63.743 130.15)" d="M0 0h92.175v22.063H0z" fill-rule="evenodd"/></clipPath><g clip-path="url(#h)"><symbol id="i"><path d="M.314.136c0-.019.001-.033.003-.043A.056.056 0 0 1 .33.07.059.059 0 0 1 .352.056.216.216 0 0 1 .39.048.792.792 0 0 1 .45.044V0H.03v.044a.715.715 0 0 1 .076.007.096.096 0 0 1 .036.012.046.046 0 0 1 .018.024c.004.01.006.026.006.05v.352c0 .014-.003.023-.008.03a.025.025 0 0 1-.02.008.086.086 0 0 1-.035-.011A.794.794 0 0 1 .03.47L0 .52l.255.153h.062a2.211 2.211 0 0 1-.003-.13V.136z"/></symbol><symbol id="j"><path d="M.383.36.384.354A.18.18 0 0 0 .47.291C.49.263.499.23.499.19a.17.17 0 0 0-.03-.1.199.199 0 0 0-.09-.068A.358.358 0 0 0 .244 0a.354.354 0 0 0-.129.021.19.19 0 0 0-.085.064.164.164 0 0 0-.03.099C0 .22.01.252.028.279c.02.027.049.05.089.067L.116.353C.044.383.008.436.008.508c0 .034.01.063.03.09.021.026.05.047.089.062.038.015.08.023.127.023.08 0 .14-.015.18-.044.04-.029.06-.07.06-.123A.156.156 0 0 0 .466.424.187.187 0 0 0 .383.36M.154.512C.154.47.163.437.18.414A.087.087 0 0 1 .253.38c.032 0 .055.011.07.032a.15.15 0 0 1 .025.091c0 .04-.009.072-.025.093a.083.083 0 0 1-.071.032C.22.628.195.618.179.598.162.58.154.55.154.513M.148.195C.148.15.157.114.174.09.19.067.217.055.25.055S.308.067.325.09a.162.162 0 0 1 .026.097.17.17 0 0 1-.028.103.087.087 0 0 1-.073.037C.216.327.19.316.174.293A.16.16 0 0 1 .148.195z"/></symbol><use xlink:href="#i" transform="matrix(11.66305 0 0 -11.33544 99.994 118.49)"/><use xlink:href="#j" transform="matrix(11.66305 0 0 -11.33544 106.522 118.583)"/><symbol id="k"><path d="M.235 0c-.08 0-.14.028-.178.083A.45.45 0 0 0 0 .335c0 .113.021.199.064.258.043.06.103.09.18.09.08 0 .14-.028.179-.083C.463.546.482.462.482.35A.451.451 0 0 0 .419.088.211.211 0 0 0 .235 0M.148.35c0-.072.004-.13.01-.172a.235.235 0 0 1 .03-.094.063.063 0 0 1 .055-.03c.012 0 .023.004.032.01A.08.08 0 0 1 .3.091a.2.2 0 0 1 .019.051.496.496 0 0 1 .011.08 1.505 1.505 0 0 1-.003.253.387.387 0 0 1-.019.092.108.108 0 0 1-.029.046.059.059 0 0 1-.038.013.062.062 0 0 1-.055-.03.227.227 0 0 1-.029-.091A1.125 1.125 0 0 1 .148.349z"/></symbol><use xlink:href="#k" transform="matrix(11.66305 0 0 -11.33544 113.592 118.578)"/><symbol id="l"><path d="M.182 0a.223.223 0 0 0-.095.019.148.148 0 0 0-.064.059A.189.189 0 0 0 0 .174c0 .038.006.078.018.12.012.043.03.08.056.112a.232.232 0 0 0 .092.071A.308.308 0 0 0 .287.5.21.21 0 0 0 .39.478a.138.138 0 0 0 .06-.062.2.2 0 0 0 .02-.092.41.41 0 0 0-.021-.13.315.315 0 0 0-.06-.108.23.23 0 0 0-.09-.065A.31.31 0 0 0 .183 0m-.05.142A.13.13 0 0 1 .145.073C.156.058.172.051.193.051c.028 0 .052.013.072.04.02.027.038.068.051.122.014.054.02.101.02.141a.133.133 0 0 1-.014.072C.312.442.297.45.276.45.249.45.225.436.205.41A.587.587 0 0 1 .132.142z"/></symbol><use xlink:href="#l" transform="matrix(8.4891 0 0 -8.25063 120.323 114.367)"/><symbol id="m"><path d="M0 0z"/></symbol><use xlink:href="#m" transform="matrix(10.5295 0 0 -10.23372 125.157 118.49)"/></g></g><clipPath id="n"><path transform="matrix(1 0 0 -1 0 255.72)" d="M208.19 148.53h96.75v-22.51h-96.75v22.51z" fill-rule="evenodd"/></clipPath><g clip-path="url(#n)"><clipPath id="o"><path transform="matrix(1.0496 0 0 -1.0201 208.19 129.7)" d="M0 0h92.175v22.063H0z" fill-rule="evenodd"/></clipPath><g clip-path="url(#o)"><symbol id="p"><path d="M0 0v.065h.602V0H0z"/></symbol><use xlink:href="#p" transform="matrix(11.66305 0 0 -11.33544 240.048 115.167)"/><use xlink:href="#i" transform="matrix(11.66305 0 0 -11.33544 248.849 118.04)"/><use xlink:href="#j" transform="matrix(11.66305 0 0 -11.33544 255.377 118.133)"/><use xlink:href="#k" transform="matrix(11.66305 0 0 -11.33544 262.447 118.128)"/><use xlink:href="#l" transform="matrix(8.4891 0 0 -8.25063 269.178 113.917)"/><use xlink:href="#m" transform="matrix(10.5295 0 0 -10.23372 273.886 118.04)"/></g></g><clipPath id="q"><path transform="matrix(1 0 0 -1 0 255.72)" d="M195.37 120.7h96.75V98.957h-96.75V120.7z" fill-rule="evenodd"/></clipPath><g clip-path="url(#q)"><clipPath id="r"><path transform="matrix(1.0496 0 0 -1.04457 195.37 156.763)" d="M0 0h92.175v20.814H0z" fill-rule="evenodd"/></clipPath><g clip-path="url(#r)"><clipPath id="s"><path transform="matrix(1.0496 0 0 -1.04457 195.37 156.763)" d="M0 .102h92.256v20.712H0z" fill-rule="evenodd"/></clipPath><g clip-path="url(#s)"><symbol id="t"><path d="M.378.667A.807.807 0 0 0 .46.663.223.223 0 0 0 .522.648a.15.15 0 0 0 .051-.03.12.12 0 0 0 .031-.045.16.16 0 0 0 .011-.06A.215.215 0 0 0 .537.34.25.25 0 0 0 .444.29.485.485 0 0 0 .315.277H.3c-.02 0-.037 0-.05.002L.218.132A.31.31 0 0 1 .212.075C.212.06.216.049.223.043A.064.064 0 0 1 .26.033L.252 0H0l.007.032a.07.07 0 0 1 .04.028.231.231 0 0 1 .026.072l.089.403c.004.019.006.038.006.057 0 .013-.003.023-.01.03-.006.006-.016.01-.03.012l.006.033h.244M.288.333c.045 0 .08.007.104.021a.135.135 0 0 1 .055.063c.012.028.019.06.019.094C.466.544.458.57.442.585.427.601.403.609.371.609a.99.99 0 0 1-.048 0L.263.332H.29z"/></symbol><symbol id="u"><path d="M.219.409.225.407a.292.292 0 0 0 .08.07A.176.176 0 0 0 .394.5C.427.5.453.49.472.472A.104.104 0 0 0 .5.395a.373.373 0 0 0-.01-.08L.45.161A.237.237 0 0 1 .443.104C.442.092.444.083.45.078A.023.023 0 0 1 .467.071c.01 0 .02.004.031.013A.298.298 0 0 1 .54.125L.575.09A.38.38 0 0 0 .49.02.17.17 0 0 0 .406 0C.373 0 .348.008.332.024.315.041.307.066.307.1c0 .026.004.056.013.09l.022.084a.985.985 0 0 1 .02.112.051.051 0 0 1-.008.032C.348.425.339.43.327.43.311.429.291.419.27.397a.25.25 0 0 1-.05-.062.29.29 0 0 1-.025-.077L.14.008H0L.124.56a.36.36 0 0 1 .01.07c0 .007 0 .012-.002.016a.022.022 0 0 1-.007.01.028.028 0 0 1-.011.006.192.192 0 0 1-.029.005L.093.7l.146.008h.055L.219.409z"/></symbol><symbol id="v"><path d="M.433.16A.243.243 0 0 1 .425.104c0-.01.002-.019.006-.024C.434.074.44.07.449.07.46.07.47.076.482.085c.012.01.025.023.04.041L.559.09A.397.397 0 0 0 .47.019.169.169 0 0 0 .392 0a.091.091 0 0 0-.065.022.08.08 0 0 0-.024.06c0 .009 0 .016.003.024H.299A.531.531 0 0 0 .237.044.175.175 0 0 0 .12 0C.08 0 .05.013.03.04A.19.19 0 0 0 0 .156C0 .2.006.243.019.286.032.33.05.368.074.399a.25.25 0 0 0 .09.075A.268.268 0 0 0 .285.5C.334.5.376.488.41.465L.457.5.512.492.432.16M.337.312a.341.341 0 0 1 .008.072.082.082 0 0 1-.012.049C.323.443.31.449.292.449.262.45.234.434.21.403a.521.521 0 0 1-.078-.26C.133.119.136.1.143.089A.036.036 0 0 1 .176.072c.021 0 .043.01.065.031a.25.25 0 0 1 .054.074.54.54 0 0 1 .037.116l.004.019z"/></symbol><symbol id="w"><path d="M.09.145a.118.118 0 0 1 .022-.07C.125.06.146.052.174.052.2.05.22.057.234.069c.014.013.02.03.02.054a.08.08 0 0 1-.006.034.085.085 0 0 1-.022.028.396.396 0 0 1-.051.035.236.236 0 0 0-.071.06.122.122 0 0 0-.022.071c0 .048.017.085.053.11A.254.254 0 0 0 .285.5a.553.553 0 0 0 .16-.022L.42.36H.358a.117.117 0 0 1-.024.067C.322.442.304.449.281.449A.078.078 0 0 1 .228.432a.056.056 0 0 1-.02-.045C.208.37.214.355.225.342A.29.29 0 0 1 .29.294.232.232 0 0 0 .364.231.132.132 0 0 0 .386.154.136.136 0 0 0 .36.07.155.155 0 0 0 .287.017.3.3 0 0 0 .182 0 .695.695 0 0 0 0 .023l.027.122H.09z"/></symbol><symbol id="x"><path d="M.407.11A.332.332 0 0 0 .301.026.284.284 0 0 0 .178 0 .215.215 0 0 0 .08.02.135.135 0 0 0 .02.08.206.206 0 0 0 0 .172a.393.393 0 0 0 .035.16.268.268 0 0 0 .153.146c.035.014.073.021.114.021.1 0 .15-.036.15-.108A.137.137 0 0 0 .437.327a.141.141 0 0 0-.05-.052A.298.298 0 0 0 .29.238.784.784 0 0 0 .137.222.276.276 0 0 1 .13.162C.13.133.137.11.15.095.161.08.18.071.206.071c.029 0 .055.006.078.017A.37.37 0 0 1 .366.15L.407.11M.148.272a.26.26 0 0 1 .138.035.103.103 0 0 1 .047.09c0 .017-.003.03-.011.038A.04.04 0 0 1 .29.449C.26.45.232.434.208.404a.361.361 0 0 1-.06-.13z"/></symbol><use xlink:href="#t" transform="matrix(10.47912 0 0 -10.42903 212.816 144.949)"/><use xlink:href="#u" transform="matrix(10.47912 0 0 -10.42903 220.226 145.03)"/><use xlink:href="#v" transform="matrix(10.47912 0 0 -10.42903 226.79 145.03)"/><use xlink:href="#w" transform="matrix(10.47912 0 0 -10.42903 233.005 145.03)"/><use xlink:href="#x" transform="matrix(10.47912 0 0 -10.42903 238.526 145.03)"/></g><clipPath id="y"><path transform="matrix(1.0496 0 0 -1.04457 195.37 156.763)" d="M0 .102h92.256v20.712H0z" fill-rule="evenodd"/></clipPath><g clip-path="url(#y)"><symbol id="z"><path d="M0 0z"/></symbol><use xlink:href="#z" transform="matrix(10.47912 0 0 -10.42903 243.911 144.949)"/></g><clipPath id="A"><path transform="matrix(1.0496 0 0 -1.04457 195.37 156.763)" d="M0 .102h92.256v20.712H0z" fill-rule="evenodd"/></clipPath><g clip-path="url(#A)"><symbol id="B"><path d="M.254.375A.338.338 0 0 0 .34.462c.03.02.063.03.1.03a.275.275 0 0 0 .068-.01L.479.353H.392a.099.099 0 0 1-.008.045C.38.405.372.41.36.41A.057.057 0 0 1 .332.4a.252.252 0 0 1-.07-.087.335.335 0 0 1-.02-.063L.187 0h-.14l.078.34a.234.234 0 0 1 .008.048c0 .01-.002.019-.006.025C.124.418.117.42.11.42A.055.055 0 0 1 .076.408a.312.312 0 0 1-.04-.04L0 .401a.38.38 0 0 0 .086.07.17.17 0 0 0 .08.02A.09.09 0 0 0 .232.47.077.077 0 0 0 .255.41.133.133 0 0 0 .25.377L.254.375z"/></symbol><use xlink:href="#x" transform="matrix(10.47912 0 0 -10.42903 246.842 145.03)"/><use xlink:href="#B" transform="matrix(10.47912 0 0 -10.42903 252.29 144.949)"/><use xlink:href="#B" transform="matrix(10.47912 0 0 -10.42903 257.95 144.949)"/><use xlink:href="#l" transform="matrix(10.47912 0 0 -10.42903 264.053 145.03)"/><use xlink:href="#B" transform="matrix(10.47912 0 0 -10.42903 269.686 144.949)"/></g><clipPath id="C"><path transform="matrix(1.0496 0 0 -1.04457 195.37 156.763)" d="M0 .102h92.256v20.712H0z" fill-rule="evenodd"/></clipPath><g clip-path="url(#C)"><use xlink:href="#m" transform="matrix(10.47912 0 0 -10.42903 275.072 144.949)"/></g></g></g><clipPath id="D"><path transform="matrix(1 0 0 -1 0 255.72)" d="M18.375 220.83h21.742V37.828H18.375V220.83z" fill-rule="evenodd"/></clipPath><g clip-path="url(#D)"><clipPath id="E"><path transform="matrix(0 -1.04797 -1.04457 0 40.117 217.892)" d="M0 0h174.62v20.814H0z" fill-rule="evenodd"/></clipPath><g clip-path="url(#E)"><clipPath id="F"><path transform="matrix(0 -1.04797 -1.04457 0 40.117 217.892)" d="M0 .102h174.7v20.712H0z" fill-rule="evenodd"/></clipPath><g clip-path="url(#F)"><symbol id="G"><path d="M.415.207h-.19L.216.194A.59.59 0 0 1 .181.12.144.144 0 0 1 .17.073c0-.024.015-.037.042-.04L.206 0H0l.007.032a.08.08 0 0 1 .03.013.113.113 0 0 1 .025.025C.07.081.081.1.095.125L.398.67H.54L.56.148c0-.019.002-.035.004-.05a.132.132 0 0 1 .01-.036A.051.051 0 0 1 .588.04.058.058 0 0 1 .613.032L.606 0H.354L.36.032a.062.062 0 0 1 .034.011.05.05 0 0 1 .017.026.17.17 0 0 1 .005.046L.416.159.415.207m-.16.057h.159L.412.38a6.85 6.85 0 0 0 0 .167H.404L.255.264z"/></symbol><symbol id="H"><path d="M.178 0a.106.106 0 0 0-.042.007.05.05 0 0 0-.025.02.087.087 0 0 0-.01.03.549.549 0 0 0 .01.161l.03.138a.614.614 0 0 1 .007.04c0 .01-.002.018-.006.023C.138.425.129.43.117.43.097.428.067.41.03.376L0 .411C.015.431.038.45.068.47.1.49.133.5.17.5.202.5.226.491.244.474A.09.09 0 0 0 .27.407a.254.254 0 0 0-.005-.05L.233.206a1.043 1.043 0 0 1-.01-.093c0-.013 0-.023.002-.03C.227.075.23.071.231.071c.01 0 .021.004.036.012a.462.462 0 0 1 .175.228.259.259 0 0 1 .013.08.05.05 0 0 1-.008.03C.442.429.434.432.423.432A.05.05 0 0 1 .39.42.208.208 0 0 1 .358.383L.324.411c.02.028.044.05.069.066A.158.158 0 0 0 .477.5C.507.5.53.492.542.476A.097.097 0 0 0 .561.413.194.194 0 0 0 .552.36.386.386 0 0 0 .527.297.752.752 0 0 0 .379.098.45.45 0 0 0 .247.013.196.196 0 0 0 .178 0z"/></symbol><symbol id="I"><path d="M.136.178a.112.112 0 0 1-.019-.03.094.094 0 0 1-.005-.031c0-.022.008-.039.023-.05a.12.12 0 0 1 .07-.016c.05 0 .09.018.118.056A.527.527 0 0 1 .397.31L.391.315A.353.353 0 0 0 .31.235.174.174 0 0 0 .214.21a.103.103 0 0 0-.086.04.187.187 0 0 0-.03.116c0 .045.006.089.019.132A.348.348 0 0 0 .172.61a.253.253 0 0 0 .212.1.242.242 0 0 0 .063-.007.194.194 0 0 0 .06-.028L.55.71.605.703.563.512A7.051 7.051 0 0 0 .508.244.572.572 0 0 0 .471.129.206.206 0 0 0 .34.017.45.45 0 0 0 .207 0C.138 0 .087.01.052.028a.09.09 0 0 0-.03.14.225.225 0 0 0 .063.05l.05-.04m.298.344a.332.332 0 0 1 .008.07c0 .023-.004.04-.012.051C.42.654.407.66.389.66.359.66.333.645.309.616A.35.35 0 0 1 .253.494.525.525 0 0 1 .23.353C.23.329.233.312.24.3A.036.036 0 0 1 .273.282a.08.08 0 0 1 .042.013.25.25 0 0 1 .085.11c.011.026.02.06.03.1l.003.017z"/></symbol><use xlink:href="#G" transform="matrix(0 -10.46292 -10.42903 0 28.303 217.958)"/><use xlink:href="#H" transform="matrix(0 -10.46292 -10.42903 0 28.384 210.818)"/><use xlink:href="#x" transform="matrix(0 -10.46292 -10.42903 0 28.384 204.172)"/><use xlink:href="#B" transform="matrix(0 -10.46292 -10.42903 0 28.303 198.732)"/><use xlink:href="#v" transform="matrix(0 -10.46292 -10.42903 0 28.384 192.663)"/><use xlink:href="#I" transform="matrix(0 -10.46292 -10.42903 0 30.58 186.56)"/><use xlink:href="#x" transform="matrix(0 -10.46292 -10.42903 0 28.384 179.061)"/></g><clipPath id="J"><path transform="matrix(0 -1.04797 -1.04457 0 40.117 217.892)" d="M0 .102h174.7v20.712H0z" fill-rule="evenodd"/></clipPath><g clip-path="url(#J)"><use xlink:href="#z" transform="matrix(0 -10.46292 -10.42903 0 28.303 173.852)"/></g><clipPath id="K"><path transform="matrix(0 -1.04797 -1.04457 0 40.117 217.892)" d="M0 .102h174.7v20.712H0z" fill-rule="evenodd"/></clipPath><g clip-path="url(#K)"><symbol id="L"><path d="M.225 0C.15 0 .095.02.057.058.019.098 0 .154 0 .23a.578.578 0 0 0 .085.298C.107.561.133.59.162.612c.03.024.063.041.099.053a.366.366 0 0 0 .114.017c.074 0 .13-.02.168-.058C.581.585.601.529.601.455A.601.601 0 0 0 .502.133a.329.329 0 0 0-.17-.12A.403.403 0 0 0 .225 0M.147.185c0-.045.006-.078.02-.098C.18.067.2.057.23.057c.019 0 .037.006.056.017A.211.211 0 0 1 .35.138a.518.518 0 0 1 .06.123.92.92 0 0 1 .044.238.181.181 0 0 1-.02.096C.421.615.4.625.37.625A.121.121 0 0 1 .288.588.35.35 0 0 1 .215.483.743.743 0 0 1 .147.185z"/></symbol><symbol id="M"><path d="M.435.492h.14L.495.154A.215.215 0 0 1 .49.104C.49.094.491.085.495.08.498.074.505.07.513.07c.01 0 .021.005.033.014.012.01.025.023.04.041L.623.09A.397.397 0 0 0 .534.019.169.169 0 0 0 .456 0 .091.091 0 0 0 .39.022a.08.08 0 0 0-.024.06c0 .009 0 .016.003.024L.365.11A.384.384 0 0 0 .277.027.173.173 0 0 0 .181 0C.148 0 .121.01.103.028a.105.105 0 0 0-.028.077.325.325 0 0 0 .01.081l.04.152C.13.36.133.38.133.396.133.408.13.417.126.422a.023.023 0 0 1-.018.007C.1.43.088.425.077.416A.33.33 0 0 1 .035.375L0 .41a.391.391 0 0 0 .087.07C.112.493.14.5.17.5.203.5.229.491.244.474.26.457.27.432.27.4a.385.385 0 0 0-.015-.09L.233.227a.502.502 0 0 1-.02-.112C.213.085.224.07.247.07c.01 0 .022.004.034.012.012.008.025.02.04.036a.221.221 0 0 1 .036.053c.01.02.018.043.023.07l.055.25z"/></symbol><symbol id="N"><path d="M.312.097A.345.345 0 0 0 .22.02.21.21 0 0 0 .124 0C.086 0 .058.01.038.028a.105.105 0 0 0-.03.08c0 .015.001.03.004.043l.014.068.05.212H0l.01.04A.16.16 0 0 1 .06.477c.012.004.022.01.03.02a.132.132 0 0 1 .023.038.678.678 0 0 1 .026.08h.117L.23.491h.119L.334.432h-.12L.168.235A1.548 1.548 0 0 1 .15.159.27.27 0 0 1 .146.115C.146.1.149.09.154.082.16.075.168.072.18.072a.08.08 0 0 1 .045.015c.015.01.032.026.05.048L.312.097z"/></symbol><symbol id="O"><path d="M.257.592a.36.36 0 0 0 .087.084c.028.017.06.026.097.026a.1.1 0 0 0 .086-.04.187.187 0 0 0 .03-.116.463.463 0 0 0-.018-.13.347.347 0 0 0-.055-.113.256.256 0 0 0-.212-.1.238.238 0 0 0-.084.014L.17.13A.99.99 0 0 1 .162.075c0-.014.003-.024.01-.03A.073.073 0 0 1 .21.031L.205 0H.002l.123.55a.247.247 0 0 1 .008.048c0 .01-.002.019-.006.025C.124.628.117.63.11.63A.055.055 0 0 1 .076.618a.312.312 0 0 1-.04-.04L0 .611a.38.38 0 0 0 .086.07.17.17 0 0 0 .08.02A.09.09 0 0 0 .232.68.077.077 0 0 0 .255.62.092.092 0 0 0 .252.597L.257.592M.222.391A.334.334 0 0 1 .214.32c0-.024.004-.041.012-.051.008-.01.022-.016.04-.016.017 0 .032.004.045.01.013.008.026.02.038.037a.53.53 0 0 1 .076.26.103.103 0 0 1-.01.053.035.035 0 0 1-.033.017C.36.63.338.62.316.6A.245.245 0 0 1 .263.526.553.553 0 0 1 .226.409L.222.39z"/></symbol><use xlink:href="#L" transform="matrix(0 -10.46292 -10.42903 0 28.384 170.899)"/><use xlink:href="#M" transform="matrix(0 -10.46292 -10.42903 0 28.384 163.828)"/><use xlink:href="#N" transform="matrix(0 -10.46292 -10.42903 0 28.384 156.657)"/><use xlink:href="#O" transform="matrix(0 -10.46292 -10.42903 0 30.493 152.737)"/><use xlink:href="#M" transform="matrix(0 -10.46292 -10.42903 0 28.384 146.25)"/><use xlink:href="#N" transform="matrix(0 -10.46292 -10.42903 0 28.384 139.079)"/></g><clipPath id="P"><path transform="matrix(0 -1.04797 -1.04457 0 40.117 217.892)" d="M0 .102h174.7v20.712H0z" fill-rule="evenodd"/></clipPath><g clip-path="url(#P)"><use xlink:href="#z" transform="matrix(0 -10.46292 -10.42903 0 28.303 134.968)"/></g><clipPath id="Q"><path transform="matrix(0 -1.04797 -1.04457 0 40.117 217.892)" d="M0 .102h174.7v20.712H0z" fill-rule="evenodd"/></clipPath><g clip-path="url(#Q)"><symbol id="R"><path d="M.366.457a.83.83 0 0 1 .047.095.137.137 0 0 1 .008.045c0 .024-.013.037-.041.04L.387.67h.208L.588.638a.08.08 0 0 1-.03-.014.11.11 0 0 1-.025-.025A.58.58 0 0 1 .5.545L.197 0H.074l-.02.522a.517.517 0 0 1-.005.05.133.133 0 0 1-.009.036.046.046 0 0 1-.016.02.051.051 0 0 1-.024.01L.007.67H.26L.252.638A.062.062 0 0 1 .22.627.053.053 0 0 1 .202.602.168.168 0 0 1 .197.555V.511L.201.34.203.16h.005l.158.297z"/></symbol><symbol id="S"><path d="M.098.56c.007.03.01.054.01.07 0 .007 0 .012-.002.016A.022.022 0 0 1 .1.656a.028.028 0 0 1-.012.006.192.192 0 0 1-.028.005L.067.7l.146.008H.27L.144.162A.265.265 0 0 1 .136.104c0-.012.002-.021.006-.026A.023.023 0 0 1 .16.071c.01 0 .02.004.032.013a.32.32 0 0 1 .041.041L.27.09A.38.38 0 0 0 .183.02.17.17 0 0 0 .1 0C.065 0 .04.008.024.025S0 .068 0 .102c0 .02.004.045.01.077l.088.38z"/></symbol><use xlink:href="#R" transform="matrix(0 -10.46292 -10.42903 0 28.339 132.22)"/><use xlink:href="#l" transform="matrix(0 -10.46292 -10.42903 0 28.384 125.446)"/><use xlink:href="#S" transform="matrix(0 -10.46292 -10.42903 0 28.384 119.235)"/><use xlink:href="#N" transform="matrix(0 -10.46292 -10.42903 0 28.384 115.47)"/><use xlink:href="#v" transform="matrix(0 -10.46292 -10.42903 0 28.384 111.138)"/><use xlink:href="#I" transform="matrix(0 -10.46292 -10.42903 0 30.58 105.034)"/><use xlink:href="#x" transform="matrix(0 -10.46292 -10.42903 0 28.384 97.536)"/></g><clipPath id="T"><path transform="matrix(0 -1.04797 -1.04457 0 40.117 217.892)" d="M0 .102h174.7v20.712H0z" fill-rule="evenodd"/></clipPath><g clip-path="url(#T)"><use xlink:href="#z" transform="matrix(0 -10.46292 -10.42903 0 28.303 92.188)"/></g><clipPath id="U"><path transform="matrix(0 -1.04797 -1.04457 0 40.117 217.892)" d="M0 .102h174.7v20.712H0z" fill-rule="evenodd"/></clipPath><g clip-path="url(#U)"><symbol id="V"><path d="m.139.642.008.04c.023 0 .039.001.048.004.01.003.017.008.023.016a.127.127 0 0 1 .017.044c.008.03.019.056.031.076A.188.188 0 0 0 .384.91a.458.458 0 0 0 .18.002L.541.813H.479a.099.099 0 0 1-.01.043C.464.864.455.869.444.869A.04.04 0 0 1 .413.855a.11.11 0 0 1-.02-.037.526.526 0 0 1-.018-.062L.363.703h.105L.455.642H.35L.26.233A.347.347 0 0 0 .178.058.195.195 0 0 0 .034 0C.02 0 .008 0 0 .002l.012.055A.12.12 0 0 1 .029.056c.019 0 .034.01.046.03.013.02.023.052.033.093l.104.463H.14z"/></symbol><use xlink:href="#l" transform="matrix(0 -10.46292 -10.42903 0 28.384 89.363)"/><use xlink:href="#V" transform="matrix(0 -10.46292 -10.42903 0 30.58 83.933)"/></g><clipPath id="W"><path transform="matrix(0 -1.04797 -1.04457 0 40.117 217.892)" d="M0 .102h174.7v20.712H0z" fill-rule="evenodd"/></clipPath><g clip-path="url(#W)"><use xlink:href="#z" transform="matrix(0 -10.46292 -10.42903 0 28.303 77.978)"/></g><clipPath id="X"><path transform="matrix(0 -1.04797 -1.04457 0 40.117 217.892)" d="M0 .102h174.7v20.712H0z" fill-rule="evenodd"/></clipPath><g clip-path="url(#X)"><use xlink:href="#N" transform="matrix(0 -10.46292 -10.42903 0 28.384 75.116)"/><use xlink:href="#u" transform="matrix(0 -10.46292 -10.42903 0 28.384 70.85)"/><use xlink:href="#x" transform="matrix(0 -10.46292 -10.42903 0 28.384 64.296)"/></g><clipPath id="Y"><path transform="matrix(0 -1.04797 -1.04457 0 40.117 217.892)" d="M0 .102h174.7v20.712H0z" fill-rule="evenodd"/></clipPath><g clip-path="url(#Y)"><use xlink:href="#z" transform="matrix(0 -10.46292 -10.42903 0 28.303 58.989)"/></g><clipPath id="Z"><path transform="matrix(0 -1.04797 -1.04457 0 40.117 217.892)" d="M0 .102h174.7v20.712H0z" fill-rule="evenodd"/></clipPath><g clip-path="url(#Z)"><symbol id="aa"><path d="M.218.132A.31.31 0 0 1 .212.075C.212.06.216.049.223.043A.064.064 0 0 1 .26.033L.252 0H0l.007.032a.07.07 0 0 1 .04.028.231.231 0 0 1 .026.072l.089.403c.004.019.006.038.006.057 0 .013-.003.023-.01.03-.006.006-.016.01-.03.012l.006.033h.462L.562.509H.499A.271.271 0 0 1 .49.574a.049.049 0 0 1-.02.027.07.07 0 0 1-.036.008h-.11L.27.365h.065a.06.06 0 0 1 .046.019.205.205 0 0 1 .036.06h.054L.42.226H.37c0 .023-.002.04-.004.05a.04.04 0 0 1-.013.025C.347.306.337.308.324.308H.257L.218.132z"/></symbol><symbol id="ab"><path d="m0 0 .007.032a.07.07 0 0 1 .04.028.231.231 0 0 1 .026.072l.089.403c.004.019.006.038.006.057 0 .013-.003.023-.01.03-.006.006-.016.01-.03.012l.006.033h.198a.752.752 0 0 0 .129-.01.273.273 0 0 0 .08-.026.206.206 0 0 0 .058-.042A.197.197 0 0 0 .64.518a.29.29 0 0 0 .015-.1.52.52 0 0 0-.014-.125.43.43 0 0 0-.044-.11A.348.348 0 0 0 .36.009.666.666 0 0 0 .24 0H0m.202.06A.437.437 0 0 1 .238.058c.042 0 .078.008.109.025.03.016.057.041.08.075a.402.402 0 0 1 .056.125.55.55 0 0 1 .02.148.274.274 0 0 1-.01.084A.143.143 0 0 1 .46.57.109.109 0 0 1 .416.6.162.162 0 0 1 .36.61L.323.607.203.06z"/></symbol><use xlink:href="#t" transform="matrix(0 -10.46292 -10.42903 0 28.303 56.277)"/><use xlink:href="#aa" transform="matrix(0 -10.46292 -10.42903 0 28.303 49.057)"/><use xlink:href="#ab" transform="matrix(0 -10.46292 -10.42903 0 28.303 42.465)"/></g><clipPath id="ac"><path transform="matrix(0 -1.04797 -1.04457 0 40.117 217.892)" d="M0 .102h174.7v20.712H0z" fill-rule="evenodd"/></clipPath><g clip-path="url(#ac)"><use xlink:href="#m" transform="matrix(0 -10.46292 -10.42903 0 28.303 34.812)"/></g></g></g></svg>