<svg xmlns="http://www.w3.org/2000/svg" xmlns:xlink="http://www.w3.org/1999/xlink" width="371.68" height="282.88" viewBox="0 0 278.76 212.16"><path stroke-width="2" stroke-linecap="round" stroke-linejoin="round" fill="none" stroke="#000" d="m71.323 83.27 4.95-16.41h14.85l4.95 16.41M95.989 83.27h7.401M110.79 83.27l4.93-16.41h14.8l4.93 16.41M135.46 83.27h7.4M103.39 83.27h7.4M150.25 83.27l5.14-16.41h15.42l5.14 16.41M142.86 83.27h7.39M182.32 83.27h7.4M175.95 83.27h7.4M189.72 83.27l4.9-16.41h14.68l4.9 16.41M214.2 83.27h7.4M229.19 83.27l4.65-16.41h13.96l4.65 16.41M252.45 83.27h7.4M221.79 83.27h7.4"/><path stroke-width="2" stroke-linecap="round" stroke-linejoin="round" fill="none" stroke="#000" d="m71.323 83.27 4.95-16.41h14.85l4.95 16.41M95.989 83.27h7.401M110.79 83.27l4.93-16.41h14.8l4.93 16.41M135.46 83.27h7.4M103.39 83.27h7.4M150.25 83.27l5.14-16.41h15.42l5.14 16.41M142.86 83.27h7.39M182.32 83.27h7.4M175.95 83.27h7.4M189.72 83.27l4.9-16.41h14.68l4.9 16.41M214.2 83.27h7.4M229.19 83.27l4.65-16.41h13.96l4.65 16.41M252.45 83.27h7.4M221.79 83.27h7.4M71.323 83.27h-7.192"/><clipPath id="a"><path transform="matrix(1 0 0 -1 0 212.16)" d="M18.375 147.65h42.746v21.742H18.375z" fill-rule="evenodd"/></clipPath><g clip-path="url(#a)"><clipPath id="b"><path transform="matrix(1.03743 0 0 -1.04457 18.375 64.51)" d="M0 0h41.203v20.814H0z" fill-rule="evenodd"/></clipPath><g clip-path="url(#b)"><clipPath id="c"><path transform="matrix(1.03743 0 0 -1.04457 18.375 64.51)" d="M0 .102h41.232v20.712H0z" fill-rule="evenodd"/></clipPath><g clip-path="url(#c)"><symbol id="d"><path d="M.44.305A.181.181 0 0 0 .482.26.21.21 0 0 0 .505.194L.52.126A.318.318 0 0 1 .534.073a.078.078 0 0 1 .02-.026.083.083 0 0 1 .032-.015L.58 0H.405a.78.78 0 0 0-.028.109l-.016.08a.27.27 0 0 1-.016.059.067.067 0 0 1-.023.03.069.069 0 0 1-.038.01h-.03L.217.131A.34.34 0 0 1 .212.075C.212.06.216.049.223.043A.064.064 0 0 1 .26.033L.252 0H0l.007.032a.07.07 0 0 1 .04.028.231.231 0 0 1 .026.072l.089.403c.004.019.006.038.006.057 0 .013-.003.023-.01.03-.006.006-.016.01-.03.012l.006.033h.244A.801.801 0 0 0 .46.663.23.23 0 0 0 .523.648.153.153 0 0 0 .573.62.12.12 0 0 0 .605.575.187.187 0 0 0 .571.391.296.296 0 0 0 .44.31V.305m-.142.04c.042 0 .075.006.098.018a.14.14 0 0 1 .057.06.195.195 0 0 1 .02.092C.473.547.466.57.45.585.433.603.408.61.373.61h-.05L.266.343h.03z"/></symbol><symbol id="e"><path d="M.407.11A.332.332 0 0 0 .301.026.284.284 0 0 0 .178 0 .215.215 0 0 0 .08.02.135.135 0 0 0 .02.08.206.206 0 0 0 0 .172a.393.393 0 0 0 .035.16.268.268 0 0 0 .153.146c.035.014.073.021.114.021.1 0 .15-.036.15-.108A.137.137 0 0 0 .437.327a.141.141 0 0 0-.05-.052A.298.298 0 0 0 .29.238.784.784 0 0 0 .137.222.276.276 0 0 1 .13.162C.13.133.137.11.15.095.161.08.18.071.206.071c.029 0 .055.006.078.017A.37.37 0 0 1 .366.15L.407.11M.148.272a.26.26 0 0 1 .138.035.103.103 0 0 1 .047.09c0 .017-.003.03-.011.038A.04.04 0 0 1 .29.449C.26.45.232.434.208.404a.361.361 0 0 1-.06-.13z"/></symbol><symbol id="f"><path d="m.139.642.008.04c.023 0 .039.001.048.004.01.003.017.008.023.016a.127.127 0 0 1 .017.044c.008.03.019.056.031.076A.188.188 0 0 0 .384.91a.458.458 0 0 0 .18.002L.541.813H.479a.099.099 0 0 1-.01.043C.464.864.455.869.444.869A.04.04 0 0 1 .413.855a.11.11 0 0 1-.02-.037.526.526 0 0 1-.018-.062L.363.703h.105L.455.642H.35L.26.233A.347.347 0 0 0 .178.058.195.195 0 0 0 .034 0C.02 0 .008 0 0 .002l.012.055A.12.12 0 0 1 .029.056c.019 0 .034.01.046.03.013.02.023.052.033.093l.104.463H.14z"/></symbol><use xlink:href="#d" transform="matrix(10.35772 0 0 -10.42903 30.64 52.696)"/><use xlink:href="#e" transform="matrix(10.35772 0 0 -10.42903 38.133 52.777)"/><use xlink:href="#f" transform="matrix(10.35772 0 0 -10.42903 43.326 54.972)"/></g><clipPath id="g"><path transform="matrix(1.03743 0 0 -1.04457 18.375 64.51)" d="M0 .102h41.232v20.712H0z" fill-rule="evenodd"/></clipPath><g clip-path="url(#g)"><symbol id="h"><path d="M0 0z"/></symbol><use xlink:href="#h" transform="matrix(10.35772 0 0 -10.42903 49.174 52.696)"/></g></g></g><path stroke-width="2" stroke-linecap="round" stroke-linejoin="round" fill="none" stroke="#000" d="m63.864 55.82 4.95-16.41h14.85l4.95 16.41M88.531 55.82h7.399M103.33 55.82l4.93-16.41h14.8l4.93 16.41M128 55.82h7.4M95.93 55.82h7.4M142.8 55.82l5.13-16.41h15.42l5.14 16.41M135.4 55.82h7.4M174.86 55.82h7.4M168.49 55.82h7.4M182.26 55.82l4.9-16.41h14.68l4.9 16.41M206.74 55.82h7.4M221.73 55.82l4.65-16.41h13.96l4.65 16.41M244.99 55.82h7.4M214.33 55.82h7.4"/><path stroke-width="2" stroke-linecap="round" stroke-linejoin="round" fill="none" stroke="#000" d="m63.864 55.82 4.95-16.41h14.85l4.95 16.41M88.531 55.82h7.399M103.33 55.82l4.93-16.41h14.8l4.93 16.41M128 55.82h7.4M95.93 55.82h7.4M142.8 55.82l5.13-16.41h15.42l5.14 16.41M135.4 55.82h7.4M174.86 55.82h7.4M168.49 55.82h7.4M182.26 55.82l4.9-16.41h14.68l4.9 16.41M206.74 55.82h7.4M221.73 55.82l4.65-16.41h13.96l4.65 16.41M244.99 55.82h7.4M214.33 55.82h7.4M63.864 55.82h-7.192"/><clipPath id="i"><path transform="matrix(1 0 0 -1 0 212.16)" d="M0 212.16h278.76V0H0" fill-rule="evenodd"/></clipPath><g clip-path="url(#i)"><path stroke-width=".75" stroke-linecap="round" stroke-dasharray="0,2.25" stroke-linejoin="round" fill="none" stroke="red" d="M77.062 189.277V19.51"/></g><clipPath id="j"><path transform="matrix(1 0 0 -1 0 212.16)" d="M0 212.16h278.76V0H0" fill-rule="evenodd"/></clipPath><g clip-path="url(#j)"><path stroke-width=".75" stroke-linecap="round" stroke-dasharray="0,2.25" stroke-linejoin="round" fill="none" stroke="red" d="M119.25 189.58V19.93"/></g><clipPath id="k"><path transform="matrix(1 0 0 -1 0 212.16)" d="M0 212.16h278.76V0H0" fill-rule="evenodd"/></clipPath><g clip-path="url(#k)"><path stroke-width=".75" stroke-linecap="round" stroke-dasharray="0,2.25" stroke-linejoin="round" fill="none" stroke="red" d="M156.35 189.58V19.98"/></g><clipPath id="l"><path transform="matrix(1 0 0 -1 0 212.16)" d="M0 212.16h278.76V0H0" fill-rule="evenodd"/></clipPath><g clip-path="url(#l)"><path stroke-width=".75" stroke-linecap="round" stroke-dasharray="0,2.25" stroke-linejoin="round" fill="none" stroke="red" d="M198.56 189.58V20.19"/></g><clipPath id="m"><path transform="matrix(1 0 0 -1 0 212.16)" d="M0 212.16h278.76V0H0" fill-rule="evenodd"/></clipPath><g clip-path="url(#m)"><path stroke-width=".75" stroke-linecap="round" stroke-dasharray="0,2.25" stroke-linejoin="round" fill="none" stroke="red" d="M236.81 189.58V20.99"/></g><clipPath id="n"><path transform="matrix(1 0 0 -1 0 212.16)" d="M0 212.16h278.76V0H0" fill-rule="evenodd"/></clipPath><g clip-path="url(#n)"><path stroke-width=".75" stroke-linecap="round" stroke-dasharray="0,2.25" stroke-linejoin="round" fill="none" stroke="#0070c0" d="M65.621 188.712V19.42"/></g><clipPath id="o"><path transform="matrix(1 0 0 -1 0 212.16)" d="M0 212.16h278.76V0H0" fill-rule="evenodd"/></clipPath><g clip-path="url(#o)"><path stroke-width=".75" stroke-linecap="round" stroke-dasharray="0,2.25" stroke-linejoin="round" fill="none" stroke="#0070c0" d="M106.17 189.277V16.77"/></g><clipPath id="p"><path transform="matrix(1 0 0 -1 0 212.16)" d="M0 212.16h278.76V0H0" fill-rule="evenodd"/></clipPath><g clip-path="url(#p)"><path stroke-width=".75" stroke-linecap="round" stroke-dasharray="0,2.25" stroke-linejoin="round" fill="none" stroke="#0070c0" d="M142.87 189.58V20.84"/></g><clipPath id="q"><path transform="matrix(1 0 0 -1 0 212.16)" d="M0 212.16h278.76V0H0" fill-rule="evenodd"/></clipPath><g clip-path="url(#q)"><path stroke-width=".75" stroke-linecap="round" stroke-dasharray="0,2.25" stroke-linejoin="round" fill="none" stroke="#0070c0" d="M185.77 189.58V21.57"/></g><clipPath id="r"><path transform="matrix(1 0 0 -1 0 212.16)" d="M0 212.16h278.76V0H0" fill-rule="evenodd"/></clipPath><g clip-path="url(#r)"><path stroke-width=".75" stroke-linecap="round" stroke-dasharray="0,2.25" stroke-linejoin="round" fill="none" stroke="#0070c0" d="M223.87 188.784V22.23"/></g><clipPath id="s"><path transform="matrix(1 0 0 -1 0 212.16)" d="M18.375 112.85h42.746v21.742H18.375z" fill-rule="evenodd"/></clipPath><g clip-path="url(#s)"><clipPath id="t"><path transform="matrix(1.03743 0 0 -1.04457 18.375 99.31)" d="M0 0h41.203v20.814H0z" fill-rule="evenodd"/></clipPath><g clip-path="url(#t)"><clipPath id="u"><path transform="matrix(1.03743 0 0 -1.04457 18.375 99.31)" d="M0 .102h41.232v20.712H0z" fill-rule="evenodd"/></clipPath><g clip-path="url(#u)"><symbol id="v"><path d="M.218.132A.31.31 0 0 1 .212.075C.212.06.216.049.223.043A.064.064 0 0 1 .26.033L.252 0H0l.007.032a.07.07 0 0 1 .04.028.231.231 0 0 1 .026.072l.089.403c.004.019.006.038.006.057 0 .013-.003.023-.01.03-.006.006-.016.01-.03.012l.006.033h.462L.562.509H.499A.271.271 0 0 1 .49.574a.049.049 0 0 1-.02.027.07.07 0 0 1-.036.008h-.11L.27.365h.065a.06.06 0 0 1 .046.019.205.205 0 0 1 .036.06h.054L.42.226H.37c0 .023-.002.04-.004.05a.04.04 0 0 1-.013.025C.347.306.337.308.324.308H.257L.218.132z"/></symbol><symbol id="w"><path d="M.219.408.225.406a.335.335 0 0 0 .08.072A.174.174 0 0 0 .394.5.101.101 0 0 0 .48.46.187.187 0 0 0 .51.344.49.49 0 0 0 .473.158a.298.298 0 0 0-.045-.07A.245.245 0 0 0 .3.01.312.312 0 0 0 .16.008a.224.224 0 0 0-.061.027L.053 0 0 .008.124.56a.35.35 0 0 1 .01.07C.134.64.132.646.129.65a.024.024 0 0 1-.012.01.184.184 0 0 1-.032.006L.093.7l.143.008h.057L.22.408M.175.188a.334.334 0 0 1-.008-.07C.167.094.171.077.18.066.187.056.201.051.22.051c.017 0 .032.003.045.01.014.008.026.02.038.037a.53.53 0 0 1 .076.26.103.103 0 0 1-.01.053.035.035 0 0 1-.033.017C.313.428.292.418.269.396A.245.245 0 0 1 .216.324.553.553 0 0 1 .179.207L.175.188z"/></symbol><use xlink:href="#v" transform="matrix(10.35772 0 0 -10.42903 33.503 87.496)"/><use xlink:href="#w" transform="matrix(10.35772 0 0 -10.42903 40.205 87.577)"/></g><clipPath id="x"><path transform="matrix(1.03743 0 0 -1.04457 18.375 99.31)" d="M0 .102h41.232v20.712H0z" fill-rule="evenodd"/></clipPath><g clip-path="url(#x)"><use xlink:href="#h" transform="matrix(10.35772 0 0 -10.42903 46.186 87.496)"/></g></g></g><clipPath id="y"><path transform="matrix(1 0 0 -1 0 212.16)" d="M18.375 63.907h42.746v21.742H18.375z" fill-rule="evenodd"/></clipPath><g clip-path="url(#y)"><clipPath id="z"><path transform="matrix(1.03743 0 0 -1.04457 18.375 148.253)" d="M0 0h41.203v20.814H0z" fill-rule="evenodd"/></clipPath><g clip-path="url(#z)"><clipPath id="A"><path transform="matrix(1.03743 0 0 -1.04457 18.375 148.253)" d="M0 .102h41.232v20.712H0z" fill-rule="evenodd"/></clipPath><g clip-path="url(#A)"><symbol id="B"><path d="M.481.24A.462.462 0 0 0 .443.127.23.23 0 0 0 .386.053.213.213 0 0 0 .31.013.392.392 0 0 0 .123.01a.183.183 0 0 0-.064.033A.16.16 0 0 0 0 .176L.003.23C.006.248.011.277.02.317l.05.225A.26.26 0 0 1 .078.6c0 .013-.003.023-.01.03C.061.635.051.64.037.641l.006.032H.29L.282.642a.07.07 0 0 1-.04-.027.231.231 0 0 1-.026-.073L.15.243A.524.524 0 0 1 .138.147C.138.117.145.095.16.08.174.065.196.057.224.057c.027 0 .05.006.069.018.019.012.033.03.044.051a.372.372 0 0 1 .03.087l.072.33A.22.22 0 0 1 .445.6c0 .013-.003.023-.01.03C.43.635.42.64.406.641l.007.032H.62L.613.642A.072.072 0 0 1 .57.614.225.225 0 0 1 .547.542L.48.24z"/></symbol><use xlink:href="#B" transform="matrix(10.35772 0 0 -10.42903 33.183 136.52)"/></g><clipPath id="C"><path transform="matrix(1.03743 0 0 -1.04457 18.375 148.253)" d="M0 .102h41.232v20.712H0z" fill-rule="evenodd"/></clipPath><g clip-path="url(#C)"><symbol id="D"><path d="M.378.667A.807.807 0 0 0 .46.663.223.223 0 0 0 .522.648a.15.15 0 0 0 .051-.03.12.12 0 0 0 .031-.045.16.16 0 0 0 .011-.06A.215.215 0 0 0 .537.34.25.25 0 0 0 .444.29.485.485 0 0 0 .315.277H.3c-.02 0-.037 0-.05.002L.218.132A.31.31 0 0 1 .212.075C.212.06.216.049.223.043A.064.064 0 0 1 .26.033L.252 0H0l.007.032a.07.07 0 0 1 .04.028.231.231 0 0 1 .026.072l.089.403c.004.019.006.038.006.057 0 .013-.003.023-.01.03-.006.006-.016.01-.03.012l.006.033h.244M.288.333c.045 0 .08.007.104.021a.135.135 0 0 1 .055.063c.012.028.019.06.019.094C.466.544.458.57.442.585.427.601.403.609.371.609a.99.99 0 0 1-.048 0L.263.332H.29z"/></symbol><use xlink:href="#D" transform="matrix(10.35772 0 0 -10.42903 40.126 136.439)"/></g><clipPath id="E"><path transform="matrix(1.03743 0 0 -1.04457 18.375 148.253)" d="M0 .102h41.232v20.712H0z" fill-rule="evenodd"/></clipPath><g clip-path="url(#E)"><use xlink:href="#h" transform="matrix(10.35772 0 0 -10.42903 47.058 136.439)"/></g></g></g><path stroke-width="2" stroke-linecap="round" stroke-linejoin="round" fill="none" stroke="#000" d="m64.125 188.481 1.125-16.712h10.589l1.223 17.508h16.313M106.31 188.784l1.13-16.711h10.59l1.22 17.507h16.31M92.25 189.277h13.92M143.41 188.784l1.13-16.711h10.58l1.23 17.507h16.31M185.62 188.784l1.13-16.711h10.59l1.22 17.507h16.31M223.87 188.784l1.13-16.711h10.59l1.22 17.507h16.31M156.35 189.58h29.42M135.56 189.58h7.31l.54-.796M198.56 189.58h25.31"/><clipPath id="F"><path transform="matrix(1 0 0 -1 0 212.16)" d="M0 212.16h278.76V0H0" fill-rule="evenodd"/></clipPath><g clip-path="url(#F)"><path stroke-width="2" stroke-linecap="round" stroke-linejoin="round" fill="none" stroke="#000" d="M223.87 189.58v-.796"/></g><path stroke-width="2" stroke-linecap="round" stroke-linejoin="round" fill="none" stroke="#000" d="M93.375 142.027h13.915M157.47 142.33h29.43M136.69 142.33H144l.54-.796M199.69 142.33H225"/><clipPath id="G"><path transform="matrix(1 0 0 -1 0 212.16)" d="M0 212.16h278.76V0H0" fill-rule="evenodd"/></clipPath><g clip-path="url(#G)"><path stroke-width="2" stroke-linecap="round" stroke-linejoin="round" fill="none" stroke="#000" d="M225 142.33v-.796"/></g><clipPath id="H"><path transform="matrix(1 0 0 -1 0 212.16)" d="M18.375 14.96h42.746v21.742H18.375z" fill-rule="evenodd"/></clipPath><g clip-path="url(#H)"><clipPath id="I"><path transform="matrix(1.03743 0 0 -1.04457 18.375 197.2)" d="M0 0h41.203v20.814H0z" fill-rule="evenodd"/></clipPath><g clip-path="url(#I)"><clipPath id="J"><path transform="matrix(1.03743 0 0 -1.04457 18.375 197.2)" d="M0 .102h41.232v20.712H0z" fill-rule="evenodd"/></clipPath><g clip-path="url(#J)"><use xlink:href="#B" transform="matrix(10.35772 0 0 -10.42903 19.588 185.467)"/><use xlink:href="#D" transform="matrix(10.35772 0 0 -10.42903 26.494 185.386)"/></g><clipPath id="K"><path transform="matrix(1.03743 0 0 -1.04457 18.375 197.2)" d="M0 .102h41.232v20.712H0z" fill-rule="evenodd"/></clipPath><g clip-path="url(#K)"><symbol id="L"><path d="M0 0z"/></symbol><use xlink:href="#L" transform="matrix(10.35772 0 0 -10.42903 33.463 185.386)"/></g><clipPath id="M"><path transform="matrix(1.03743 0 0 -1.04457 18.375 197.2)" d="M0 .102h41.232v20.712H0z" fill-rule="evenodd"/></clipPath><g clip-path="url(#M)"><symbol id="N"><path d="M.134.667H.32L.414.39C.44.315.46.25.475.19h.006c.01.057.022.12.038.188l.034.157a.27.27 0 0 1 .006.057c0 .013-.003.023-.01.03C.543.628.533.632.52.634l.006.033h.18L.698.634a.07.07 0 0 1-.04-.027.231.231 0 0 1-.026-.072L.515 0H.403L.286.341a2.763 2.763 0 0 0-.05.164H.229A2.52 2.52 0 0 0 .187.291L.152.131A.31.31 0 0 1 .146.076c0-.014.003-.024.01-.03a.056.056 0 0 1 .03-.013L.18 0H0l.007.032a.07.07 0 0 1 .04.028.231.231 0 0 1 .026.072l.089.403c.004.019.006.038.006.057 0 .013-.003.023-.01.03-.006.006-.016.01-.03.012l.006.033z"/></symbol><symbol id="O"><path d="M.608.667.574.509H.51a.271.271 0 0 1-.009.065.049.049 0 0 1-.02.027.07.07 0 0 1-.036.008H.323L.271.375H.34c.013 0 .024.002.033.006.01.005.017.012.025.021A.19.19 0 0 1 .42.444h.054L.427.246h-.05a.21.21 0 0 1-.004.043.036.036 0 0 1-.013.022C.354.316.344.318.33.318h-.07L.202.058h.11c.014 0 .025 0 .033.002a.07.07 0 0 1 .022.01C.374.073.38.08.39.09a.488.488 0 0 1 .053.086h.066L.464 0H0l.007.032a.07.07 0 0 1 .04.028.231.231 0 0 1 .026.072l.089.403c.004.019.006.038.006.057 0 .013-.003.023-.01.03-.006.006-.016.01-.03.012l.006.033h.474z"/></symbol><symbol id="P"><path d="M.71.48C.723.506.733.53.74.546c.007.018.01.033.01.044 0 .01 0 .018-.003.024a.03.03 0 0 1-.013.014.066.066 0 0 1-.025.009L.717.67h.208L.917.638A.073.073 0 0 1 .89.626.114.114 0 0 1 .865.603a1.95 1.95 0 0 1-.05-.086L.534 0H.417v.464H.411A1.323 1.323 0 0 0 .378.396L.18 0H.062l-.01.52a.32.32 0 0 1-.007.07.073.073 0 0 1-.016.034A.049.049 0 0 1 0 .638L.007.67h.25L.25.638A.078.078 0 0 1 .225.63.044.044 0 0 1 .21.617.06.06 0 0 1 .2.597.131.131 0 0 1 .197.572V.51L.193.328C.194.295.192.243.19.172h.007c.01.025.035.074.071.147l.176.35H.55V.35L.552.307c0-.046 0-.09-.003-.135h.006l.083.165.072.142z"/></symbol><use xlink:href="#N" transform="matrix(10.35772 0 0 -10.42903 35.982 185.386)"/><use xlink:href="#O" transform="matrix(10.35772 0 0 -10.42903 43.76 185.386)"/><use xlink:href="#P" transform="matrix(10.35772 0 0 -10.42903 50.633 185.422)"/></g><clipPath id="Q"><path transform="matrix(1.03743 0 0 -1.04457 18.375 197.2)" d="M0 .102h41.232v20.712H0z" fill-rule="evenodd"/></clipPath><g clip-path="url(#Q)"><use xlink:href="#h" transform="matrix(10.35772 0 0 -10.42903 60.652 185.386)"/></g></g></g><path stroke-width="2" stroke-linecap="round" stroke-linejoin="round" fill="none" stroke="#000" d="M65.25 141.231 72 124.519l6.187 17.508M78.187 142.027h15.188M107.29 142.027l6.9-17.204 6.18 17.507M144 142.33l7.29-17.507 6.18 17.507M186.75 141.534l6.75-16.711 6.19 17.507M225 142.33l6.75-17.507 6.19 17.507M120.37 142.33h16.32"/><clipPath id="R"><path transform="matrix(1 0 0 -1 0 212.16)" d="M74.25 80.14h42.746v19.502H74.25z" fill-rule="evenodd"/></clipPath><g clip-path="url(#R)"><clipPath id="S"><path transform="matrix(1.03743 0 0 -1.04374 74.25 132.02)" d="M0 0h41.203v18.685H0z" fill-rule="evenodd"/></clipPath><g clip-path="url(#S)"><clipPath id="T"><path transform="matrix(1.03743 0 0 -1.04374 74.25 132.02)" d="M0 .061h41.232v18.624H0z" fill-rule="evenodd"/></clipPath><g clip-path="url(#T)"><symbol id="U"><path d="M.483.582A.175.175 0 0 0 .48.542a.02.02 0 0 0-.007-.01A.012.012 0 0 0 .464.53H.306V.02A.013.013 0 0 0 .303.013a.02.02 0 0 0-.01-.007.266.266 0 0 0-.102 0 .024.024 0 0 0-.01.007.014.014 0 0 0-.004.009V.53H.02a.012.012 0 0 0-.008.003.023.023 0 0 0-.006.009A.078.078 0 0 0 0 .558a.262.262 0 0 0 0 .049.068.068 0 0 0 .004.016.019.019 0 0 0 .006.009.012.012 0 0 0 .008.003h.445A.012.012 0 0 0 .472.632.017.017 0 0 0 .48.623.18.18 0 0 0 .484.582z"/></symbol><symbol id="V"><path d="M.467.25A.333.333 0 0 0 .452.148a.198.198 0 0 0-.12-.13A.28.28 0 0 0 .229 0a.288.288 0 0 0-.101.016.182.182 0 0 0-.113.123A.352.352 0 0 0 0 .24c0 .037.005.071.015.102C.025.373.04.4.06.422c.02.022.044.04.074.051a.28.28 0 0 0 .105.018A.29.29 0 0 0 .34.475.173.173 0 0 0 .411.43.193.193 0 0 0 .453.353.354.354 0 0 0 .467.25M.34.245a.302.302 0 0 1-.005.06.136.136 0 0 1-.017.047.086.086 0 0 1-.033.03.103.103 0 0 1-.05.012.106.106 0 0 1-.048-.01.083.083 0 0 1-.034-.03.14.14 0 0 1-.02-.046.31.31 0 0 1-.001-.121A.15.15 0 0 1 .149.14.086.086 0 0 1 .182.11a.109.109 0 0 1 .05-.01C.251.098.267.1.281.107a.089.089 0 0 1 .033.03.134.134 0 0 1 .02.045.275.275 0 0 1 .006.062z"/></symbol><symbol id="W"><path d="M.333.15A.144.144 0 0 0 .318.086.128.128 0 0 0 .28.038.174.174 0 0 0 .22.01.276.276 0 0 0 .097.004a.287.287 0 0 0-.069.02.078.078 0 0 0-.017.011.036.036 0 0 0-.008.016A.202.202 0 0 0 0 .106c0 .006.002.01.003.014s.003.006.005.007a.013.013 0 0 0 .007.002.494.494 0 0 1 .078-.033.164.164 0 0 1 .077-.003.071.071 0 0 1 .022.01.04.04 0 0 1 .015.016.05.05 0 0 1 .005.022c0 .01-.003.018-.01.025A.074.074 0 0 1 .18.185a.255.255 0 0 1-.034.014 1.036 1.036 0 0 0-.077.034.126.126 0 0 0-.058.064.142.142 0 0 0-.009.053c0 .02.005.04.013.057.008.018.02.033.035.045a.167.167 0 0 0 .055.029.251.251 0 0 0 .114.007.289.289 0 0 0 .062-.017.064.064 0 0 0 .015-.009.02.02 0 0 0 .007-.007.028.028 0 0 0 .003-.009L.307.434.308.415A.19.19 0 0 0 .305.38.012.012 0 0 0 .3.374.015.015 0 0 0 .293.372.034.034 0 0 0 .28.377a.2.2 0 0 1-.056.022.146.146 0 0 1-.07.002.055.055 0 0 1-.02-.01.042.042 0 0 1-.016-.033c0-.01.003-.019.01-.025A.085.085 0 0 1 .151.314.284.284 0 0 1 .186.3.643.643 0 0 0 .264.266.146.146 0 0 0 .3.24.121.121 0 0 0 .333.15z"/></symbol><symbol id="X"><path d="M.693.02A.014.014 0 0 0 .69.01.023.023 0 0 0 .68.006a.248.248 0 0 0-.098 0 .023.023 0 0 0-.01.006A.016.016 0 0 0 .57.02v.258a.17.17 0 0 1-.004.04.085.085 0 0 1-.013.03.06.06 0 0 1-.052.027A.073.073 0 0 1 .457.36a.297.297 0 0 1-.05-.05V.02A.014.014 0 0 0 .406.012a.023.023 0 0 0-.01-.006.243.243 0 0 0-.097 0 .023.023 0 0 0-.01.006.014.014 0 0 0-.003.009v.258a.17.17 0 0 1-.004.04.09.09 0 0 1-.012.03.055.055 0 0 1-.022.02.062.062 0 0 1-.03.008A.074.074 0 0 1 .17.359a.284.284 0 0 1-.048-.05V.02A.014.014 0 0 0 .12.012.023.023 0 0 0 .11.005a.248.248 0 0 0-.097 0 .023.023 0 0 0-.01.006A.014.014 0 0 0 0 .02v.435c0 .003 0 .006.002.008a.017.017 0 0 0 .01.007l.015.003a.184.184 0 0 0 .052 0A.051.051 0 0 0 .094.47.017.017 0 0 0 .103.463.014.014 0 0 0 .105.455v-.05a.29.29 0 0 0 .072.058c.024.013.049.02.075.02A.184.184 0 0 0 .3.477.126.126 0 0 0 .368.436a.146.146 0 0 0 .02-.033.385.385 0 0 0 .038.036A.226.226 0 0 0 .5.478a.165.165 0 0 0 .11-.01.125.125 0 0 0 .049-.04A.156.156 0 0 0 .685.37.315.315 0 0 0 .693.298V.02z"/></symbol><symbol id="Y"><path d="M.398.026a.013.013 0 0 0-.005-.01A.032.032 0 0 0 .377.01a.178.178 0 0 0-.03-.002.19.19 0 0 0-.033.002A.027.027 0 0 0 .3.016a.015.015 0 0 0-.004.01v.035A.197.197 0 0 0 .235.016.21.21 0 0 0 .095.01a.124.124 0 0 0-.083.07A.15.15 0 0 0 0 .143a.121.121 0 0 0 .06.112.22.22 0 0 0 .073.027C.163.287.196.29.235.29h.042v.026a.129.129 0 0 1-.004.036.055.055 0 0 1-.04.041A.205.205 0 0 1 .14.391a.32.32 0 0 1-.073-.03.044.044 0 0 0-.02-.007.016.016 0 0 0-.01.003.029.029 0 0 0-.007.01.132.132 0 0 0-.003.06.035.035 0 0 0 .01.016A.262.262 0 0 0 .1.475.35.35 0 0 0 .293.48a.144.144 0 0 0 .06-.03.118.118 0 0 0 .034-.054.25.25 0 0 0 .01-.078V.026m-.12.187H.23A.252.252 0 0 1 .18.208.097.097 0 0 1 .146.195a.056.056 0 0 1-.02-.021A.065.065 0 0 1 .12.146C.12.127.126.113.137.103A.07.07 0 0 1 .186.087C.203.087.219.09.233.1.248.11.263.122.277.14v.074z"/></symbol><symbol id="Z"><path d="M.123.02A.014.014 0 0 0 .12.01.023.023 0 0 0 .11.006a.248.248 0 0 0-.097 0 .023.023 0 0 0-.01.006A.014.014 0 0 0 0 .02v.642C0 .665.001.668.003.67a.02.02 0 0 0 .01.007.079.079 0 0 0 .019.004A.248.248 0 0 0 .11.677.02.02 0 0 0 .12.67.014.014 0 0 0 .123.662V.02z"/></symbol><use xlink:href="#U" transform="matrix(8.41564 0 0 -8.46685 74.3 120.508)"/><use xlink:href="#V" transform="matrix(8.41564 0 0 -8.46685 78.653 120.579)"/><use xlink:href="#V" transform="matrix(8.41564 0 0 -8.46685 83.138 120.579)"/><use xlink:href="#h" transform="matrix(8.41564 0 0 -8.46685 87.328 120.484)"/><use xlink:href="#W" transform="matrix(8.41564 0 0 -8.46685 89.496 120.579)"/><use xlink:href="#X" transform="matrix(8.41564 0 0 -8.46685 93.072 120.508)"/><use xlink:href="#Y" transform="matrix(8.41564 0 0 -8.46685 99.713 120.579)"/><use xlink:href="#Z" transform="matrix(8.41564 0 0 -8.46685 104.046 120.508)"/><use xlink:href="#Z" transform="matrix(8.41564 0 0 -8.46685 106.04 120.508)"/><use xlink:href="#h" transform="matrix(8.41564 0 0 -8.46685 107.517 120.484)"/></g><clipPath id="aa"><path transform="matrix(1.03743 0 0 -1.04374 74.25 132.02)" d="M0 .061h41.232v18.624H0z" fill-rule="evenodd"/></clipPath><g clip-path="url(#aa)"><use xlink:href="#h" transform="matrix(8.41564 0 0 -8.46685 109.307 120.484)"/></g></g></g><clipPath id="ab"><path transform="matrix(1 0 0 -1 0 212.16)" d="M0 212.16h278.76V0H0" fill-rule="evenodd"/></clipPath><g clip-path="url(#ab)"><path stroke-width=".75" stroke-linecap="round" stroke-linejoin="round" fill="none" stroke="#000" d="M83.25 122.269c.608 2.546-.718 1.937-1.547 1.969-1.372.052-1.377 1.859-1.606 3.722"/></g><clipPath id="ac"><path transform="matrix(1 0 0 -1 0 212.16)" d="M0 212.16h278.76V0H0" fill-rule="evenodd"/></clipPath><g clip-path="url(#ac)"><path d="M77.062 132.02a9.256 9.256 0 0 0 1.296-7.196 7.313 7.313 0 0 0 5.239 3.915 9.26 9.26 0 0 0-6.535 3.281z" fill-rule="evenodd"/></g><clipPath id="ad"><path transform="matrix(1 0 0 -1 0 212.16)" d="M0 212.16h278.76V0H0" fill-rule="evenodd"/></clipPath><g clip-path="url(#ad)"><path stroke-width=".75" stroke-linecap="round" stroke-linejoin="round" fill="none" stroke="#000" d="M96.75 122.269c.964-.19 2.295.46 2.953 1.265.907 1.11.537 2.513 1.127 3.516.43.74 1.39 1.261 1.83 1.688.58.567.25.967.97.897"/></g><clipPath id="ae"><path transform="matrix(1 0 0 -1 0 212.16)" d="M0 212.16h278.76V0H0" fill-rule="evenodd"/></clipPath><g clip-path="url(#ae)"><path d="m102.22 126.612 3.95 2.407-2.41 3.948-1.54-6.355z" fill-rule="evenodd"/></g><clipPath id="af"><path transform="matrix(1 0 0 -1 0 212.16)" d="M77.629 62.632h42.741v-29.99H77.629v29.99z" fill-rule="evenodd"/></clipPath><g clip-path="url(#af)"><clipPath id="ag"><path transform="matrix(1.03743 0 0 -1.02548 77.629 179.518)" d="M0 0h41.203v29.245H0z" fill-rule="evenodd"/></clipPath><g clip-path="url(#ag)"><clipPath id="ah"><path transform="matrix(1.03743 0 0 -1.02548 77.629 179.518)" d="M0 .061h41.232v29.184H0z" fill-rule="evenodd"/></clipPath><g clip-path="url(#ah)"><symbol id="ai"><path d="M.713.036a.054.054 0 0 0-.009-.02.032.032 0 0 0-.015-.01.469.469 0 0 0-.139 0 .029.029 0 0 0-.014.01.062.062 0 0 0-.006.02l-.101.4H.428l-.096-.4A.061.061 0 0 0 .325.017a.029.029 0 0 0-.014-.01.497.497 0 0 0-.14 0 .029.029 0 0 0-.015.01.07.07 0 0 0-.007.019l-.144.55A.153.153 0 0 0 0 .615C0 .621.002.626.006.63c.004.003.01.006.02.006A.402.402 0 0 0 .12.633a.015.015 0 0 0 .01-.008.05.05 0 0 0 .004-.014l.11-.484.116.48a.064.064 0 0 0 .005.016.02.02 0 0 0 .01.009.066.066 0 0 0 .022.004.333.333 0 0 0 .072 0C.48.637.487.636.492.633a.02.02 0 0 0 .01-.008.051.051 0 0 0 .006-.016l.12-.48L.74.61C.74.615.741.62.743.623a.016.016 0 0 0 .01.009.054.054 0 0 0 .019.004.331.331 0 0 0 .069 0C.849.636.855.633.858.63.862.626.863.62.863.614A.16.16 0 0 0 .858.585L.713.035z"/></symbol><symbol id="aj"><path d="M.132.02A.014.014 0 0 0 .13.01.023.023 0 0 0 .12.006a.248.248 0 0 0-.097 0 .023.023 0 0 0-.01.006A.014.014 0 0 0 .01.02v.434C.01.457.01.46.012.462a.02.02 0 0 0 .01.007.079.079 0 0 0 .019.004A.248.248 0 0 0 .119.47.02.02 0 0 0 .13.462.012.012 0 0 0 .132.454V.02m.01.583C.142.578.137.56.126.55.116.541.098.537.07.537.043.537.024.542.014.551.004.56 0 .576 0 .6c0 .024.005.04.015.05.01.01.029.015.056.015C.1.666.117.661.127.652c.01-.01.015-.026.015-.05z"/></symbol><symbol id="ak"><path d="M.438.028c0-.004 0-.007-.002-.01A.019.019 0 0 0 .427.014.057.057 0 0 0 .411.009a.253.253 0 0 0-.066.004.023.023 0 0 0-.009.006.017.017 0 0 0-.002.009v.048A.278.278 0 0 0 .264.02.167.167 0 0 0 .181 0a.173.173 0 0 0-.085.019.166.166 0 0 0-.056.052.229.229 0 0 0-.031.076.424.424 0 0 0 .002.197.24.24 0 0 0 .037.08.161.161 0 0 0 .06.05A.183.183 0 0 0 .19.49.144.144 0 0 0 .257.476.23.23 0 0 0 .316.433v.235c0 .004 0 .007.002.01a.02.02 0 0 0 .01.006.079.079 0 0 0 .02.004.248.248 0 0 0 .077-.004.02.02 0 0 0 .01-.007.014.014 0 0 0 .003-.009v-.64m-.122.29a.266.266 0 0 1-.05.052.084.084 0 0 1-.051.017.07.07 0 0 1-.042-.012.088.088 0 0 1-.027-.032A.183.183 0 0 1 .13.298a.317.317 0 0 1 0-.104.176.176 0 0 1 .014-.046A.09.09 0 0 1 .17.116.069.069 0 0 1 .212.104c.009 0 .017.001.025.003A.095.095 0 0 1 .26.12.164.164 0 0 1 .287.14c.009.01.019.02.029.033V.32z"/></symbol><symbol id="al"><path d="M.428.258C.428.243.424.232.418.225A.035.035 0 0 0 .39.215H.125A.19.19 0 0 1 .131.163.103.103 0 0 1 .152.125.095.095 0 0 1 .19.101.161.161 0 0 1 .244.093a.323.323 0 0 1 .129.025.053.053 0 0 0 .019.005L.399.12C.4.12.403.118.404.115A.167.167 0 0 0 .407.064L.405.05A.035.035 0 0 0 .402.04.033.033 0 0 0 .397.036.055.055 0 0 0 .38.025a.297.297 0 0 0-.087-.02.395.395 0 0 0-.162.01.181.181 0 0 0-.073.044.187.187 0 0 0-.044.075A.359.359 0 0 0 0 .241c0 .038.005.073.015.104.01.031.025.058.044.08.02.021.043.038.07.05A.243.243 0 0 0 .222.49.242.242 0 0 0 .315.475.167.167 0 0 0 .416.363.295.295 0 0 0 .428.278v-.02m-.12.035a.124.124 0 0 1-.02.082C.273.395.25.405.219.405a.09.09 0 0 1-.04-.01.085.085 0 0 1-.03-.023.111.111 0 0 1-.017-.036.18.18 0 0 1-.007-.043h.184z"/></symbol><use xlink:href="#ai" transform="matrix(8.39075 0 0 -8.29408 77.807 157.477)"/><use xlink:href="#aj" transform="matrix(8.39075 0 0 -8.29408 85.67 157.477)"/><use xlink:href="#ak" transform="matrix(8.39075 0 0 -8.29408 87.544 157.546)"/><use xlink:href="#al" transform="matrix(8.39075 0 0 -8.29408 92.045 157.546)"/><use xlink:href="#h" transform="matrix(8.39075 0 0 -8.29408 95.963 157.453)"/></g><clipPath id="am"><path transform="matrix(1.03743 0 0 -1.02548 77.629 179.518)" d="M0 .061h41.232v29.184H0z" fill-rule="evenodd"/></clipPath><g clip-path="url(#am)"><symbol id="an"><path d="M.416.02A.014.014 0 0 0 .413.01a.023.023 0 0 0-.01-.005.243.243 0 0 0-.097 0 .023.023 0 0 0-.01.006.014.014 0 0 0-.003.009v.248a.2.2 0 0 1-.004.05.092.092 0 0 1-.014.03.057.057 0 0 1-.023.02.067.067 0 0 1-.032.008.081.081 0 0 1-.047-.017.256.256 0 0 1-.05-.05V.02A.014.014 0 0 0 .12.012.023.023 0 0 0 .11.005a.248.248 0 0 0-.097 0 .023.023 0 0 0-.01.006A.014.014 0 0 0 0 .02v.435c0 .003 0 .006.002.008a.017.017 0 0 0 .01.007l.015.003a.184.184 0 0 0 .052 0A.051.051 0 0 0 .094.47.017.017 0 0 0 .103.463.014.014 0 0 0 .105.455v-.05a.278.278 0 0 0 .073.058c.025.013.051.02.078.02A.17.17 0 0 0 .331.468a.128.128 0 0 0 .05-.04A.157.157 0 0 0 .407.37.343.343 0 0 0 .416.289v-.27z"/></symbol><symbol id="ao"><path d="M.416.028.413.019A.019.019 0 0 0 .404.013.173.173 0 0 0 .363.008a.193.193 0 0 0-.042.005.019.019 0 0 0-.008.006.016.016 0 0 0-.002.009v.05A.275.275 0 0 0 .237.02.164.164 0 0 0 .16 0a.175.175 0 0 0-.076.015.133.133 0 0 0-.05.04.167.167 0 0 0-.026.058A.377.377 0 0 0 0 .197v.266C0 .467 0 .47.002.472a.02.02 0 0 0 .01.006.256.256 0 0 0 .097 0A.02.02 0 0 0 .12.472.012.012 0 0 0 .124.463V.217c0-.023.001-.04.004-.052A.097.097 0 0 1 .14.134a.068.068 0 0 1 .023-.02.074.074 0 0 1 .033-.007.08.08 0 0 1 .047.017.277.277 0 0 1 .05.05v.29c0 .003.001.005.003.008a.02.02 0 0 0 .01.006.248.248 0 0 0 .097 0 .02.02 0 0 0 .01-.006.012.012 0 0 0 .003-.009V.028z"/></symbol><symbol id="ap"><path d="M.44.6A.084.084 0 0 0 .437.565C.432.558.428.555.422.555h-.05A.067.067 0 0 0 .385.526a.097.097 0 0 0 .005-.03.172.172 0 0 0-.013-.068.136.136 0 0 0-.036-.05.163.163 0 0 0-.057-.03A.251.251 0 0 0 .17.342a.106.106 0 0 0-.029.012.078.078 0 0 1-.01-.015.043.043 0 0 1-.005-.02C.126.31.13.303.138.297a.066.066 0 0 1 .035-.01L.28.283a.247.247 0 0 0 .066-.01.134.134 0 0 0 .049-.026.104.104 0 0 0 .03-.039.134.134 0 0 0-.046-.163.22.22 0 0 0-.07-.033A.445.445 0 0 0 .112.01a.212.212 0 0 0-.065.024.1.1 0 0 0-.037.038A.1.1 0 0 0 0 .118c0 .01.001.021.004.03l.012.03a.213.213 0 0 0 .047.049.084.084 0 0 0-.033.03.084.084 0 0 0-.011.042c0 .019.004.036.013.052s.02.03.034.043a.13.13 0 0 0-.037.1c0 .026.004.049.013.069a.16.16 0 0 0 .095.083.227.227 0 0 0 .073.01.3.3 0 0 0 .074-.009h.138c.006 0 .01-.004.014-.01A.087.087 0 0 0 .44.6M.283.497a.074.074 0 0 1-.02.055.075.075 0 0 1-.055.02.075.075 0 0 1-.031-.007A.062.062 0 0 1 .14.524.094.094 0 0 1 .136.495c0-.022.007-.04.02-.053A.074.074 0 0 1 .21.423c.012 0 .023.002.032.006a.065.065 0 0 1 .036.04c.004.009.005.018.005.028M.312.15a.038.038 0 0 1-.018.034.092.092 0 0 1-.048.013L.16.198A.13.13 0 0 1 .126.164.052.052 0 0 1 .12.15.077.077 0 0 1 .12.134c0-.016.008-.029.024-.037a.156.156 0 0 1 .07-.013C.23.084.247.086.26.09a.087.087 0 0 1 .03.014.053.053 0 0 1 .017.021.06.06 0 0 1 .005.024z"/></symbol><symbol id="aq"><path d="M.416.02A.014.014 0 0 0 .413.01a.023.023 0 0 0-.01-.005.243.243 0 0 0-.097 0 .023.023 0 0 0-.01.006.014.014 0 0 0-.003.009v.248a.2.2 0 0 1-.004.05.092.092 0 0 1-.014.03.057.057 0 0 1-.023.02.067.067 0 0 1-.032.008.081.081 0 0 1-.047-.017.256.256 0 0 1-.05-.05V.02A.014.014 0 0 0 .12.012.023.023 0 0 0 .11.005a.248.248 0 0 0-.097 0 .023.023 0 0 0-.01.006A.014.014 0 0 0 0 .02v.642C0 .665.001.668.003.67a.02.02 0 0 0 .01.007.079.079 0 0 0 .019.004A.248.248 0 0 0 .11.677.02.02 0 0 0 .12.67.014.014 0 0 0 .123.662V.42c.021.02.043.036.065.046a.16.16 0 0 0 .068.016.17.17 0 0 0 .075-.015.128.128 0 0 0 .05-.04.162.162 0 0 0 .027-.06.348.348 0 0 0 .008-.081V.02z"/></symbol><use xlink:href="#al" transform="matrix(8.39075 0 0 -8.29408 77.932 168.301)"/><use xlink:href="#an" transform="matrix(8.39075 0 0 -8.29408 82.366 168.232)"/><use xlink:href="#V" transform="matrix(8.39075 0 0 -8.29408 86.65 168.301)"/><use xlink:href="#ao" transform="matrix(8.39075 0 0 -8.29408 91.323 168.301)"/><use xlink:href="#ap" transform="matrix(8.39075 0 0 -8.29408 95.444 169.686)"/><use xlink:href="#aq" transform="matrix(8.39075 0 0 -8.29408 99.684 168.232)"/></g><clipPath id="ar"><path transform="matrix(1.03743 0 0 -1.02548 77.629 179.518)" d="M0 .061h41.232v29.184H0z" fill-rule="evenodd"/></clipPath><g clip-path="url(#ar)"><use xlink:href="#h" transform="matrix(8.39075 0 0 -8.29408 103.698 168.208)"/></g><clipPath id="as"><path transform="matrix(1.03743 0 0 -1.02548 77.629 179.518)" d="M0 .061h41.232v29.184H0z" fill-rule="evenodd"/></clipPath><g clip-path="url(#as)"><use xlink:href="#h" transform="matrix(8.39075 0 0 -8.29408 105.44 168.208)"/></g></g></g><clipPath id="at"><path transform="matrix(1 0 0 -1 0 212.16)" d="M0 212.16h278.76V0H0" fill-rule="evenodd"/></clipPath><g clip-path="url(#at)"><path stroke-width=".75" stroke-linecap="round" stroke-linejoin="round" fill="none" stroke="#000" d="M83.25 170.27c.608 2.547-.718 1.937-1.547 1.969-1.372.052-1.377 1.86-1.606 3.722"/></g><clipPath id="au"><path transform="matrix(1 0 0 -1 0 212.16)" d="M0 212.16h278.76V0H0" fill-rule="evenodd"/></clipPath><g clip-path="url(#au)"><path d="M77.062 180.021a9.256 9.256 0 0 0 1.296-7.196 7.313 7.313 0 0 0 5.239 3.915 9.264 9.264 0 0 0-6.535 3.281z" fill-rule="evenodd"/></g><clipPath id="av"><path transform="matrix(1 0 0 -1 0 212.16)" d="M0 212.16h278.76V0H0" fill-rule="evenodd"/></clipPath><g clip-path="url(#av)"><path stroke-width=".75" stroke-linecap="round" stroke-linejoin="round" fill="none" stroke="#000" d="M96.75 170.27c.964-.19 2.295.46 2.953 1.266.907 1.109.537 2.512 1.127 3.515.43.74 1.39 1.261 1.83 1.688.58.568.25.967.97.898"/></g><clipPath id="aw"><path transform="matrix(1 0 0 -1 0 212.16)" d="M0 212.16h278.76V0H0" fill-rule="evenodd"/></clipPath><g clip-path="url(#aw)"><path d="m102.22 174.613 3.95 2.407-2.41 3.949-1.54-6.356z" fill-rule="evenodd"/></g></svg>