<svg xmlns="http://www.w3.org/2000/svg" xmlns:xlink="http://www.w3.org/1999/xlink" width="296.64" height="445.76" viewBox="0 0 222.48 334.32"><clipPath id="a"><path transform="matrix(1 0 0 -1 0 334.32)" d="M0 334.32h222.48V0H0" fill-rule="evenodd"/></clipPath><g clip-path="url(#a)"><path stroke-width="2" stroke-linecap="round" stroke-linejoin="round" fill="none" stroke="#000" d="M129.77 290.605v18.563"/></g><path stroke-width="2" stroke-linecap="round" stroke-linejoin="round" fill="none" stroke="#000" d="M123.88 309.168h11.25M125.83 312.261h7.47M128.59 315.355h2.21"/><clipPath id="b"><path transform="matrix(1 0 0 -1 0 334.32)" d="M0 334.32h222.48V0H0" fill-rule="evenodd"/></clipPath><g clip-path="url(#b)"><path stroke-width="2" stroke-linecap="round" stroke-linejoin="round" fill="none" stroke="#000" d="M129.77 290.605v18.563"/></g><path stroke-width="2" stroke-linecap="round" stroke-linejoin="round" fill="none" stroke="#000" d="M123.88 309.168h11.25M125.83 312.261h7.47M128.59 315.355h2.21"/><clipPath id="c"><path transform="matrix(1 0 0 -1 0 334.32)" d="M0 334.32h222.48V0H0" fill-rule="evenodd"/></clipPath><g clip-path="url(#c)"><path stroke-width="2" stroke-linecap="round" stroke-linejoin="round" fill="none" stroke="#000" d="m129.77 292.855-.1-8.437"/></g><clipPath id="d"><path transform="matrix(1 0 0 -1 0 334.32)" d="M0 334.32h222.48V0H0" fill-rule="evenodd"/></clipPath><g clip-path="url(#d)"><path stroke-width="2" stroke-linecap="round" stroke-linejoin="round" fill="none" stroke="#000" d="M129.67 48.61V34.67"/></g><path stroke-width="2" stroke-linecap="round" stroke-linejoin="round" fill="none" stroke="#000" d="M120.54 34.11h18"/><clipPath id="e"><path transform="matrix(1 0 0 -1 0 334.32)" d="M114.45 315.32h30.1v-25.71h-30.1v25.71z" fill-rule="evenodd"/></clipPath><g clip-path="url(#e)"><clipPath id="f"><path transform="matrix(.99648 0 0 -.99396 114.45 44.71)" d="M0 0h30.21v25.867H0z" fill-rule="evenodd"/></clipPath><g clip-path="url(#f)"><clipPath id="g"><path transform="matrix(.99648 0 0 -.99396 114.45 44.71)" d="M0 .02h30.264v25.847H0z" fill-rule="evenodd"/></clipPath><g clip-path="url(#g)"><symbol id="h"><path d="M.366.457a.83.83 0 0 1 .047.095.137.137 0 0 1 .008.045c0 .024-.013.037-.041.04L.387.67h.208L.588.638a.08.08 0 0 1-.03-.014.11.11 0 0 1-.025-.025A.58.58 0 0 1 .5.545L.197 0H.074l-.02.522a.517.517 0 0 1-.005.05.133.133 0 0 1-.009.036.046.046 0 0 1-.016.02.051.051 0 0 1-.024.01L.007.67H.26L.252.638A.062.062 0 0 1 .22.627.053.053 0 0 1 .202.602.168.168 0 0 1 .197.555V.511L.201.34.203.16h.005l.158.297z"/></symbol><symbol id="i"><path d="m0 0 .007.032a.07.07 0 0 1 .04.028.231.231 0 0 1 .026.072l.089.403c.004.019.006.038.006.057 0 .013-.003.023-.01.03-.006.006-.016.01-.03.012l.006.033h.198a.752.752 0 0 0 .129-.01.273.273 0 0 0 .08-.026.206.206 0 0 0 .058-.042A.197.197 0 0 0 .64.518a.29.29 0 0 0 .015-.1.52.52 0 0 0-.014-.125.43.43 0 0 0-.044-.11A.348.348 0 0 0 .36.009.666.666 0 0 0 .24 0H0m.202.06A.437.437 0 0 1 .238.058c.042 0 .078.008.109.025.03.016.057.041.08.075a.402.402 0 0 1 .056.125.55.55 0 0 1 .02.148.274.274 0 0 1-.01.084A.143.143 0 0 1 .46.57.109.109 0 0 1 .416.6.162.162 0 0 1 .36.61L.323.607.203.06z"/></symbol><use xlink:href="#h" transform="matrix(14.08626 .00001 0 -14.05062 115.103 32.263)"/><use xlink:href="#i" transform="matrix(14.08626 .00001 0 -14.05062 123.857 32.215)"/><use xlink:href="#i" transform="matrix(14.08626 .00001 0 -14.05062 134.562 32.215)"/></g><clipPath id="j"><path transform="matrix(.99648 0 0 -.99396 114.45 44.71)" d="M0 .02h30.264v25.847H0z" fill-rule="evenodd"/></clipPath><g clip-path="url(#j)"><symbol id="k"><path d="M0 0z"/></symbol><use xlink:href="#k" transform="matrix(14.08626 .00001 0 -14.05062 144.608 32.215)"/></g></g></g><clipPath id="l"><path transform="matrix(1 0 0 -1 0 334.32)" d="M0 334.32h222.48V0H0" fill-rule="evenodd"/></clipPath><g clip-path="url(#l)"><path stroke-width="2" stroke-linecap="round" stroke-linejoin="round" fill="none" stroke="#000" d="M175.2 230.86v28.106"/></g><clipPath id="m"><path transform="matrix(1 0 0 -1 0 334.32)" d="M0 334.32h222.48V0H0" fill-rule="evenodd"/></clipPath><g clip-path="url(#m)"><path stroke-width="2" stroke-linecap="round" stroke-linejoin="round" fill="none" stroke="#000" d="M175.2 196.54v-19.68"/></g><clipPath id="n"><path transform="matrix(1 0 0 -1 0 334.32)" d="M0 334.32h222.48V0H0" fill-rule="evenodd"/></clipPath><g clip-path="url(#n)"><path stroke-width="2" stroke-linecap="round" stroke-linejoin="round" fill="none" stroke="#000" d="M83.4 196.54v-19.68"/></g><path d="M46.687 211.17c0-1.56 1.26-2.81 2.813-2.81a2.806 2.806 0 0 1 2.812 2.81 2.812 2.812 0 0 1-5.625 0z" fill-rule="evenodd"/><path stroke-width="2" stroke-linecap="round" stroke-linejoin="round" fill="none" stroke="#000" d="M46.687 211.17c0-1.56 1.26-2.81 2.813-2.81a2.806 2.806 0 0 1 2.812 2.81 2.812 2.812 0 0 1-5.625 0z"/><path d="M136.65 212.86c0-1.56 1.26-2.82 2.81-2.82a2.815 2.815 0 0 1 0 5.63c-1.55 0-2.81-1.26-2.81-2.81z" fill-rule="evenodd"/><path stroke-width="2" stroke-linecap="round" stroke-linejoin="round" fill="none" stroke="#000" d="M136.65 212.86c0-1.56 1.26-2.82 2.81-2.82a2.815 2.815 0 0 1 0 5.63c-1.55 0-2.81-1.26-2.81-2.81z"/><clipPath id="o"><path transform="matrix(1 0 0 -1 0 334.32)" d="M0 334.32h222.48V0H0" fill-rule="evenodd"/></clipPath><g clip-path="url(#o)"><path stroke-width="2" stroke-linecap="round" stroke-linejoin="round" fill="none" stroke="#000" d="M83.4 258.966V221.86"/></g><clipPath id="p"><path transform="matrix(1 0 0 -1 0 334.32)" d="M0 334.32h222.48V0H0" fill-rule="evenodd"/></clipPath><g clip-path="url(#p)"><path stroke-width="2" stroke-linecap="round" stroke-linejoin="round" fill="none" stroke="#000" d="M129.67 99.36v-22.5"/></g><path d="M90.971 62.79a2.812 2.812 0 0 1 5.625 0c0 1.56-1.26 2.82-2.813 2.82a2.814 2.814 0 0 1-2.812-2.82z" fill-rule="evenodd"/><path stroke-width="2" stroke-linecap="round" stroke-linejoin="round" fill="none" stroke="#000" d="M90.971 62.79a2.812 2.812 0 0 1 5.625 0c0 1.56-1.26 2.82-2.813 2.82a2.814 2.814 0 0 1-2.812-2.82z"/><path d="M90.708 111.17c0-1.56 1.259-2.81 2.813-2.81a2.806 2.806 0 0 1 2.812 2.81 2.812 2.812 0 0 1-5.625 0z" fill-rule="evenodd"/><path stroke-width="2" stroke-linecap="round" stroke-linejoin="round" fill="none" stroke="#000" d="M90.708 111.17c0-1.56 1.259-2.81 2.813-2.81a2.806 2.806 0 0 1 2.812 2.81 2.812 2.812 0 0 1-5.625 0zM83.4 258.966h91.8"/><clipPath id="q"><path transform="matrix(1 0 0 -1 0 334.32)" d="M0 334.32h222.48V0H0" fill-rule="evenodd"/></clipPath><g clip-path="url(#q)"><path stroke-width="2" stroke-linecap="round" stroke-linejoin="round" fill="none" stroke="#000" d="M129.77 290.605v-31.639"/></g><path d="M126.82 258.98a2.814 2.814 0 0 1 5.63 0 2.815 2.815 0 0 1-5.63 0z" fill-rule="evenodd"/><path stroke-width="2" stroke-linecap="round" stroke-linejoin="round" fill="none" stroke="#000" d="M126.82 258.98a2.814 2.814 0 0 1 5.63 0 2.815 2.815 0 0 1-5.63 0z"/><clipPath id="r"><path transform="matrix(1 0 0 -1 0 334.32)" d="M0 334.32h222.48V0H0" fill-rule="evenodd"/></clipPath><g clip-path="url(#r)"><path stroke-width="2" stroke-linecap="round" stroke-linejoin="round" fill="none" stroke="#000" d="M129.67 129.17v46.56"/></g><path stroke-width="2" stroke-linecap="round" stroke-linejoin="round" fill="none" stroke="#000" d="M83.4 176.86h91.8"/><path d="M128.65 176.71c0-.54.44-.98.99-.98.54 0 .98.44.98.98a.986.986 0 1 1-1.97 0z" fill-rule="evenodd"/><path stroke-width="2" stroke-linecap="round" stroke-linejoin="round" fill="none" stroke="#000" d="M128.65 176.71c0-.54.44-.98.99-.98.54 0 .98.44.98.98a.986.986 0 1 1-1.97 0z"/><clipPath id="s"><path transform="matrix(1 0 0 -1 0 334.32)" d="M109.96 129.34h25.2v-26.02h-25.2v26.02z" fill-rule="evenodd"/></clipPath><g clip-path="url(#s)"><clipPath id="t"><path transform="matrix(.99571 0 0 -.99401 109.96 231)" d="M0 0h25.308v26.179H0z" fill-rule="evenodd"/></clipPath><g clip-path="url(#t)"><clipPath id="u"><path transform="matrix(.99571 0 0 -.99401 109.96 231)" d="M0 .043h25.344V26.18H0z" fill-rule="evenodd"/></clipPath><g clip-path="url(#u)"><use xlink:href="#i" transform="matrix(14.02763 0 0 -14.00366 112.382 218.385)"/></g><clipPath id="v"><path transform="matrix(.99571 0 0 -.99401 109.96 231)" d="M0 .043h25.344V26.18H0z" fill-rule="evenodd"/></clipPath><g clip-path="url(#v)"><symbol id="w"><path d="M.134.667H.32L.414.39C.44.315.46.25.475.19h.006c.01.057.022.12.038.188l.034.157a.27.27 0 0 1 .006.057c0 .013-.003.023-.01.03C.543.628.533.632.52.634l.006.033h.18L.698.634a.07.07 0 0 1-.04-.027.231.231 0 0 1-.026-.072L.515 0H.403L.286.341a2.763 2.763 0 0 0-.05.164H.229A2.52 2.52 0 0 0 .187.291L.152.131A.31.31 0 0 1 .146.076c0-.014.003-.024.01-.03a.056.056 0 0 1 .03-.013L.18 0H0l.007.032a.07.07 0 0 1 .04.028.231.231 0 0 1 .026.072l.089.403c.004.019.006.038.006.057 0 .013-.003.023-.01.03-.006.006-.016.01-.03.012l.006.033z"/></symbol><use xlink:href="#w" transform="matrix(14.02763 0 0 -14.00366 122.954 218.385)"/></g><clipPath id="x"><path transform="matrix(.99571 0 0 -.99401 109.96 231)" d="M0 .043h8.088V26.18H0z" fill-rule="evenodd"/></clipPath><g clip-path="url(#x)"><symbol id="y"><path d="M.43 0H0v.052h.43V0z"/></symbol><use xlink:href="#y" transform="matrix(14.02763 0 0 -14.00366 111.991 207.576)"/></g><clipPath id="z"><path transform="matrix(.99571 0 0 -.99401 109.96 231)" d="M7.968.043h3.864V26.18H7.968z" fill-rule="evenodd"/></clipPath><g clip-path="url(#z)"><use xlink:href="#y" transform="matrix(14.02763 0 0 -14.00366 115.72 207.576)"/></g><clipPath id="A"><path transform="matrix(.99571 0 0 -.99401 109.96 231)" d="M11.712.043h3.96V26.18h-3.96z" fill-rule="evenodd"/></clipPath><g clip-path="url(#A)"><use xlink:href="#y" transform="matrix(14.02763 0 0 -14.00366 119.567 207.576)"/></g><clipPath id="B"><path transform="matrix(.99571 0 0 -.99401 109.96 231)" d="M15.552.043h3.864V26.18h-3.864z" fill-rule="evenodd"/></clipPath><g clip-path="url(#B)"><use xlink:href="#y" transform="matrix(14.02763 0 0 -14.00366 123.295 207.576)"/></g><clipPath id="C"><path transform="matrix(.99571 0 0 -.99401 109.96 231)" d="M19.296.043h6.048V26.18h-6.048z" fill-rule="evenodd"/></clipPath><g clip-path="url(#C)"><use xlink:href="#y" transform="matrix(14.02763 0 0 -14.00366 127.142 207.576)"/></g></g></g><clipPath id="D"><path transform="matrix(1 0 0 -1 0 334.32)" d="M18 129.34h25.2v-26.02H18v26.02z" fill-rule="evenodd"/></clipPath><g clip-path="url(#D)"><clipPath id="E"><path transform="matrix(.99571 0 0 -.99401 18 231)" d="M0 0h25.308v26.179H0z" fill-rule="evenodd"/></clipPath><g clip-path="url(#E)"><clipPath id="F"><path transform="matrix(.99571 0 0 -.99401 18 231)" d="M0 .043h25.344V26.18H0z" fill-rule="evenodd"/></clipPath><g clip-path="url(#F)"><symbol id="G"><path d="M.481.24A.462.462 0 0 0 .443.127.23.23 0 0 0 .386.053.213.213 0 0 0 .31.013.392.392 0 0 0 .123.01a.183.183 0 0 0-.064.033A.16.16 0 0 0 0 .176L.003.23C.006.248.011.277.02.317l.05.225A.26.26 0 0 1 .078.6c0 .013-.003.023-.01.03C.061.635.051.64.037.641l.006.032H.29L.282.642a.07.07 0 0 1-.04-.027.231.231 0 0 1-.026-.073L.15.243A.524.524 0 0 1 .138.147C.138.117.145.095.16.08.174.065.196.057.224.057c.027 0 .05.006.069.018.019.012.033.03.044.051a.372.372 0 0 1 .03.087l.072.33A.22.22 0 0 1 .445.6c0 .013-.003.023-.01.03C.43.635.42.64.406.641l.007.032H.62L.613.642A.072.072 0 0 1 .57.614.225.225 0 0 1 .547.542L.48.24z"/></symbol><symbol id="H"><path d="M.378.667A.807.807 0 0 0 .46.663.223.223 0 0 0 .522.648a.15.15 0 0 0 .051-.03.12.12 0 0 0 .031-.045.16.16 0 0 0 .011-.06A.215.215 0 0 0 .537.34.25.25 0 0 0 .444.29.485.485 0 0 0 .315.277H.3c-.02 0-.037 0-.05.002L.218.132A.31.31 0 0 1 .212.075C.212.06.216.049.223.043A.064.064 0 0 1 .26.033L.252 0H0l.007.032a.07.07 0 0 1 .04.028.231.231 0 0 1 .026.072l.089.403c.004.019.006.038.006.057 0 .013-.003.023-.01.03-.006.006-.016.01-.03.012l.006.033h.244M.288.333c.045 0 .08.007.104.021a.135.135 0 0 1 .055.063c.012.028.019.06.019.094C.466.544.458.57.442.585.427.601.403.609.371.609a.99.99 0 0 1-.048 0L.263.332H.29z"/></symbol><use xlink:href="#G" transform="matrix(14.02763 0 0 -14.00366 21.91 218.494)"/><use xlink:href="#H" transform="matrix(14.02763 0 0 -14.00366 31.402 218.385)"/></g><clipPath id="I"><path transform="matrix(.99571 0 0 -.99401 18 231)" d="M0 .043h8.808V26.18H0z" fill-rule="evenodd"/></clipPath><g clip-path="url(#I)"><use xlink:href="#y" transform="matrix(14.02763 0 0 -14.00366 20.772 207.576)"/></g><clipPath id="J"><path transform="matrix(.99571 0 0 -.99401 18 231)" d="M8.688.043h4.704V26.18H8.688z" fill-rule="evenodd"/></clipPath><g clip-path="url(#J)"><use xlink:href="#y" transform="matrix(14.02763 0 0 -14.00366 25.336 207.576)"/></g><clipPath id="K"><path transform="matrix(.99571 0 0 -.99401 18 231)" d="M13.272.043h4.704V26.18h-4.704z" fill-rule="evenodd"/></clipPath><g clip-path="url(#K)"><use xlink:href="#y" transform="matrix(14.02763 0 0 -14.00366 29.9 207.576)"/></g><clipPath id="L"><path transform="matrix(.99571 0 0 -.99401 18 231)" d="M17.856.043h7.488V26.18h-7.488z" fill-rule="evenodd"/></clipPath><g clip-path="url(#L)"><use xlink:href="#y" transform="matrix(14.02763 0 0 -14.00366 34.585 207.576)"/></g></g></g><clipPath id="M"><path transform="matrix(1 0 0 -1 0 334.32)" d="M64.64 230.74h25.2v-26.03h-25.2v26.03z" fill-rule="evenodd"/></clipPath><g clip-path="url(#M)"><clipPath id="N"><path transform="matrix(.99571 0 0 -.99401 64.64 129.61)" d="M0 0h25.308v26.179H0z" fill-rule="evenodd"/></clipPath><g clip-path="url(#N)"><clipPath id="O"><path transform="matrix(.99571 0 0 -.99401 64.64 129.61)" d="M0 .043h25.344V26.18H0z" fill-rule="evenodd"/></clipPath><g clip-path="url(#O)"><use xlink:href="#G" transform="matrix(14.02763 0 0 -14.00366 68.55 117.104)"/><use xlink:href="#H" transform="matrix(14.02763 0 0 -14.00366 78.042 116.995)"/></g><clipPath id="P"><path transform="matrix(.99571 0 0 -.99401 64.64 129.61)" d="M0 .043h8.808V26.18H0z" fill-rule="evenodd"/></clipPath><g clip-path="url(#P)"><use xlink:href="#y" transform="matrix(14.02763 0 0 -14.00366 67.412 106.186)"/></g><clipPath id="Q"><path transform="matrix(.99571 0 0 -.99401 64.64 129.61)" d="M8.688.043h4.704V26.18H8.688z" fill-rule="evenodd"/></clipPath><g clip-path="url(#Q)"><use xlink:href="#y" transform="matrix(14.02763 0 0 -14.00366 71.976 106.186)"/></g><clipPath id="R"><path transform="matrix(.99571 0 0 -.99401 64.64 129.61)" d="M13.272.043h4.704V26.18h-4.704z" fill-rule="evenodd"/></clipPath><g clip-path="url(#R)"><use xlink:href="#y" transform="matrix(14.02763 0 0 -14.00366 76.54 106.186)"/></g><clipPath id="S"><path transform="matrix(.99571 0 0 -.99401 64.64 129.61)" d="M17.856.043h7.488V26.18h-7.488z" fill-rule="evenodd"/></clipPath><g clip-path="url(#S)"><use xlink:href="#y" transform="matrix(14.02763 0 0 -14.00366 81.225 106.186)"/></g></g></g><clipPath id="T"><path transform="matrix(1 0 0 -1 0 334.32)" d="M62.846 254.7h25.2v26.022h-25.2z" fill-rule="evenodd"/></clipPath><g clip-path="url(#T)"><clipPath id="U"><path transform="matrix(.99571 0 0 -.99401 62.846 79.62)" d="M0 0h25.308v26.179H0z" fill-rule="evenodd"/></clipPath><g clip-path="url(#U)"><clipPath id="V"><path transform="matrix(.99571 0 0 -.99401 62.846 79.62)" d="M0 .043h25.344V26.18H0z" fill-rule="evenodd"/></clipPath><g clip-path="url(#V)"><use xlink:href="#i" transform="matrix(14.02763 .00002 0 -14.00366 65.268 67.005)"/></g><clipPath id="W"><path transform="matrix(.99571 0 0 -.99401 62.846 79.62)" d="M0 .043h25.344V26.18H0z" fill-rule="evenodd"/></clipPath><g clip-path="url(#W)"><use xlink:href="#w" transform="matrix(14.02763 .00002 0 -14.00366 75.84 67.005)"/></g><clipPath id="X"><path transform="matrix(.99571 0 0 -.99401 62.846 79.62)" d="M0 .043h8.088V26.18H0z" fill-rule="evenodd"/></clipPath><g clip-path="url(#X)"><use xlink:href="#y" transform="matrix(14.02763 .00002 0 -14.00366 64.877 56.196)"/></g><clipPath id="Y"><path transform="matrix(.99571 0 0 -.99401 62.846 79.62)" d="M7.968.043h3.864V26.18H7.968z" fill-rule="evenodd"/></clipPath><g clip-path="url(#Y)"><use xlink:href="#y" transform="matrix(14.02763 .00002 0 -14.00366 68.605 56.196)"/></g><clipPath id="Z"><path transform="matrix(.99571 0 0 -.99401 62.846 79.62)" d="M11.712.043h3.96V26.18h-3.96z" fill-rule="evenodd"/></clipPath><g clip-path="url(#Z)"><use xlink:href="#y" transform="matrix(14.02763 .00002 0 -14.00366 72.453 56.196)"/></g><clipPath id="aa"><path transform="matrix(.99571 0 0 -.99401 62.846 79.62)" d="M15.552.043h3.864V26.18h-3.864z" fill-rule="evenodd"/></clipPath><g clip-path="url(#aa)"><use xlink:href="#y" transform="matrix(14.02763 .00002 0 -14.00366 76.18 56.196)"/></g><clipPath id="ab"><path transform="matrix(.99571 0 0 -.99401 62.846 79.62)" d="M19.296.043h6.048V26.18h-6.048z" fill-rule="evenodd"/></clipPath><g clip-path="url(#ab)"><use xlink:href="#y" transform="matrix(14.02763 .00002 0 -14.00366 80.028 56.196)"/></g></g></g><path stroke-width="2" stroke-linecap="round" stroke-linejoin="round" fill="none" stroke="#000" d="M129.67 152.11h44.4"/><path d="M170.7 152.11c0-1.56 1.26-2.82 2.81-2.82 1.56 0 2.81 1.26 2.81 2.82 0 1.55-1.25 2.81-2.81 2.81-1.55 0-2.81-1.26-2.81-2.81z" fill-rule="evenodd"/><path stroke-width="2" stroke-linecap="round" stroke-linejoin="round" fill="none" stroke="#000" d="M170.7 152.11c0-1.56 1.26-2.82 2.81-2.82 1.56 0 2.81 1.26 2.81 2.82 0 1.55-1.25 2.81-2.81 2.81-1.55 0-2.81-1.26-2.81-2.81z"/><path d="M126.82 152.11a2.815 2.815 0 1 1 5.63-.01 2.815 2.815 0 0 1-5.63.01z" fill-rule="evenodd"/><path stroke-width="2" stroke-linecap="round" stroke-linejoin="round" fill="none" stroke="#000" d="M126.82 152.11a2.815 2.815 0 1 1 5.63-.01 2.815 2.815 0 0 1-5.63.01z"/><clipPath id="ac"><path transform="matrix(1 0 0 -1 0 334.32)" d="M177.74 165.98h26.419v25.71H177.74z" fill-rule="evenodd"/></clipPath><g clip-path="url(#ac)"><clipPath id="ad"><path transform="matrix(.99596 0 0 -.99396 177.74 168.34)" d="M0 0h26.527v25.867H0z" fill-rule="evenodd"/></clipPath><g clip-path="url(#ad)"><clipPath id="ae"><path transform="matrix(.99596 0 0 -.99396 177.74 168.34)" d="M0 .02h26.52v25.847H0z" fill-rule="evenodd"/></clipPath><g clip-path="url(#ae)"><symbol id="af"><path d="M.44.305A.181.181 0 0 0 .482.26.21.21 0 0 0 .505.194L.52.126A.318.318 0 0 1 .534.073a.078.078 0 0 1 .02-.026.083.083 0 0 1 .032-.015L.58 0H.405a.78.78 0 0 0-.028.109l-.016.08a.27.27 0 0 1-.016.059.067.067 0 0 1-.023.03.069.069 0 0 1-.038.01h-.03L.217.131A.34.34 0 0 1 .212.075C.212.06.216.049.223.043A.064.064 0 0 1 .26.033L.252 0H0l.007.032a.07.07 0 0 1 .04.028.231.231 0 0 1 .026.072l.089.403c.004.019.006.038.006.057 0 .013-.003.023-.01.03-.006.006-.016.01-.03.012l.006.033h.244A.801.801 0 0 0 .46.663.23.23 0 0 0 .523.648.153.153 0 0 0 .573.62.12.12 0 0 0 .605.575.187.187 0 0 0 .571.391.296.296 0 0 0 .44.31V.305m-.142.04c.042 0 .075.006.098.018a.14.14 0 0 1 .057.06.195.195 0 0 1 .02.092C.473.547.466.57.45.585.433.603.408.61.373.61h-.05L.266.343h.03z"/></symbol><symbol id="ag"><path d="M.094.17A.176.176 0 0 1 .107.103.073.073 0 0 1 .141.067a.133.133 0 0 1 .056-.01c.036 0 .064.01.084.03.02.02.031.05.031.086a.12.12 0 0 1-.04.092.616.616 0 0 1-.07.057.251.251 0 0 0-.07.076.174.174 0 0 0-.007.163.18.18 0 0 0 .049.064c.022.019.049.033.082.042.033.01.071.015.115.015A.695.695 0 0 0 .545.66l-.03-.14H.453C.452.557.444.584.43.6.416.618.394.626.362.626a.114.114 0 0 1-.08-.028.098.098 0 0 1-.03-.076C.251.5.258.477.274.457A.364.364 0 0 1 .347.392.466.466 0 0 0 .414.333.18.18 0 0 0 .449.28.2.2 0 0 0 .386.057a.246.246 0 0 0-.08-.043A.398.398 0 0 0 .188 0 .603.603 0 0 0 0 .03l.03.14h.064z"/></symbol><symbol id="ah"><path d="M.575.667.536.49H.474a.342.342 0 0 1-.007.075.06.06 0 0 1-.019.033.053.053 0 0 1-.036.011H.37L.264.132A.36.36 0 0 1 .257.075C.257.06.261.049.27.043a.064.064 0 0 1 .036-.01L.298 0h-.26l.007.032A.07.07 0 0 1 .08.045.071.071 0 0 1 .1.074a.327.327 0 0 1 .018.058l.105.477H.184A.098.098 0 0 1 .141.601.116.116 0 0 1 .104.567.315.315 0 0 1 .064.5H0l.037.167h.538z"/></symbol><use xlink:href="#af" transform="matrix(14.07886 0 0 -14.05062 178.132 155.845)"/><use xlink:href="#ag" transform="matrix(14.07886 0 0 -14.05062 187.698 155.955)"/><use xlink:href="#ah" transform="matrix(14.07886 0 0 -14.05062 195.96 155.845)"/></g></g></g><path stroke-width="2" stroke-linecap="round" stroke-linejoin="round" fill="none" stroke="#000" d="M83.25 194.86v7.31c-4.499-.1-9.001-.1-13.5 0"/><clipPath id="ai"><path transform="matrix(1 0 0 -1 0 334.32)" d="M0 334.32h222.48V0H0" fill-rule="evenodd"/></clipPath><g clip-path="url(#ai)"><path stroke-width="2" stroke-linecap="round" stroke-linejoin="round" fill="none" stroke="#000" d="M69.75 199.24v23.18"/></g><path stroke-width="2" stroke-linecap="round" stroke-linejoin="round" fill="none" stroke="#000" d="M69.75 220.17h13.5v9"/><clipPath id="aj"><path transform="matrix(1 0 0 -1 0 334.32)" d="M0 334.32h222.48V0H0" fill-rule="evenodd"/></clipPath><g clip-path="url(#aj)"><path stroke-width="2" stroke-linecap="round" stroke-linejoin="round" fill="none" stroke="#000" d="M65.25 199.92v22.5"/></g><path stroke-width="2" stroke-linecap="round" stroke-linejoin="round" fill="none" stroke="#000" d="M47.25 211.17h18M69.825 220.17H76.6"/><path d="m75.65 216.37 7.6 3.8-7.6 3.8v-7.6z" fill-rule="evenodd"/><path stroke-width="2" stroke-linecap="round" stroke-linejoin="round" fill="none" stroke="#000" d="M83.25 194.86v7.31c-4.499-.1-9.001-.1-13.5 0"/><clipPath id="ak"><path transform="matrix(1 0 0 -1 0 334.32)" d="M0 334.32h222.48V0H0" fill-rule="evenodd"/></clipPath><g clip-path="url(#ak)"><path stroke-width="2" stroke-linecap="round" stroke-linejoin="round" fill="none" stroke="#000" d="M69.75 199.24v23.18"/></g><path stroke-width="2" stroke-linecap="round" stroke-linejoin="round" fill="none" stroke="#000" d="M69.75 220.17h13.5v9"/><clipPath id="al"><path transform="matrix(1 0 0 -1 0 334.32)" d="M0 334.32h222.48V0H0" fill-rule="evenodd"/></clipPath><g clip-path="url(#al)"><path stroke-width="2" stroke-linecap="round" stroke-linejoin="round" fill="none" stroke="#000" d="M65.25 199.92v22.5"/></g><path stroke-width="2" stroke-linecap="round" stroke-linejoin="round" fill="none" stroke="#000" d="M47.25 211.17h18M69.825 220.17H76.6"/><path d="m75.65 216.37 7.6 3.8-7.6 3.8v-7.6z" fill-rule="evenodd"/><path stroke-width="2" stroke-linecap="round" stroke-linejoin="round" fill="none" stroke="#000" d="M129.67 45.79v7.32c-2.28-.06-4.57-.08-6.85-.08"/><path d="m123.81 56.82-7.64-3.71 7.56-3.89.08 7.6z" fill-rule="evenodd"/><clipPath id="am"><path transform="matrix(1 0 0 -1 0 334.32)" d="M0 334.32h222.48V0H0" fill-rule="evenodd"/></clipPath><g clip-path="url(#am)"><path stroke-width="2" stroke-linecap="round" stroke-linejoin="round" fill="none" stroke="#000" d="M116.17 50.18v23.18"/></g><path stroke-width="2" stroke-linecap="round" stroke-linejoin="round" fill="none" stroke="#000" d="M116.17 71.11h13.5v9"/><clipPath id="an"><path transform="matrix(1 0 0 -1 0 334.32)" d="M0 334.32h222.48V0H0" fill-rule="evenodd"/></clipPath><g clip-path="url(#an)"><path stroke-width="2" stroke-linecap="round" stroke-linejoin="round" fill="none" stroke="#000" d="M111.67 50.86v22.5"/></g><path stroke-width="2" stroke-linecap="round" stroke-linejoin="round" fill="none" stroke="#000" d="M93.671 62.11h17.999"/><path d="M111.11 62.11a2.815 2.815 0 1 0-5.63-.01 2.815 2.815 0 0 0 5.63.01z" fill="#fff" fill-rule="evenodd"/><path stroke-width="2" stroke-linecap="round" stroke-linejoin="round" fill="none" stroke="#000" d="M111.11 62.11a2.815 2.815 0 1 0-5.63-.01 2.815 2.815 0 0 0 5.63.01zM129.67 45.79v7.32c-2.28-.06-4.57-.08-6.85-.08"/><path d="m123.81 56.82-7.64-3.71 7.56-3.89.08 7.6z" fill-rule="evenodd"/><clipPath id="ao"><path transform="matrix(1 0 0 -1 0 334.32)" d="M0 334.32h222.48V0H0" fill-rule="evenodd"/></clipPath><g clip-path="url(#ao)"><path stroke-width="2" stroke-linecap="round" stroke-linejoin="round" fill="none" stroke="#000" d="M116.17 50.18v23.18"/></g><path stroke-width="2" stroke-linecap="round" stroke-linejoin="round" fill="none" stroke="#000" d="M116.17 71.11h13.5v9"/><clipPath id="ap"><path transform="matrix(1 0 0 -1 0 334.32)" d="M0 334.32h222.48V0H0" fill-rule="evenodd"/></clipPath><g clip-path="url(#ap)"><path stroke-width="2" stroke-linecap="round" stroke-linejoin="round" fill="none" stroke="#000" d="M111.67 50.86v22.5"/></g><path stroke-width="2" stroke-linecap="round" stroke-linejoin="round" fill="none" stroke="#000" d="M93.671 62.11h17.999"/><path d="M111.11 62.11a2.815 2.815 0 1 0-5.63-.01 2.815 2.815 0 0 0 5.63.01z" fill="#fff" fill-rule="evenodd"/><path stroke-width="2" stroke-linecap="round" stroke-linejoin="round" fill="none" stroke="#000" d="M111.11 62.11a2.815 2.815 0 1 0-5.63-.01 2.815 2.815 0 0 0 5.63.01zM129.67 95.29v7.32c-2.28-.06-4.57-.08-6.85-.08"/><path d="m123.81 106.32-7.64-3.71 7.56-3.89.08 7.6z" fill-rule="evenodd"/><clipPath id="aq"><path transform="matrix(1 0 0 -1 0 334.32)" d="M0 334.32h222.48V0H0" fill-rule="evenodd"/></clipPath><g clip-path="url(#aq)"><path stroke-width="2" stroke-linecap="round" stroke-linejoin="round" fill="none" stroke="#000" d="M116.17 99.68v23.18"/></g><path stroke-width="2" stroke-linecap="round" stroke-linejoin="round" fill="none" stroke="#000" d="M116.17 120.61h13.5v9"/><clipPath id="ar"><path transform="matrix(1 0 0 -1 0 334.32)" d="M0 334.32h222.48V0H0" fill-rule="evenodd"/></clipPath><g clip-path="url(#ar)"><path stroke-width="2" stroke-linecap="round" stroke-linejoin="round" fill="none" stroke="#000" d="M111.67 100.36v22.5"/></g><path stroke-width="2" stroke-linecap="round" stroke-linejoin="round" fill="none" stroke="#000" d="M93.671 111.61h17.999"/><path d="M111.11 111.61a2.815 2.815 0 1 0-5.63-.01 2.815 2.815 0 0 0 5.63.01z" fill="#fff" fill-rule="evenodd"/><path stroke-width="2" stroke-linecap="round" stroke-linejoin="round" fill="none" stroke="#000" d="M111.11 111.61a2.815 2.815 0 1 0-5.63-.01 2.815 2.815 0 0 0 5.63.01zM129.67 95.29v7.32c-2.28-.06-4.57-.08-6.85-.08"/><path d="m123.81 106.32-7.64-3.71 7.56-3.89.08 7.6z" fill-rule="evenodd"/><clipPath id="as"><path transform="matrix(1 0 0 -1 0 334.32)" d="M0 334.32h222.48V0H0" fill-rule="evenodd"/></clipPath><g clip-path="url(#as)"><path stroke-width="2" stroke-linecap="round" stroke-linejoin="round" fill="none" stroke="#000" d="M116.17 99.68v23.18"/></g><path stroke-width="2" stroke-linecap="round" stroke-linejoin="round" fill="none" stroke="#000" d="M116.17 120.61h13.5v9"/><clipPath id="at"><path transform="matrix(1 0 0 -1 0 334.32)" d="M0 334.32h222.48V0H0" fill-rule="evenodd"/></clipPath><g clip-path="url(#at)"><path stroke-width="2" stroke-linecap="round" stroke-linejoin="round" fill="none" stroke="#000" d="M111.67 100.36v22.5"/></g><path stroke-width="2" stroke-linecap="round" stroke-linejoin="round" fill="none" stroke="#000" d="M93.671 111.61h17.999"/><path d="M111.11 111.61a2.815 2.815 0 1 0-5.63-.01 2.815 2.815 0 0 0 5.63.01z" fill="#fff" fill-rule="evenodd"/><path stroke-width="2" stroke-linecap="round" stroke-linejoin="round" fill="none" stroke="#000" d="M111.11 111.61a2.815 2.815 0 1 0-5.63-.01 2.815 2.815 0 0 0 5.63.01zM175.22 196.54v7.32c-4.5-.1-9-.1-13.5 0"/><clipPath id="au"><path transform="matrix(1 0 0 -1 0 334.32)" d="M0 334.32h222.48V0H0" fill-rule="evenodd"/></clipPath><g clip-path="url(#au)"><path stroke-width="2" stroke-linecap="round" stroke-linejoin="round" fill="none" stroke="#000" d="M161.72 200.93v23.18"/></g><path stroke-width="2" stroke-linecap="round" stroke-linejoin="round" fill="none" stroke="#000" d="M161.72 221.86h13.5v9"/><clipPath id="av"><path transform="matrix(1 0 0 -1 0 334.32)" d="M0 334.32h222.48V0H0" fill-rule="evenodd"/></clipPath><g clip-path="url(#av)"><path stroke-width="2" stroke-linecap="round" stroke-linejoin="round" fill="none" stroke="#000" d="M157.22 201.61v22.5"/></g><path stroke-width="2" stroke-linecap="round" stroke-linejoin="round" fill="none" stroke="#000" d="M139.22 212.86h18M161.79 221.86h6.78"/><path d="m167.62 218.06 7.6 3.8-7.6 3.8v-7.6z" fill-rule="evenodd"/><path stroke-width="2" stroke-linecap="round" stroke-linejoin="round" fill="none" stroke="#000" d="M175.22 196.54v7.32c-4.5-.1-9-.1-13.5 0"/><clipPath id="aw"><path transform="matrix(1 0 0 -1 0 334.32)" d="M0 334.32h222.48V0H0" fill-rule="evenodd"/></clipPath><g clip-path="url(#aw)"><path stroke-width="2" stroke-linecap="round" stroke-linejoin="round" fill="none" stroke="#000" d="M161.72 200.93v23.18"/></g><path stroke-width="2" stroke-linecap="round" stroke-linejoin="round" fill="none" stroke="#000" d="M161.72 221.86h13.5v9"/><clipPath id="ax"><path transform="matrix(1 0 0 -1 0 334.32)" d="M0 334.32h222.48V0H0" fill-rule="evenodd"/></clipPath><g clip-path="url(#ax)"><path stroke-width="2" stroke-linecap="round" stroke-linejoin="round" fill="none" stroke="#000" d="M157.22 201.61v22.5"/></g><path stroke-width="2" stroke-linecap="round" stroke-linejoin="round" fill="none" stroke="#000" d="M139.22 212.86h18M161.79 221.86h6.78"/><path d="m167.62 218.06 7.6 3.8-7.6 3.8v-7.6z" fill-rule="evenodd"/><clipPath id="ay"><path transform="matrix(1 0 0 -1 0 334.32)" d="M84.34 130.86h19.96v-25.71H84.34v25.71z" fill-rule="evenodd"/></clipPath><g clip-path="url(#ay)"><clipPath id="az"><path transform="matrix(.99449 0 0 -.99396 84.34 229.17)" d="M0 0h20.067v25.867H0z" fill-rule="evenodd"/></clipPath><g clip-path="url(#az)"><clipPath id="aA"><path transform="matrix(.99449 0 0 -.99396 84.34 229.17)" d="M0 .02h20.016v25.847H0z" fill-rule="evenodd"/></clipPath><g clip-path="url(#aA)"><symbol id="aB"><path d="M.362.667.4.259.63.667h.227L.852.634A.07.07 0 0 1 .81.607.231.231 0 0 1 .786.535L.696.132A.31.31 0 0 1 .69.075C.69.06.694.05.7.045A.056.056 0 0 1 .73.031L.724 0H.48l.006.032A.07.07 0 0 1 .526.06a.231.231 0 0 1 .025.072l.045.205A3.1 3.1 0 0 0 .65.542h-.01A3.88 3.88 0 0 0 .59.454L.37.074H.291L.259.367C.25.437.246.497.244.547H.236A3.695 3.695 0 0 0 .2.346L.152.131A.31.31 0 0 1 .146.075C.146.06.149.05.155.045A.056.056 0 0 1 .186.031L.179 0H0l.007.032a.07.07 0 0 1 .04.028.231.231 0 0 1 .026.072l.089.403c.004.019.006.038.006.057 0 .013-.003.023-.01.03-.006.006-.016.01-.03.012l.006.033h.228z"/></symbol><use xlink:href="#aB" transform="matrix(14.05805 0 0 -14.05062 85.076 216.675)"/></g><clipPath id="aC"><path transform="matrix(.99449 0 0 -.99396 84.34 229.17)" d="M0 .02h20.016v25.847H0z" fill-rule="evenodd"/></clipPath><g clip-path="url(#aC)"><symbol id="aD"><path d="M.314.136c0-.019.001-.033.003-.043A.056.056 0 0 1 .33.07.059.059 0 0 1 .352.056.216.216 0 0 1 .39.048.792.792 0 0 1 .45.044V0H.03v.044a.715.715 0 0 1 .076.007.096.096 0 0 1 .036.012.046.046 0 0 1 .018.024c.004.01.006.026.006.05v.352c0 .014-.003.023-.008.03a.025.025 0 0 1-.02.008.086.086 0 0 1-.035-.011A.794.794 0 0 1 .03.47L0 .52l.255.153h.062a2.211 2.211 0 0 1-.003-.13V.136z"/></symbol><use xlink:href="#aD" transform="matrix(9.97668 0 0 -9.9714 98.338 219.561)"/></g><clipPath id="aE"><path transform="matrix(.99449 0 0 -.99396 84.34 229.17)" d="M0 .02h20.016v25.847H0z" fill-rule="evenodd"/></clipPath><g clip-path="url(#aE)"><use xlink:href="#k" transform="matrix(14.05805 0 0 -14.05062 104.007 216.675)"/></g></g></g><clipPath id="aF"><path transform="matrix(1 0 0 -1 0 334.32)" d="M175.65 130.46h19.95v-25.71h-19.95v25.71z" fill-rule="evenodd"/></clipPath><g clip-path="url(#aF)"><clipPath id="aG"><path transform="matrix(.99449 0 0 -.99396 175.65 229.57)" d="M0 0h20.067v25.867H0z" fill-rule="evenodd"/></clipPath><g clip-path="url(#aG)"><clipPath id="aH"><path transform="matrix(.99449 0 0 -.99396 175.65 229.57)" d="M0 .02h20.016v25.847H0z" fill-rule="evenodd"/></clipPath><g clip-path="url(#aH)"><use xlink:href="#aB" transform="matrix(14.05805 0 0 -14.05062 176.386 217.075)"/></g><clipPath id="aI"><path transform="matrix(.99449 0 0 -.99396 175.65 229.57)" d="M0 .02h20.016v25.847H0z" fill-rule="evenodd"/></clipPath><g clip-path="url(#aI)"><symbol id="aJ"><path d="M.315.12C.337.12.352.12.363.124.373.127.38.133.387.14c.006.008.011.02.015.035h.056L.448 0H0v.032a.986.986 0 0 0 .154.223c.035.041.062.075.08.102a.362.362 0 0 1 .041.076C.285.456.29.48.29.506A.132.132 0 0 1 .265.59.078.078 0 0 1 .2.621C.147.621.113.583.098.506H.01v.116a.804.804 0 0 0 .128.042.5.5 0 0 0 .103.01.3.3 0 0 0 .117-.02.133.133 0 0 0 .066-.051.141.141 0 0 0 .02-.077A.176.176 0 0 0 .43.454.317.317 0 0 0 .38.378 1.52 1.52 0 0 0 .26.257 1.15 1.15 0 0 1 .143.125V.12h.173z"/></symbol><use xlink:href="#aJ" transform="matrix(9.97668 0 0 -9.9714 189.404 219.961)"/></g><clipPath id="aK"><path transform="matrix(.99449 0 0 -.99396 175.65 229.57)" d="M0 .02h20.016v25.847H0z" fill-rule="evenodd"/></clipPath><g clip-path="url(#aK)"><use xlink:href="#k" transform="matrix(14.05805 0 0 -14.05062 195.317 217.075)"/></g></g></g><clipPath id="aL"><path transform="matrix(1 0 0 -1 0 334.32)" d="M134.02 231.55h19.96v-25.71h-19.96v25.71z" fill-rule="evenodd"/></clipPath><g clip-path="url(#aL)"><clipPath id="aM"><path transform="matrix(.99449 0 0 -.99396 134.02 128.48)" d="M0 0h20.067v25.867H0z" fill-rule="evenodd"/></clipPath><g clip-path="url(#aM)"><clipPath id="aN"><path transform="matrix(.99449 0 0 -.99396 134.02 128.48)" d="M0 .02h20.016v25.847H0z" fill-rule="evenodd"/></clipPath><g clip-path="url(#aN)"><use xlink:href="#aB" transform="matrix(14.05805 .00001 0 -14.05062 134.756 115.985)"/></g><clipPath id="aO"><path transform="matrix(.99449 0 0 -.99396 134.02 128.48)" d="M0 .02h20.016v25.847H0z" fill-rule="evenodd"/></clipPath><g clip-path="url(#aO)"><symbol id="aP"><path d="M.01.514v.115a.578.578 0 0 0 .223.053C.295.682.344.67.381.645A.12.12 0 0 0 .436.54C.436.502.426.47.403.442A.291.291 0 0 0 .295.366V.36A.198.198 0 0 0 .407.304.152.152 0 0 0 .45.195a.186.186 0 0 0-.028-.1.184.184 0 0 0-.084-.07A.335.335 0 0 0 .201 0a.6.6 0 0 0-.108.01A.41.41 0 0 0 0 .038v.123h.088A.171.171 0 0 1 .128.08.094.094 0 0 1 .196.055c.069 0 .103.042.103.128C.3.229.287.263.263.285.239.308.202.32.153.32h-.04v.056c.057.002.1.015.13.04.029.023.044.059.044.105C.287.556.279.583.265.6.25.62.229.63.2.63a.087.087 0 0 1-.068-.03.17.17 0 0 1-.036-.085H.01z"/></symbol><use xlink:href="#aP" transform="matrix(9.97668 0 0 -9.9714 147.867 118.95)"/></g><clipPath id="aQ"><path transform="matrix(.99449 0 0 -.99396 134.02 128.48)" d="M0 .02h20.016v25.847H0z" fill-rule="evenodd"/></clipPath><g clip-path="url(#aQ)"><use xlink:href="#k" transform="matrix(14.05805 .00001 0 -14.05062 153.687 115.985)"/></g></g></g><clipPath id="aR"><path transform="matrix(1 0 0 -1 0 334.32)" d="M134.02 279.93h19.96v-25.72h-19.96v25.72z" fill-rule="evenodd"/></clipPath><g clip-path="url(#aR)"><clipPath id="aS"><path transform="matrix(.99449 0 0 -.99396 134.02 80.11)" d="M0 0h20.067v25.867H0z" fill-rule="evenodd"/></clipPath><g clip-path="url(#aS)"><clipPath id="aT"><path transform="matrix(.99449 0 0 -.99396 134.02 80.11)" d="M0 .02h20.016v25.847H0z" fill-rule="evenodd"/></clipPath><g clip-path="url(#aT)"><use xlink:href="#aB" transform="matrix(14.05805 .00002 0 -14.05062 134.756 67.615)"/></g><clipPath id="aU"><path transform="matrix(.99449 0 0 -.99396 134.02 80.11)" d="M0 .02h20.016v25.847H0z" fill-rule="evenodd"/></clipPath><g clip-path="url(#aU)"><symbol id="aV"><path d="M.21.032a.09.09 0 0 1 .035.015C.25.053.255.061.258.07.26.08.262.097.262.12v.073H0v.053L.296.67h.11V.255h.015c.016 0 .028 0 .034.003A.036.036 0 0 1 .472.27a.09.09 0 0 1 .013.031h.052L.53.193H.406V.121A.21.21 0 0 1 .411.069.044.044 0 0 1 .424.047.11.11 0 0 1 .459.032V0h-.25v.032M.095.255h.167v.112c0 .047.001.096.005.148H.262L.095.263V.255z"/></symbol><use xlink:href="#aV" transform="matrix(9.97668 .00001 0 -9.9714 147.501 70.501)"/></g><clipPath id="aW"><path transform="matrix(.99449 0 0 -.99396 134.02 80.11)" d="M0 .02h20.016v25.847H0z" fill-rule="evenodd"/></clipPath><g clip-path="url(#aW)"><use xlink:href="#k" transform="matrix(14.05805 .00002 0 -14.05062 153.687 67.615)"/></g></g></g></svg>