<svg xmlns="http://www.w3.org/2000/svg" xmlns:xlink="http://www.w3.org/1999/xlink" width="576.96" height="596.48" viewBox="0 0 432.72 447.36"><path d="M287.25 85.88c0-36.66-29.21-66.38-65.25-66.38s-65.25 29.72-65.25 66.38c0 36.65 29.21 66.37 65.25 66.37s65.25-29.72 65.25-66.37z" fill="#fff" fill-rule="evenodd"/><path stroke-width="3" stroke-linecap="round" stroke-linejoin="round" fill="none" stroke="#000" d="M287.25 85.88c0-36.66-29.21-66.38-65.25-66.38s-65.25 29.72-65.25 66.38c0 36.65 29.21 66.37 65.25 66.37s65.25-29.72 65.25-66.37z"/><clipPath id="a"><path transform="matrix(1 0 0 -1 0 447.36)" d="M0 447.36h432.72V0H0" fill-rule="evenodd"/></clipPath><g clip-path="url(#a)"><path stroke-width="3" stroke-linecap="round" stroke-linejoin="round" fill="none" stroke="#000" d="M285.03 103.05c20.1 5.21 39.85 17.69 53.35 33.51 8.52 9.98 14.56 21.29 17 33.22"/></g><clipPath id="b"><path transform="matrix(1 0 0 -1 0 447.36)" d="M0 447.36h432.72V0H0" fill-rule="evenodd"/></clipPath><g clip-path="url(#b)"><path d="m360.65 167.78-4.54 6.36-6.35-4.53 10.89-1.83z" fill-rule="evenodd"/></g><clipPath id="c"><path transform="matrix(1 0 0 -1 0 447.36)" d="M0 447.36h432.72V0H0" fill-rule="evenodd"/></clipPath><g clip-path="url(#c)"><path stroke-width="3" stroke-linecap="round" stroke-linejoin="round" fill="none" stroke="#000" d="M357.45 305.68c-5.41 20.3-18.15 40.31-34.2 54.044-10.14 8.678-21.61 14.854-33.67 17.41"/></g><clipPath id="d"><path transform="matrix(1 0 0 -1 0 447.36)" d="M0 447.36h432.72V0H0" fill-rule="evenodd"/></clipPath><g clip-path="url(#d)"><path d="m291.62 382.382-6.39-4.488 4.49-6.387 1.9 10.875z" fill-rule="evenodd"/></g><clipPath id="e"><path transform="matrix(1 0 0 -1 0 447.36)" d="M166.5 377.98h131.1v-56.23H166.5v56.23z" fill-rule="evenodd"/></clipPath><g clip-path="url(#e)"><clipPath id="f"><path transform="matrix(.99956 0 0 -.99645 166.5 125.61)" d="M0 0h131.16v56.44H0z" fill-rule="evenodd"/></clipPath><g clip-path="url(#f)"><clipPath id="g"><path transform="matrix(.99956 0 0 -.99645 166.5 125.61)" d="M0 .088h131.28V56.44H0z" fill-rule="evenodd"/></clipPath><g clip-path="url(#g)"><symbol id="h"><path d="m0 0 .007.032a.07.07 0 0 1 .04.028.231.231 0 0 1 .026.072l.089.403c.004.019.006.038.006.057 0 .013-.003.023-.01.03-.006.006-.016.01-.03.012l.006.033h.198a.752.752 0 0 0 .129-.01.273.273 0 0 0 .08-.026.206.206 0 0 0 .058-.042A.197.197 0 0 0 .64.518a.29.29 0 0 0 .015-.1.52.52 0 0 0-.014-.125.43.43 0 0 0-.044-.11A.348.348 0 0 0 .36.009.666.666 0 0 0 .24 0H0m.202.06A.437.437 0 0 1 .238.058c.042 0 .078.008.109.025.03.016.057.041.08.075a.402.402 0 0 1 .056.125.55.55 0 0 1 .02.148.274.274 0 0 1-.01.084A.143.143 0 0 1 .46.57.109.109 0 0 1 .416.6.162.162 0 0 1 .36.61L.323.607.203.06z"/></symbol><symbol id="i"><path d="M.407.11A.332.332 0 0 0 .301.026.284.284 0 0 0 .178 0 .215.215 0 0 0 .08.02.135.135 0 0 0 .02.08.206.206 0 0 0 0 .172a.393.393 0 0 0 .035.16.268.268 0 0 0 .153.146c.035.014.073.021.114.021.1 0 .15-.036.15-.108A.137.137 0 0 0 .437.327a.141.141 0 0 0-.05-.052A.298.298 0 0 0 .29.238.784.784 0 0 0 .137.222.276.276 0 0 1 .13.162C.13.133.137.11.15.095.161.08.18.071.206.071c.029 0 .055.006.078.017A.37.37 0 0 1 .366.15L.407.11M.148.272a.26.26 0 0 1 .138.035.103.103 0 0 1 .047.09c0 .017-.003.03-.011.038A.04.04 0 0 1 .29.449C.26.45.232.434.208.404a.361.361 0 0 1-.06-.13z"/></symbol><symbol id="j"><path d="M.433.16A.243.243 0 0 1 .425.104c0-.01.002-.019.006-.024C.434.074.44.07.449.07.46.07.47.076.482.085c.012.01.025.023.04.041L.559.09A.397.397 0 0 0 .47.019.169.169 0 0 0 .392 0a.091.091 0 0 0-.065.022.08.08 0 0 0-.024.06c0 .009 0 .016.003.024H.299A.531.531 0 0 0 .237.044.175.175 0 0 0 .12 0C.08 0 .05.013.03.04A.19.19 0 0 0 0 .156C0 .2.006.243.019.286.032.33.05.368.074.399a.25.25 0 0 0 .09.075A.268.268 0 0 0 .285.5C.334.5.376.488.41.465L.457.5.512.492.432.16M.337.312a.341.341 0 0 1 .008.072.082.082 0 0 1-.012.049C.323.443.31.449.292.449.262.45.234.434.21.403a.521.521 0 0 1-.078-.26C.133.119.136.1.143.089A.036.036 0 0 1 .176.072c.021 0 .043.01.065.031a.25.25 0 0 1 .054.074.54.54 0 0 1 .037.116l.004.019z"/></symbol><symbol id="k"><path d="M.523.125.558.09A.397.397 0 0 0 .47.019.169.169 0 0 0 .392 0a.091.091 0 0 0-.065.022.08.08 0 0 0-.024.06c0 .009 0 .016.003.024L.299.107A.395.395 0 0 0 .212.025.176.176 0 0 0 .116 0 .102.102 0 0 0 .03.04.19.19 0 0 0 0 .156C0 .2.006.243.019.286.032.33.05.368.074.399a.25.25 0 0 0 .09.075.267.267 0 0 0 .205.012L.386.56a.574.574 0 0 1 .01.07c0 .007 0 .012-.002.016a.022.022 0 0 1-.006.01.028.028 0 0 1-.012.006.192.192 0 0 1-.029.005L.355.7l.146.008h.055L.433.16A.257.257 0 0 1 .425.104c0-.01.002-.019.006-.024C.434.074.44.07.449.07.46.07.47.076.482.085c.012.01.025.023.04.041M.337.312a.339.339 0 0 1 .008.071.083.083 0 0 1-.012.05C.323.443.31.449.292.449.262.45.234.434.21.403a.521.521 0 0 1-.078-.26C.133.119.136.1.143.089A.036.036 0 0 1 .176.072c.021 0 .043.01.065.031a.25.25 0 0 1 .054.074.54.54 0 0 1 .037.116l.004.019z"/></symbol><use xlink:href="#h" transform="matrix(18.01616 0 0 -17.96 174.318 86.493)"/><use xlink:href="#i" transform="matrix(18.01616 0 0 -17.96 188.253 86.634)"/><use xlink:href="#j" transform="matrix(18.01616 0 0 -17.96 197.981 86.634)"/><use xlink:href="#k" transform="matrix(18.01616 0 0 -17.96 209.151 86.634)"/></g><clipPath id="l"><path transform="matrix(.99956 0 0 -.99645 166.5 125.61)" d="M0 .088h131.28V56.44H0z" fill-rule="evenodd"/></clipPath><g clip-path="url(#l)"><symbol id="m"><path d="M0 0z"/></symbol><use xlink:href="#m" transform="matrix(18.01616 0 0 -17.96 220.045 86.493)"/></g><clipPath id="n"><path transform="matrix(.99956 0 0 -.99645 166.5 125.61)" d="M0 .088h131.28V56.44H0z" fill-rule="evenodd"/></clipPath><g clip-path="url(#n)"><symbol id="o"><path d="M.196.058H.32a.1.1 0 0 1 .043.008.12.12 0 0 1 .038.038.33.33 0 0 1 .04.077h.064L.465 0H0l.007.032.41.576h-.12a.126.126 0 0 1-.03-.003.066.066 0 0 1-.02-.009.115.115 0 0 1-.021-.019.344.344 0 0 1-.048-.082H.112l.038.172h.462L.605.634.195.058z"/></symbol><symbol id="p"><path d="M.182 0a.223.223 0 0 0-.095.019.148.148 0 0 0-.064.059A.189.189 0 0 0 0 .174c0 .038.006.078.018.12.012.043.03.08.056.112a.232.232 0 0 0 .092.071A.308.308 0 0 0 .287.5.21.21 0 0 0 .39.478a.138.138 0 0 0 .06-.062.2.2 0 0 0 .02-.092.41.41 0 0 0-.021-.13.315.315 0 0 0-.06-.108.23.23 0 0 0-.09-.065A.31.31 0 0 0 .183 0m-.05.142A.13.13 0 0 1 .145.073C.156.058.172.051.193.051c.028 0 .052.013.072.04.02.027.038.068.051.122.014.054.02.101.02.141a.133.133 0 0 1-.014.072C.312.442.297.45.276.45.249.45.225.436.205.41A.587.587 0 0 1 .132.142z"/></symbol><symbol id="q"><path d="M.035.375 0 .41a.38.38 0 0 0 .086.07.17.17 0 0 0 .08.02.09.09 0 0 0 .065-.023.077.077 0 0 0 .024-.06.092.092 0 0 0-.003-.023L.257.39c.03.038.06.066.087.084C.372.49.404.5.441.5.474.5.5.49.52.472A.103.103 0 0 0 .548.395a.373.373 0 0 0-.01-.08L.499.161A.237.237 0 0 1 .491.104C.49.092.493.083.497.078A.023.023 0 0 1 .515.071c.01 0 .02.004.032.013a.32.32 0 0 1 .041.041L.624.09A.38.38 0 0 0 .538.02.17.17 0 0 0 .455 0C.42 0 .395.008.379.025.363.043.355.068.355.101c0 .024.005.054.014.091l.022.081a.923.923 0 0 1 .02.112C.41.4.408.411.4.418a.033.033 0 0 1-.026.01C.359.429.341.42.32.4A.261.261 0 0 1 .271.34a.272.272 0 0 1-.03-.082L.188.008h-.14l.078.34a.234.234 0 0 1 .008.048C.133.406.13.415.127.42.124.426.117.43.11.43A.055.055 0 0 1 .076.415a.312.312 0 0 1-.04-.041z"/></symbol><use xlink:href="#o" transform="matrix(18.01616 0 0 -17.96 224.09 86.493)"/><use xlink:href="#p" transform="matrix(18.01616 0 0 -17.96 236.32 86.634)"/><use xlink:href="#q" transform="matrix(18.01616 0 0 -17.96 246.014 86.634)"/><use xlink:href="#i" transform="matrix(18.01616 0 0 -17.96 258.437 86.634)"/></g><clipPath id="r"><path transform="matrix(.99956 0 0 -.99645 166.5 125.61)" d="M0 .088h131.28V56.44H0z" fill-rule="evenodd"/></clipPath><g clip-path="url(#r)"><symbol id="s"><path d="M.23.73V.11L.36.214l.03-.03L.21 0H.179L0 .182l.029.032L.16.11V.73h.07z"/></symbol><use xlink:href="#s" transform="matrix(18.01616 0 0 -17.96 272.978 86.625)"/></g><clipPath id="t"><path transform="matrix(.99956 0 0 -.99645 166.5 125.61)" d="M0 .088h131.28V56.44H0z" fill-rule="evenodd"/></clipPath><g clip-path="url(#t)"><symbol id="u"><path d="M0 0z"/></symbol><use xlink:href="#u" transform="matrix(15.97704 0 0 -15.92724 280.67 86.493)"/></g></g></g><path d="M287.25 361.5c0-36.66-29.21-66.37-65.25-66.37s-65.25 29.71-65.25 66.37c0 36.658 29.21 66.375 65.25 66.375s65.25-29.717 65.25-66.375z" fill="#fff" fill-rule="evenodd"/><path stroke-width="3" stroke-linecap="round" stroke-linejoin="round" fill="none" stroke="#000" d="M287.25 361.5c0-36.66-29.21-66.37-65.25-66.37s-65.25 29.71-65.25 66.37c0 36.658 29.21 66.375 65.25 66.375s65.25-29.717 65.25-66.375z"/><path d="M413.25 240c0-36.66-29.21-66.37-65.25-66.37s-65.25 29.71-65.25 66.37c0 36.66 29.21 66.37 65.25 66.37s65.25-29.71 65.25-66.37z" fill="#fff" fill-rule="evenodd"/><path stroke-width="3" stroke-linecap="round" stroke-linejoin="round" fill="none" stroke="#000" d="M413.25 240c0-36.66-29.21-66.37-65.25-66.37s-65.25 29.71-65.25 66.37c0 36.66 29.21 66.37 65.25 66.37s65.25-29.71 65.25-66.37z"/><path d="M150 240c0-36.66-29.21-66.37-65.25-66.37-36.037 0-65.25 29.71-65.25 66.37 0 36.66 29.213 66.37 65.25 66.37 36.04 0 65.25-29.71 65.25-66.37z" fill="#fff" fill-rule="evenodd"/><path stroke-width="3" stroke-linecap="round" stroke-linejoin="round" fill="none" stroke="#000" d="M150 240c0-36.66-29.21-66.37-65.25-66.37-36.037 0-65.25 29.71-65.25 66.37 0 36.66 29.213 66.37 65.25 66.37 36.04 0 65.25-29.71 65.25-66.37z"/><clipPath id="v"><path transform="matrix(1 0 0 -1 0 447.36)" d="M0 447.36h432.72V0H0" fill-rule="evenodd"/></clipPath><g clip-path="url(#v)"><path stroke-width="3" stroke-linecap="round" stroke-linejoin="round" fill="none" stroke="#000" d="M93.663 174.25c4.421-19.32 15.897-38.07 30.807-50.66 9.36-7.91 20.07-13.39 31.49-15.41"/></g><clipPath id="w"><path transform="matrix(1 0 0 -1 0 447.36)" d="M0 447.36h432.72V0H0" fill-rule="evenodd"/></clipPath><g clip-path="url(#w)"><path d="m154.11 102.86 6.23 4.71-4.72 6.23-1.51-10.94z" fill-rule="evenodd"/></g><clipPath id="x"><path transform="matrix(1 0 0 -1 0 447.36)" d="M0 447.36h432.72V0H0" fill-rule="evenodd"/></clipPath><g clip-path="url(#x)"><path stroke-width="3" stroke-linecap="round" stroke-linejoin="round" fill="none" stroke="#000" d="M161.28 385.795c-21.61-6.703-43.26-21.088-58.49-38.645-9.701-11.17-16.8-23.63-20.058-36.53"/></g><clipPath id="y"><path transform="matrix(1 0 0 -1 0 447.36)" d="M0 447.36h432.72V0H0" fill-rule="evenodd"/></clipPath><g clip-path="url(#y)"><path d="m77.574 312.88 4.216-6.57 6.57 4.21-10.786 2.36z" fill-rule="evenodd"/></g><clipPath id="z"><path transform="matrix(1 0 0 -1 0 447.36)" d="M23.924 164.87h137.25v57.005H23.924z" fill-rule="evenodd"/></clipPath><g clip-path="url(#z)"><clipPath id="A"><path transform="matrix(1.04644 0 0 -1.04738 23.924 282.49)" d="M0 0h131.16v54.425H0z" fill-rule="evenodd"/></clipPath><g clip-path="url(#A)"><clipPath id="B"><path transform="matrix(1.04644 0 0 -1.04738 23.924 282.49)" d="M0 .017h131.28v54.408H0z" fill-rule="evenodd"/></clipPath><g clip-path="url(#B)"><symbol id="C"><path d="m.139.642.008.04c.023 0 .039.001.048.004.01.003.017.008.023.016a.127.127 0 0 1 .017.044c.008.03.019.056.031.076A.188.188 0 0 0 .384.91a.458.458 0 0 0 .18.002L.541.813H.479a.099.099 0 0 1-.01.043C.464.864.455.869.444.869A.04.04 0 0 1 .413.855a.11.11 0 0 1-.02-.037.526.526 0 0 1-.018-.062L.363.703h.105L.455.642H.35L.26.233A.347.347 0 0 0 .178.058.195.195 0 0 0 .034 0C.02 0 .008 0 0 .002l.012.055A.12.12 0 0 1 .029.056c.019 0 .034.01.046.03.013.02.023.052.033.093l.104.463H.14z"/></symbol><use xlink:href="#C" transform="matrix(18.88623 0 0 -18.9031 60.227 247.636)"/></g><clipPath id="D"><path transform="matrix(1.04644 0 0 -1.04738 23.924 282.49)" d="M0 .017h131.28v54.408H0z" fill-rule="evenodd"/></clipPath><g clip-path="url(#D)"><symbol id="E"><path d="M.78.162A.276.276 0 0 1 .77.104c0-.012.002-.021.006-.026A.023.023 0 0 1 .795.071c.01 0 .02.004.032.013A.32.32 0 0 1 .87.125L.904.09A.38.38 0 0 0 .818.02.17.17 0 0 0 .735 0C.7 0 .676.008.66.025S.636.067.636.1a.471.471 0 0 0 .013.087L.67.273a.755.755 0 0 1 .02.11C.691.414.68.43.656.43.642.429.626.419.605.402a.268.268 0 0 1-.05-.06.262.262 0 0 1-.03-.084L.47.008H.33l.07.31a.4.4 0 0 1 .01.062C.41.397.408.41.4.417.397.425.388.429.375.429.359.429.341.419.321.4A.28.28 0 0 1 .27.342a.274.274 0 0 1-.03-.084L.188.008h-.14l.078.34a.234.234 0 0 1 .008.048C.133.406.13.415.127.42.124.426.117.43.11.43A.055.055 0 0 1 .076.415a.312.312 0 0 1-.04-.041L0 .41a.38.38 0 0 0 .086.07.17.17 0 0 0 .08.02.09.09 0 0 0 .065-.023.077.077 0 0 0 .024-.06.092.092 0 0 0-.003-.023L.258.391c.03.038.059.065.086.083C.372.49.404.5.441.5A.106.106 0 0 0 .518.473.102.102 0 0 0 .548.4c.027.034.054.06.081.076A.179.179 0 0 0 .723.5C.756.5.782.49.8.472A.104.104 0 0 0 .83.395a.316.316 0 0 0-.01-.076L.779.162z"/></symbol><symbol id="F"><path d="M.341.284C.353.215.362.166.37.136A.153.153 0 0 1 .392.078.022.022 0 0 1 .41.071C.417.07.424.074.43.08.438.086.447.1.458.122l.045-.02A.222.222 0 0 0 .438.025.141.141 0 0 0 .354 0a.122.122 0 0 0-.047.008.071.071 0 0 0-.03.025.181.181 0 0 0-.023.049.734.734 0 0 0-.017.084H.232a1.87 1.87 0 0 0-.066-.09.361.361 0 0 0-.043-.048.114.114 0 0 0-.035-.022A.107.107 0 0 0 .05 0a.147.147 0 0 0-.026.003A.127.127 0 0 0 0 .008l.023.106h.044C.067.107.069.102.072.1A.017.017 0 0 1 .084.094C.09.094.095.094.1.097a.43.43 0 0 1 .055.054l.07.087a2.351 2.351 0 0 1-.036.16.071.071 0 0 1-.014.025.02.02 0 0 1-.015.006.028.028 0 0 1-.017-.005.065.065 0 0 1-.016-.017.233.233 0 0 1-.017-.03l-.044.02c.019.035.04.06.063.078C.153.492.18.5.21.5A.122.122 0 0 0 .27.488a.085.085 0 0 0 .034-.04.426.426 0 0 0 .025-.094h.004c.025.034.043.06.057.077.013.017.025.03.037.04A.11.11 0 0 0 .46.495C.47.498.483.5.498.5a.147.147 0 0 0 .05-.009L.523.386H.48C.48.399.473.406.462.406A.037.037 0 0 1 .448.403a.086.086 0 0 1-.02-.016A6.197 6.197 0 0 1 .342.283z"/></symbol><use xlink:href="#E" transform="matrix(13.61215 0 0 -13.62431 71.224 247.537)"/><use xlink:href="#j" transform="matrix(13.61215 0 0 -13.62431 84.285 247.537)"/><use xlink:href="#F" transform="matrix(13.61215 0 0 -13.62431 92.09 247.537)"/></g><clipPath id="G"><path transform="matrix(1.04644 0 0 -1.04738 23.924 282.49)" d="M0 .017h131.28v54.408H0z" fill-rule="evenodd"/></clipPath><g clip-path="url(#G)"><use xlink:href="#s" transform="matrix(18.88623 0 0 -18.9031 106.736 243.648)"/></g><clipPath id="H"><path transform="matrix(1.04644 0 0 -1.04738 23.924 282.49)" d="M0 .017h131.28v54.408H0z" fill-rule="evenodd"/></clipPath><g clip-path="url(#H)"><use xlink:href="#u" transform="matrix(16.75148 0 0 -16.76645 114.789 243.51)"/></g></g></g><clipPath id="I"><path transform="matrix(1 0 0 -1 0 447.36)" d="M162 91.105h131.1v-56.24H162v56.24z" fill-rule="evenodd"/></clipPath><g clip-path="url(#I)"><clipPath id="J"><path transform="matrix(.99956 0 0 -.99645 162 412.495)" d="M0 0h131.16v56.44H0z" fill-rule="evenodd"/></clipPath><g clip-path="url(#J)"><clipPath id="K"><path transform="matrix(.99956 0 0 -.99645 162 412.495)" d="M0 .088h131.28V56.44H0z" fill-rule="evenodd"/></clipPath><g clip-path="url(#K)"><symbol id="L"><path d="M.415.667A.463.463 0 0 0 .548.65a.13.13 0 0 0 .07-.045A.125.125 0 0 0 .64.531.166.166 0 0 0 .602.42a.294.294 0 0 0-.12-.076L.48.338a.161.161 0 0 0 .07-.052A.123.123 0 0 0 .578.21C.577.17.567.135.548.105A.218.218 0 0 0 .458.03.463.463 0 0 0 .265 0H0l.007.032a.07.07 0 0 1 .04.028.231.231 0 0 1 .026.072l.089.403c.004.019.006.038.006.057 0 .013-.003.023-.01.03-.006.006-.016.01-.03.012l.006.033h.28M.348.375c.029 0 .054.006.075.019.021.013.038.03.05.053a.174.174 0 0 1 .016.079C.488.554.48.575.462.588.444.602.417.61.38.61A.57.57 0 0 1 .322.607L.271.375h.076M.202.059A.964.964 0 0 1 .265.057c.04 0 .072.008.095.023a.134.134 0 0 1 .053.063.212.212 0 0 1 .017.083c0 .06-.034.091-.104.091H.26L.202.06z"/></symbol><symbol id="M"><path d="M.098.56c.007.03.01.054.01.07 0 .007 0 .012-.002.016A.022.022 0 0 1 .1.656a.028.028 0 0 1-.012.006.192.192 0 0 1-.028.005L.067.7l.146.008H.27L.144.162A.265.265 0 0 1 .136.104c0-.012.002-.021.006-.026A.023.023 0 0 1 .16.071c.01 0 .02.004.032.013a.32.32 0 0 1 .041.041L.27.09A.38.38 0 0 0 .183.02.17.17 0 0 0 .1 0C.065 0 .04.008.024.025S0 .068 0 .102c0 .02.004.045.01.077l.088.38z"/></symbol><symbol id="N"><path d="M.256.687.23.567H.104l.027.12h.125M.144.162A.198.198 0 0 1 .136.105c0-.013.002-.022.006-.027A.023.023 0 0 1 .16.071c.01 0 .02.004.032.013a.32.32 0 0 1 .041.041L.27.09A.38.38 0 0 0 .183.02.17.17 0 0 0 .1 0C.065 0 .04.008.024.025S0 .068 0 .102C0 .124.004.15.01.18l.042.17c.007.03.011.055.011.073 0 .013-.003.022-.01.027C.049.454.036.458.017.46l.007.032.144.006h.055L.144.162z"/></symbol><use xlink:href="#L" transform="matrix(18.01616 0 0 -17.96 168.139 373.378)"/><use xlink:href="#M" transform="matrix(18.01616 0 0 -17.96 181.823 373.519)"/><use xlink:href="#N" transform="matrix(18.01616 0 0 -17.96 188.687 373.519)"/><use xlink:href="#q" transform="matrix(18.01616 0 0 -17.96 194.512 373.519)"/><use xlink:href="#k" transform="matrix(18.01616 0 0 -17.96 206.936 373.519)"/></g><clipPath id="O"><path transform="matrix(.99956 0 0 -.99645 162 412.495)" d="M0 .088h131.28V56.44H0z" fill-rule="evenodd"/></clipPath><g clip-path="url(#O)"><use xlink:href="#m" transform="matrix(18.01616 0 0 -17.96 217.344 373.378)"/></g><clipPath id="P"><path transform="matrix(.99956 0 0 -.99645 162 412.495)" d="M0 .088h131.28V56.44H0z" fill-rule="evenodd"/></clipPath><g clip-path="url(#P)"><use xlink:href="#o" transform="matrix(18.01616 0 0 -17.96 221.39 373.378)"/><use xlink:href="#p" transform="matrix(18.01616 0 0 -17.96 233.62 373.519)"/><use xlink:href="#q" transform="matrix(18.01616 0 0 -17.96 243.313 373.519)"/><use xlink:href="#i" transform="matrix(18.01616 0 0 -17.96 255.736 373.519)"/></g><clipPath id="Q"><path transform="matrix(.99956 0 0 -.99645 162 412.495)" d="M0 .088h131.28V56.44H0z" fill-rule="evenodd"/></clipPath><g clip-path="url(#Q)"><symbol id="R"><path d="M.16 0v.622L.03.52 0 .549l.178.182H.21L.39.549.36.52.23.622V0H.16z"/></symbol><use xlink:href="#R" transform="matrix(18.01616 0 0 -17.96 270.286 373.519)"/></g><clipPath id="S"><path transform="matrix(.99956 0 0 -.99645 162 412.495)" d="M0 .088h131.28V56.44H0z" fill-rule="evenodd"/></clipPath><g clip-path="url(#S)"><use xlink:href="#u" transform="matrix(15.97704 0 0 -15.92724 277.97 373.378)"/></g></g></g><clipPath id="T"><path transform="matrix(1 0 0 -1 0 447.36)" d="M290.75 220.49h129.5v-56.24h-129.5v56.24z" fill-rule="evenodd"/></clipPath><g clip-path="url(#T)"><clipPath id="U"><path transform="matrix(.9987 0 0 -.99645 290.75 283.11)" d="M0 0h129.66v56.44H0z" fill-rule="evenodd"/></clipPath><g clip-path="url(#U)"><clipPath id="V"><path transform="matrix(.9987 0 0 -.99645 290.75 283.11)" d="M0 .088h129.67V56.44H0z" fill-rule="evenodd"/></clipPath><g clip-path="url(#V)"><symbol id="W"><path d="M.44.305A.181.181 0 0 0 .482.26.21.21 0 0 0 .505.194L.52.126A.318.318 0 0 1 .534.073a.078.078 0 0 1 .02-.026.083.083 0 0 1 .032-.015L.58 0H.405a.78.78 0 0 0-.028.109l-.016.08a.27.27 0 0 1-.016.059.067.067 0 0 1-.023.03.069.069 0 0 1-.038.01h-.03L.217.131A.34.34 0 0 1 .212.075C.212.06.216.049.223.043A.064.064 0 0 1 .26.033L.252 0H0l.007.032a.07.07 0 0 1 .04.028.231.231 0 0 1 .026.072l.089.403c.004.019.006.038.006.057 0 .013-.003.023-.01.03-.006.006-.016.01-.03.012l.006.033h.244A.801.801 0 0 0 .46.663.23.23 0 0 0 .523.648.153.153 0 0 0 .573.62.12.12 0 0 0 .605.575.187.187 0 0 0 .571.391.296.296 0 0 0 .44.31V.305m-.142.04c.042 0 .075.006.098.018a.14.14 0 0 1 .057.06.195.195 0 0 1 .02.092C.473.547.466.57.45.585.433.603.408.61.373.61h-.05L.266.343h.03z"/></symbol><symbol id="X"><path d="M.608.667.574.509H.51a.271.271 0 0 1-.009.065.049.049 0 0 1-.02.027.07.07 0 0 1-.036.008H.323L.271.375H.34c.013 0 .024.002.033.006.01.005.017.012.025.021A.19.19 0 0 1 .42.444h.054L.427.246h-.05a.21.21 0 0 1-.004.043.036.036 0 0 1-.013.022C.354.316.344.318.33.318h-.07L.202.058h.11c.014 0 .025 0 .033.002a.07.07 0 0 1 .022.01C.374.073.38.08.39.09a.488.488 0 0 1 .053.086h.066L.464 0H0l.007.032a.07.07 0 0 1 .04.028.231.231 0 0 1 .026.072l.089.403c.004.019.006.038.006.057 0 .013-.003.023-.01.03-.006.006-.016.01-.03.012l.006.033h.474z"/></symbol><symbol id="Y"><path d="M.094.17A.176.176 0 0 1 .107.103.073.073 0 0 1 .141.067a.133.133 0 0 1 .056-.01c.036 0 .064.01.084.03.02.02.031.05.031.086a.12.12 0 0 1-.04.092.616.616 0 0 1-.07.057.251.251 0 0 0-.07.076.174.174 0 0 0-.007.163.18.18 0 0 0 .049.064c.022.019.049.033.082.042.033.01.071.015.115.015A.695.695 0 0 0 .545.66l-.03-.14H.453C.452.557.444.584.43.6.416.618.394.626.362.626a.114.114 0 0 1-.08-.028.098.098 0 0 1-.03-.076C.251.5.258.477.274.457A.364.364 0 0 1 .347.392.466.466 0 0 0 .414.333.18.18 0 0 0 .449.28.2.2 0 0 0 .386.057a.246.246 0 0 0-.08-.043A.398.398 0 0 0 .188 0 .603.603 0 0 0 0 .03l.03.14h.064z"/></symbol><use xlink:href="#W" transform="matrix(18.0007 0 0 -17.96 297.483 243.993)"/><use xlink:href="#X" transform="matrix(18.0007 0 0 -17.96 310.084 243.993)"/><use xlink:href="#Y" transform="matrix(18.0007 0 0 -17.96 321.595 244.134)"/><use xlink:href="#X" transform="matrix(18.0007 0 0 -17.96 332.225 243.993)"/></g><clipPath id="Z"><path transform="matrix(.9987 0 0 -.99645 290.75 283.11)" d="M0 .088h129.67V56.44H0z" fill-rule="evenodd"/></clipPath><g clip-path="url(#Z)"><symbol id="aa"><path d="M.575.667.536.49H.474a.342.342 0 0 1-.007.075.06.06 0 0 1-.019.033.053.053 0 0 1-.036.011H.37L.264.132A.36.36 0 0 1 .257.075C.257.06.261.049.27.043a.064.064 0 0 1 .036-.01L.298 0h-.26l.007.032A.07.07 0 0 1 .08.045.071.071 0 0 1 .1.074a.327.327 0 0 1 .018.058l.105.477H.184A.098.098 0 0 1 .141.601.116.116 0 0 1 .104.567.315.315 0 0 1 .064.5H0l.037.167h.538z"/></symbol><use xlink:href="#aa" transform="matrix(18.0007 0 0 -17.96 343.881 243.993)"/></g><clipPath id="ab"><path transform="matrix(.9987 0 0 -.99645 290.75 283.11)" d="M0 .088h129.67V56.44H0z" fill-rule="evenodd"/></clipPath><g clip-path="url(#ab)"><symbol id="ac"><path d="M.378.667A.807.807 0 0 0 .46.663.223.223 0 0 0 .522.648a.15.15 0 0 0 .051-.03.12.12 0 0 0 .031-.045.16.16 0 0 0 .011-.06A.215.215 0 0 0 .537.34.25.25 0 0 0 .444.29.485.485 0 0 0 .315.277H.3c-.02 0-.037 0-.05.002L.218.132A.31.31 0 0 1 .212.075C.212.06.216.049.223.043A.064.064 0 0 1 .26.033L.252 0H0l.007.032a.07.07 0 0 1 .04.028.231.231 0 0 1 .026.072l.089.403c.004.019.006.038.006.057 0 .013-.003.023-.01.03-.006.006-.016.01-.03.012l.006.033h.244M.288.333c.045 0 .08.007.104.021a.135.135 0 0 1 .055.063c.012.028.019.06.019.094C.466.544.458.57.442.585.427.601.403.609.371.609a.99.99 0 0 1-.048 0L.263.332H.29z"/></symbol><symbol id="ad"><path d="M.435.492h.14L.495.154A.215.215 0 0 1 .49.104C.49.094.491.085.495.08.498.074.505.07.513.07c.01 0 .021.005.033.014.012.01.025.023.04.041L.623.09A.397.397 0 0 0 .534.019.169.169 0 0 0 .456 0 .091.091 0 0 0 .39.022a.08.08 0 0 0-.024.06c0 .009 0 .016.003.024L.365.11A.384.384 0 0 0 .277.027.173.173 0 0 0 .181 0C.148 0 .121.01.103.028a.105.105 0 0 0-.028.077.325.325 0 0 0 .01.081l.04.152C.13.36.133.38.133.396.133.408.13.417.126.422a.023.023 0 0 1-.018.007C.1.43.088.425.077.416A.33.33 0 0 1 .035.375L0 .41a.391.391 0 0 0 .087.07C.112.493.14.5.17.5.203.5.229.491.244.474.26.457.27.432.27.4a.385.385 0 0 0-.015-.09L.233.227a.502.502 0 0 1-.02-.112C.213.085.224.07.247.07c.01 0 .022.004.034.012.012.008.025.02.04.036a.221.221 0 0 1 .036.053c.01.02.018.043.023.07l.055.25z"/></symbol><symbol id="ae"><path d="M.09.145a.118.118 0 0 1 .022-.07C.125.06.146.052.174.052.2.05.22.057.234.069c.014.013.02.03.02.054a.08.08 0 0 1-.006.034.085.085 0 0 1-.022.028.396.396 0 0 1-.051.035.236.236 0 0 0-.071.06.122.122 0 0 0-.022.071c0 .048.017.085.053.11A.254.254 0 0 0 .285.5a.553.553 0 0 0 .16-.022L.42.36H.358a.117.117 0 0 1-.024.067C.322.442.304.449.281.449A.078.078 0 0 1 .228.432a.056.056 0 0 1-.02-.045C.208.37.214.355.225.342A.29.29 0 0 1 .29.294.232.232 0 0 0 .364.231.132.132 0 0 0 .386.154.136.136 0 0 0 .36.07.155.155 0 0 0 .287.017.3.3 0 0 0 .182 0 .695.695 0 0 0 0 .023l.027.122H.09z"/></symbol><use xlink:href="#ac" transform="matrix(12.96721 0 0 -12.9379 354.892 247.7)"/><use xlink:href="#ad" transform="matrix(12.96721 0 0 -12.9379 363.501 247.801)"/><use xlink:href="#M" transform="matrix(12.96721 0 0 -12.9379 372.522 247.801)"/><use xlink:href="#ae" transform="matrix(12.96721 0 0 -12.9379 376.633 247.801)"/><use xlink:href="#i" transform="matrix(12.96721 0 0 -12.9379 383.465 247.801)"/></g><clipPath id="af"><path transform="matrix(.9987 0 0 -.99645 290.75 283.11)" d="M0 .088h129.67V56.44H0z" fill-rule="evenodd"/></clipPath><g clip-path="url(#af)"><use xlink:href="#R" transform="matrix(18.0007 0 0 -17.96 396.736 244.134)"/></g><clipPath id="ag"><path transform="matrix(.9987 0 0 -.99645 290.75 283.11)" d="M0 .088h129.67V56.44H0z" fill-rule="evenodd"/></clipPath><g clip-path="url(#ag)"><use xlink:href="#u" transform="matrix(15.96333 0 0 -15.92724 404.413 243.993)"/></g></g></g></svg>