<svg xmlns="http://www.w3.org/2000/svg" xmlns:xlink="http://www.w3.org/1999/xlink" width="733.28" height="283.52" viewBox="0 0 549.96 212.64"><path stroke-width="2" stroke-linecap="round" stroke-linejoin="round" fill="none" stroke="#000" d="m71.323 83.64 4.95-16.4h14.85l4.95 16.4M95.989 83.64h7.401M110.79 83.64l4.93-16.4h14.8l4.93 16.4M135.46 83.64h7.4M103.39 83.64h7.4M150.25 83.64l5.14-16.4h15.42l5.14 16.4M142.86 83.64h7.39M182.32 83.64h7.4M175.95 83.64h7.4M189.72 83.64l4.9-16.4h14.68l4.9 16.4M214.2 83.64h7.4M229.19 83.64l4.65-16.4h13.96l4.65 16.4M252.45 83.64h7.4M221.79 83.64h7.4"/><path stroke-width="2" stroke-linecap="round" stroke-linejoin="round" fill="none" stroke="#000" d="m71.323 83.64 4.95-16.4h14.85l4.95 16.4M95.989 83.64h7.401M110.79 83.64l4.93-16.4h14.8l4.93 16.4M135.46 83.64h7.4M103.39 83.64h7.4M150.25 83.64l5.14-16.4h15.42l5.14 16.4M142.86 83.64h7.39M182.32 83.64h7.4M175.95 83.64h7.4M189.72 83.64l4.9-16.4h14.68l4.9 16.4M214.2 83.64h7.4M229.19 83.64l4.65-16.4h13.96l4.65 16.4M252.45 83.64h7.4M221.79 83.64h7.4M71.323 83.64h-7.192"/><clipPath id="a"><path transform="matrix(1 0 0 -1 0 212.64)" d="M18.375 169.5h42.746v-21.75H18.375v21.75z" fill-rule="evenodd"/></clipPath><g clip-path="url(#a)"><clipPath id="b"><path transform="matrix(1.03743 0 0 -1.04457 18.375 64.89)" d="M0 0h41.203v20.814H0z" fill-rule="evenodd"/></clipPath><g clip-path="url(#b)"><clipPath id="c"><path transform="matrix(1.03743 0 0 -1.04457 18.375 64.89)" d="M0 .102h41.232v20.712H0z" fill-rule="evenodd"/></clipPath><g clip-path="url(#c)"><symbol id="d"><path d="M.44.305A.181.181 0 0 0 .482.26.21.21 0 0 0 .505.194L.52.126A.318.318 0 0 1 .534.073a.078.078 0 0 1 .02-.026.083.083 0 0 1 .032-.015L.58 0H.405a.78.78 0 0 0-.028.109l-.016.08a.27.27 0 0 1-.016.059.067.067 0 0 1-.023.03.069.069 0 0 1-.038.01h-.03L.217.131A.34.34 0 0 1 .212.075C.212.06.216.049.223.043A.064.064 0 0 1 .26.033L.252 0H0l.007.032a.07.07 0 0 1 .04.028.231.231 0 0 1 .026.072l.089.403c.004.019.006.038.006.057 0 .013-.003.023-.01.03-.006.006-.016.01-.03.012l.006.033h.244A.801.801 0 0 0 .46.663.23.23 0 0 0 .523.648.153.153 0 0 0 .573.62.12.12 0 0 0 .605.575.187.187 0 0 0 .571.391.296.296 0 0 0 .44.31V.305m-.142.04c.042 0 .075.006.098.018a.14.14 0 0 1 .057.06.195.195 0 0 1 .02.092C.473.547.466.57.45.585.433.603.408.61.373.61h-.05L.266.343h.03z"/></symbol><symbol id="e"><path d="M.407.11A.332.332 0 0 0 .301.026.284.284 0 0 0 .178 0 .215.215 0 0 0 .08.02.135.135 0 0 0 .02.08.206.206 0 0 0 0 .172a.393.393 0 0 0 .035.16.268.268 0 0 0 .153.146c.035.014.073.021.114.021.1 0 .15-.036.15-.108A.137.137 0 0 0 .437.327a.141.141 0 0 0-.05-.052A.298.298 0 0 0 .29.238.784.784 0 0 0 .137.222.276.276 0 0 1 .13.162C.13.133.137.11.15.095.161.08.18.071.206.071c.029 0 .055.006.078.017A.37.37 0 0 1 .366.15L.407.11M.148.272a.26.26 0 0 1 .138.035.103.103 0 0 1 .047.09c0 .017-.003.03-.011.038A.04.04 0 0 1 .29.449C.26.45.232.434.208.404a.361.361 0 0 1-.06-.13z"/></symbol><symbol id="f"><path d="m.139.642.008.04c.023 0 .039.001.048.004.01.003.017.008.023.016a.127.127 0 0 1 .017.044c.008.03.019.056.031.076A.188.188 0 0 0 .384.91a.458.458 0 0 0 .18.002L.541.813H.479a.099.099 0 0 1-.01.043C.464.864.455.869.444.869A.04.04 0 0 1 .413.855a.11.11 0 0 1-.02-.037.526.526 0 0 1-.018-.062L.363.703h.105L.455.642H.35L.26.233A.347.347 0 0 0 .178.058.195.195 0 0 0 .034 0C.02 0 .008 0 0 .002l.012.055A.12.12 0 0 1 .029.056c.019 0 .034.01.046.03.013.02.023.052.033.093l.104.463H.14z"/></symbol><use xlink:href="#d" transform="matrix(10.35772 0 0 -10.42903 30.64 53.076)"/><use xlink:href="#e" transform="matrix(10.35772 0 0 -10.42903 38.133 53.157)"/><use xlink:href="#f" transform="matrix(10.35772 0 0 -10.42903 43.326 55.352)"/></g><clipPath id="g"><path transform="matrix(1.03743 0 0 -1.04457 18.375 64.89)" d="M0 .102h41.232v20.712H0z" fill-rule="evenodd"/></clipPath><g clip-path="url(#g)"><symbol id="h"><path d="M0 0z"/></symbol><use xlink:href="#h" transform="matrix(10.35772 0 0 -10.42903 49.174 53.076)"/></g></g></g><clipPath id="i"><path transform="matrix(1 0 0 -1 0 212.64)" d="M0 212.64h549.96V0H0" fill-rule="evenodd"/></clipPath><g clip-path="url(#i)"><path stroke-width=".75" stroke-linecap="round" stroke-dasharray="0,2.25" stroke-linejoin="round" fill="none" stroke="#0070c0" d="M76.199 188.913V19.63"/></g><clipPath id="j"><path transform="matrix(1 0 0 -1 0 212.64)" d="M0 212.64h549.96V0H0" fill-rule="evenodd"/></clipPath><g clip-path="url(#j)"><path stroke-width=".75" stroke-linecap="round" stroke-dasharray="0,2.25" stroke-linejoin="round" fill="none" stroke="#0070c0" d="M115.88 189.394V18.75"/></g><clipPath id="k"><path transform="matrix(1 0 0 -1 0 212.64)" d="M0 212.64h549.96V0H0" fill-rule="evenodd"/></clipPath><g clip-path="url(#k)"><path stroke-width=".75" stroke-linecap="round" stroke-dasharray="0,2.25" stroke-linejoin="round" fill="none" stroke="#0070c0" d="M195.25 189.135V20.16"/></g><clipPath id="l"><path transform="matrix(1 0 0 -1 0 212.64)" d="M0 212.64h549.96V0H0" fill-rule="evenodd"/></clipPath><g clip-path="url(#l)"><path stroke-width=".75" stroke-linecap="round" stroke-dasharray="0,2.25" stroke-linejoin="round" fill="none" stroke="#0070c0" d="M234.94 189.135V20.32"/></g><path stroke-width="2" stroke-linecap="round" stroke-linejoin="round" fill="none" stroke="#000" d="m63.864 56.2 4.95-16.41h14.85l4.95 16.41M88.531 56.2h7.399M103.33 56.2l4.93-16.41h14.8l4.93 16.41M128 56.2h7.4M95.93 56.2h7.4M142.8 56.2l5.13-16.41h15.42l5.14 16.41M135.4 56.2h7.4M174.86 56.2h7.4M168.49 56.2h7.4M182.26 56.2l4.9-16.41h14.68l4.9 16.41M206.74 56.2h7.4M221.73 56.2l4.65-16.41h13.96l4.65 16.41M244.99 56.2h7.4M214.33 56.2h7.4"/><path stroke-width="2" stroke-linecap="round" stroke-linejoin="round" fill="none" stroke="#000" d="m63.864 56.2 4.95-16.41h14.85l4.95 16.41M88.531 56.2h7.399M103.33 56.2l4.93-16.41h14.8l4.93 16.41M128 56.2h7.4M95.93 56.2h7.4M142.8 56.2l5.13-16.41h15.42l5.14 16.41M135.4 56.2h7.4M174.86 56.2h7.4M168.49 56.2h7.4M182.26 56.2l4.9-16.41h14.68l4.9 16.41M206.74 56.2h7.4M221.73 56.2l4.65-16.41h13.96l4.65 16.41M244.99 56.2h7.4M214.33 56.2h7.4M63.864 56.2h-7.192"/><clipPath id="m"><path transform="matrix(1 0 0 -1 0 212.64)" d="M0 212.64h549.96V0H0" fill-rule="evenodd"/></clipPath><g clip-path="url(#m)"><path stroke-width=".75" stroke-linecap="round" stroke-dasharray="0,2.25" stroke-linejoin="round" fill="none" stroke="red" d="M95.686 189.394V19.63"/></g><clipPath id="n"><path transform="matrix(1 0 0 -1 0 212.64)" d="M0 212.64h549.96V0H0" fill-rule="evenodd"/></clipPath><g clip-path="url(#n)"><path stroke-width=".75" stroke-linecap="round" stroke-dasharray="0,2.25" stroke-linejoin="round" fill="none" stroke="red" d="M135.73 189.394V19.75"/></g><clipPath id="o"><path transform="matrix(1 0 0 -1 0 212.64)" d="M0 212.64h549.96V0H0" fill-rule="evenodd"/></clipPath><g clip-path="url(#o)"><path stroke-width=".75" stroke-linecap="round" stroke-dasharray="0,2.25" stroke-linejoin="round" fill="none" stroke="red" d="M175.41 189.348V19.75"/></g><clipPath id="p"><path transform="matrix(1 0 0 -1 0 212.64)" d="M0 212.64h549.96V0H0" fill-rule="evenodd"/></clipPath><g clip-path="url(#p)"><path stroke-width=".75" stroke-linecap="round" stroke-dasharray="0,2.25" stroke-linejoin="round" fill="none" stroke="red" d="M213.68 189.135V19.75"/></g><clipPath id="q"><path transform="matrix(1 0 0 -1 0 212.64)" d="M0 212.64h549.96V0H0" fill-rule="evenodd"/></clipPath><g clip-path="url(#q)"><path stroke-width=".75" stroke-linecap="round" stroke-dasharray="0,2.25" stroke-linejoin="round" fill="none" stroke="red" d="M252.54 189.135V20.55"/></g><clipPath id="r"><path transform="matrix(1 0 0 -1 0 212.64)" d="M0 212.64h549.96V0H0" fill-rule="evenodd"/></clipPath><g clip-path="url(#r)"><path stroke-width=".75" stroke-linecap="round" stroke-dasharray="0,2.25" stroke-linejoin="round" fill="none" stroke="#0070c0" d="M155.57 189.271V20.19"/></g><clipPath id="s"><path transform="matrix(1 0 0 -1 0 212.64)" d="M0 212.64h549.96V0H0" fill-rule="evenodd"/></clipPath><g clip-path="url(#s)"><path stroke-width=".75" stroke-linecap="round" stroke-dasharray="0,2.25" stroke-linejoin="round" fill="none" stroke="#0070c0" d="M65.621 189.087V19.8"/></g><clipPath id="t"><path transform="matrix(1 0 0 -1 0 212.64)" d="M0 212.64h549.96V0H0" fill-rule="evenodd"/></clipPath><g clip-path="url(#t)"><path stroke-width=".75" stroke-linecap="round" stroke-dasharray="0,2.25" stroke-linejoin="round" fill="none" stroke="#0070c0" d="M108.82 193.894V21.38"/></g><path stroke-width="2" stroke-linecap="round" stroke-linejoin="round" fill="none" stroke="#000" d="m65.621 143.598 1.125-16.712h10.59l1.223 17.508h16.312M107.81 143.902l1.12-16.712h10.59l1.23 17.507h16.31M93.746 144.394h13.914"/><clipPath id="u"><path transform="matrix(1 0 0 -1 0 212.64)" d="M0 212.64h549.96V0H0" fill-rule="evenodd"/></clipPath><g clip-path="url(#u)"><path stroke-width=".75" stroke-linecap="round" stroke-dasharray="0,2.25" stroke-linejoin="round" fill="none" stroke="#0070c0" d="M147.07 189.394V20.66"/></g><clipPath id="v"><path transform="matrix(1 0 0 -1 0 212.64)" d="M0 212.64h549.96V0H0" fill-rule="evenodd"/></clipPath><g clip-path="url(#v)"><path stroke-width=".75" stroke-linecap="round" stroke-dasharray="0,2.25" stroke-linejoin="round" fill="none" stroke="#0070c0" d="M187.12 189.394V21.38"/></g><clipPath id="w"><path transform="matrix(1 0 0 -1 0 212.64)" d="M0 212.64h549.96V0H0" fill-rule="evenodd"/></clipPath><g clip-path="url(#w)"><path stroke-width=".75" stroke-linecap="round" stroke-dasharray="0,2.25" stroke-linejoin="round" fill="none" stroke="#0070c0" d="M227.81 189.394V22.84"/></g><path stroke-width="2" stroke-linecap="round" stroke-linejoin="round" fill="none" stroke="#000" d="m144.91 143.902 1.12-16.712h10.59l1.22 17.507h16.32M187.12 143.902l1.13-16.712h10.59l1.22 17.507h16.31M225.37 143.902l1.13-16.712h10.59l1.22 17.507h16.31M157.84 144.697h29.43M137.06 144.697h7.31l.54-.795M200.06 144.697h25.31"/><clipPath id="x"><path transform="matrix(1 0 0 -1 0 212.64)" d="M0 212.64h549.96V0H0" fill-rule="evenodd"/></clipPath><g clip-path="url(#x)"><path stroke-width="2" stroke-linecap="round" stroke-linejoin="round" fill="none" stroke="#000" d="M225.37 144.697v-.795"/></g><clipPath id="y"><path transform="matrix(1 0 0 -1 0 212.64)" d="M18.375 134.7h42.746v-21.74H18.375v21.74z" fill-rule="evenodd"/></clipPath><g clip-path="url(#y)"><clipPath id="z"><path transform="matrix(1.03743 0 0 -1.04457 18.375 99.68)" d="M0 0h41.203v20.814H0z" fill-rule="evenodd"/></clipPath><g clip-path="url(#z)"><clipPath id="A"><path transform="matrix(1.03743 0 0 -1.04457 18.375 99.68)" d="M0 .102h41.232v20.712H0z" fill-rule="evenodd"/></clipPath><g clip-path="url(#A)"><symbol id="B"><path d="M.218.132A.31.31 0 0 1 .212.075C.212.06.216.049.223.043A.064.064 0 0 1 .26.033L.252 0H0l.007.032a.07.07 0 0 1 .04.028.231.231 0 0 1 .026.072l.089.403c.004.019.006.038.006.057 0 .013-.003.023-.01.03-.006.006-.016.01-.03.012l.006.033h.462L.562.509H.499A.271.271 0 0 1 .49.574a.049.049 0 0 1-.02.027.07.07 0 0 1-.036.008h-.11L.27.365h.065a.06.06 0 0 1 .046.019.205.205 0 0 1 .036.06h.054L.42.226H.37c0 .023-.002.04-.004.05a.04.04 0 0 1-.013.025C.347.306.337.308.324.308H.257L.218.132z"/></symbol><symbol id="C"><path d="M.219.408.225.406a.335.335 0 0 0 .08.072A.174.174 0 0 0 .394.5.101.101 0 0 0 .48.46.187.187 0 0 0 .51.344.49.49 0 0 0 .473.158a.298.298 0 0 0-.045-.07A.245.245 0 0 0 .3.01.312.312 0 0 0 .16.008a.224.224 0 0 0-.061.027L.053 0 0 .008.124.56a.35.35 0 0 1 .01.07C.134.64.132.646.129.65a.024.024 0 0 1-.012.01.184.184 0 0 1-.032.006L.093.7l.143.008h.057L.22.408M.175.188a.334.334 0 0 1-.008-.07C.167.094.171.077.18.066.187.056.201.051.22.051c.017 0 .032.003.045.01.014.008.026.02.038.037a.53.53 0 0 1 .076.26.103.103 0 0 1-.01.053.035.035 0 0 1-.033.017C.313.428.292.418.269.396A.245.245 0 0 1 .216.324.553.553 0 0 1 .179.207L.175.188z"/></symbol><use xlink:href="#B" transform="matrix(10.35772 0 0 -10.42903 33.503 87.866)"/><use xlink:href="#C" transform="matrix(10.35772 0 0 -10.42903 40.205 87.947)"/></g><clipPath id="D"><path transform="matrix(1.03743 0 0 -1.04457 18.375 99.68)" d="M0 .102h41.232v20.712H0z" fill-rule="evenodd"/></clipPath><g clip-path="url(#D)"><use xlink:href="#h" transform="matrix(10.35772 0 0 -10.42903 46.186 87.866)"/></g></g></g><path stroke-width="2" stroke-linecap="round" stroke-linejoin="round" fill="none" stroke="#000" d="M65.621 180.394H252.54"/><clipPath id="E"><path transform="matrix(1 0 0 -1 0 212.64)" d="M18.375 85.754h42.746V64.012H18.375v21.742z" fill-rule="evenodd"/></clipPath><g clip-path="url(#E)"><clipPath id="F"><path transform="matrix(1.03743 0 0 -1.04457 18.375 148.628)" d="M0 0h41.203v20.814H0z" fill-rule="evenodd"/></clipPath><g clip-path="url(#F)"><clipPath id="G"><path transform="matrix(1.03743 0 0 -1.04457 18.375 148.628)" d="M0 .102h41.232v20.712H0z" fill-rule="evenodd"/></clipPath><g clip-path="url(#G)"><symbol id="H"><path d="M.481.24A.462.462 0 0 0 .443.127.23.23 0 0 0 .386.053.213.213 0 0 0 .31.013.392.392 0 0 0 .123.01a.183.183 0 0 0-.064.033A.16.16 0 0 0 0 .176L.003.23C.006.248.011.277.02.317l.05.225A.26.26 0 0 1 .078.6c0 .013-.003.023-.01.03C.061.635.051.64.037.641l.006.032H.29L.282.642a.07.07 0 0 1-.04-.027.231.231 0 0 1-.026-.073L.15.243A.524.524 0 0 1 .138.147C.138.117.145.095.16.08.174.065.196.057.224.057c.027 0 .05.006.069.018.019.012.033.03.044.051a.372.372 0 0 1 .03.087l.072.33A.22.22 0 0 1 .445.6c0 .013-.003.023-.01.03C.43.635.42.64.406.641l.007.032H.62L.613.642A.072.072 0 0 1 .57.614.225.225 0 0 1 .547.542L.48.24z"/></symbol><use xlink:href="#H" transform="matrix(10.35772 0 0 -10.42903 33.183 136.895)"/></g><clipPath id="I"><path transform="matrix(1.03743 0 0 -1.04457 18.375 148.628)" d="M0 .102h41.232v20.712H0z" fill-rule="evenodd"/></clipPath><g clip-path="url(#I)"><symbol id="J"><path d="M.378.667A.807.807 0 0 0 .46.663.223.223 0 0 0 .522.648a.15.15 0 0 0 .051-.03.12.12 0 0 0 .031-.045.16.16 0 0 0 .011-.06A.215.215 0 0 0 .537.34.25.25 0 0 0 .444.29.485.485 0 0 0 .315.277H.3c-.02 0-.037 0-.05.002L.218.132A.31.31 0 0 1 .212.075C.212.06.216.049.223.043A.064.064 0 0 1 .26.033L.252 0H0l.007.032a.07.07 0 0 1 .04.028.231.231 0 0 1 .026.072l.089.403c.004.019.006.038.006.057 0 .013-.003.023-.01.03-.006.006-.016.01-.03.012l.006.033h.244M.288.333c.045 0 .08.007.104.021a.135.135 0 0 1 .055.063c.012.028.019.06.019.094C.466.544.458.57.442.585.427.601.403.609.371.609a.99.99 0 0 1-.048 0L.263.332H.29z"/></symbol><use xlink:href="#J" transform="matrix(10.35772 0 0 -10.42903 40.126 136.814)"/></g><clipPath id="K"><path transform="matrix(1.03743 0 0 -1.04457 18.375 148.628)" d="M0 .102h41.232v20.712H0z" fill-rule="evenodd"/></clipPath><g clip-path="url(#K)"><use xlink:href="#h" transform="matrix(10.35772 0 0 -10.42903 47.058 136.814)"/></g></g></g><clipPath id="L"><path transform="matrix(1 0 0 -1 0 212.64)" d="M18.375 40.113h42.746V18.371H18.375v21.742z" fill-rule="evenodd"/></clipPath><g clip-path="url(#L)"><clipPath id="M"><path transform="matrix(1.03743 0 0 -1.04457 18.375 194.269)" d="M0 0h41.203v20.814H0z" fill-rule="evenodd"/></clipPath><g clip-path="url(#M)"><clipPath id="N"><path transform="matrix(1.03743 0 0 -1.04457 18.375 194.269)" d="M0 .102h41.232v20.712H0z" fill-rule="evenodd"/></clipPath><g clip-path="url(#N)"><symbol id="O"><path d="m0 0 .007.032a.07.07 0 0 1 .04.028.231.231 0 0 1 .026.072l.089.403c.004.019.006.038.006.057 0 .013-.003.023-.01.03-.006.006-.016.01-.03.012l.006.033h.198a.752.752 0 0 0 .129-.01.273.273 0 0 0 .08-.026.206.206 0 0 0 .058-.042A.197.197 0 0 0 .64.518a.29.29 0 0 0 .015-.1.52.52 0 0 0-.014-.125.43.43 0 0 0-.044-.11A.348.348 0 0 0 .36.009.666.666 0 0 0 .24 0H0m.202.06A.437.437 0 0 1 .238.058c.042 0 .078.008.109.025.03.016.057.041.08.075a.402.402 0 0 1 .056.125.55.55 0 0 1 .02.148.274.274 0 0 1-.01.084A.143.143 0 0 1 .46.57.109.109 0 0 1 .416.6.162.162 0 0 1 .36.61L.323.607.203.06z"/></symbol><symbol id="P"><path d="M.71.48C.723.506.733.53.74.546c.007.018.01.033.01.044 0 .01 0 .018-.003.024a.03.03 0 0 1-.013.014.066.066 0 0 1-.025.009L.717.67h.208L.917.638A.073.073 0 0 1 .89.626.114.114 0 0 1 .865.603a1.95 1.95 0 0 1-.05-.086L.534 0H.417v.464H.411A1.323 1.323 0 0 0 .378.396L.18 0H.062l-.01.52a.32.32 0 0 1-.007.07.073.073 0 0 1-.016.034A.049.049 0 0 1 0 .638L.007.67h.25L.25.638A.078.078 0 0 1 .225.63.044.044 0 0 1 .21.617.06.06 0 0 1 .2.597.131.131 0 0 1 .197.572V.51L.193.328C.194.295.192.243.19.172h.007c.01.025.035.074.071.147l.176.35H.55V.35L.552.307c0-.046 0-.09-.003-.135h.006l.083.165.072.142z"/></symbol><symbol id="Q"><path d="M.134.667H.32L.414.39C.44.315.46.25.475.19h.006c.01.057.022.12.038.188l.034.157a.27.27 0 0 1 .006.057c0 .013-.003.023-.01.03C.543.628.533.632.52.634l.006.033h.18L.698.634a.07.07 0 0 1-.04-.027.231.231 0 0 1-.026-.072L.515 0H.403L.286.341a2.763 2.763 0 0 0-.05.164H.229A2.52 2.52 0 0 0 .187.291L.152.131A.31.31 0 0 1 .146.076c0-.014.003-.024.01-.03a.056.056 0 0 1 .03-.013L.18 0H0l.007.032a.07.07 0 0 1 .04.028.231.231 0 0 1 .026.072l.089.403c.004.019.006.038.006.057 0 .013-.003.023-.01.03-.006.006-.016.01-.03.012l.006.033z"/></symbol><use xlink:href="#O" transform="matrix(10.35772 0 0 -10.42903 27.03 182.455)"/><use xlink:href="#P" transform="matrix(10.35772 0 0 -10.42903 34.937 182.49)"/><use xlink:href="#Q" transform="matrix(10.35772 0 0 -10.42903 44.834 182.455)"/></g><clipPath id="R"><path transform="matrix(1.03743 0 0 -1.04457 18.375 194.269)" d="M0 .102h41.232v20.712H0z" fill-rule="evenodd"/></clipPath><g clip-path="url(#R)"><use xlink:href="#h" transform="matrix(10.35772 0 0 -10.42903 52.685 182.455)"/></g></g></g><path stroke-width="2" stroke-linecap="round" stroke-linejoin="round" fill="none" stroke="#000" d="m342 83.22 4.95-16.41h14.85l4.95 16.41M366.67 83.22h7.4M388.78 83.22l4.93-16.41h14.8l4.93 16.41M374.07 83.22h14.71M435.47 83.22l5.13-16.41h15.42l5.14 16.41M413.53 83.22h21.94M461.16 83.22h6.64M468.27 83.22l4.9-16.41h14.68l4.9 16.41M507.74 83.22l4.65-16.41h13.96L531 83.22M492.46 83.22h15.28"/><clipPath id="S"><path transform="matrix(1 0 0 -1 0 212.64)" d="M294.75 169.87h42.75v-21.74h-42.75v21.74z" fill-rule="evenodd"/></clipPath><g clip-path="url(#S)"><clipPath id="T"><path transform="matrix(1.03743 0 0 -1.04457 294.75 64.51)" d="M0 0h41.203v20.814H0z" fill-rule="evenodd"/></clipPath><g clip-path="url(#T)"><clipPath id="U"><path transform="matrix(1.03743 0 0 -1.04457 294.75 64.51)" d="M0 .102h41.232v20.712H0z" fill-rule="evenodd"/></clipPath><g clip-path="url(#U)"><use xlink:href="#d" transform="matrix(10.35772 0 -.00001 -10.42903 307.014 52.696)"/><use xlink:href="#e" transform="matrix(10.35772 0 -.00001 -10.42903 314.508 52.777)"/><use xlink:href="#f" transform="matrix(10.35772 0 -.00001 -10.42903 319.7 54.972)"/></g><clipPath id="V"><path transform="matrix(1.03743 0 0 -1.04457 294.75 64.51)" d="M0 .102h41.232v20.712H0z" fill-rule="evenodd"/></clipPath><g clip-path="url(#V)"><use xlink:href="#h" transform="matrix(10.35772 0 -.00001 -10.42903 325.55 52.696)"/></g></g></g><clipPath id="W"><path transform="matrix(1 0 0 -1 0 212.64)" d="M0 212.64h549.96V0H0" fill-rule="evenodd"/></clipPath><g clip-path="url(#W)"><path stroke-width=".75" stroke-linecap="round" stroke-dasharray="0,2.25" stroke-linejoin="round" fill="none" stroke="#0070c0" d="M346.5 189.769V20.48"/></g><clipPath id="X"><path transform="matrix(1 0 0 -1 0 212.64)" d="M0 212.64h549.96V0H0" fill-rule="evenodd"/></clipPath><g clip-path="url(#X)"><path stroke-width=".75" stroke-linecap="round" stroke-dasharray="0,2.25" stroke-linejoin="round" fill="none" stroke="#0070c0" d="M392.26 189.019V18.37"/></g><clipPath id="Y"><path transform="matrix(1 0 0 -1 0 212.64)" d="M0 212.64h549.96V0H0" fill-rule="evenodd"/></clipPath><g clip-path="url(#Y)"><path stroke-width=".75" stroke-linecap="round" stroke-dasharray="0,2.25" stroke-linejoin="round" fill="none" stroke="#0070c0" d="M471.63 188.76V19.79"/></g><clipPath id="Z"><path transform="matrix(1 0 0 -1 0 212.64)" d="M0 212.64h549.96V0H0" fill-rule="evenodd"/></clipPath><g clip-path="url(#Z)"><path stroke-width=".75" stroke-linecap="round" stroke-dasharray="0,2.25" stroke-linejoin="round" fill="none" stroke="#0070c0" d="M511.32 188.76V19.94"/></g><path stroke-width="2" stroke-linecap="round" stroke-linejoin="round" fill="none" stroke="#000" d="m340.24 55.82 4.95-16.41h14.85l4.95 16.41M364.91 55.82h7.4M379.71 55.82l4.93-16.41h14.8l4.93 16.41M404.37 55.82h7.4M372.31 55.82h7.4M419.17 55.82l5.14-16.41h15.42l5.14 16.41M411.77 55.82h7.4M451.24 55.82h7.4M444.87 55.82h7.4M458.64 55.82l4.9-16.41h14.68l4.9 16.41M483.12 55.82h7.4M498.11 55.82l4.65-16.41h13.96l4.65 16.41M521.37 55.82h7.4M490.71 55.82h7.4"/><path stroke-width="2" stroke-linecap="round" stroke-linejoin="round" fill="none" stroke="#000" d="m340.24 55.82 4.95-16.41h14.85l4.95 16.41M364.91 55.82h7.4M379.71 55.82l4.93-16.41h14.8l4.93 16.41M404.37 55.82h7.4M372.31 55.82h7.4M419.17 55.82l5.14-16.41h15.42l5.14 16.41M411.77 55.82h7.4M451.24 55.82h7.4M444.87 55.82h7.4M458.64 55.82l4.9-16.41h14.68l4.9 16.41M483.12 55.82h7.4M498.11 55.82l4.65-16.41h13.96l4.65 16.41M521.37 55.82h7.4M490.71 55.82h7.4M340.24 55.82h-7.19"/><clipPath id="aa"><path transform="matrix(1 0 0 -1 0 212.64)" d="M0 212.64h549.96V0H0" fill-rule="evenodd"/></clipPath><g clip-path="url(#aa)"><path stroke-width=".75" stroke-linecap="round" stroke-dasharray="0,2.25" stroke-linejoin="round" fill="none" stroke="red" d="M372.06 189.019V19.25"/></g><clipPath id="ab"><path transform="matrix(1 0 0 -1 0 212.64)" d="M0 212.64h549.96V0H0" fill-rule="evenodd"/></clipPath><g clip-path="url(#ab)"><path stroke-width=".75" stroke-linecap="round" stroke-dasharray="0,2.25" stroke-linejoin="round" fill="none" stroke="red" d="M412.1 189.019V19.37"/></g><clipPath id="ac"><path transform="matrix(1 0 0 -1 0 212.64)" d="M0 212.64h549.96V0H0" fill-rule="evenodd"/></clipPath><g clip-path="url(#ac)"><path stroke-width=".75" stroke-linecap="round" stroke-dasharray="0,2.25" stroke-linejoin="round" fill="none" stroke="red" d="M463.5 189.019V19.42"/></g><clipPath id="ad"><path transform="matrix(1 0 0 -1 0 212.64)" d="M0 212.64h549.96V0H0" fill-rule="evenodd"/></clipPath><g clip-path="url(#ad)"><path stroke-width=".75" stroke-linecap="round" stroke-dasharray="0,2.25" stroke-linejoin="round" fill="none" stroke="red" d="M490.06 188.76V19.37"/></g><clipPath id="ae"><path transform="matrix(1 0 0 -1 0 212.64)" d="M0 212.64h549.96V0H0" fill-rule="evenodd"/></clipPath><g clip-path="url(#ae)"><path stroke-width=".75" stroke-linecap="round" stroke-dasharray="0,2.25" stroke-linejoin="round" fill="none" stroke="red" d="M528.92 188.76V20.17"/></g><clipPath id="af"><path transform="matrix(1 0 0 -1 0 212.64)" d="M0 212.64h549.96V0H0" fill-rule="evenodd"/></clipPath><g clip-path="url(#af)"><path stroke-width=".75" stroke-linecap="round" stroke-dasharray="0,2.25" stroke-linejoin="round" fill="none" stroke="#0070c0" d="M438.75 189.769V20.69"/></g><clipPath id="ag"><path transform="matrix(1 0 0 -1 0 212.64)" d="M0 212.64h549.96V0H0" fill-rule="evenodd"/></clipPath><g clip-path="url(#ag)"><path stroke-width=".75" stroke-linecap="round" stroke-dasharray="0,2.25" stroke-linejoin="round" fill="none" stroke="#0070c0" d="M342 188.712V19.42"/></g><clipPath id="ah"><path transform="matrix(1 0 0 -1 0 212.64)" d="M0 212.64h549.96V0H0" fill-rule="evenodd"/></clipPath><g clip-path="url(#ah)"><path stroke-width=".75" stroke-linecap="round" stroke-dasharray="0,2.25" stroke-linejoin="round" fill="none" stroke="#0070c0" d="M385.2 193.519V21.01"/></g><path stroke-width="2" stroke-linecap="round" stroke-linejoin="round" fill="none" stroke="#000" d="m384.19 143.527 1.12-16.712h10.59l1.22 17.507h16.32M370.12 144.019h13.92"/><clipPath id="ai"><path transform="matrix(1 0 0 -1 0 212.64)" d="M0 212.64h549.96V0H0" fill-rule="evenodd"/></clipPath><g clip-path="url(#ai)"><path stroke-width=".75" stroke-linecap="round" stroke-dasharray="0,2.25" stroke-linejoin="round" fill="none" stroke="#0070c0" d="M423.45 189.019V20.28"/></g><clipPath id="aj"><path transform="matrix(1 0 0 -1 0 212.64)" d="M0 212.64h549.96V0H0" fill-rule="evenodd"/></clipPath><g clip-path="url(#aj)"><path stroke-width=".75" stroke-linecap="round" stroke-dasharray="0,2.25" stroke-linejoin="round" fill="none" stroke="#0070c0" d="M463.5 189.019V21.01"/></g><clipPath id="ak"><path transform="matrix(1 0 0 -1 0 212.64)" d="M0 212.64h549.96V0H0" fill-rule="evenodd"/></clipPath><g clip-path="url(#ak)"><path stroke-width=".75" stroke-linecap="round" stroke-dasharray="0,2.25" stroke-linejoin="round" fill="none" stroke="#0070c0" d="M504.19 189.019V22.46"/></g><path stroke-width="2" stroke-linecap="round" stroke-linejoin="round" fill="none" stroke="#000" d="m463.5 143.527 1.12-16.712h10.59l1.23 17.507h16.31M501.75 143.527l1.12-16.712h10.59l1.23 17.507H531M438.75 144.322h24.9M476.44 144.322h25.31"/><clipPath id="al"><path transform="matrix(1 0 0 -1 0 212.64)" d="M0 212.64h549.96V0H0" fill-rule="evenodd"/></clipPath><g clip-path="url(#al)"><path stroke-width="2" stroke-linecap="round" stroke-linejoin="round" fill="none" stroke="#000" d="M501.75 144.322v-.795"/></g><clipPath id="am"><path transform="matrix(1 0 0 -1 0 212.64)" d="M294.75 135.08h42.75v-21.75h-42.75v21.75z" fill-rule="evenodd"/></clipPath><g clip-path="url(#am)"><clipPath id="an"><path transform="matrix(1.03743 0 0 -1.04457 294.75 99.31)" d="M0 0h41.203v20.814H0z" fill-rule="evenodd"/></clipPath><g clip-path="url(#an)"><clipPath id="ao"><path transform="matrix(1.03743 0 0 -1.04457 294.75 99.31)" d="M0 .102h41.232v20.712H0z" fill-rule="evenodd"/></clipPath><g clip-path="url(#ao)"><use xlink:href="#B" transform="matrix(10.35772 0 -.00001 -10.42903 309.878 87.496)"/><use xlink:href="#C" transform="matrix(10.35772 0 -.00001 -10.42903 316.58 87.577)"/></g><clipPath id="ap"><path transform="matrix(1.03743 0 0 -1.04457 294.75 99.31)" d="M0 .102h41.232v20.712H0z" fill-rule="evenodd"/></clipPath><g clip-path="url(#ap)"><use xlink:href="#h" transform="matrix(10.35772 0 -.00001 -10.42903 322.561 87.496)"/></g></g></g><path stroke-width="2" stroke-linecap="round" stroke-linejoin="round" fill="none" stroke="#000" d="M342 180.019h186.92"/><clipPath id="aq"><path transform="matrix(1 0 0 -1 0 212.64)" d="M294.75 86.129h42.75V64.387h-42.75v21.742z" fill-rule="evenodd"/></clipPath><g clip-path="url(#aq)"><clipPath id="ar"><path transform="matrix(1.03743 0 0 -1.04457 294.75 148.253)" d="M0 0h41.203v20.814H0z" fill-rule="evenodd"/></clipPath><g clip-path="url(#ar)"><clipPath id="as"><path transform="matrix(1.03743 0 0 -1.04457 294.75 148.253)" d="M0 .102h41.232v20.712H0z" fill-rule="evenodd"/></clipPath><g clip-path="url(#as)"><use xlink:href="#H" transform="matrix(10.35772 0 -.00001 -10.42903 309.558 136.52)"/></g><clipPath id="at"><path transform="matrix(1.03743 0 0 -1.04457 294.75 148.253)" d="M0 .102h41.232v20.712H0z" fill-rule="evenodd"/></clipPath><g clip-path="url(#at)"><use xlink:href="#J" transform="matrix(10.35772 0 -.00001 -10.42903 316.5 136.439)"/></g><clipPath id="au"><path transform="matrix(1.03743 0 0 -1.04457 294.75 148.253)" d="M0 .102h41.232v20.712H0z" fill-rule="evenodd"/></clipPath><g clip-path="url(#au)"><use xlink:href="#h" transform="matrix(10.35772 0 -.00001 -10.42903 323.433 136.439)"/></g></g></g><clipPath id="av"><path transform="matrix(1 0 0 -1 0 212.64)" d="M294.75 40.488h42.75V18.746h-42.75v21.742z" fill-rule="evenodd"/></clipPath><g clip-path="url(#av)"><clipPath id="aw"><path transform="matrix(1.03743 0 0 -1.04457 294.75 193.894)" d="M0 0h41.203v20.814H0z" fill-rule="evenodd"/></clipPath><g clip-path="url(#aw)"><clipPath id="ax"><path transform="matrix(1.03743 0 0 -1.04457 294.75 193.894)" d="M0 .102h41.232v20.712H0z" fill-rule="evenodd"/></clipPath><g clip-path="url(#ax)"><use xlink:href="#O" transform="matrix(10.35772 0 -.00001 -10.42903 303.404 182.08)"/><use xlink:href="#P" transform="matrix(10.35772 0 -.00001 -10.42903 311.312 182.116)"/><use xlink:href="#Q" transform="matrix(10.35772 0 -.00001 -10.42903 321.21 182.08)"/></g><clipPath id="ay"><path transform="matrix(1.03743 0 0 -1.04457 294.75 193.894)" d="M0 .102h41.232v20.712H0z" fill-rule="evenodd"/></clipPath><g clip-path="url(#ay)"><use xlink:href="#h" transform="matrix(10.35772 0 -.00001 -10.42903 329.06 182.08)"/></g></g></g><path stroke-width="2" stroke-linecap="round" stroke-linejoin="round" fill="none" stroke="#000" d="M344.81 125.925h-1.69L342 143.644"/><clipPath id="az"><path transform="matrix(1 0 0 -1 0 212.64)" d="M0 212.64h549.96V0H0" fill-rule="evenodd"/></clipPath><g clip-path="url(#az)"><path stroke-width="2" stroke-linecap="round" stroke-linejoin="round" fill="none" stroke="#000" d="m346.5 143.644-1.69-17.719"/></g><clipPath id="aA"><path transform="matrix(1 0 0 -1 0 212.64)" d="M0 212.64h549.96V0H0" fill-rule="evenodd"/></clipPath><g clip-path="url(#aA)"><path stroke-width="2" stroke-linecap="round" stroke-linejoin="round" fill="none" stroke="#000" d="m438.75 144.322-2.25-18.678"/></g><clipPath id="aB"><path transform="matrix(1 0 0 -1 0 212.64)" d="M0 212.64h549.96V0H0" fill-rule="evenodd"/></clipPath><g clip-path="url(#aB)"><path stroke-width="2" stroke-linecap="round" stroke-linejoin="round" fill="none" stroke="#000" d="m425.25 125.644-3.38 18.678"/></g><path stroke-width="2" stroke-linecap="round" stroke-linejoin="round" fill="none" stroke="#000" d="M411.75 144.322h10.12M425.25 125.644h11.25M370.12 144.019h-21.93M349.31 144.019h-2.81"/></svg>