<svg xmlns="http://www.w3.org/2000/svg" xmlns:xlink="http://www.w3.org/1999/xlink" width="588" height="264" viewBox="0 0 441 198"><clipPath id="a"><path transform="matrix(1 0 0 -1 0 198)" d="M0 198h441V0H0" fill-rule="evenodd"/></clipPath><g clip-path="url(#a)"><path stroke-width="2" stroke-linecap="round" stroke-linejoin="round" fill="none" stroke="#000" d="M83.594 82.24c1.904 1 3.67 2.41 5.137 3.99 13.209 14.293 2.216 43.057-5.137 41.67"/></g><clipPath id="b"><path transform="matrix(1 0 0 -1 0 198)" d="M0 198h441V0H0" fill-rule="evenodd"/></clipPath><g clip-path="url(#b)"><path stroke-width="2" stroke-linecap="round" stroke-linejoin="round" fill="none" stroke="#000" d="M93.64 82.24c1.904 1 3.669 2.41 5.137 3.99 13.213 14.293 2.213 43.057-5.137 41.67"/></g><clipPath id="c"><path transform="matrix(1 0 0 -1 0 198)" d="M0 198h441V0H0" fill-rule="evenodd"/></clipPath><g clip-path="url(#c)"><path stroke-width="2" stroke-linecap="round" stroke-linejoin="round" fill="none" stroke="#000" d="M93.64 127.9c21.02 2.206 36.49-8.63 43.38-22.831"/></g><clipPath id="d"><path transform="matrix(1 0 0 -1 0 198)" d="M0 198h441V0H0" fill-rule="evenodd"/></clipPath><g clip-path="url(#d)"><path stroke-width="2" stroke-linecap="round" stroke-linejoin="round" fill="none" stroke="#000" d="M93.64 82.24c1.724-.78 3.593-.87 5.422-.86 18.338.13 32.628 10.69 37.958 23.689"/></g><path stroke-width="2" stroke-linecap="round" stroke-linejoin="round" fill="none" stroke="#000" d="M92.324 91.57H75.375"/><clipPath id="e"><path transform="matrix(1 0 0 -1 0 198)" d="M0 198h441V0H0" fill-rule="evenodd"/></clipPath><g clip-path="url(#e)"><path stroke-width="2" stroke-linecap="round" stroke-linejoin="round" fill="none" stroke="#000" d="m92.053 118.803-16.678-.035"/></g><path stroke-width="2" stroke-linecap="round" stroke-linejoin="round" fill="none" stroke="#000" d="M137.02 105.069H153M239.7 82.89l4.95-16.4h14.85l4.95 16.4M264.37 82.89h7.4M279.17 82.89l4.93-16.4h14.79l4.94 16.4M303.83 82.89h7.4M271.77 82.89h7.4M318.63 82.89l5.14-16.4h15.42l5.14 16.4M311.23 82.89h7.4M350.7 82.89h7.4M344.33 82.89h7.4M358.1 82.89l4.89-16.4h14.69l4.9 16.4M382.58 82.89h7.4M397.57 82.89l4.65-16.4h13.95l4.66 16.4M420.83 82.89h7.4M390.17 82.89h7.4"/><path stroke-width="2" stroke-linecap="round" stroke-linejoin="round" fill="none" stroke="#000" d="m239.7 82.89 4.95-16.4h14.85l4.95 16.4M264.37 82.89h7.4M279.17 82.89l4.93-16.4h14.79l4.94 16.4M303.83 82.89h7.4M271.77 82.89h7.4M318.63 82.89l5.14-16.4h15.42l5.14 16.4M311.23 82.89h7.4M350.7 82.89h7.4M344.33 82.89h7.4M358.1 82.89l4.89-16.4h14.69l4.9 16.4M382.58 82.89h7.4M397.57 82.89l4.65-16.4h13.95l4.66 16.4M420.83 82.89h7.4M390.17 82.89h7.4M239.7 82.89h-7.19"/><clipPath id="f"><path transform="matrix(1 0 0 -1 0 198)" d="M0 198h441V0H0" fill-rule="evenodd"/></clipPath><g clip-path="url(#f)"><path stroke-width=".75" stroke-linecap="round" stroke-dasharray="0,2.25" stroke-linejoin="round" fill="none" stroke="#0070c0" d="M244.58 188.163V18.88"/></g><clipPath id="g"><path transform="matrix(1 0 0 -1 0 198)" d="M0 198h441V0H0" fill-rule="evenodd"/></clipPath><g clip-path="url(#g)"><path stroke-width=".75" stroke-linecap="round" stroke-dasharray="0,2.25" stroke-linejoin="round" fill="none" stroke="#0070c0" d="M284.26 188.644V18"/></g><clipPath id="h"><path transform="matrix(1 0 0 -1 0 198)" d="M0 198h441V0H0" fill-rule="evenodd"/></clipPath><g clip-path="url(#h)"><path stroke-width=".75" stroke-linecap="round" stroke-dasharray="0,2.25" stroke-linejoin="round" fill="none" stroke="#0070c0" d="M363.63 188.385V19.41"/></g><clipPath id="i"><path transform="matrix(1 0 0 -1 0 198)" d="M0 198h441V0H0" fill-rule="evenodd"/></clipPath><g clip-path="url(#i)"><path stroke-width=".75" stroke-linecap="round" stroke-dasharray="0,2.25" stroke-linejoin="round" fill="none" stroke="#0070c0" d="M403.32 188.385V19.57"/></g><path stroke-width="2" stroke-linecap="round" stroke-linejoin="round" fill="none" stroke="#000" d="m232.24 55.45 4.95-16.41h14.85l4.95 16.41M256.91 55.45h7.4M271.71 55.45l4.93-16.41h14.8l4.93 16.41M296.37 55.45h7.4M264.31 55.45h7.4M311.17 55.45l5.14-16.41h15.42l5.14 16.41M303.77 55.45h7.4M343.24 55.45h7.4M336.87 55.45h7.4M350.64 55.45l4.9-16.41h14.68l4.9 16.41M375.12 55.45h7.4M390.11 55.45l4.65-16.41h13.96l4.65 16.41M413.37 55.45h7.4M382.71 55.45h7.4"/><path stroke-width="2" stroke-linecap="round" stroke-linejoin="round" fill="none" stroke="#000" d="m232.24 55.45 4.95-16.41h14.85l4.95 16.41M256.91 55.45h7.4M271.71 55.45l4.93-16.41h14.8l4.93 16.41M296.37 55.45h7.4M264.31 55.45h7.4M311.17 55.45l5.14-16.41h15.42l5.14 16.41M303.77 55.45h7.4M343.24 55.45h7.4M336.87 55.45h7.4M350.64 55.45l4.9-16.41h14.68l4.9 16.41M375.12 55.45h7.4M390.11 55.45l4.65-16.41h13.96l4.65 16.41M413.37 55.45h7.4M382.71 55.45h7.4M232.24 55.45h-7.19"/><clipPath id="j"><path transform="matrix(1 0 0 -1 0 198)" d="M0 198h441V0H0" fill-rule="evenodd"/></clipPath><g clip-path="url(#j)"><path stroke-width=".75" stroke-linecap="round" stroke-dasharray="0,2.25" stroke-linejoin="round" fill="none" stroke="red" d="M264.06 188.644V18.88"/></g><clipPath id="k"><path transform="matrix(1 0 0 -1 0 198)" d="M0 198h441V0H0" fill-rule="evenodd"/></clipPath><g clip-path="url(#k)"><path stroke-width=".75" stroke-linecap="round" stroke-dasharray="0,2.25" stroke-linejoin="round" fill="none" stroke="red" d="M304.1 188.644V19"/></g><clipPath id="l"><path transform="matrix(1 0 0 -1 0 198)" d="M0 198h441V0H0" fill-rule="evenodd"/></clipPath><g clip-path="url(#l)"><path stroke-width=".75" stroke-linecap="round" stroke-dasharray="0,2.25" stroke-linejoin="round" fill="none" stroke="red" d="M343.79 188.598V19"/></g><clipPath id="m"><path transform="matrix(1 0 0 -1 0 198)" d="M0 198h441V0H0" fill-rule="evenodd"/></clipPath><g clip-path="url(#m)"><path stroke-width=".75" stroke-linecap="round" stroke-dasharray="0,2.25" stroke-linejoin="round" fill="none" stroke="red" d="M382.06 188.385V19"/></g><clipPath id="n"><path transform="matrix(1 0 0 -1 0 198)" d="M0 198h441V0H0" fill-rule="evenodd"/></clipPath><g clip-path="url(#n)"><path stroke-width=".75" stroke-linecap="round" stroke-dasharray="0,2.25" stroke-linejoin="round" fill="none" stroke="red" d="M420.92 188.385V19.8"/></g><clipPath id="o"><path transform="matrix(1 0 0 -1 0 198)" d="M0 198h441V0H0" fill-rule="evenodd"/></clipPath><g clip-path="url(#o)"><path stroke-width=".75" stroke-linecap="round" stroke-dasharray="0,2.25" stroke-linejoin="round" fill="none" stroke="#0070c0" d="M323.95 188.521V19.44"/></g><clipPath id="p"><path transform="matrix(1 0 0 -1 0 198)" d="M0 198h441V0H0" fill-rule="evenodd"/></clipPath><g clip-path="url(#p)"><path stroke-width=".75" stroke-linecap="round" stroke-dasharray="0,2.25" stroke-linejoin="round" fill="none" stroke="#0070c0" d="M234 188.337V19.05"/></g><path stroke-width="2" stroke-linecap="round" stroke-linejoin="round" fill="none" stroke="#000" d="m234 142.848 1.12-16.712h10.59l1.23 17.508h16.31M276.19 143.152l1.12-16.712h10.59l1.22 17.508h16.32M262.12 143.644h13.92"/><clipPath id="q"><path transform="matrix(1 0 0 -1 0 198)" d="M0 198h441V0H0" fill-rule="evenodd"/></clipPath><g clip-path="url(#q)"><path stroke-width=".75" stroke-linecap="round" stroke-dasharray="0,2.25" stroke-linejoin="round" fill="none" stroke="#0070c0" d="M315.45 188.644V19.91"/></g><clipPath id="r"><path transform="matrix(1 0 0 -1 0 198)" d="M0 198h441V0H0" fill-rule="evenodd"/></clipPath><g clip-path="url(#r)"><path stroke-width=".75" stroke-linecap="round" stroke-dasharray="0,2.25" stroke-linejoin="round" fill="none" stroke="#0070c0" d="M355.5 188.644V20.63"/></g><clipPath id="s"><path transform="matrix(1 0 0 -1 0 198)" d="M0 198h441V0H0" fill-rule="evenodd"/></clipPath><g clip-path="url(#s)"><path stroke-width=".75" stroke-linecap="round" stroke-dasharray="0,2.25" stroke-linejoin="round" fill="none" stroke="#0070c0" d="M396.19 188.644V22.09"/></g><path stroke-width="2" stroke-linecap="round" stroke-linejoin="round" fill="none" stroke="#000" d="m313.29 143.152 1.12-16.712H325l1.22 17.508h16.32M355.5 143.152l1.12-16.712h10.59l1.23 17.508h16.31M393.75 143.152l1.12-16.712h10.59l1.23 17.508H423M326.22 143.948h29.43M305.44 143.948h7.31l.54-.796M368.44 143.948h25.31"/><clipPath id="t"><path transform="matrix(1 0 0 -1 0 198)" d="M0 198h441V0H0" fill-rule="evenodd"/></clipPath><g clip-path="url(#t)"><path stroke-width="2" stroke-linecap="round" stroke-linejoin="round" fill="none" stroke="#000" d="M393.75 143.948v-.796"/></g><clipPath id="u"><path transform="matrix(1 0 0 -1 0 198)" d="M192.38 154.85h42.74v-21.74h-42.74v21.74z" fill-rule="evenodd"/></clipPath><g clip-path="url(#u)"><clipPath id="v"><path transform="matrix(1.03743 0 0 -1.04457 192.38 64.89)" d="M0 0h41.203v20.814H0z" fill-rule="evenodd"/></clipPath><g clip-path="url(#v)"><clipPath id="w"><path transform="matrix(1.03743 0 0 -1.04457 192.38 64.89)" d="M0 .102h41.232v20.712H0z" fill-rule="evenodd"/></clipPath><g clip-path="url(#w)"><symbol id="x"><path d="M.366.457a.83.83 0 0 1 .047.095.137.137 0 0 1 .008.045c0 .024-.013.037-.041.04L.387.67h.208L.588.638a.08.08 0 0 1-.03-.014.11.11 0 0 1-.025-.025A.58.58 0 0 1 .5.545L.197 0H.074l-.02.522a.517.517 0 0 1-.005.05.133.133 0 0 1-.009.036.046.046 0 0 1-.016.02.051.051 0 0 1-.024.01L.007.67H.26L.252.638A.062.062 0 0 1 .22.627.053.053 0 0 1 .202.602.168.168 0 0 1 .197.555V.511L.201.34.203.16h.005l.158.297z"/></symbol><use xlink:href="#x" transform="matrix(10.35772 0 0 -10.42903 205.335 53.112)"/></g><clipPath id="y"><path transform="matrix(1.03743 0 0 -1.04457 192.38 64.89)" d="M0 .102h41.232v20.712H0z" fill-rule="evenodd"/></clipPath><g clip-path="url(#y)"><symbol id="z"><path d="M.314.136c0-.019.001-.033.003-.043A.056.056 0 0 1 .33.07.059.059 0 0 1 .352.056.216.216 0 0 1 .39.048.792.792 0 0 1 .45.044V0H.03v.044a.715.715 0 0 1 .076.007.096.096 0 0 1 .036.012.046.046 0 0 1 .018.024c.004.01.006.026.006.05v.352c0 .014-.003.023-.008.03a.025.025 0 0 1-.02.008.086.086 0 0 1-.035-.011A.794.794 0 0 1 .03.47L0 .52l.255.153h.062a2.211 2.211 0 0 1-.003-.13V.136z"/></symbol><use xlink:href="#z" transform="matrix(7.24542 0 0 -7.29531 212.157 55.232)"/></g><clipPath id="A"><path transform="matrix(1.03743 0 0 -1.04457 192.38 64.89)" d="M0 .102h41.232v20.712H0z" fill-rule="evenodd"/></clipPath><g clip-path="url(#A)"><symbol id="B"><path d="M0 0z"/></symbol><use xlink:href="#B" transform="matrix(10.35772 0 0 -10.42903 216.332 53.076)"/></g></g></g><clipPath id="C"><path transform="matrix(1 0 0 -1 0 198)" d="M46.129 93.867h42.746v21.742H46.129z" fill-rule="evenodd"/></clipPath><g clip-path="url(#C)"><clipPath id="D"><path transform="matrix(1.03743 0 0 -1.04457 46.129 104.133)" d="M0 0h41.203v20.814H0z" fill-rule="evenodd"/></clipPath><g clip-path="url(#D)"><clipPath id="E"><path transform="matrix(1.03743 0 0 -1.04457 46.129 104.133)" d="M0 .102h41.232v20.712H0z" fill-rule="evenodd"/></clipPath><g clip-path="url(#E)"><use xlink:href="#x" transform="matrix(10.35772 0 0 -10.42903 59.084 92.355)"/></g><clipPath id="F"><path transform="matrix(1.03743 0 0 -1.04457 46.129 104.133)" d="M0 .102h41.232v20.712H0z" fill-rule="evenodd"/></clipPath><g clip-path="url(#F)"><use xlink:href="#z" transform="matrix(7.24542 0 0 -7.29531 65.906 94.475)"/></g><clipPath id="G"><path transform="matrix(1.03743 0 0 -1.04457 46.129 104.133)" d="M0 .102h41.232v20.712H0z" fill-rule="evenodd"/></clipPath><g clip-path="url(#G)"><use xlink:href="#B" transform="matrix(10.35772 0 0 -10.42903 70.081 92.319)"/></g></g></g><clipPath id="H"><path transform="matrix(1 0 0 -1 0 198)" d="M192.38 123.73h42.74v-21.74h-42.74v21.74z" fill-rule="evenodd"/></clipPath><g clip-path="url(#H)"><clipPath id="I"><path transform="matrix(1.03743 0 0 -1.04457 192.38 96.01)" d="M0 0h41.203v20.814H0z" fill-rule="evenodd"/></clipPath><g clip-path="url(#I)"><clipPath id="J"><path transform="matrix(1.03743 0 0 -1.04457 192.38 96.01)" d="M0 .102h41.232v20.712H0z" fill-rule="evenodd"/></clipPath><g clip-path="url(#J)"><use xlink:href="#x" transform="matrix(10.35772 0 0 -10.42903 205.335 84.232)"/></g><clipPath id="K"><path transform="matrix(1.03743 0 0 -1.04457 192.38 96.01)" d="M0 .102h41.232v20.712H0z" fill-rule="evenodd"/></clipPath><g clip-path="url(#K)"><symbol id="L"><path d="M.315.12C.337.12.352.12.363.124.373.127.38.133.387.14c.006.008.011.02.015.035h.056L.448 0H0v.032a.986.986 0 0 0 .154.223c.035.041.062.075.08.102a.362.362 0 0 1 .041.076C.285.456.29.48.29.506A.132.132 0 0 1 .265.59.078.078 0 0 1 .2.621C.147.621.113.583.098.506H.01v.116a.804.804 0 0 0 .128.042.5.5 0 0 0 .103.01.3.3 0 0 0 .117-.02.133.133 0 0 0 .066-.051.141.141 0 0 0 .02-.077A.176.176 0 0 0 .43.454.317.317 0 0 0 .38.378 1.52 1.52 0 0 0 .26.257 1.15 1.15 0 0 1 .143.125V.12h.173z"/></symbol><use xlink:href="#L" transform="matrix(7.24542 0 0 -7.29531 211.98 86.352)"/></g><clipPath id="M"><path transform="matrix(1.03743 0 0 -1.04457 192.38 96.01)" d="M0 .102h41.232v20.712H0z" fill-rule="evenodd"/></clipPath><g clip-path="url(#M)"><use xlink:href="#B" transform="matrix(10.35772 0 0 -10.42903 216.332 84.196)"/></g></g></g><clipPath id="N"><path transform="matrix(1 0 0 -1 0 198)" d="M46.129 64.238h42.746V85.98H46.129z" fill-rule="evenodd"/></clipPath><g clip-path="url(#N)"><clipPath id="O"><path transform="matrix(1.03743 0 0 -1.04457 46.129 133.762)" d="M0 0h41.203v20.814H0z" fill-rule="evenodd"/></clipPath><g clip-path="url(#O)"><clipPath id="P"><path transform="matrix(1.03743 0 0 -1.04457 46.129 133.762)" d="M0 .102h41.232v20.712H0z" fill-rule="evenodd"/></clipPath><g clip-path="url(#P)"><use xlink:href="#x" transform="matrix(10.35772 0 0 -10.42903 59.084 121.984)"/></g><clipPath id="Q"><path transform="matrix(1.03743 0 0 -1.04457 46.129 133.762)" d="M0 .102h41.232v20.712H0z" fill-rule="evenodd"/></clipPath><g clip-path="url(#Q)"><use xlink:href="#L" transform="matrix(7.24542 0 0 -7.29531 65.729 124.104)"/></g><clipPath id="R"><path transform="matrix(1.03743 0 0 -1.04457 46.129 133.762)" d="M0 .102h41.232v20.712H0z" fill-rule="evenodd"/></clipPath><g clip-path="url(#R)"><use xlink:href="#B" transform="matrix(10.35772 0 0 -10.42903 70.081 121.948)"/></g></g></g><clipPath id="S"><path transform="matrix(1 0 0 -1 0 198)" d="M149.63 100.87h42.74V79.129h-42.74v21.741z" fill-rule="evenodd"/></clipPath><g clip-path="url(#S)"><clipPath id="T"><path transform="matrix(1.03743 0 0 -1.04457 149.63 118.871)" d="M0 0h41.203v20.814H0z" fill-rule="evenodd"/></clipPath><g clip-path="url(#T)"><clipPath id="U"><path transform="matrix(1.03743 0 0 -1.04457 149.63 118.871)" d="M0 .102h41.232v20.712H0z" fill-rule="evenodd"/></clipPath><g clip-path="url(#U)"><use xlink:href="#x" transform="matrix(10.35772 0 0 -10.42903 158.85 107.093)"/></g><clipPath id="V"><path transform="matrix(1.03743 0 0 -1.04457 149.63 118.871)" d="M0 .102h41.232v20.712H0z" fill-rule="evenodd"/></clipPath><g clip-path="url(#V)"><symbol id="W"><path d="M.182 0a.223.223 0 0 0-.095.019.148.148 0 0 0-.064.059A.189.189 0 0 0 0 .174c0 .038.006.078.018.12.012.043.03.08.056.112a.232.232 0 0 0 .092.071A.308.308 0 0 0 .287.5.21.21 0 0 0 .39.478a.138.138 0 0 0 .06-.062.2.2 0 0 0 .02-.092.41.41 0 0 0-.021-.13.315.315 0 0 0-.06-.108.23.23 0 0 0-.09-.065A.31.31 0 0 0 .183 0m-.05.142A.13.13 0 0 1 .145.073C.156.058.172.051.193.051c.028 0 .052.013.072.04.02.027.038.068.051.122.014.054.02.101.02.141a.133.133 0 0 1-.014.072C.312.442.297.45.276.45.249.45.225.436.205.41A.587.587 0 0 1 .132.142z"/></symbol><symbol id="X"><path d="M.435.492h.14L.495.154A.215.215 0 0 1 .49.104C.49.094.491.085.495.08.498.074.505.07.513.07c.01 0 .021.005.033.014.012.01.025.023.04.041L.623.09A.397.397 0 0 0 .534.019.169.169 0 0 0 .456 0 .091.091 0 0 0 .39.022a.08.08 0 0 0-.024.06c0 .009 0 .016.003.024L.365.11A.384.384 0 0 0 .277.027.173.173 0 0 0 .181 0C.148 0 .121.01.103.028a.105.105 0 0 0-.028.077.325.325 0 0 0 .01.081l.04.152C.13.36.133.38.133.396.133.408.13.417.126.422a.023.023 0 0 1-.018.007C.1.43.088.425.077.416A.33.33 0 0 1 .035.375L0 .41a.391.391 0 0 0 .087.07C.112.493.14.5.17.5.203.5.229.491.244.474.26.457.27.432.27.4a.385.385 0 0 0-.015-.09L.233.227a.502.502 0 0 1-.02-.112C.213.085.224.07.247.07c.01 0 .022.004.034.012.012.008.025.02.04.036a.221.221 0 0 1 .036.053c.01.02.018.043.023.07l.055.25z"/></symbol><symbol id="Y"><path d="M.312.097A.345.345 0 0 0 .22.02.21.21 0 0 0 .124 0C.086 0 .058.01.038.028a.105.105 0 0 0-.03.08c0 .015.001.03.004.043l.014.068.05.212H0l.01.04A.16.16 0 0 1 .06.477c.012.004.022.01.03.02a.132.132 0 0 1 .023.038.678.678 0 0 1 .026.08h.117L.23.491h.119L.334.432h-.12L.168.235A1.548 1.548 0 0 1 .15.159.27.27 0 0 1 .146.115C.146.1.149.09.154.082.16.075.168.072.18.072a.08.08 0 0 1 .045.015c.015.01.032.026.05.048L.312.097z"/></symbol><use xlink:href="#W" transform="matrix(7.24542 0 0 -7.29531 165.481 109.27)"/><use xlink:href="#X" transform="matrix(7.24542 0 0 -7.29531 169.234 109.27)"/><use xlink:href="#Y" transform="matrix(7.24542 0 0 -7.29531 174.2 109.27)"/></g><clipPath id="Z"><path transform="matrix(1.03743 0 0 -1.04457 149.63 118.871)" d="M0 .102h41.232v20.712H0z" fill-rule="evenodd"/></clipPath><g clip-path="url(#Z)"><use xlink:href="#B" transform="matrix(10.35772 0 0 -10.42903 177.441 107.057)"/></g></g></g><clipPath id="aa"><path transform="matrix(1 0 0 -1 0 198)" d="M195.75 64.871h42.75V43.129h-42.75v21.742z" fill-rule="evenodd"/></clipPath><g clip-path="url(#aa)"><clipPath id="ab"><path transform="matrix(1.03743 0 0 -1.04457 195.75 154.871)" d="M0 0h41.203v20.814H0z" fill-rule="evenodd"/></clipPath><g clip-path="url(#ab)"><clipPath id="ac"><path transform="matrix(1.03743 0 0 -1.04457 195.75 154.871)" d="M0 .102h41.232v20.712H0z" fill-rule="evenodd"/></clipPath><g clip-path="url(#ac)"><use xlink:href="#x" transform="matrix(10.35772 0 0 -10.42903 204.97 143.093)"/></g><clipPath id="ad"><path transform="matrix(1.03743 0 0 -1.04457 195.75 154.871)" d="M0 .102h41.232v20.712H0z" fill-rule="evenodd"/></clipPath><g clip-path="url(#ad)"><use xlink:href="#W" transform="matrix(7.24542 0 0 -7.29531 211.601 145.27)"/><use xlink:href="#X" transform="matrix(7.24542 0 0 -7.29531 215.354 145.27)"/><use xlink:href="#Y" transform="matrix(7.24542 0 0 -7.29531 220.32 145.27)"/></g><clipPath id="ae"><path transform="matrix(1.03743 0 0 -1.04457 195.75 154.871)" d="M0 .102h41.232v20.712H0z" fill-rule="evenodd"/></clipPath><g clip-path="url(#ae)"><use xlink:href="#B" transform="matrix(10.35772 0 0 -10.42903 223.561 143.057)"/></g></g></g></svg>