<svg xmlns="http://www.w3.org/2000/svg" xmlns:xlink="http://www.w3.org/1999/xlink" width="1037.44" height="322.4" viewBox="0 0 778.08 241.8"><path d="M272.62 118.5c0-36.66-29.21-66.38-65.25-66.38s-65.25 29.72-65.25 66.38c0 36.658 29.21 66.375 65.25 66.375s65.25-29.717 65.25-66.375z" fill="#fff" fill-rule="evenodd"/><path stroke-width="3" stroke-linecap="round" stroke-linejoin="round" fill="none" stroke="#000" d="M272.62 118.5c0-36.66-29.21-66.38-65.25-66.38s-65.25 29.72-65.25 66.38c0 36.658 29.21 66.375 65.25 66.375s65.25-29.717 65.25-66.375z"/><path d="M459.37 117.37c0-36.65-29.21-66.37-65.25-66.37s-65.25 29.72-65.25 66.37c0 36.663 29.21 66.38 65.25 66.38s65.25-29.717 65.25-66.38z" fill="#fff" fill-rule="evenodd"/><path stroke-width="3" stroke-linecap="round" stroke-linejoin="round" fill="none" stroke="#000" d="M459.37 117.37c0-36.65-29.21-66.37-65.25-66.37s-65.25 29.72-65.25 66.37c0 36.663 29.21 66.38 65.25 66.38s65.25-29.717 65.25-66.38z"/><path d="M646.12 118.5c0-36.66-29.21-66.38-65.25-66.38s-65.25 29.72-65.25 66.38c0 36.658 29.21 66.375 65.25 66.375s65.25-29.717 65.25-66.375z" fill="#fff" fill-rule="evenodd"/><path stroke-width="3" stroke-linecap="round" stroke-linejoin="round" fill="none" stroke="#000" d="M646.12 118.5c0-36.66-29.21-66.38-65.25-66.38s-65.25 29.72-65.25 66.38c0 36.658 29.21 66.375 65.25 66.375s65.25-29.717 65.25-66.375z"/><clipPath id="a"><path transform="matrix(1 0 0 -1 0 241.8)" d="M365.25 127.8h57.742v29.254H365.25z" fill-rule="evenodd"/></clipPath><g clip-path="url(#a)"><clipPath id="b"><path transform="matrix(1.04336 0 0 -1.0303 365.25 114)" d="M0 0h55.342v28.394H0z" fill-rule="evenodd"/></clipPath><g clip-path="url(#b)"><clipPath id="c"><path transform="matrix(1.04336 0 0 -1.0303 365.25 114)" d="M0 .026h55.296v28.368H0z" fill-rule="evenodd"/></clipPath><g clip-path="url(#c)"><symbol id="d"><path d="M.294.058C.31.058.322.06.33.062a.072.072 0 0 1 .024.012.198.198 0 0 1 .05.061.476.476 0 0 1 .025.059h.067L.447 0H0l.007.032a.07.07 0 0 1 .04.028.231.231 0 0 1 .026.072l.089.403c.004.019.006.038.006.057 0 .013-.003.023-.01.03-.006.006-.016.01-.03.012l.006.033H.38L.373.634A.07.07 0 0 1 .332.607.231.231 0 0 1 .307.535L.202.058h.092z"/></symbol><symbol id="e"><path d="M.182 0a.223.223 0 0 0-.095.019.148.148 0 0 0-.064.059A.189.189 0 0 0 0 .174c0 .038.006.078.018.12.012.043.03.08.056.112a.232.232 0 0 0 .092.071A.308.308 0 0 0 .287.5.21.21 0 0 0 .39.478a.138.138 0 0 0 .06-.062.2.2 0 0 0 .02-.092.41.41 0 0 0-.021-.13.315.315 0 0 0-.06-.108.23.23 0 0 0-.09-.065A.31.31 0 0 0 .183 0m-.05.142A.13.13 0 0 1 .145.073C.156.058.172.051.193.051c.028 0 .052.013.072.04.02.027.038.068.051.122.014.054.02.101.02.141a.133.133 0 0 1-.014.072C.312.442.297.45.276.45.249.45.225.436.205.41A.587.587 0 0 1 .132.142z"/></symbol><symbol id="f"><path d="m.333.137.04-.042A.335.335 0 0 0 .27.02.289.289 0 0 0 .157 0a.148.148 0 0 0-.116.046.19.19 0 0 0-.041.13c0 .052.012.105.035.158a.265.265 0 0 0 .103.124.297.297 0 0 0 .16.042.51.51 0 0 0 .139-.02L.409.361H.321l.001.021c0 .024-.003.04-.01.051A.036.036 0 0 1 .28.45C.256.45.233.435.21.408A.461.461 0 0 1 .134.163C.135.102.158.071.202.071c.023 0 .044.005.064.015.02.01.043.027.068.051z"/></symbol><symbol id="g"><path d="M.203.296h.01c.012 0 .023.002.033.006a.515.515 0 0 1 .1.071c.01.011.018.02.022.03a.07.07 0 0 1 .006.029.03.03 0 0 1-.006.019C.364.456.357.459.346.46l.008.032h.174L.54.46A.618.618 0 0 0 .458.388L.348.306l.05-.179A.173.173 0 0 1 .416.084a.025.025 0 0 1 .022-.01c.008 0 .018.003.028.012.011.009.024.022.038.039L.54.09A.359.359 0 0 0 .457.02.152.152 0 0 0 .38 0a.112.112 0 0 0-.075.023C.288.038.276.064.267.102L.241.219a.064.064 0 0 1-.006.018.023.023 0 0 1-.01.01.047.047 0 0 1-.02.003H.194L.14.008H0L.124.56a.36.36 0 0 1 .01.07c0 .007 0 .012-.002.016a.022.022 0 0 1-.007.01.028.028 0 0 1-.011.006.192.192 0 0 1-.029.005L.093.7l.146.008h.055L.204.296z"/></symbol><symbol id="h"><path d="M.407.11A.332.332 0 0 0 .301.026.284.284 0 0 0 .178 0 .215.215 0 0 0 .08.02.135.135 0 0 0 .02.08.206.206 0 0 0 0 .172a.393.393 0 0 0 .035.16.268.268 0 0 0 .153.146c.035.014.073.021.114.021.1 0 .15-.036.15-.108A.137.137 0 0 0 .437.327a.141.141 0 0 0-.05-.052A.298.298 0 0 0 .29.238.784.784 0 0 0 .137.222.276.276 0 0 1 .13.162C.13.133.137.11.15.095.161.08.18.071.206.071c.029 0 .055.006.078.017A.37.37 0 0 1 .366.15L.407.11M.148.272a.26.26 0 0 1 .138.035.103.103 0 0 1 .047.09c0 .017-.003.03-.011.038A.04.04 0 0 1 .29.449C.26.45.232.434.208.404a.361.361 0 0 1-.06-.13z"/></symbol><symbol id="i"><path d="M.523.125.558.09A.397.397 0 0 0 .47.019.169.169 0 0 0 .392 0a.091.091 0 0 0-.065.022.08.08 0 0 0-.024.06c0 .009 0 .016.003.024L.299.107A.395.395 0 0 0 .212.025.176.176 0 0 0 .116 0 .102.102 0 0 0 .03.04.19.19 0 0 0 0 .156C0 .2.006.243.019.286.032.33.05.368.074.399a.25.25 0 0 0 .09.075.267.267 0 0 0 .205.012L.386.56a.574.574 0 0 1 .01.07c0 .007 0 .012-.002.016a.022.022 0 0 1-.006.01.028.028 0 0 1-.012.006.192.192 0 0 1-.029.005L.355.7l.146.008h.055L.433.16A.257.257 0 0 1 .425.104c0-.01.002-.019.006-.024C.434.074.44.07.449.07.46.07.47.076.482.085c.012.01.025.023.04.041M.337.312a.339.339 0 0 1 .008.071.083.083 0 0 1-.012.05C.323.443.31.449.292.449.262.45.234.434.21.403a.521.521 0 0 1-.078-.26C.133.119.136.1.143.089A.036.036 0 0 1 .176.072c.021 0 .043.01.065.031a.25.25 0 0 1 .054.074.54.54 0 0 1 .037.116l.004.019z"/></symbol><use xlink:href="#d" transform="matrix(16.75224 0 -.00002 -16.54243 365.716 100.546)"/><use xlink:href="#e" transform="matrix(16.75224 0 -.00002 -16.54243 375.531 100.676)"/><use xlink:href="#f" transform="matrix(16.75224 0 -.00002 -16.54243 385.039 100.676)"/><use xlink:href="#g" transform="matrix(16.75224 0 -.00002 -16.54243 393.309 100.676)"/><use xlink:href="#h" transform="matrix(16.75224 0 -.00002 -16.54243 403.634 100.676)"/><use xlink:href="#i" transform="matrix(16.75224 0 -.00002 -16.54243 412.848 100.676)"/></g><clipPath id="j"><path transform="matrix(1.04336 0 0 -1.0303 365.25 114)" d="M0 .026h55.296v28.368H0z" fill-rule="evenodd"/></clipPath><g clip-path="url(#j)"><symbol id="k"><path d="M0 0z"/></symbol><use xlink:href="#k" transform="matrix(16.75224 0 -.00002 -16.54243 422.944 100.546)"/></g></g></g><clipPath id="l"><path transform="matrix(1 0 0 -1 0 241.8)" d="M172.12 127.8h68.258v29.254H172.12z" fill-rule="evenodd"/></clipPath><g clip-path="url(#l)"><clipPath id="m"><path transform="matrix(1.04463 0 0 -1.0303 172.12 114)" d="M0 0h65.343v28.394H0z" fill-rule="evenodd"/></clipPath><g clip-path="url(#m)"><clipPath id="n"><path transform="matrix(1.04463 0 0 -1.0303 172.12 114)" d="M0 .026h65.448v28.368H0z" fill-rule="evenodd"/></clipPath><g clip-path="url(#n)"><symbol id="o"><path d="M.481.24A.462.462 0 0 0 .443.127.23.23 0 0 0 .386.053.213.213 0 0 0 .31.013.392.392 0 0 0 .123.01a.183.183 0 0 0-.064.033A.16.16 0 0 0 0 .176L.003.23C.006.248.011.277.02.317l.05.225A.26.26 0 0 1 .078.6c0 .013-.003.023-.01.03C.061.635.051.64.037.641l.006.032H.29L.282.642a.07.07 0 0 1-.04-.027.231.231 0 0 1-.026-.073L.15.243A.524.524 0 0 1 .138.147C.138.117.145.095.16.08.174.065.196.057.224.057c.027 0 .05.006.069.018.019.012.033.03.044.051a.372.372 0 0 1 .03.087l.072.33A.22.22 0 0 1 .445.6c0 .013-.003.023-.01.03C.43.635.42.64.406.641l.007.032H.62L.613.642A.072.072 0 0 1 .57.614.225.225 0 0 1 .547.542L.48.24z"/></symbol><symbol id="p"><path d="M.257.592a.36.36 0 0 0 .087.084c.028.017.06.026.097.026a.1.1 0 0 0 .086-.04.187.187 0 0 0 .03-.116.463.463 0 0 0-.018-.13.347.347 0 0 0-.055-.113.256.256 0 0 0-.212-.1.238.238 0 0 0-.084.014L.17.13A.99.99 0 0 1 .162.075c0-.014.003-.024.01-.03A.073.073 0 0 1 .21.031L.205 0H.002l.123.55a.247.247 0 0 1 .008.048c0 .01-.002.019-.006.025C.124.628.117.63.11.63A.055.055 0 0 1 .076.618a.312.312 0 0 1-.04-.04L0 .611a.38.38 0 0 0 .086.07.17.17 0 0 0 .08.02A.09.09 0 0 0 .232.68.077.077 0 0 0 .255.62.092.092 0 0 0 .252.597L.257.592M.222.391A.334.334 0 0 1 .214.32c0-.024.004-.041.012-.051.008-.01.022-.016.04-.016.017 0 .032.004.045.01.013.008.026.02.038.037a.53.53 0 0 1 .076.26.103.103 0 0 1-.01.053.035.035 0 0 1-.033.017C.36.63.338.62.316.6A.245.245 0 0 1 .263.526.553.553 0 0 1 .226.409L.222.39z"/></symbol><use xlink:href="#o" transform="matrix(16.77265 0 0 -16.54243 173.48 100.676)"/><use xlink:href="#p" transform="matrix(16.77265 0 0 -16.54243 184.56 104.02)"/></g><clipPath id="q"><path transform="matrix(1.04463 0 0 -1.0303 172.12 114)" d="M0 .026h65.448v28.368H0z" fill-rule="evenodd"/></clipPath><g clip-path="url(#q)"><symbol id="r"><path d="M0 0z"/></symbol><use xlink:href="#r" transform="matrix(16.77265 0 0 -16.54243 194.734 100.546)"/></g><clipPath id="s"><path transform="matrix(1.04463 0 0 -1.0303 172.12 114)" d="M0 .026h65.448v28.368H0z" fill-rule="evenodd"/></clipPath><g clip-path="url(#s)"><symbol id="t"><path d="M.09.145a.118.118 0 0 1 .022-.07C.125.06.146.052.174.052.2.05.22.057.234.069c.014.013.02.03.02.054a.08.08 0 0 1-.006.034.085.085 0 0 1-.022.028.396.396 0 0 1-.051.035.236.236 0 0 0-.071.06.122.122 0 0 0-.022.071c0 .048.017.085.053.11A.254.254 0 0 0 .285.5a.553.553 0 0 0 .16-.022L.42.36H.358a.117.117 0 0 1-.024.067C.322.442.304.449.281.449A.078.078 0 0 1 .228.432a.056.056 0 0 1-.02-.045C.208.37.214.355.225.342A.29.29 0 0 1 .29.294.232.232 0 0 0 .364.231.132.132 0 0 0 .386.154.136.136 0 0 0 .36.07.155.155 0 0 0 .287.017.3.3 0 0 0 .182 0 .695.695 0 0 0 0 .023l.027.122H.09z"/></symbol><symbol id="u"><path d="M.312.097A.345.345 0 0 0 .22.02.21.21 0 0 0 .124 0C.086 0 .058.01.038.028a.105.105 0 0 0-.03.08c0 .015.001.03.004.043l.014.068.05.212H0l.01.04A.16.16 0 0 1 .06.477c.012.004.022.01.03.02a.132.132 0 0 1 .023.038.678.678 0 0 1 .026.08h.117L.23.491h.119L.334.432h-.12L.168.235A1.548 1.548 0 0 1 .15.159.27.27 0 0 1 .146.115C.146.1.149.09.154.082.16.075.168.072.18.072a.08.08 0 0 1 .045.015c.015.01.032.026.05.048L.312.097z"/></symbol><symbol id="v"><path d="M.433.16A.243.243 0 0 1 .425.104c0-.01.002-.019.006-.024C.434.074.44.07.449.07.46.07.47.076.482.085c.012.01.025.023.04.041L.559.09A.397.397 0 0 0 .47.019.169.169 0 0 0 .392 0a.091.091 0 0 0-.065.022.08.08 0 0 0-.024.06c0 .009 0 .016.003.024H.299A.531.531 0 0 0 .237.044.175.175 0 0 0 .12 0C.08 0 .05.013.03.04A.19.19 0 0 0 0 .156C0 .2.006.243.019.286.032.33.05.368.074.399a.25.25 0 0 0 .09.075A.268.268 0 0 0 .285.5C.334.5.376.488.41.465L.457.5.512.492.432.16M.337.312a.341.341 0 0 1 .008.072.082.082 0 0 1-.012.049C.323.443.31.449.292.449.262.45.234.434.21.403a.521.521 0 0 1-.078-.26C.133.119.136.1.143.089A.036.036 0 0 1 .176.072c.021 0 .043.01.065.031a.25.25 0 0 1 .054.074.54.54 0 0 1 .037.116l.004.019z"/></symbol><use xlink:href="#t" transform="matrix(16.77265 0 0 -16.54243 198.804 100.676)"/><use xlink:href="#u" transform="matrix(16.77265 0 0 -16.54243 207.74 100.676)"/><use xlink:href="#v" transform="matrix(16.77265 0 0 -16.54243 214.685 100.676)"/><use xlink:href="#u" transform="matrix(16.77265 0 0 -16.54243 225.35 100.676)"/><use xlink:href="#h" transform="matrix(16.77265 0 0 -16.54243 232.296 100.676)"/></g><clipPath id="w"><path transform="matrix(1.04463 0 0 -1.0303 172.12 114)" d="M0 .026h65.448v28.368H0z" fill-rule="evenodd"/></clipPath><g clip-path="url(#w)"><use xlink:href="#k" transform="matrix(16.77265 0 0 -16.54243 240.49 100.546)"/></g></g></g><clipPath id="x"><path transform="matrix(1 0 0 -1 0 241.8)" d="M535.5 127.8h92.239v29.254H535.5z" fill-rule="evenodd"/></clipPath><g clip-path="url(#x)"><clipPath id="y"><path transform="matrix(1.04839 0 0 -1.0303 535.5 114)" d="M0 0h87.982v28.394H0z" fill-rule="evenodd"/></clipPath><g clip-path="url(#y)"><clipPath id="z"><path transform="matrix(1.04839 0 0 -1.0303 535.5 114)" d="M0 .026h87.936v28.368H0z" fill-rule="evenodd"/></clipPath><g clip-path="url(#z)"><symbol id="A"><path d="m0 0 .007.032a.07.07 0 0 1 .04.028.231.231 0 0 1 .026.072l.089.403c.004.019.006.038.006.057 0 .013-.003.023-.01.03-.006.006-.016.01-.03.012l.006.033h.198a.752.752 0 0 0 .129-.01.273.273 0 0 0 .08-.026.206.206 0 0 0 .058-.042A.197.197 0 0 0 .64.518a.29.29 0 0 0 .015-.1.52.52 0 0 0-.014-.125.43.43 0 0 0-.044-.11A.348.348 0 0 0 .36.009.666.666 0 0 0 .24 0H0m.202.06A.437.437 0 0 1 .238.058c.042 0 .078.008.109.025.03.016.057.041.08.075a.402.402 0 0 1 .056.125.55.55 0 0 1 .02.148.274.274 0 0 1-.01.084A.143.143 0 0 1 .46.57.109.109 0 0 1 .416.6.162.162 0 0 1 .36.61L.323.607.203.06z"/></symbol><symbol id="B"><path d="M.73.492.747.459a1.12 1.12 0 0 0-.1-.192A3.369 3.369 0 0 0 .462 0H.38L.365.145a2.28 2.28 0 0 0-.01.135H.35A1.899 1.899 0 0 0 .18 0h-.09L.052.375a.252.252 0 0 1-.009.05.047.047 0 0 1-.014.025A.049.049 0 0 1 0 .46l.007.032h.17L.206.137c.048.076.082.136.102.18.02.045.031.093.036.142L.35.492h.11L.49.137C.537.208.572.266.593.31a.27.27 0 0 1 .032.11c0 .012-.003.022-.009.028C.61.455.6.459.586.459l.006.033H.73z"/></symbol><symbol id="C"><path d="M.035.375 0 .41a.38.38 0 0 0 .086.07.17.17 0 0 0 .08.02.09.09 0 0 0 .065-.023.077.077 0 0 0 .024-.06.092.092 0 0 0-.003-.023L.257.39c.03.038.06.066.087.084C.372.49.404.5.441.5.474.5.5.49.52.472A.103.103 0 0 0 .548.395a.373.373 0 0 0-.01-.08L.499.161A.237.237 0 0 1 .491.104C.49.092.493.083.497.078A.023.023 0 0 1 .515.071c.01 0 .02.004.032.013a.32.32 0 0 1 .041.041L.624.09A.38.38 0 0 0 .538.02.17.17 0 0 0 .455 0C.42 0 .395.008.379.025.363.043.355.068.355.101c0 .024.005.054.014.091l.022.081a.923.923 0 0 1 .02.112C.41.4.408.411.4.418a.033.033 0 0 1-.026.01C.359.429.341.42.32.4A.261.261 0 0 1 .271.34a.272.272 0 0 1-.03-.082L.188.008h-.14l.078.34a.234.234 0 0 1 .008.048C.133.406.13.415.127.42.124.426.117.43.11.43A.055.055 0 0 1 .076.415a.312.312 0 0 1-.04-.041z"/></symbol><use xlink:href="#A" transform="matrix(16.83292 0 -.00003 -16.54243 535.968 100.546)"/><use xlink:href="#e" transform="matrix(16.83292 0 -.00003 -16.54243 548.86 100.676)"/><use xlink:href="#B" transform="matrix(16.83292 0 -.00003 -16.54243 558.003 100.668)"/><use xlink:href="#C" transform="matrix(16.83292 0 -.00003 -16.54243 571.046 100.676)"/></g><clipPath id="D"><path transform="matrix(1.04839 0 0 -1.0303 535.5 114)" d="M0 .026h87.936v28.368H0z" fill-rule="evenodd"/></clipPath><g clip-path="url(#D)"><use xlink:href="#r" transform="matrix(16.83292 0 -.00003 -16.54243 581.847 100.546)"/></g><clipPath id="E"><path transform="matrix(1.04839 0 0 -1.0303 535.5 114)" d="M0 .026h87.936v28.368H0z" fill-rule="evenodd"/></clipPath><g clip-path="url(#E)"><use xlink:href="#t" transform="matrix(16.83292 0 -.00003 -16.54243 586.032 100.676)"/><use xlink:href="#u" transform="matrix(16.83292 0 -.00003 -16.54243 595 100.676)"/><use xlink:href="#v" transform="matrix(16.83292 0 -.00003 -16.54243 601.97 100.676)"/><use xlink:href="#u" transform="matrix(16.83292 0 -.00003 -16.54243 612.506 100.676)"/><use xlink:href="#h" transform="matrix(16.83292 0 -.00003 -16.54243 619.477 100.676)"/></g><clipPath id="F"><path transform="matrix(1.04839 0 0 -1.0303 535.5 114)" d="M0 .026h87.936v28.368H0z" fill-rule="evenodd"/></clipPath><g clip-path="url(#F)"><use xlink:href="#k" transform="matrix(16.83292 0 -.00003 -16.54243 627.691 100.546)"/></g></g></g><clipPath id="G"><path transform="matrix(1 0 0 -1 0 241.8)" d="M155.7 111.68h96.75V75.676H155.7v36.004z" fill-rule="evenodd"/></clipPath><g clip-path="url(#G)"><clipPath id="H"><path transform="matrix(1.0496 0 0 -1.03845 155.7 166.124)" d="M0 0h92.175v34.667H0z" fill-rule="evenodd"/></clipPath><g clip-path="url(#H)"><clipPath id="I"><path transform="matrix(1.0496 0 0 -1.03845 155.7 166.124)" d="M0 .083h92.256v34.584H0z" fill-rule="evenodd"/></clipPath><g clip-path="url(#I)"><symbol id="J"><path d="M.44.305A.181.181 0 0 0 .482.26.21.21 0 0 0 .505.194L.52.126A.318.318 0 0 1 .534.073a.078.078 0 0 1 .02-.026.083.083 0 0 1 .032-.015L.58 0H.405a.78.78 0 0 0-.028.109l-.016.08a.27.27 0 0 1-.016.059.067.067 0 0 1-.023.03.069.069 0 0 1-.038.01h-.03L.217.131A.34.34 0 0 1 .212.075C.212.06.216.049.223.043A.064.064 0 0 1 .26.033L.252 0H0l.007.032a.07.07 0 0 1 .04.028.231.231 0 0 1 .026.072l.089.403c.004.019.006.038.006.057 0 .013-.003.023-.01.03-.006.006-.016.01-.03.012l.006.033h.244A.801.801 0 0 0 .46.663.23.23 0 0 0 .523.648.153.153 0 0 0 .573.62.12.12 0 0 0 .605.575.187.187 0 0 0 .571.391.296.296 0 0 0 .44.31V.305m-.142.04c.042 0 .075.006.098.018a.14.14 0 0 1 .057.06.195.195 0 0 1 .02.092C.473.547.466.57.45.585.433.603.408.61.373.61h-.05L.266.343h.03z"/></symbol><symbol id="K"><path d="m.139.642.008.04c.023 0 .039.001.048.004.01.003.017.008.023.016a.127.127 0 0 1 .017.044c.008.03.019.056.031.076A.188.188 0 0 0 .384.91a.458.458 0 0 0 .18.002L.541.813H.479a.099.099 0 0 1-.01.043C.464.864.455.869.444.869A.04.04 0 0 1 .413.855a.11.11 0 0 1-.02-.037.526.526 0 0 1-.018-.062L.363.703h.105L.455.642H.35L.26.233A.347.347 0 0 0 .178.058.195.195 0 0 0 .034 0C.02 0 .008 0 0 .002l.012.055A.12.12 0 0 1 .029.056c.019 0 .034.01.046.03.013.02.023.052.033.093l.104.463H.14z"/></symbol><use xlink:href="#J" transform="matrix(16.82704 0 0 -16.64843 167.907 146)"/><use xlink:href="#h" transform="matrix(16.82704 0 0 -16.64843 179.912 146.13)"/><use xlink:href="#K" transform="matrix(16.82704 0 0 -16.64843 188.18 149.634)"/></g><clipPath id="L"><path transform="matrix(1.0496 0 0 -1.03845 155.7 166.124)" d="M0 .083h92.256v34.584H0z" fill-rule="evenodd"/></clipPath><g clip-path="url(#L)"><symbol id="M"><path d="M0 0v.073l.53.23-.53.23v.073L.604.337V.27L0 0z"/></symbol><use xlink:href="#M" transform="matrix(16.82704 0 0 -16.64843 203.702 146.293)"/></g><clipPath id="N"><path transform="matrix(1.0496 0 0 -1.03845 155.7 166.124)" d="M0 .083h92.256v34.584H0z" fill-rule="evenodd"/></clipPath><g clip-path="url(#N)"><symbol id="O"><path d="M.218.132A.31.31 0 0 1 .212.075C.212.06.216.049.223.043A.064.064 0 0 1 .26.033L.252 0H0l.007.032a.07.07 0 0 1 .04.028.231.231 0 0 1 .026.072l.089.403c.004.019.006.038.006.057 0 .013-.003.023-.01.03-.006.006-.016.01-.03.012l.006.033h.462L.562.509H.499A.271.271 0 0 1 .49.574a.049.049 0 0 1-.02.027.07.07 0 0 1-.036.008h-.11L.27.365h.065a.06.06 0 0 1 .046.019.205.205 0 0 1 .036.06h.054L.42.226H.37c0 .023-.002.04-.004.05a.04.04 0 0 1-.013.025C.347.306.337.308.324.308H.257L.218.132z"/></symbol><symbol id="P"><path d="M.219.408.225.406a.335.335 0 0 0 .08.072A.174.174 0 0 0 .394.5.101.101 0 0 0 .48.46.187.187 0 0 0 .51.344.49.49 0 0 0 .473.158a.298.298 0 0 0-.045-.07A.245.245 0 0 0 .3.01.312.312 0 0 0 .16.008a.224.224 0 0 0-.061.027L.053 0 0 .008.124.56a.35.35 0 0 1 .01.07C.134.64.132.646.129.65a.024.024 0 0 1-.012.01.184.184 0 0 1-.032.006L.093.7l.143.008h.057L.22.408M.175.188a.334.334 0 0 1-.008-.07C.167.094.171.077.18.066.187.056.201.051.22.051c.017 0 .032.003.045.01.014.008.026.02.038.037a.53.53 0 0 1 .076.26.103.103 0 0 1-.01.053.035.035 0 0 1-.033.017C.313.428.292.418.269.396A.245.245 0 0 1 .216.324.553.553 0 0 1 .179.207L.175.188z"/></symbol><use xlink:href="#O" transform="matrix(16.82704 0 0 -16.64843 220.227 146)"/><use xlink:href="#P" transform="matrix(16.82704 0 0 -16.64843 231.115 146.13)"/></g><clipPath id="Q"><path transform="matrix(1.0496 0 0 -1.03845 155.7 166.124)" d="M0 .083h92.256v34.584H0z" fill-rule="evenodd"/></clipPath><g clip-path="url(#Q)"><use xlink:href="#k" transform="matrix(16.82704 0 0 -16.64843 240.692 146)"/></g></g></g><clipPath id="R"><path transform="matrix(1 0 0 -1 0 241.8)" d="M346.87 114.68h96.75V85.427h-96.75v29.253z" fill-rule="evenodd"/></clipPath><g clip-path="url(#R)"><clipPath id="S"><path transform="matrix(1.0496 0 0 -1.0303 346.87 156.373)" d="M0 0h92.175v28.394H0z" fill-rule="evenodd"/></clipPath><g clip-path="url(#S)"><clipPath id="T"><path transform="matrix(1.0496 0 0 -1.0303 346.87 156.373)" d="M0 .026h92.256v28.368H0z" fill-rule="evenodd"/></clipPath><g clip-path="url(#T)"><use xlink:href="#J" transform="matrix(16.85223 0 -.00002 -16.54243 359.078 142.92)"/><use xlink:href="#h" transform="matrix(16.85223 0 -.00002 -16.54243 371.101 143.049)"/><use xlink:href="#K" transform="matrix(16.85223 0 -.00002 -16.54243 379.382 146.53)"/></g><clipPath id="U"><path transform="matrix(1.0496 0 0 -1.0303 346.87 156.373)" d="M0 .026h92.256v28.368H0z" fill-rule="evenodd"/></clipPath><g clip-path="url(#U)"><symbol id="V"><path d="M0 .203v.065h.602V.203H0M0 0v.065h.602V0H0m.622.134z"/></symbol><use xlink:href="#V" transform="matrix(16.85223 0 -.00002 -16.54243 395 140.407)"/></g><clipPath id="W"><path transform="matrix(1.0496 0 0 -1.0303 346.87 156.373)" d="M0 .026h92.256v28.368H0z" fill-rule="evenodd"/></clipPath><g clip-path="url(#W)"><use xlink:href="#O" transform="matrix(16.85223 0 -.00002 -16.54243 411.398 142.92)"/></g><clipPath id="X"><path transform="matrix(1.0496 0 0 -1.0303 346.87 156.373)" d="M0 .026h92.256v28.368H0z" fill-rule="evenodd"/></clipPath><g clip-path="url(#X)"><use xlink:href="#P" transform="matrix(16.85223 0 -.00002 -16.54243 422.391 143.049)"/></g><clipPath id="Y"><path transform="matrix(1.0496 0 0 -1.0303 346.87 156.373)" d="M0 .026h92.256v28.368H0z" fill-rule="evenodd"/></clipPath><g clip-path="url(#Y)"><use xlink:href="#k" transform="matrix(16.85223 0 -.00002 -16.54243 431.862 142.92)"/></g></g></g><clipPath id="Z"><path transform="matrix(1 0 0 -1 0 241.8)" d="M531.3 115.22h96.74V85.966H531.3v29.254z" fill-rule="evenodd"/></clipPath><g clip-path="url(#Z)"><clipPath id="aa"><path transform="matrix(1.0496 0 0 -1.0303 531.3 155.834)" d="M0 0h92.175v28.394H0z" fill-rule="evenodd"/></clipPath><g clip-path="url(#aa)"><clipPath id="ab"><path transform="matrix(1.0496 0 0 -1.0303 531.3 155.834)" d="M0 .026h92.256v28.368H0z" fill-rule="evenodd"/></clipPath><g clip-path="url(#ab)"><use xlink:href="#J" transform="matrix(16.85223 0 -.00003 -16.54243 543.508 142.38)"/><use xlink:href="#h" transform="matrix(16.85223 0 -.00003 -16.54243 555.531 142.51)"/><use xlink:href="#K" transform="matrix(16.85223 0 -.00003 -16.54243 563.812 145.991)"/></g><clipPath id="ac"><path transform="matrix(1.0496 0 0 -1.0303 531.3 155.834)" d="M0 .026h92.256v28.368H0z" fill-rule="evenodd"/></clipPath><g clip-path="url(#ac)"><symbol id="ad"><path d="M0 .269v.068l.604.27V.532l-.53-.23.53-.23V0L0 .269z"/></symbol><use xlink:href="#ad" transform="matrix(16.85223 0 -.00003 -16.54243 579.304 142.671)"/></g><clipPath id="ae"><path transform="matrix(1.0496 0 0 -1.0303 531.3 155.834)" d="M0 .026h92.256v28.368H0z" fill-rule="evenodd"/></clipPath><g clip-path="url(#ae)"><use xlink:href="#O" transform="matrix(16.85223 0 -.00003 -16.54243 595.828 142.38)"/></g><clipPath id="af"><path transform="matrix(1.0496 0 0 -1.0303 531.3 155.834)" d="M0 .026h92.256v28.368H0z" fill-rule="evenodd"/></clipPath><g clip-path="url(#af)"><use xlink:href="#P" transform="matrix(16.85223 0 -.00003 -16.54243 606.822 142.51)"/></g><clipPath id="ag"><path transform="matrix(1.0496 0 0 -1.0303 531.3 155.834)" d="M0 .026h92.256v28.368H0z" fill-rule="evenodd"/></clipPath><g clip-path="url(#ag)"><use xlink:href="#k" transform="matrix(16.85223 0 -.00003 -16.54243 616.292 142.38)"/></g></g></g><path stroke-width="3" stroke-linecap="round" stroke-linejoin="round" fill="none" stroke="#000" d="M247.13 65.87c18.84-10.54 42.83-15.68 64.66-14.04 13.83 1.04 26.79 4.8 37.52 11.56"/><path d="m351.5 58.2 1.47 7.67-7.67 1.46 6.2-9.13z" fill-rule="evenodd"/><path stroke-width="3" stroke-linecap="round" stroke-linejoin="round" fill="none" stroke="#000" d="M435.69 65.55c18.84-10.54 42.83-15.68 64.66-14.04 13.83 1.04 26.8 4.8 37.53 11.56"/><path d="m540.06 57.88 1.47 7.67-7.67 1.46 6.2-9.13z" fill-rule="evenodd"/><path stroke-width="3" stroke-linecap="round" stroke-linejoin="round" fill="none" stroke="#000" d="M536.68 172.243c-18.85 10.536-42.84 15.674-64.67 14.036-13.83-1.038-26.79-4.796-37.52-11.554"/><path d="m432.3 179.911-1.46-7.668 7.67-1.464-6.21 9.132z" fill-rule="evenodd"/><path stroke-width="3" stroke-linecap="round" stroke-linejoin="round" fill="none" stroke="#000" d="M352.79 171.27c-18.85 10.536-42.84 15.674-64.67 14.036-13.83-1.038-26.79-4.796-37.52-11.554"/><path d="m248.41 178.938-1.46-7.668 7.67-1.464-6.21 9.132z" fill-rule="evenodd"/><clipPath id="ah"><path transform="matrix(1 0 0 -1 0 241.8)" d="M0 241.8h778.08V0H0" fill-rule="evenodd"/></clipPath><g clip-path="url(#ah)"><path stroke-width="3" stroke-linecap="round" stroke-linejoin="round" fill="none" stroke="#000" d="M164.86 168.853c-46.01-8.439-70.283-24.455-66.187-43.053 2.777-12.61 18.587-26.4 49.067-40.25"/></g><clipPath id="ai"><path transform="matrix(1 0 0 -1 0 241.8)" d="M0 241.8h778.08V0H0" fill-rule="evenodd"/></clipPath><g clip-path="url(#ai)"><path d="m144.49 80.95 7.29 2.8-2.8 7.29-4.49-10.09z" fill-rule="evenodd"/></g><clipPath id="aj"><path transform="matrix(1 0 0 -1 0 241.8)" d="M0 241.8h778.08V0H0" fill-rule="evenodd"/></clipPath><g clip-path="url(#aj)"><path stroke-width="3" stroke-linecap="round" stroke-linejoin="round" fill="none" stroke="#000" d="M621.17 170.703c46.01-8.439 70.28-24.456 66.19-43.053-2.78-12.61-18.59-26.4-49.07-40.25"/></g><clipPath id="ak"><path transform="matrix(1 0 0 -1 0 241.8)" d="M0 241.8h778.08V0H0" fill-rule="evenodd"/></clipPath><g clip-path="url(#ak)"><path d="m641.54 82.8-7.29 2.8 2.8 7.29 4.49-10.09z" fill-rule="evenodd"/></g><clipPath id="al"><path transform="matrix(1 0 0 -1 0 241.8)" d="M252.37 223.43h96.75v-32.26h-96.75v32.26z" fill-rule="evenodd"/></clipPath><g clip-path="url(#al)"><clipPath id="am"><path transform="matrix(1.0496 0 0 -1.04234 252.37 50.63)" d="M0 0h92.175v30.948H0z" fill-rule="evenodd"/></clipPath><g clip-path="url(#am)"><clipPath id="an"><path transform="matrix(1.0496 0 0 -1.04234 252.37 50.63)" d="M0 .108h92.256v30.84H0z" fill-rule="evenodd"/></clipPath><g clip-path="url(#an)"><symbol id="ao"><path d="M.16 0v.622L.03.52 0 .549l.178.182H.21L.39.549.36.52.23.622V0H.16z"/></symbol><use xlink:href="#ao" transform="matrix(18.9682 0 -.00002 -18.8372 275.313 36.48)"/></g><clipPath id="ap"><path transform="matrix(1.0496 0 0 -1.04234 252.37 50.63)" d="M0 .108h92.256v30.84H0z" fill-rule="evenodd"/></clipPath><g clip-path="url(#ap)"><use xlink:href="#r" transform="matrix(18.9682 0 -.00002 -18.8372 288.568 36.333)"/></g><clipPath id="aq"><path transform="matrix(1.0496 0 0 -1.04234 252.37 50.63)" d="M0 .108h92.256v30.84H0z" fill-rule="evenodd"/></clipPath><g clip-path="url(#aq)"><use xlink:href="#J" transform="matrix(18.9682 0 -.00002 -18.8372 293.379 36.333)"/><use xlink:href="#h" transform="matrix(18.9682 0 -.00002 -18.8372 307.1 36.48)"/><use xlink:href="#K" transform="matrix(18.9682 0 -.00002 -18.8372 316.232 40.445)"/></g><clipPath id="ar"><path transform="matrix(1.0496 0 0 -1.04234 252.37 50.63)" d="M0 .108h92.256v30.84H0z" fill-rule="evenodd"/></clipPath><g clip-path="url(#ar)"><use xlink:href="#k" transform="matrix(16.82704 0 -.00001 -16.71082 327.008 36.333)"/></g></g></g><clipPath id="as"><path transform="matrix(1 0 0 -1 0 241.8)" d="M252.37 50.554h96.75V18.296h-96.75v32.258z" fill-rule="evenodd"/></clipPath><g clip-path="url(#as)"><clipPath id="at"><path transform="matrix(1.0496 0 0 -1.04234 252.37 223.504)" d="M0 0h92.175v30.948H0z" fill-rule="evenodd"/></clipPath><g clip-path="url(#at)"><clipPath id="au"><path transform="matrix(1.0496 0 0 -1.04234 252.37 223.504)" d="M0 .108h92.256v30.84H0z" fill-rule="evenodd"/></clipPath><g clip-path="url(#au)"><symbol id="av"><path d="M.23.73V.11L.36.214l.03-.03L.21 0H.179L0 .182l.029.032L.16.11V.73h.07z"/></symbol><use xlink:href="#av" transform="matrix(18.9682 0 -.00002 -18.8372 275.303 209.345)"/></g><clipPath id="aw"><path transform="matrix(1.0496 0 0 -1.04234 252.37 223.504)" d="M0 .108h92.256v30.84H0z" fill-rule="evenodd"/></clipPath><g clip-path="url(#aw)"><use xlink:href="#r" transform="matrix(18.9682 0 -.00002 -18.8372 288.568 209.207)"/></g><clipPath id="ax"><path transform="matrix(1.0496 0 0 -1.04234 252.37 223.504)" d="M0 .108h92.256v30.84H0z" fill-rule="evenodd"/></clipPath><g clip-path="url(#ax)"><use xlink:href="#J" transform="matrix(18.9682 0 -.00002 -18.8372 293.379 209.207)"/><use xlink:href="#h" transform="matrix(18.9682 0 -.00002 -18.8372 307.1 209.354)"/><use xlink:href="#K" transform="matrix(18.9682 0 -.00002 -18.8372 316.232 213.319)"/></g><clipPath id="ay"><path transform="matrix(1.0496 0 0 -1.04234 252.37 223.504)" d="M0 .108h92.256v30.84H0z" fill-rule="evenodd"/></clipPath><g clip-path="url(#ay)"><use xlink:href="#k" transform="matrix(16.82704 0 -.00001 -16.71082 327.008 209.207)"/></g></g></g><clipPath id="az"><path transform="matrix(1 0 0 -1 0 241.8)" d="M432.37 223.43h96.75v-32.26h-96.75v32.26z" fill-rule="evenodd"/></clipPath><g clip-path="url(#az)"><clipPath id="aA"><path transform="matrix(1.0496 0 0 -1.04234 432.37 50.63)" d="M0 0h92.175v30.948H0z" fill-rule="evenodd"/></clipPath><g clip-path="url(#aA)"><clipPath id="aB"><path transform="matrix(1.0496 0 0 -1.04234 432.37 50.63)" d="M0 .108h92.256v30.84H0z" fill-rule="evenodd"/></clipPath><g clip-path="url(#aB)"><use xlink:href="#ao" transform="matrix(18.9682 0 -.00002 -18.8372 460.603 36.48)"/></g><clipPath id="aC"><path transform="matrix(1.0496 0 0 -1.04234 432.37 50.63)" d="M0 .108h92.256v30.84H0z" fill-rule="evenodd"/></clipPath><g clip-path="url(#aC)"><use xlink:href="#r" transform="matrix(18.9682 0 -.00002 -18.8372 473.984 36.333)"/></g><clipPath id="aD"><path transform="matrix(1.0496 0 0 -1.04234 432.37 50.63)" d="M0 .108h92.256v30.84H0z" fill-rule="evenodd"/></clipPath><g clip-path="url(#aD)"><use xlink:href="#O" transform="matrix(18.9682 0 -.00002 -18.8372 478.668 36.333)"/></g><clipPath id="aE"><path transform="matrix(1.0496 0 0 -1.04234 432.37 50.63)" d="M0 .108h92.256v30.84H0z" fill-rule="evenodd"/></clipPath><g clip-path="url(#aE)"><use xlink:href="#P" transform="matrix(18.9682 0 -.00002 -18.8372 491.11 36.48)"/></g><clipPath id="aF"><path transform="matrix(1.0496 0 0 -1.04234 432.37 50.63)" d="M0 .108h92.256v30.84H0z" fill-rule="evenodd"/></clipPath><g clip-path="url(#aF)"><use xlink:href="#k" transform="matrix(16.82704 0 -.00001 -16.71082 501.719 36.333)"/></g></g></g><clipPath id="aG"><path transform="matrix(1 0 0 -1 0 241.8)" d="M435.75 50.554h96.74V18.296h-96.74v32.258z" fill-rule="evenodd"/></clipPath><g clip-path="url(#aG)"><clipPath id="aH"><path transform="matrix(1.0496 0 0 -1.04234 435.75 223.504)" d="M0 0h92.175v30.948H0z" fill-rule="evenodd"/></clipPath><g clip-path="url(#aH)"><clipPath id="aI"><path transform="matrix(1.0496 0 0 -1.04234 435.75 223.504)" d="M0 .108h92.256v30.84H0z" fill-rule="evenodd"/></clipPath><g clip-path="url(#aI)"><use xlink:href="#av" transform="matrix(18.9682 0 -.00002 -18.8372 463.973 209.345)"/></g><clipPath id="aJ"><path transform="matrix(1.0496 0 0 -1.04234 435.75 223.504)" d="M0 .108h92.256v30.84H0z" fill-rule="evenodd"/></clipPath><g clip-path="url(#aJ)"><use xlink:href="#r" transform="matrix(18.9682 0 -.00002 -18.8372 477.364 209.207)"/></g><clipPath id="aK"><path transform="matrix(1.0496 0 0 -1.04234 435.75 223.504)" d="M0 .108h92.256v30.84H0z" fill-rule="evenodd"/></clipPath><g clip-path="url(#aK)"><use xlink:href="#O" transform="matrix(18.9682 0 -.00002 -18.8372 482.048 209.207)"/><use xlink:href="#P" transform="matrix(18.9682 0 -.00002 -18.8372 494.512 209.354)"/></g><clipPath id="aL"><path transform="matrix(1.0496 0 0 -1.04234 435.75 223.504)" d="M0 .108h92.256v30.84H0z" fill-rule="evenodd"/></clipPath><g clip-path="url(#aL)"><use xlink:href="#k" transform="matrix(16.82704 0 -.00001 -16.71082 505.099 209.207)"/></g></g></g><clipPath id="aM"><path transform="matrix(1 0 0 -1 0 241.8)" d="M18.375 88.425h96.746v32.258H18.375z" fill-rule="evenodd"/></clipPath><g clip-path="url(#aM)"><clipPath id="aN"><path transform="matrix(1.0496 0 0 -1.04234 18.375 153.375)" d="M0 0h92.175v30.948H0z" fill-rule="evenodd"/></clipPath><g clip-path="url(#aN)"><clipPath id="aO"><path transform="matrix(1.0496 0 0 -1.04234 18.375 153.375)" d="M0 .108h92.256v30.84H0z" fill-rule="evenodd"/></clipPath><g clip-path="url(#aO)"><use xlink:href="#ao" transform="matrix(18.9682 0 0 -18.8372 41.318 139.225)"/></g><clipPath id="aP"><path transform="matrix(1.0496 0 0 -1.04234 18.375 153.375)" d="M0 .108h92.256v30.84H0z" fill-rule="evenodd"/></clipPath><g clip-path="url(#aP)"><use xlink:href="#r" transform="matrix(18.9682 0 0 -18.8372 54.573 139.078)"/></g><clipPath id="aQ"><path transform="matrix(1.0496 0 0 -1.04234 18.375 153.375)" d="M0 .108h92.256v30.84H0z" fill-rule="evenodd"/></clipPath><g clip-path="url(#aQ)"><use xlink:href="#J" transform="matrix(18.9682 0 0 -18.8372 59.384 139.078)"/><use xlink:href="#h" transform="matrix(18.9682 0 0 -18.8372 73.105 139.225)"/><use xlink:href="#K" transform="matrix(18.9682 0 0 -18.8372 82.237 143.19)"/></g><clipPath id="aR"><path transform="matrix(1.0496 0 0 -1.04234 18.375 153.375)" d="M0 .108h92.256v30.84H0z" fill-rule="evenodd"/></clipPath><g clip-path="url(#aR)"><use xlink:href="#k" transform="matrix(16.82704 0 0 -16.71082 93.014 139.078)"/></g></g></g><clipPath id="aS"><path transform="matrix(1 0 0 -1 0 241.8)" d="M663 120.68h96.74V88.425H663v32.255z" fill-rule="evenodd"/></clipPath><g clip-path="url(#aS)"><clipPath id="aT"><path transform="matrix(1.0496 0 0 -1.04234 663 153.375)" d="M0 0h92.175v30.948H0z" fill-rule="evenodd"/></clipPath><g clip-path="url(#aT)"><clipPath id="aU"><path transform="matrix(1.0496 0 0 -1.04234 663 153.375)" d="M0 .108h92.256v30.84H0z" fill-rule="evenodd"/></clipPath><g clip-path="url(#aU)"><use xlink:href="#ao" transform="matrix(18.9682 0 -.00003 -18.8372 691.233 139.225)"/></g><clipPath id="aV"><path transform="matrix(1.0496 0 0 -1.04234 663 153.375)" d="M0 .108h92.256v30.84H0z" fill-rule="evenodd"/></clipPath><g clip-path="url(#aV)"><use xlink:href="#r" transform="matrix(18.9682 0 -.00003 -18.8372 704.614 139.078)"/></g><clipPath id="aW"><path transform="matrix(1.0496 0 0 -1.04234 663 153.375)" d="M0 .108h92.256v30.84H0z" fill-rule="evenodd"/></clipPath><g clip-path="url(#aW)"><use xlink:href="#O" transform="matrix(18.9682 0 -.00003 -18.8372 709.298 139.078)"/></g><clipPath id="aX"><path transform="matrix(1.0496 0 0 -1.04234 663 153.375)" d="M0 .108h92.256v30.84H0z" fill-rule="evenodd"/></clipPath><g clip-path="url(#aX)"><use xlink:href="#P" transform="matrix(18.9682 0 -.00003 -18.8372 721.74 139.225)"/></g><clipPath id="aY"><path transform="matrix(1.0496 0 0 -1.04234 663 153.375)" d="M0 .108h92.256v30.84H0z" fill-rule="evenodd"/></clipPath><g clip-path="url(#aY)"><use xlink:href="#k" transform="matrix(16.82704 0 -.00003 -16.71082 732.349 139.078)"/></g></g></g></svg>