<svg xmlns="http://www.w3.org/2000/svg" xmlns:xlink="http://www.w3.org/1999/xlink" width="614.56" height="397.12" viewBox="0 0 460.92 297.84"><clipPath id="a"><path transform="matrix(1 0 0 -1 0 297.84)" d="M0 297.84h460.92V0H0" fill-rule="evenodd"/></clipPath><g clip-path="url(#a)"><path stroke-width="2" stroke-linecap="round" stroke-linejoin="round" fill="none" stroke="#000" d="M256.52 245.25v18.562"/></g><path stroke-width="2" stroke-linecap="round" stroke-linejoin="round" fill="none" stroke="#000" d="M250.62 263.812h11.25M252.58 266.906h7.47M255.34 270h2.21"/><clipPath id="b"><path transform="matrix(1 0 0 -1 0 297.84)" d="M0 297.84h460.92V0H0" fill-rule="evenodd"/></clipPath><g clip-path="url(#b)"><path stroke-width="2" stroke-linecap="round" stroke-linejoin="round" fill="none" stroke="#000" d="M256.52 245.25v18.562"/></g><path stroke-width="2" stroke-linecap="round" stroke-linejoin="round" fill="none" stroke="#000" d="M250.62 263.812h11.25M252.58 266.906h7.47M255.34 270h2.21"/><clipPath id="c"><path transform="matrix(1 0 0 -1 0 297.84)" d="M246.56 273.79h26.25v-54.74h-26.25v54.74z" fill-rule="evenodd"/></clipPath><g clip-path="url(#c)"><clipPath id="d"><path transform="matrix(1.03662 0 0 -1.047 246.56 78.79)" d="M0 0h25.322v52.279H0z" fill-rule="evenodd"/></clipPath><g clip-path="url(#d)"><clipPath id="e"><path transform="matrix(1.03662 0 0 -1.047 246.56 78.79)" d="M0-.089h25.32V52.28H0z" fill-rule="evenodd"/></clipPath><g clip-path="url(#e)"><symbol id="f"><path d="M.366.457a.83.83 0 0 1 .047.095.137.137 0 0 1 .008.045c0 .024-.013.037-.041.04L.387.67h.208L.588.638a.08.08 0 0 1-.03-.014.11.11 0 0 1-.025-.025A.58.58 0 0 1 .5.545L.197 0H.074l-.02.522a.517.517 0 0 1-.005.05.133.133 0 0 1-.009.036.046.046 0 0 1-.016.02.051.051 0 0 1-.024.01L.007.67H.26L.252.638A.062.062 0 0 1 .22.627.053.053 0 0 1 .202.602.168.168 0 0 1 .197.555V.511L.201.34.203.16h.005l.158.297z"/></symbol><use xlink:href="#f" transform="matrix(14.60388 0 0 -14.75017 247.486 38.1)"/></g><clipPath id="g"><path transform="matrix(1.03662 0 0 -1.047 246.56 78.79)" d="M0-.089h25.32V52.28H0z" fill-rule="evenodd"/></clipPath><g clip-path="url(#g)"><symbol id="h"><path d="m0 0 .007.032a.07.07 0 0 1 .04.028.231.231 0 0 1 .026.072l.089.403c.004.019.006.038.006.057 0 .013-.003.023-.01.03-.006.006-.016.01-.03.012l.006.033h.198a.752.752 0 0 0 .129-.01.273.273 0 0 0 .08-.026.206.206 0 0 0 .058-.042A.197.197 0 0 0 .64.518a.29.29 0 0 0 .015-.1.52.52 0 0 0-.014-.125.43.43 0 0 0-.044-.11A.348.348 0 0 0 .36.009.666.666 0 0 0 .24 0H0m.202.06A.437.437 0 0 1 .238.058c.042 0 .078.008.109.025.03.016.057.041.08.075a.402.402 0 0 1 .056.125.55.55 0 0 1 .02.148.274.274 0 0 1-.01.084A.143.143 0 0 1 .46.57.109.109 0 0 1 .416.6.162.162 0 0 1 .36.61L.323.607.203.06z"/></symbol><use xlink:href="#h" transform="matrix(10.3496 0 0 -10.45327 256.6 41.065)"/><use xlink:href="#h" transform="matrix(10.3496 0 0 -10.45327 264.466 41.065)"/></g><clipPath id="i"><path transform="matrix(1.03662 0 0 -1.047 246.56 78.79)" d="M0-.089h25.32V52.28H0z" fill-rule="evenodd"/></clipPath><g clip-path="url(#i)"><symbol id="j"><path d="M0 0z"/></symbol><use xlink:href="#j" transform="matrix(14.60388 0 0 -14.75017 272.558 38.05)"/></g><clipPath id="k"><path transform="matrix(1.03662 0 0 -1.047 246.56 78.79)" d="M0-.089h25.32V52.28H0z" fill-rule="evenodd"/></clipPath><g clip-path="url(#k)"><use xlink:href="#j" transform="matrix(14.60388 0 0 -14.75017 246.56 65.012)"/></g></g></g><path stroke-width="2" stroke-linecap="round" stroke-linejoin="round" fill="none" stroke="#000" d="M139.25 210.937v7.313c-4.5-.099-9-.099-13.5 0"/><clipPath id="l"><path transform="matrix(1 0 0 -1 0 297.84)" d="M0 297.84h460.92V0H0" fill-rule="evenodd"/></clipPath><g clip-path="url(#l)"><path stroke-width="2" stroke-linecap="round" stroke-linejoin="round" fill="none" stroke="#000" d="M125.75 215.325V238.5"/></g><path stroke-width="2" stroke-linecap="round" stroke-linejoin="round" fill="none" stroke="#000" d="M125.75 236.25h13.5v9"/><clipPath id="m"><path transform="matrix(1 0 0 -1 0 297.84)" d="M0 297.84h460.92V0H0" fill-rule="evenodd"/></clipPath><g clip-path="url(#m)"><path stroke-width="2" stroke-linecap="round" stroke-linejoin="round" fill="none" stroke="#000" d="M121.25 216v22.5"/></g><path stroke-width="2" stroke-linecap="round" stroke-linejoin="round" fill="none" stroke="#000" d="M103.25 227.25h18M125.82 236.25h6.78"/><path d="m131.65 232.45 7.6 3.8-7.6 3.8v-7.6z" fill-rule="evenodd"/><path stroke-width="2" stroke-linecap="round" stroke-linejoin="round" fill="none" stroke="#000" d="M139.25 210.937v7.313c-4.5-.099-9-.099-13.5 0"/><clipPath id="n"><path transform="matrix(1 0 0 -1 0 297.84)" d="M0 297.84h460.92V0H0" fill-rule="evenodd"/></clipPath><g clip-path="url(#n)"><path stroke-width="2" stroke-linecap="round" stroke-linejoin="round" fill="none" stroke="#000" d="M125.75 215.325V238.5"/></g><path stroke-width="2" stroke-linecap="round" stroke-linejoin="round" fill="none" stroke="#000" d="M125.75 236.25h13.5v9"/><clipPath id="o"><path transform="matrix(1 0 0 -1 0 297.84)" d="M0 297.84h460.92V0H0" fill-rule="evenodd"/></clipPath><g clip-path="url(#o)"><path stroke-width="2" stroke-linecap="round" stroke-linejoin="round" fill="none" stroke="#000" d="M121.25 216v22.5"/></g><path stroke-width="2" stroke-linecap="round" stroke-linejoin="round" fill="none" stroke="#000" d="M103.25 227.25h18M125.82 236.25h6.78"/><path d="m131.65 232.45 7.6 3.8-7.6 3.8v-7.6z" fill-rule="evenodd"/><path stroke-width="2" stroke-linecap="round" stroke-linejoin="round" fill="none" stroke="#000" d="M139.25 46.31v7.31c-2.28-.05-4.57-.07-6.85-.07"/><path d="m133.39 57.33-7.64-3.71 7.56-3.88.08 7.59z" fill-rule="evenodd"/><clipPath id="p"><path transform="matrix(1 0 0 -1 0 297.84)" d="M0 297.84h460.92V0H0" fill-rule="evenodd"/></clipPath><g clip-path="url(#p)"><path stroke-width="2" stroke-linecap="round" stroke-linejoin="round" fill="none" stroke="#000" d="M125.75 50.7v23.17"/></g><path stroke-width="2" stroke-linecap="round" stroke-linejoin="round" fill="none" stroke="#000" d="M125.75 71.62h13.5v9"/><clipPath id="q"><path transform="matrix(1 0 0 -1 0 297.84)" d="M0 297.84h460.92V0H0" fill-rule="evenodd"/></clipPath><g clip-path="url(#q)"><path stroke-width="2" stroke-linecap="round" stroke-linejoin="round" fill="none" stroke="#000" d="M121.25 51.37v22.5"/></g><path stroke-width="2" stroke-linecap="round" stroke-linejoin="round" fill="none" stroke="#000" d="M103.25 62.62h18"/><path d="M120.69 62.62a2.815 2.815 0 0 0-5.63 0 2.815 2.815 0 0 0 5.63 0z" fill="#fff" fill-rule="evenodd"/><path stroke-width="2" stroke-linecap="round" stroke-linejoin="round" fill="none" stroke="#000" d="M120.69 62.62a2.815 2.815 0 0 0-5.63 0 2.815 2.815 0 0 0 5.63 0zM139.25 46.31v7.31c-2.28-.05-4.57-.07-6.85-.07"/><path d="m133.39 57.33-7.64-3.71 7.56-3.88.08 7.59z" fill-rule="evenodd"/><clipPath id="r"><path transform="matrix(1 0 0 -1 0 297.84)" d="M0 297.84h460.92V0H0" fill-rule="evenodd"/></clipPath><g clip-path="url(#r)"><path stroke-width="2" stroke-linecap="round" stroke-linejoin="round" fill="none" stroke="#000" d="M125.75 50.7v23.17"/></g><path stroke-width="2" stroke-linecap="round" stroke-linejoin="round" fill="none" stroke="#000" d="M125.75 71.62h13.5v9"/><clipPath id="s"><path transform="matrix(1 0 0 -1 0 297.84)" d="M0 297.84h460.92V0H0" fill-rule="evenodd"/></clipPath><g clip-path="url(#s)"><path stroke-width="2" stroke-linecap="round" stroke-linejoin="round" fill="none" stroke="#000" d="M121.25 51.37v22.5"/></g><path stroke-width="2" stroke-linecap="round" stroke-linejoin="round" fill="none" stroke="#000" d="M103.25 62.62h18"/><path d="M120.69 62.62a2.815 2.815 0 0 0-5.63 0 2.815 2.815 0 0 0 5.63 0z" fill="#fff" fill-rule="evenodd"/><path stroke-width="2" stroke-linecap="round" stroke-linejoin="round" fill="none" stroke="#000" d="M120.69 62.62a2.815 2.815 0 0 0-5.63 0 2.815 2.815 0 0 0 5.63 0zM367.38 210.589v7.312c-4.5-.099-9-.099-13.5 0"/><clipPath id="t"><path transform="matrix(1 0 0 -1 0 297.84)" d="M0 297.84h460.92V0H0" fill-rule="evenodd"/></clipPath><g clip-path="url(#t)"><path stroke-width="2" stroke-linecap="round" stroke-linejoin="round" fill="none" stroke="#000" d="M353.88 214.976v23.175"/></g><path stroke-width="2" stroke-linecap="round" stroke-linejoin="round" fill="none" stroke="#000" d="M353.88 235.901h13.5v9"/><clipPath id="u"><path transform="matrix(1 0 0 -1 0 297.84)" d="M0 297.84h460.92V0H0" fill-rule="evenodd"/></clipPath><g clip-path="url(#u)"><path stroke-width="2" stroke-linecap="round" stroke-linejoin="round" fill="none" stroke="#000" d="M349.38 215.651v22.5"/></g><path stroke-width="2" stroke-linecap="round" stroke-linejoin="round" fill="none" stroke="#000" d="M331.38 226.901h18M353.95 235.901h6.78"/><path d="m359.78 232.101 7.6 3.8-7.6 3.8v-7.6z" fill-rule="evenodd"/><path stroke-width="2" stroke-linecap="round" stroke-linejoin="round" fill="none" stroke="#000" d="M367.38 210.589v7.312c-4.5-.099-9-.099-13.5 0"/><clipPath id="v"><path transform="matrix(1 0 0 -1 0 297.84)" d="M0 297.84h460.92V0H0" fill-rule="evenodd"/></clipPath><g clip-path="url(#v)"><path stroke-width="2" stroke-linecap="round" stroke-linejoin="round" fill="none" stroke="#000" d="M353.88 214.976v23.175"/></g><path stroke-width="2" stroke-linecap="round" stroke-linejoin="round" fill="none" stroke="#000" d="M353.88 235.901h13.5v9"/><clipPath id="w"><path transform="matrix(1 0 0 -1 0 297.84)" d="M0 297.84h460.92V0H0" fill-rule="evenodd"/></clipPath><g clip-path="url(#w)"><path stroke-width="2" stroke-linecap="round" stroke-linejoin="round" fill="none" stroke="#000" d="M349.38 215.651v22.5"/></g><path stroke-width="2" stroke-linecap="round" stroke-linejoin="round" fill="none" stroke="#000" d="M331.38 226.901h18M353.95 235.901h6.78"/><path d="m359.78 232.101 7.6 3.8-7.6 3.8v-7.6z" fill-rule="evenodd"/><path stroke-width="2" stroke-linecap="round" stroke-linejoin="round" fill="none" stroke="#000" d="M367.38 47.6v7.31c-2.29-.05-4.57-.08-6.85-.07"/><path d="m361.52 58.62-7.64-3.71 7.55-3.89.09 7.6z" fill-rule="evenodd"/><clipPath id="x"><path transform="matrix(1 0 0 -1 0 297.84)" d="M0 297.84h460.92V0H0" fill-rule="evenodd"/></clipPath><g clip-path="url(#x)"><path stroke-width="2" stroke-linecap="round" stroke-linejoin="round" fill="none" stroke="#000" d="M353.88 51.98v23.18"/></g><path stroke-width="2" stroke-linecap="round" stroke-linejoin="round" fill="none" stroke="#000" d="M353.88 72.91h13.5v9"/><clipPath id="y"><path transform="matrix(1 0 0 -1 0 297.84)" d="M0 297.84h460.92V0H0" fill-rule="evenodd"/></clipPath><g clip-path="url(#y)"><path stroke-width="2" stroke-linecap="round" stroke-linejoin="round" fill="none" stroke="#000" d="M349.38 52.66v22.5"/></g><path stroke-width="2" stroke-linecap="round" stroke-linejoin="round" fill="none" stroke="#000" d="M331.38 63.91h18"/><path d="M348.81 63.91c0-1.55-1.25-2.81-2.81-2.81-1.55 0-2.81 1.26-2.81 2.81s1.26 2.81 2.81 2.81c1.56 0 2.81-1.26 2.81-2.81z" fill="#fff" fill-rule="evenodd"/><path stroke-width="2" stroke-linecap="round" stroke-linejoin="round" fill="none" stroke="#000" d="M348.81 63.91c0-1.55-1.25-2.81-2.81-2.81-1.55 0-2.81 1.26-2.81 2.81s1.26 2.81 2.81 2.81c1.56 0 2.81-1.26 2.81-2.81zM367.38 47.6v7.31c-2.29-.05-4.57-.08-6.85-.07"/><path d="m361.52 58.62-7.64-3.71 7.55-3.89.09 7.6z" fill-rule="evenodd"/><clipPath id="z"><path transform="matrix(1 0 0 -1 0 297.84)" d="M0 297.84h460.92V0H0" fill-rule="evenodd"/></clipPath><g clip-path="url(#z)"><path stroke-width="2" stroke-linecap="round" stroke-linejoin="round" fill="none" stroke="#000" d="M353.88 51.98v23.18"/></g><path stroke-width="2" stroke-linecap="round" stroke-linejoin="round" fill="none" stroke="#000" d="M353.88 72.91h13.5v9"/><clipPath id="A"><path transform="matrix(1 0 0 -1 0 297.84)" d="M0 297.84h460.92V0H0" fill-rule="evenodd"/></clipPath><g clip-path="url(#A)"><path stroke-width="2" stroke-linecap="round" stroke-linejoin="round" fill="none" stroke="#000" d="M349.38 52.66v22.5"/></g><path stroke-width="2" stroke-linecap="round" stroke-linejoin="round" fill="none" stroke="#000" d="M331.38 63.91h18"/><path d="M348.81 63.91c0-1.55-1.25-2.81-2.81-2.81-1.55 0-2.81 1.26-2.81 2.81s1.26 2.81 2.81 2.81c1.56 0 2.81-1.26 2.81-2.81z" fill="#fff" fill-rule="evenodd"/><path stroke-width="2" stroke-linecap="round" stroke-linejoin="round" fill="none" stroke="#000" d="M348.81 63.91c0-1.55-1.25-2.81-2.81-2.81-1.55 0-2.81 1.26-2.81 2.81s1.26 2.81 2.81 2.81c1.56 0 2.81-1.26 2.81-2.81zM367.38 245.25H139.25"/><path d="M258.78 245.25a2.39 2.39 0 1 0-4.782 0 2.39 2.39 0 0 0 4.782 0z" fill-rule="evenodd"/><path stroke-width=".75" stroke-linecap="round" stroke-linejoin="round" fill="none" stroke="#000" d="M258.78 245.25a2.39 2.39 0 1 0-4.782 0 2.39 2.39 0 0 0 4.782 0z"/><path d="M103.25 117.7c0-2.25-1.83-4.08-4.078-4.08a4.081 4.081 0 0 0-4.078 4.08c0 2.26 1.826 4.08 4.078 4.08a4.077 4.077 0 0 0 4.078-4.08z" fill="#fff" fill-rule="evenodd"/><path stroke-width="2" stroke-linecap="round" stroke-linejoin="round" fill="none" stroke="#000" d="M103.25 117.7c0-2.25-1.83-4.08-4.078-4.08a4.081 4.081 0 0 0-4.078 4.08c0 2.26 1.826 4.08 4.078 4.08a4.077 4.077 0 0 0 4.078-4.08z"/><clipPath id="B"><path transform="matrix(1 0 0 -1 0 297.84)" d="M0 297.84h460.92V0H0" fill-rule="evenodd"/></clipPath><g clip-path="url(#B)"><path stroke-width="2" stroke-linecap="round" stroke-linejoin="round" fill="none" stroke="#000" d="M139.25 80.62v20.83"/></g><clipPath id="C"><path transform="matrix(1 0 0 -1 0 297.84)" d="M0 297.84h460.92V0H0" fill-rule="evenodd"/></clipPath><g clip-path="url(#C)"><path stroke-width="2" stroke-linecap="round" stroke-linejoin="round" fill="none" stroke="#000" d="M367.38 81.91v130.366"/></g><clipPath id="D"><path transform="matrix(1 0 0 -1 0 297.84)" d="M0 297.84h460.92V0H0" fill-rule="evenodd"/></clipPath><g clip-path="url(#D)"><path stroke-width="2" stroke-linecap="round" stroke-linejoin="round" fill="none" stroke="#000" d="M139.25 133.78v77.157"/></g><path stroke-width="2" stroke-linecap="round" stroke-linejoin="round" fill="none" stroke="#000" d="M367.3 46.18H139.25M139.25 101.45v7.31c-2.28-.05-4.57-.07-6.85-.07"/><path d="m133.39 112.48-7.64-3.72 7.56-3.88.08 7.6z" fill-rule="evenodd"/><clipPath id="E"><path transform="matrix(1 0 0 -1 0 297.84)" d="M0 297.84h460.92V0H0" fill-rule="evenodd"/></clipPath><g clip-path="url(#E)"><path stroke-width="2" stroke-linecap="round" stroke-linejoin="round" fill="none" stroke="#000" d="M125.75 105.84v23.17"/></g><path stroke-width="2" stroke-linecap="round" stroke-linejoin="round" fill="none" stroke="#000" d="M125.75 126.76h13.5v9"/><clipPath id="F"><path transform="matrix(1 0 0 -1 0 297.84)" d="M0 297.84h460.92V0H0" fill-rule="evenodd"/></clipPath><g clip-path="url(#F)"><path stroke-width="2" stroke-linecap="round" stroke-linejoin="round" fill="none" stroke="#000" d="M121.25 106.51v22.5"/></g><path stroke-width="2" stroke-linecap="round" stroke-linejoin="round" fill="none" stroke="#000" d="M103.25 117.76h18"/><path d="M120.69 117.76a2.815 2.815 0 1 0-5.63.01 2.815 2.815 0 0 0 5.63-.01z" fill="#fff" fill-rule="evenodd"/><path stroke-width="2" stroke-linecap="round" stroke-linejoin="round" fill="none" stroke="#000" d="M120.69 117.76a2.815 2.815 0 1 0-5.63.01 2.815 2.815 0 0 0 5.63-.01zM139.25 101.45v7.31c-2.28-.05-4.57-.07-6.85-.07"/><path d="m133.39 112.48-7.64-3.72 7.56-3.88.08 7.6z" fill-rule="evenodd"/><clipPath id="G"><path transform="matrix(1 0 0 -1 0 297.84)" d="M0 297.84h460.92V0H0" fill-rule="evenodd"/></clipPath><g clip-path="url(#G)"><path stroke-width="2" stroke-linecap="round" stroke-linejoin="round" fill="none" stroke="#000" d="M125.75 105.84v23.17"/></g><path stroke-width="2" stroke-linecap="round" stroke-linejoin="round" fill="none" stroke="#000" d="M125.75 126.76h13.5v9"/><clipPath id="H"><path transform="matrix(1 0 0 -1 0 297.84)" d="M0 297.84h460.92V0H0" fill-rule="evenodd"/></clipPath><g clip-path="url(#H)"><path stroke-width="2" stroke-linecap="round" stroke-linejoin="round" fill="none" stroke="#000" d="M121.25 106.51v22.5"/></g><path stroke-width="2" stroke-linecap="round" stroke-linejoin="round" fill="none" stroke="#000" d="M103.25 117.76h18"/><path d="M120.69 117.76a2.815 2.815 0 1 0-5.63.01 2.815 2.815 0 0 0 5.63-.01z" fill="#fff" fill-rule="evenodd"/><path stroke-width="2" stroke-linecap="round" stroke-linejoin="round" fill="none" stroke="#000" d="M120.69 117.76a2.815 2.815 0 1 0-5.63.01 2.815 2.815 0 0 0 5.63-.01z"/><path d="M285.17 156.45a4.076 4.076 0 1 0-8.15 0 4.076 4.076 0 1 0 8.15 0z" fill="#fff" fill-rule="evenodd"/><path stroke-width="2" stroke-linecap="round" stroke-linejoin="round" fill="none" stroke="#000" d="M285.17 156.45a4.076 4.076 0 1 0-8.15 0 4.076 4.076 0 1 0 8.15 0zM103.25 62.62H78.5v164.63h24.75M78.5 149.62H35.75"/><path d="M81.031 149.62a2.39 2.39 0 1 0-4.781 0c0 1.33 1.07 2.4 2.391 2.4 1.32 0 2.39-1.07 2.39-2.4z" fill-rule="evenodd"/><path stroke-width=".75" stroke-linecap="round" stroke-linejoin="round" fill="none" stroke="#000" d="M81.031 149.62a2.39 2.39 0 1 0-4.781 0c0 1.33 1.07 2.4 2.391 2.4 1.32 0 2.39-1.07 2.39-2.4z"/><path d="M37.156 149.62c0-2.25-1.826-4.07-4.078-4.07a4.075 4.075 0 1 0 0 8.15 4.075 4.075 0 0 0 4.078-4.08z" fill="#fff" fill-rule="evenodd"/><path stroke-width="2" stroke-linecap="round" stroke-linejoin="round" fill="none" stroke="#000" d="M37.156 149.62c0-2.25-1.826-4.07-4.078-4.07a4.075 4.075 0 1 0 0 8.15 4.075 4.075 0 0 0 4.078-4.08zM340.38 63.9h-24.75v163.001h24.75"/><path d="M317.88 144.78a2.39 2.39 0 1 0-4.78 0 2.39 2.39 0 0 0 4.78 0z" fill-rule="evenodd"/><path stroke-width=".75" stroke-linecap="round" stroke-linejoin="round" fill="none" stroke="#000" d="M317.88 144.78a2.39 2.39 0 1 0-4.78 0 2.39 2.39 0 0 0 4.78 0z"/><path stroke-width="2" stroke-linecap="round" stroke-linejoin="round" fill="none" stroke="#000" d="M403.38 145.84h-35.86"/><path d="M369.91 145.84a2.39 2.39 0 1 0-4.78 0 2.39 2.39 0 0 0 4.78 0z" fill-rule="evenodd"/><path stroke-width=".75" stroke-linecap="round" stroke-linejoin="round" fill="none" stroke="#000" d="M369.91 145.84a2.39 2.39 0 1 0-4.78 0 2.39 2.39 0 0 0 4.78 0z"/><path d="M410.13 145.84c0-2.26-1.83-4.08-4.08-4.08s-4.08 1.82-4.08 4.08c0 2.25 1.83 4.07 4.08 4.07s4.08-1.82 4.08-4.07z" fill="#fff" fill-rule="evenodd"/><path stroke-width="2" stroke-linecap="round" stroke-linejoin="round" fill="none" stroke="#000" d="M410.13 145.84c0-2.26-1.83-4.08-4.08-4.08s-4.08 1.82-4.08 4.08c0 2.25 1.83 4.07 4.08 4.07s4.08-1.82 4.08-4.07z"/><clipPath id="I"><path transform="matrix(1 0 0 -1 0 297.84)" d="M0 297.84h460.92V0H0" fill-rule="evenodd"/></clipPath><g clip-path="url(#I)"><path stroke-width="2" stroke-linecap="round" stroke-linejoin="round" fill="none" stroke="#000" d="M281.24 116.09v35.86"/></g><clipPath id="J"><path transform="matrix(1 0 0 -1 0 297.84)" d="M29.34 143.96h26.419v25.71H29.34z" fill-rule="evenodd"/></clipPath><g clip-path="url(#J)"><clipPath id="K"><path transform="matrix(.99596 0 0 -.99396 29.34 153.88)" d="M0 0h26.527v25.867H0z" fill-rule="evenodd"/></clipPath><g clip-path="url(#K)"><clipPath id="L"><path transform="matrix(.99596 0 0 -.99396 29.34 153.88)" d="M0 .02h26.52v25.847H0z" fill-rule="evenodd"/></clipPath><g clip-path="url(#L)"><symbol id="M"><path d="M.44.305A.181.181 0 0 0 .482.26.21.21 0 0 0 .505.194L.52.126A.318.318 0 0 1 .534.073a.078.078 0 0 1 .02-.026.083.083 0 0 1 .032-.015L.58 0H.405a.78.78 0 0 0-.028.109l-.016.08a.27.27 0 0 1-.016.059.067.067 0 0 1-.023.03.069.069 0 0 1-.038.01h-.03L.217.131A.34.34 0 0 1 .212.075C.212.06.216.049.223.043A.064.064 0 0 1 .26.033L.252 0H0l.007.032a.07.07 0 0 1 .04.028.231.231 0 0 1 .026.072l.089.403c.004.019.006.038.006.057 0 .013-.003.023-.01.03-.006.006-.016.01-.03.012l.006.033h.244A.801.801 0 0 0 .46.663.23.23 0 0 0 .523.648.153.153 0 0 0 .573.62.12.12 0 0 0 .605.575.187.187 0 0 0 .571.391.296.296 0 0 0 .44.31V.305m-.142.04c.042 0 .075.006.098.018a.14.14 0 0 1 .057.06.195.195 0 0 1 .02.092C.473.547.466.57.45.585.433.603.408.61.373.61h-.05L.266.343h.03z"/></symbol><symbol id="N"><path d="M.094.17A.176.176 0 0 1 .107.103.073.073 0 0 1 .141.067a.133.133 0 0 1 .056-.01c.036 0 .064.01.084.03.02.02.031.05.031.086a.12.12 0 0 1-.04.092.616.616 0 0 1-.07.057.251.251 0 0 0-.07.076.174.174 0 0 0-.007.163.18.18 0 0 0 .049.064c.022.019.049.033.082.042.033.01.071.015.115.015A.695.695 0 0 0 .545.66l-.03-.14H.453C.452.557.444.584.43.6.416.618.394.626.362.626a.114.114 0 0 1-.08-.028.098.098 0 0 1-.03-.076C.251.5.258.477.274.457A.364.364 0 0 1 .347.392.466.466 0 0 0 .414.333.18.18 0 0 0 .449.28.2.2 0 0 0 .386.057a.246.246 0 0 0-.08-.043A.398.398 0 0 0 .188 0 .603.603 0 0 0 0 .03l.03.14h.064z"/></symbol><symbol id="O"><path d="M.575.667.536.49H.474a.342.342 0 0 1-.007.075.06.06 0 0 1-.019.033.053.053 0 0 1-.036.011H.37L.264.132A.36.36 0 0 1 .257.075C.257.06.261.049.27.043a.064.064 0 0 1 .036-.01L.298 0h-.26l.007.032A.07.07 0 0 1 .08.045.071.071 0 0 1 .1.074a.327.327 0 0 1 .018.058l.105.477H.184A.098.098 0 0 1 .141.601.116.116 0 0 1 .104.567.315.315 0 0 1 .064.5H0l.037.167h.538z"/></symbol><use xlink:href="#M" transform="matrix(14.07886 0 0 -14.05062 29.732 141.385)"/><use xlink:href="#N" transform="matrix(14.07886 0 0 -14.05062 39.298 141.495)"/><use xlink:href="#O" transform="matrix(14.07886 0 0 -14.05062 47.56 141.385)"/></g></g></g><path stroke-width="2" stroke-linecap="round" stroke-linejoin="round" fill="none" stroke="#000" d="M238.25 211.714v7.312c-4.5-.099-9-.099-13.5 0"/><clipPath id="P"><path transform="matrix(1 0 0 -1 0 297.84)" d="M0 297.84h460.92V0H0" fill-rule="evenodd"/></clipPath><g clip-path="url(#P)"><path stroke-width="2" stroke-linecap="round" stroke-linejoin="round" fill="none" stroke="#000" d="M224.75 216.101v23.175"/></g><clipPath id="Q"><path transform="matrix(1 0 0 -1 0 297.84)" d="M0 297.84h460.92V0H0" fill-rule="evenodd"/></clipPath><g clip-path="url(#Q)"><path stroke-width="2" stroke-linecap="round" stroke-linejoin="round" fill="none" stroke="#000" d="M220.25 216.776v22.5"/></g><path stroke-width="2" stroke-linecap="round" stroke-linejoin="round" fill="none" stroke="#000" d="M202.25 228.026h18M224.83 237.026h6.77"/><path d="m230.65 233.226 7.6 3.8-7.6 3.8v-7.6z" fill-rule="evenodd"/><path stroke-width="2" stroke-linecap="round" stroke-linejoin="round" fill="none" stroke="#000" d="M238.25 47.08v7.32c-2.28-.05-4.57-.08-6.85-.08"/><path d="m232.39 58.11-7.64-3.71 7.56-3.89.08 7.6z" fill-rule="evenodd"/><clipPath id="R"><path transform="matrix(1 0 0 -1 0 297.84)" d="M0 297.84h460.92V0H0" fill-rule="evenodd"/></clipPath><g clip-path="url(#R)"><path stroke-width="2" stroke-linecap="round" stroke-linejoin="round" fill="none" stroke="#000" d="M224.75 51.47v23.18"/></g><path stroke-width="2" stroke-linecap="round" stroke-linejoin="round" fill="none" stroke="#000" d="M224.75 72.4h13.5v9"/><clipPath id="S"><path transform="matrix(1 0 0 -1 0 297.84)" d="M0 297.84h460.92V0H0" fill-rule="evenodd"/></clipPath><g clip-path="url(#S)"><path stroke-width="2" stroke-linecap="round" stroke-linejoin="round" fill="none" stroke="#000" d="M220.25 52.15v22.5"/></g><path stroke-width="2" stroke-linecap="round" stroke-linejoin="round" fill="none" stroke="#000" d="M202.25 63.4h18"/><path d="M219.69 63.4a2.815 2.815 0 1 0-5.63-.01 2.815 2.815 0 0 0 5.63.01z" fill="#fff" fill-rule="evenodd"/><path stroke-width="2" stroke-linecap="round" stroke-linejoin="round" fill="none" stroke="#000" d="M219.69 63.4a2.815 2.815 0 1 0-5.63-.01 2.815 2.815 0 0 0 5.63.01zM238.25 47.08v7.32c-2.28-.05-4.57-.08-6.85-.08"/><path d="m232.39 58.11-7.64-3.71 7.56-3.89.08 7.6z" fill-rule="evenodd"/><clipPath id="T"><path transform="matrix(1 0 0 -1 0 297.84)" d="M0 297.84h460.92V0H0" fill-rule="evenodd"/></clipPath><g clip-path="url(#T)"><path stroke-width="2" stroke-linecap="round" stroke-linejoin="round" fill="none" stroke="#000" d="M224.75 51.47v23.18"/></g><path stroke-width="2" stroke-linecap="round" stroke-linejoin="round" fill="none" stroke="#000" d="M224.75 72.4h13.5v9"/><clipPath id="U"><path transform="matrix(1 0 0 -1 0 297.84)" d="M0 297.84h460.92V0H0" fill-rule="evenodd"/></clipPath><g clip-path="url(#U)"><path stroke-width="2" stroke-linecap="round" stroke-linejoin="round" fill="none" stroke="#000" d="M220.25 52.15v22.5"/></g><path stroke-width="2" stroke-linecap="round" stroke-linejoin="round" fill="none" stroke="#000" d="M202.25 63.4h18"/><path d="M219.69 63.4a2.815 2.815 0 1 0-5.63-.01 2.815 2.815 0 0 0 5.63.01z" fill="#fff" fill-rule="evenodd"/><path stroke-width="2" stroke-linecap="round" stroke-linejoin="round" fill="none" stroke="#000" d="M219.69 63.4a2.815 2.815 0 1 0-5.63-.01 2.815 2.815 0 0 0 5.63.01z"/><clipPath id="V"><path transform="matrix(1 0 0 -1 0 297.84)" d="M0 297.84h460.92V0H0" fill-rule="evenodd"/></clipPath><g clip-path="url(#V)"><path stroke-width="2" stroke-linecap="round" stroke-linejoin="round" fill="none" stroke="#000" d="M238.25 81.4v20.83"/></g><clipPath id="W"><path transform="matrix(1 0 0 -1 0 297.84)" d="M0 297.84h460.92V0H0" fill-rule="evenodd"/></clipPath><g clip-path="url(#W)"><path stroke-width="2" stroke-linecap="round" stroke-linejoin="round" fill="none" stroke="#000" d="M238.25 134.56v77.154"/></g><path stroke-width="2" stroke-linecap="round" stroke-linejoin="round" fill="none" stroke="#000" d="M238.25 102.23v7.31c-2.28-.05-4.57-.07-6.85-.07"/><path d="m232.39 113.26-7.64-3.72 7.56-3.88.08 7.6z" fill-rule="evenodd"/><clipPath id="X"><path transform="matrix(1 0 0 -1 0 297.84)" d="M0 297.84h460.92V0H0" fill-rule="evenodd"/></clipPath><g clip-path="url(#X)"><path stroke-width="2" stroke-linecap="round" stroke-linejoin="round" fill="none" stroke="#000" d="M224.75 106.62v23.17"/></g><path stroke-width="2" stroke-linecap="round" stroke-linejoin="round" fill="none" stroke="#000" d="M224.75 127.54h13.5v9"/><clipPath id="Y"><path transform="matrix(1 0 0 -1 0 297.84)" d="M0 297.84h460.92V0H0" fill-rule="evenodd"/></clipPath><g clip-path="url(#Y)"><path stroke-width="2" stroke-linecap="round" stroke-linejoin="round" fill="none" stroke="#000" d="M220.25 107.29v22.5"/></g><path stroke-width="2" stroke-linecap="round" stroke-linejoin="round" fill="none" stroke="#000" d="M202.25 118.54h18"/><path d="M219.69 118.54a2.815 2.815 0 0 0-5.63 0 2.815 2.815 0 0 0 5.63 0z" fill="#fff" fill-rule="evenodd"/><path stroke-width="2" stroke-linecap="round" stroke-linejoin="round" fill="none" stroke="#000" d="M219.69 118.54a2.815 2.815 0 0 0-5.63 0 2.815 2.815 0 0 0 5.63 0zM238.25 102.23v7.31c-2.28-.05-4.57-.07-6.85-.07"/><path d="m232.39 113.26-7.64-3.72 7.56-3.88.08 7.6z" fill-rule="evenodd"/><clipPath id="Z"><path transform="matrix(1 0 0 -1 0 297.84)" d="M0 297.84h460.92V0H0" fill-rule="evenodd"/></clipPath><g clip-path="url(#Z)"><path stroke-width="2" stroke-linecap="round" stroke-linejoin="round" fill="none" stroke="#000" d="M224.75 106.62v23.17"/></g><path stroke-width="2" stroke-linecap="round" stroke-linejoin="round" fill="none" stroke="#000" d="M224.75 127.54h13.5v9"/><clipPath id="aa"><path transform="matrix(1 0 0 -1 0 297.84)" d="M0 297.84h460.92V0H0" fill-rule="evenodd"/></clipPath><g clip-path="url(#aa)"><path stroke-width="2" stroke-linecap="round" stroke-linejoin="round" fill="none" stroke="#000" d="M220.25 107.29v22.5"/></g><path stroke-width="2" stroke-linecap="round" stroke-linejoin="round" fill="none" stroke="#000" d="M202.25 118.54h18"/><path d="M219.69 118.54a2.815 2.815 0 0 0-5.63 0 2.815 2.815 0 0 0 5.63 0z" fill="#fff" fill-rule="evenodd"/><path stroke-width="2" stroke-linecap="round" stroke-linejoin="round" fill="none" stroke="#000" d="M219.69 118.54a2.815 2.815 0 0 0-5.63 0 2.815 2.815 0 0 0 5.63 0zM202.25 63.4H177.5v164.626h24.75"/><clipPath id="ab"><path transform="matrix(1 0 0 -1 0 297.84)" d="M0 297.84h460.92V0H0" fill-rule="evenodd"/></clipPath><g clip-path="url(#ab)"><path stroke-width="2" stroke-linecap="round" stroke-linejoin="round" fill="none" stroke="#000" d="M238.25 237.026v8.224"/></g><path stroke-width="2" stroke-linecap="round" stroke-linejoin="round" fill="none" stroke="#000" d="M238.25 237.026h-9.33M177.5 178.53h-38.25"/><path d="M141.46 178.39c0-1.32-1.08-2.39-2.4-2.39a2.39 2.39 0 1 0 0 4.78c1.32 0 2.4-1.07 2.4-2.39z" fill-rule="evenodd"/><path stroke-width=".75" stroke-linecap="round" stroke-linejoin="round" fill="none" stroke="#000" d="M141.46 178.39c0-1.32-1.08-2.39-2.4-2.39a2.39 2.39 0 1 0 0 4.78c1.32 0 2.4-1.07 2.4-2.39z"/><path d="M179.71 178.39c0-1.32-1.08-2.39-2.4-2.39a2.39 2.39 0 1 0 0 4.78c1.32 0 2.4-1.07 2.4-2.39z" fill-rule="evenodd"/><path stroke-width=".75" stroke-linecap="round" stroke-linejoin="round" fill="none" stroke="#000" d="M179.71 178.39c0-1.32-1.08-2.39-2.4-2.39a2.39 2.39 0 1 0 0 4.78c1.32 0 2.4-1.07 2.4-2.39z"/><clipPath id="ac"><path transform="matrix(1 0 0 -1 0 297.84)" d="M0 297.84h460.92V0H0" fill-rule="evenodd"/></clipPath><g clip-path="url(#ac)"><path stroke-width="2" stroke-linecap="round" stroke-linejoin="round" fill="none" stroke="#000" d="M202.25 118.54V93.03"/></g><path stroke-width="2" stroke-linecap="round" stroke-linejoin="round" fill="none" stroke="#000" d="M202.25 93.03h-94.83v24.73"/><clipPath id="ad"><path transform="matrix(1 0 0 -1 0 297.84)" d="M84.924 176.69h27.866v-25.71H84.924v25.71z" fill-rule="evenodd"/></clipPath><g clip-path="url(#ad)"><clipPath id="ae"><path transform="matrix(.99616 0 0 -.99396 84.924 146.86)" d="M0 0h27.972v25.867H0z" fill-rule="evenodd"/></clipPath><g clip-path="url(#ae)"><clipPath id="af"><path transform="matrix(.99616 0 0 -.99396 84.924 146.86)" d="M0 .02h27.96v25.847H0z" fill-rule="evenodd"/></clipPath><g clip-path="url(#af)"><symbol id="ag"><path d="M.608.667.574.509H.51a.271.271 0 0 1-.009.065.049.049 0 0 1-.02.027.07.07 0 0 1-.036.008H.323L.271.375H.34c.013 0 .024.002.033.006.01.005.017.012.025.021A.19.19 0 0 1 .42.444h.054L.427.246h-.05a.21.21 0 0 1-.004.043.036.036 0 0 1-.013.022C.354.316.344.318.33.318h-.07L.202.058h.11c.014 0 .025 0 .033.002a.07.07 0 0 1 .022.01C.374.073.38.08.39.09a.488.488 0 0 1 .053.086h.066L.464 0H0l.007.032a.07.07 0 0 1 .04.028.231.231 0 0 1 .026.072l.089.403c.004.019.006.038.006.057 0 .013-.003.023-.01.03-.006.006-.016.01-.03.012l.006.033h.474z"/></symbol><symbol id="ah"><path d="M.218.132A.31.31 0 0 1 .212.075C.212.06.216.049.223.043A.064.064 0 0 1 .26.033L.252 0H0l.007.032a.07.07 0 0 1 .04.028.231.231 0 0 1 .026.072l.089.403c.004.019.006.038.006.057 0 .013-.003.023-.01.03-.006.006-.016.01-.03.012l.006.033h.462L.562.509H.499A.271.271 0 0 1 .49.574a.049.049 0 0 1-.02.027.07.07 0 0 1-.036.008h-.11L.27.365h.065a.06.06 0 0 1 .046.019.205.205 0 0 1 .036.06h.054L.42.226H.37c0 .023-.002.04-.004.05a.04.04 0 0 1-.013.025C.347.306.337.308.324.308H.257L.218.132z"/></symbol><use xlink:href="#M" transform="matrix(14.08177 0 0 -14.05062 85.316 134.365)"/><use xlink:href="#ag" transform="matrix(14.08177 0 0 -14.05062 95.173 134.365)"/><use xlink:href="#ah" transform="matrix(14.08177 0 0 -14.05062 104.326 134.365)"/></g></g></g><path stroke-width="2" stroke-linecap="round" stroke-linejoin="round" fill="none" stroke="#000" d="M238.25 93.03h42.99"/><clipPath id="ai"><path transform="matrix(1 0 0 -1 0 297.84)" d="M0 297.84h460.92V0H0" fill-rule="evenodd"/></clipPath><g clip-path="url(#ai)"><path stroke-width="2" stroke-linecap="round" stroke-linejoin="round" fill="none" stroke="#000" d="M281.24 116.09V93.03"/></g><path stroke-width="2" stroke-linecap="round" stroke-linejoin="round" fill="none" stroke="#000" d="M281.24 93.03h17.43"/><clipPath id="aj"><path transform="matrix(1 0 0 -1 0 297.84)" d="M0 297.84h460.92V0H0" fill-rule="evenodd"/></clipPath><g clip-path="url(#aj)"><path stroke-width="2" stroke-linecap="round" stroke-linejoin="round" fill="none" stroke="#000" d="M298.67 93.03v51.75"/></g><path stroke-width="2" stroke-linecap="round" stroke-linejoin="round" fill="none" stroke="#000" d="M298.67 144.78h14.43"/><path d="M283.63 93.17a2.39 2.39 0 1 0-4.78 0 2.39 2.39 0 0 0 4.78 0z" fill-rule="evenodd"/><path stroke-width=".75" stroke-linecap="round" stroke-linejoin="round" fill="none" stroke="#000" d="M283.63 93.17a2.39 2.39 0 1 0-4.78 0 2.39 2.39 0 0 0 4.78 0z"/><clipPath id="ak"><path transform="matrix(1 0 0 -1 0 297.84)" d="M0 297.84h460.92V0H0" fill-rule="evenodd"/></clipPath><g clip-path="url(#ak)"><path stroke-width="2" stroke-linecap="round" stroke-linejoin="round" fill="none" stroke="#000" d="m367.38 49.71-.08-3.53"/></g><clipPath id="al"><path transform="matrix(1 0 0 -1 0 297.84)" d="M412.97 161.09h25.2v-26.03h-25.2v26.03z" fill-rule="evenodd"/></clipPath><g clip-path="url(#al)"><clipPath id="am"><path transform="matrix(.99571 0 0 -.99401 412.97 162.78)" d="M0 0h25.308v26.179H0z" fill-rule="evenodd"/></clipPath><g clip-path="url(#am)"><clipPath id="an"><path transform="matrix(.99571 0 0 -.99401 412.97 162.78)" d="M0 .043h25.344V26.18H0z" fill-rule="evenodd"/></clipPath><g clip-path="url(#an)"><symbol id="ao"><path d="M.481.24A.462.462 0 0 0 .443.127.23.23 0 0 0 .386.053.213.213 0 0 0 .31.013.392.392 0 0 0 .123.01a.183.183 0 0 0-.064.033A.16.16 0 0 0 0 .176L.003.23C.006.248.011.277.02.317l.05.225A.26.26 0 0 1 .078.6c0 .013-.003.023-.01.03C.061.635.051.64.037.641l.006.032H.29L.282.642a.07.07 0 0 1-.04-.027.231.231 0 0 1-.026-.073L.15.243A.524.524 0 0 1 .138.147C.138.117.145.095.16.08.174.065.196.057.224.057c.027 0 .05.006.069.018.019.012.033.03.044.051a.372.372 0 0 1 .03.087l.072.33A.22.22 0 0 1 .445.6c0 .013-.003.023-.01.03C.43.635.42.64.406.641l.007.032H.62L.613.642A.072.072 0 0 1 .57.614.225.225 0 0 1 .547.542L.48.24z"/></symbol><symbol id="ap"><path d="M.378.667A.807.807 0 0 0 .46.663.223.223 0 0 0 .522.648a.15.15 0 0 0 .051-.03.12.12 0 0 0 .031-.045.16.16 0 0 0 .011-.06A.215.215 0 0 0 .537.34.25.25 0 0 0 .444.29.485.485 0 0 0 .315.277H.3c-.02 0-.037 0-.05.002L.218.132A.31.31 0 0 1 .212.075C.212.06.216.049.223.043A.064.064 0 0 1 .26.033L.252 0H0l.007.032a.07.07 0 0 1 .04.028.231.231 0 0 1 .026.072l.089.403c.004.019.006.038.006.057 0 .013-.003.023-.01.03-.006.006-.016.01-.03.012l.006.033h.244M.288.333c.045 0 .08.007.104.021a.135.135 0 0 1 .055.063c.012.028.019.06.019.094C.466.544.458.57.442.585.427.601.403.609.371.609a.99.99 0 0 1-.048 0L.263.332H.29z"/></symbol><use xlink:href="#ao" transform="matrix(14.02763 0 -.00001 -14.00366 416.88 150.036)"/><use xlink:href="#ap" transform="matrix(14.02763 0 -.00001 -14.00366 426.372 149.926)"/></g></g></g><clipPath id="aq"><path transform="matrix(1 0 0 -1 0 297.84)" d="M268.5 134.3h25.2v-26.02h-25.2v26.02z" fill-rule="evenodd"/></clipPath><g clip-path="url(#aq)"><clipPath id="ar"><path transform="matrix(.99571 0 0 -.99401 268.5 189.56)" d="M0 0h25.308v26.179H0z" fill-rule="evenodd"/></clipPath><g clip-path="url(#ar)"><clipPath id="as"><path transform="matrix(.99571 0 0 -.99401 268.5 189.56)" d="M0 .043h25.344V26.18H0z" fill-rule="evenodd"/></clipPath><g clip-path="url(#as)"><use xlink:href="#ao" transform="matrix(14.02763 0 0 -14.00366 272.41 177.054)"/><use xlink:href="#ap" transform="matrix(14.02763 0 0 -14.00366 281.902 176.945)"/></g><clipPath id="at"><path transform="matrix(.99571 0 0 -.99401 268.5 189.56)" d="M0 .043h8.808V26.18H0z" fill-rule="evenodd"/></clipPath><g clip-path="url(#at)"><symbol id="au"><path d="M.43 0H0v.052h.43V0z"/></symbol><use xlink:href="#au" transform="matrix(14.02763 0 0 -14.00366 271.272 166.136)"/></g><clipPath id="av"><path transform="matrix(.99571 0 0 -.99401 268.5 189.56)" d="M8.688.043h4.704V26.18H8.688z" fill-rule="evenodd"/></clipPath><g clip-path="url(#av)"><use xlink:href="#au" transform="matrix(14.02763 0 0 -14.00366 275.836 166.136)"/></g><clipPath id="aw"><path transform="matrix(.99571 0 0 -.99401 268.5 189.56)" d="M13.272.043h4.704V26.18h-4.704z" fill-rule="evenodd"/></clipPath><g clip-path="url(#aw)"><use xlink:href="#au" transform="matrix(14.02763 0 0 -14.00366 280.4 166.136)"/></g><clipPath id="ax"><path transform="matrix(.99571 0 0 -.99401 268.5 189.56)" d="M17.856.043h7.488V26.18h-7.488z" fill-rule="evenodd"/></clipPath><g clip-path="url(#ax)"><use xlink:href="#au" transform="matrix(14.02763 0 0 -14.00366 285.085 166.136)"/></g></g></g><clipPath id="ay"><path transform="matrix(1 0 0 -1 0 297.84)" d="M143.5 217.22h29.991v27.014H143.5z" fill-rule="evenodd"/></clipPath><g clip-path="url(#ay)"><clipPath id="az"><path transform="matrix(1.03144 0 0 -1.04437 143.5 80.62)" d="M0 0h29.077v25.867H0z" fill-rule="evenodd"/></clipPath><g clip-path="url(#az)"><clipPath id="aA"><path transform="matrix(1.03144 0 0 -1.04437 143.5 80.62)" d="M0 .02h28.992v25.847H0z" fill-rule="evenodd"/></clipPath><g clip-path="url(#aA)"><symbol id="aB"><path d="M.362.667.4.259.63.667h.227L.852.634A.07.07 0 0 1 .81.607.231.231 0 0 1 .786.535L.696.132A.31.31 0 0 1 .69.075C.69.06.694.05.7.045A.056.056 0 0 1 .73.031L.724 0H.48l.006.032A.07.07 0 0 1 .526.06a.231.231 0 0 1 .025.072l.045.205A3.1 3.1 0 0 0 .65.542h-.01A3.88 3.88 0 0 0 .59.454L.37.074H.291L.259.367C.25.437.246.497.244.547H.236A3.695 3.695 0 0 0 .2.346L.152.131A.31.31 0 0 1 .146.075C.146.06.149.05.155.045A.056.056 0 0 1 .186.031L.179 0H0l.007.032a.07.07 0 0 1 .04.028.231.231 0 0 1 .026.072l.089.403c.004.019.006.038.006.057 0 .013-.003.023-.01.03-.006.006-.016.01-.03.012l.006.033h.228z"/></symbol><use xlink:href="#aB" transform="matrix(14.58038 0 0 -14.7632 143.892 67.617)" fill="red"/></g><clipPath id="aC"><path transform="matrix(1.03144 0 0 -1.04437 143.5 80.62)" d="M0 .02h28.992v25.847H0z" fill-rule="evenodd"/></clipPath><g clip-path="url(#aC)"><use xlink:href="#ap" transform="matrix(14.58038 0 0 -14.7632 157.199 67.617)" fill="red"/></g><clipPath id="aD"><path transform="matrix(1.03144 0 0 -1.04437 143.5 80.62)" d="M0 .02h28.992v25.847H0z" fill-rule="evenodd"/></clipPath><g clip-path="url(#aD)"><symbol id="aE"><path d="M.314.136c0-.019.001-.033.003-.043A.056.056 0 0 1 .33.07.059.059 0 0 1 .352.056.216.216 0 0 1 .39.048.792.792 0 0 1 .45.044V0H.03v.044a.715.715 0 0 1 .076.007.096.096 0 0 1 .036.012.046.046 0 0 1 .018.024c.004.01.006.026.006.05v.352c0 .014-.003.023-.008.03a.025.025 0 0 1-.02.008.086.086 0 0 1-.035-.011A.794.794 0 0 1 .03.47L0 .52l.255.153h.062a2.211 2.211 0 0 1-.003-.13V.136z"/></symbol><use xlink:href="#aE" transform="matrix(10.34737 0 0 -10.47711 167.548 70.65)" fill="red"/></g><clipPath id="aF"><path transform="matrix(1.03144 0 0 -1.04437 143.5 80.62)" d="M0 .02h28.992v25.847H0z" fill-rule="evenodd"/></clipPath><g clip-path="url(#aF)"><symbol id="aG"><path d="M0 0z"/></symbol><use xlink:href="#aG" transform="matrix(14.58038 0 0 -14.7632 173.403 67.617)" fill="red"/></g></g></g><path stroke-width="2" stroke-linecap="round" stroke-dasharray="14,10,0,10" stroke-linejoin="round" fill="none" stroke="red" d="M19 278.875h423V19.005H19z"/><clipPath id="aH"><path transform="matrix(1 0 0 -1 0 297.84)" d="M142.75 161.83h29.991v27.014H142.75z" fill-rule="evenodd"/></clipPath><g clip-path="url(#aH)"><clipPath id="aI"><path transform="matrix(1.03144 0 0 -1.04437 142.75 136.01)" d="M0 0h29.077v25.867H0z" fill-rule="evenodd"/></clipPath><g clip-path="url(#aI)"><clipPath id="aJ"><path transform="matrix(1.03144 0 0 -1.04437 142.75 136.01)" d="M0 .02h28.992v25.847H0z" fill-rule="evenodd"/></clipPath><g clip-path="url(#aJ)"><use xlink:href="#aB" transform="matrix(14.58038 0 0 -14.7632 143.142 123.007)" fill="red"/></g><clipPath id="aK"><path transform="matrix(1.03144 0 0 -1.04437 142.75 136.01)" d="M0 .02h28.992v25.847H0z" fill-rule="evenodd"/></clipPath><g clip-path="url(#aK)"><use xlink:href="#ap" transform="matrix(14.58038 0 0 -14.7632 156.449 123.007)" fill="red"/></g><clipPath id="aL"><path transform="matrix(1.03144 0 0 -1.04437 142.75 136.01)" d="M0 .02h28.992v25.847H0z" fill-rule="evenodd"/></clipPath><g clip-path="url(#aL)"><symbol id="aM"><path d="M.315.12C.337.12.352.12.363.124.373.127.38.133.387.14c.006.008.011.02.015.035h.056L.448 0H0v.032a.986.986 0 0 0 .154.223c.035.041.062.075.08.102a.362.362 0 0 1 .041.076C.285.456.29.48.29.506A.132.132 0 0 1 .265.59.078.078 0 0 1 .2.621C.147.621.113.583.098.506H.01v.116a.804.804 0 0 0 .128.042.5.5 0 0 0 .103.01.3.3 0 0 0 .117-.02.133.133 0 0 0 .066-.051.141.141 0 0 0 .02-.077A.176.176 0 0 0 .43.454.317.317 0 0 0 .38.378 1.52 1.52 0 0 0 .26.257 1.15 1.15 0 0 1 .143.125V.12h.173z"/></symbol><use xlink:href="#aM" transform="matrix(10.34737 0 0 -10.47711 166.546 126.04)" fill="red"/></g><clipPath id="aN"><path transform="matrix(1.03144 0 0 -1.04437 142.75 136.01)" d="M0 .02h28.992v25.847H0z" fill-rule="evenodd"/></clipPath><g clip-path="url(#aN)"><use xlink:href="#aG" transform="matrix(14.58038 0 0 -14.7632 172.653 123.007)" fill="red"/></g></g></g><clipPath id="aO"><path transform="matrix(1 0 0 -1 0 297.84)" d="M141.26 52.59h31.493v27.014H141.26z" fill-rule="evenodd"/></clipPath><g clip-path="url(#aO)"><clipPath id="aP"><path transform="matrix(1.0464 0 0 -1.04437 141.26 245.25)" d="M0 0h30.097v25.867H0z" fill-rule="evenodd"/></clipPath><g clip-path="url(#aP)"><clipPath id="aQ"><path transform="matrix(1.0464 0 0 -1.04437 141.26 245.25)" d="M0 .02h30.144v25.847H0z" fill-rule="evenodd"/></clipPath><g clip-path="url(#aQ)"><use xlink:href="#aB" transform="matrix(14.7918 0 0 -14.7632 141.657 232.247)" fill="red"/></g><clipPath id="aR"><path transform="matrix(1.0464 0 0 -1.04437 141.26 245.25)" d="M0 .02h30.144v25.847H0z" fill-rule="evenodd"/></clipPath><g clip-path="url(#aR)"><symbol id="aS"><path d="M.134.667H.32L.414.39C.44.315.46.25.475.19h.006c.01.057.022.12.038.188l.034.157a.27.27 0 0 1 .006.057c0 .013-.003.023-.01.03C.543.628.533.632.52.634l.006.033h.18L.698.634a.07.07 0 0 1-.04-.027.231.231 0 0 1-.026-.072L.515 0H.403L.286.341a2.763 2.763 0 0 0-.05.164H.229A2.52 2.52 0 0 0 .187.291L.152.131A.31.31 0 0 1 .146.076c0-.014.003-.024.01-.03a.056.056 0 0 1 .03-.013L.18 0H0l.007.032a.07.07 0 0 1 .04.028.231.231 0 0 1 .026.072l.089.403c.004.019.006.038.006.057 0 .013-.003.023-.01.03-.006.006-.016.01-.03.012l.006.033z"/></symbol><use xlink:href="#aS" transform="matrix(14.7918 0 0 -14.7632 155.168 232.247)" fill="red"/></g><clipPath id="aT"><path transform="matrix(1.0464 0 0 -1.04437 141.26 245.25)" d="M0 .02h30.144v25.847H0z" fill-rule="evenodd"/></clipPath><g clip-path="url(#aT)"><use xlink:href="#aE" transform="matrix(10.4974 0 0 -10.47711 166.837 235.28)" fill="red"/></g><clipPath id="aU"><path transform="matrix(1.0464 0 0 -1.04437 141.26 245.25)" d="M0 .02h30.144v25.847H0z" fill-rule="evenodd"/></clipPath><g clip-path="url(#aU)"><use xlink:href="#aG" transform="matrix(14.7918 0 0 -14.7632 172.802 232.247)" fill="red"/></g></g></g><clipPath id="aV"><path transform="matrix(1 0 0 -1 0 297.84)" d="M238.57 219.77h29.99v27.014h-29.99z" fill-rule="evenodd"/></clipPath><g clip-path="url(#aV)"><clipPath id="aW"><path transform="matrix(1.03141 0 0 -1.04437 238.57 78.07)" d="M0 0h29.077v25.867H0z" fill-rule="evenodd"/></clipPath><g clip-path="url(#aW)"><clipPath id="aX"><path transform="matrix(1.03141 0 0 -1.04437 238.57 78.07)" d="M0 .02h28.992v25.847H0z" fill-rule="evenodd"/></clipPath><g clip-path="url(#aX)"><use xlink:href="#aB" transform="matrix(14.58003 0 -.00001 -14.7632 238.962 65.067)" fill="red"/></g><clipPath id="aY"><path transform="matrix(1.03141 0 0 -1.04437 238.57 78.07)" d="M0 .02h28.992v25.847H0z" fill-rule="evenodd"/></clipPath><g clip-path="url(#aY)"><use xlink:href="#ap" transform="matrix(14.58003 0 -.00001 -14.7632 252.269 65.067)" fill="red"/></g><clipPath id="aZ"><path transform="matrix(1.03141 0 0 -1.04437 238.57 78.07)" d="M0 .02h28.992v25.847H0z" fill-rule="evenodd"/></clipPath><g clip-path="url(#aZ)"><symbol id="ba"><path d="M.01.514v.115a.578.578 0 0 0 .223.053C.295.682.344.67.381.645A.12.12 0 0 0 .436.54C.436.502.426.47.403.442A.291.291 0 0 0 .295.366V.36A.198.198 0 0 0 .407.304.152.152 0 0 0 .45.195a.186.186 0 0 0-.028-.1.184.184 0 0 0-.084-.07A.335.335 0 0 0 .201 0a.6.6 0 0 0-.108.01A.41.41 0 0 0 0 .038v.123h.088A.171.171 0 0 1 .128.08.094.094 0 0 1 .196.055c.069 0 .103.042.103.128C.3.229.287.263.263.285.239.308.202.32.153.32h-.04v.056c.057.002.1.015.13.04.029.023.044.059.044.105C.287.556.279.583.265.6.25.62.229.63.2.63a.087.087 0 0 1-.068-.03.17.17 0 0 1-.036-.085H.01z"/></symbol><use xlink:href="#ba" transform="matrix(10.34712 0 -.00001 -10.47711 262.461 68.181)" fill="red"/></g><clipPath id="bb"><path transform="matrix(1.03141 0 0 -1.04437 238.57 78.07)" d="M0 .02h28.992v25.847H0z" fill-rule="evenodd"/></clipPath><g clip-path="url(#bb)"><use xlink:href="#aG" transform="matrix(14.58003 0 -.00001 -14.7632 268.473 65.067)" fill="red"/></g></g></g><clipPath id="bc"><path transform="matrix(1 0 0 -1 0 297.84)" d="M241.75 78.604h31.49V51.59h-31.49v27.014z" fill-rule="evenodd"/></clipPath><g clip-path="url(#bc)"><clipPath id="bd"><path transform="matrix(1.0464 0 0 -1.04437 241.75 246.25)" d="M0 0h30.097v25.867H0z" fill-rule="evenodd"/></clipPath><g clip-path="url(#bd)"><clipPath id="be"><path transform="matrix(1.0464 0 0 -1.04437 241.75 246.25)" d="M0 .02h30.144v25.847H0z" fill-rule="evenodd"/></clipPath><g clip-path="url(#be)"><use xlink:href="#aB" transform="matrix(14.7918 0 -.00001 -14.7632 242.147 233.247)" fill="red"/></g><clipPath id="bf"><path transform="matrix(1.0464 0 0 -1.04437 241.75 246.25)" d="M0 .02h30.144v25.847H0z" fill-rule="evenodd"/></clipPath><g clip-path="url(#bf)"><use xlink:href="#aS" transform="matrix(14.7918 0 -.00001 -14.7632 255.658 233.247)" fill="red"/></g><clipPath id="bg"><path transform="matrix(1.0464 0 0 -1.04437 241.75 246.25)" d="M0 .02h30.144v25.847H0z" fill-rule="evenodd"/></clipPath><g clip-path="url(#bg)"><use xlink:href="#ba" transform="matrix(10.4974 0 -.00001 -10.47711 267.168 236.361)" fill="red"/></g><clipPath id="bh"><path transform="matrix(1.0464 0 0 -1.04437 241.75 246.25)" d="M0 .02h30.144v25.847H0z" fill-rule="evenodd"/></clipPath><g clip-path="url(#bh)"><use xlink:href="#aG" transform="matrix(14.7918 0 -.00001 -14.7632 273.292 233.247)" fill="red"/></g></g></g><clipPath id="bi"><path transform="matrix(1 0 0 -1 0 297.84)" d="M239.5 188.31h31.49V161.3H239.5v27.01z" fill-rule="evenodd"/></clipPath><g clip-path="url(#bi)"><clipPath id="bj"><path transform="matrix(1.0464 0 0 -1.04437 239.5 136.54)" d="M0 0h30.097v25.867H0z" fill-rule="evenodd"/></clipPath><g clip-path="url(#bj)"><clipPath id="bk"><path transform="matrix(1.0464 0 0 -1.04437 239.5 136.54)" d="M0 .02h30.144v25.847H0z" fill-rule="evenodd"/></clipPath><g clip-path="url(#bk)"><use xlink:href="#aB" transform="matrix(14.7918 0 -.00001 -14.7632 239.897 123.537)" fill="red"/></g><clipPath id="bl"><path transform="matrix(1.0464 0 0 -1.04437 239.5 136.54)" d="M0 .02h30.144v25.847H0z" fill-rule="evenodd"/></clipPath><g clip-path="url(#bl)"><use xlink:href="#aS" transform="matrix(14.7918 0 -.00001 -14.7632 253.408 123.537)" fill="red"/></g><clipPath id="bm"><path transform="matrix(1.0464 0 0 -1.04437 239.5 136.54)" d="M0 .02h30.144v25.847H0z" fill-rule="evenodd"/></clipPath><g clip-path="url(#bm)"><use xlink:href="#aM" transform="matrix(10.4974 0 -.00001 -10.47711 264.821 126.57)" fill="red"/></g><clipPath id="bn"><path transform="matrix(1.0464 0 0 -1.04437 239.5 136.54)" d="M0 .02h30.144v25.847H0z" fill-rule="evenodd"/></clipPath><g clip-path="url(#bn)"><use xlink:href="#aG" transform="matrix(14.7918 0 -.00001 -14.7632 271.042 123.537)" fill="red"/></g></g></g></svg>