<svg xmlns="http://www.w3.org/2000/svg" xmlns:xlink="http://www.w3.org/1999/xlink" width="595.36" height="377.76" viewBox="0 0 446.52 283.32"><clipPath id="a"><path transform="matrix(1 0 0 -1 0 283.32)" d="M0 283.32h446.52V0H0" fill-rule="evenodd"/></clipPath><g clip-path="url(#a)"><path stroke-width="2" stroke-linecap="round" stroke-linejoin="round" fill="none" stroke="#000" d="M246.52 239.572v18.563"/></g><path stroke-width="2" stroke-linecap="round" stroke-linejoin="round" fill="none" stroke="#000" d="M240.62 258.135h11.25M242.58 261.228h7.47M245.34 264.322h2.21"/><clipPath id="b"><path transform="matrix(1 0 0 -1 0 283.32)" d="M0 283.32h446.52V0H0" fill-rule="evenodd"/></clipPath><g clip-path="url(#b)"><path stroke-width="2" stroke-linecap="round" stroke-linejoin="round" fill="none" stroke="#000" d="M246.52 239.572v18.563"/></g><path stroke-width="2" stroke-linecap="round" stroke-linejoin="round" fill="none" stroke="#000" d="M240.62 258.135h11.25M242.58 261.228h7.47M245.34 264.322h2.21"/><clipPath id="c"><path transform="matrix(1 0 0 -1 0 283.32)" d="M236.56 264.95h26.25v-54.74h-26.25v54.74z" fill-rule="evenodd"/></clipPath><g clip-path="url(#c)"><clipPath id="d"><path transform="matrix(1.03662 0 0 -1.047 236.56 73.11)" d="M0 0h25.322v52.279H0z" fill-rule="evenodd"/></clipPath><g clip-path="url(#d)"><clipPath id="e"><path transform="matrix(1.03662 0 0 -1.047 236.56 73.11)" d="M0-.089h25.32V52.28H0z" fill-rule="evenodd"/></clipPath><g clip-path="url(#e)"><symbol id="f"><path d="M.366.457a.83.83 0 0 1 .047.095.137.137 0 0 1 .008.045c0 .024-.013.037-.041.04L.387.67h.208L.588.638a.08.08 0 0 1-.03-.014.11.11 0 0 1-.025-.025A.58.58 0 0 1 .5.545L.197 0H.074l-.02.522a.517.517 0 0 1-.005.05.133.133 0 0 1-.009.036.046.046 0 0 1-.016.02.051.051 0 0 1-.024.01L.007.67H.26L.252.638A.062.062 0 0 1 .22.627.053.053 0 0 1 .202.602.168.168 0 0 1 .197.555V.511L.201.34.203.16h.005l.158.297z"/></symbol><use xlink:href="#f" transform="matrix(14.60388 0 0 -14.75017 237.486 32.42)"/></g><clipPath id="g"><path transform="matrix(1.03662 0 0 -1.047 236.56 73.11)" d="M0-.089h25.32V52.28H0z" fill-rule="evenodd"/></clipPath><g clip-path="url(#g)"><symbol id="h"><path d="m0 0 .007.032a.07.07 0 0 1 .04.028.231.231 0 0 1 .026.072l.089.403c.004.019.006.038.006.057 0 .013-.003.023-.01.03-.006.006-.016.01-.03.012l.006.033h.198a.752.752 0 0 0 .129-.01.273.273 0 0 0 .08-.026.206.206 0 0 0 .058-.042A.197.197 0 0 0 .64.518a.29.29 0 0 0 .015-.1.52.52 0 0 0-.014-.125.43.43 0 0 0-.044-.11A.348.348 0 0 0 .36.009.666.666 0 0 0 .24 0H0m.202.06A.437.437 0 0 1 .238.058c.042 0 .078.008.109.025.03.016.057.041.08.075a.402.402 0 0 1 .056.125.55.55 0 0 1 .02.148.274.274 0 0 1-.01.084A.143.143 0 0 1 .46.57.109.109 0 0 1 .416.6.162.162 0 0 1 .36.61L.323.607.203.06z"/></symbol><use xlink:href="#h" transform="matrix(10.3496 0 0 -10.45327 246.6 35.385)"/><use xlink:href="#h" transform="matrix(10.3496 0 0 -10.45327 254.466 35.385)"/></g><clipPath id="i"><path transform="matrix(1.03662 0 0 -1.047 236.56 73.11)" d="M0-.089h25.32V52.28H0z" fill-rule="evenodd"/></clipPath><g clip-path="url(#i)"><symbol id="j"><path d="M0 0z"/></symbol><use xlink:href="#j" transform="matrix(14.60388 0 0 -14.75017 262.558 32.37)"/></g><clipPath id="k"><path transform="matrix(1.03662 0 0 -1.047 236.56 73.11)" d="M0-.089h25.32V52.28H0z" fill-rule="evenodd"/></clipPath><g clip-path="url(#k)"><use xlink:href="#j" transform="matrix(14.60388 0 0 -14.75017 236.56 59.332)"/></g></g></g><path stroke-width="2" stroke-linecap="round" stroke-linejoin="round" fill="none" stroke="#000" d="M129.25 205.26v7.312c-4.5-.099-9-.099-13.5 0"/><clipPath id="l"><path transform="matrix(1 0 0 -1 0 283.32)" d="M0 283.32h446.52V0H0" fill-rule="evenodd"/></clipPath><g clip-path="url(#l)"><path stroke-width="2" stroke-linecap="round" stroke-linejoin="round" fill="none" stroke="#000" d="M115.75 209.647v23.175"/></g><path stroke-width="2" stroke-linecap="round" stroke-linejoin="round" fill="none" stroke="#000" d="M115.75 230.572h13.5v9"/><clipPath id="m"><path transform="matrix(1 0 0 -1 0 283.32)" d="M0 283.32h446.52V0H0" fill-rule="evenodd"/></clipPath><g clip-path="url(#m)"><path stroke-width="2" stroke-linecap="round" stroke-linejoin="round" fill="none" stroke="#000" d="M111.25 210.322v22.5"/></g><path stroke-width="2" stroke-linecap="round" stroke-linejoin="round" fill="none" stroke="#000" d="M93.25 221.572h18M115.82 230.572h6.78"/><path d="m121.65 226.772 7.6 3.8-7.6 3.8v-7.6z" fill-rule="evenodd"/><path stroke-width="2" stroke-linecap="round" stroke-linejoin="round" fill="none" stroke="#000" d="M129.25 205.26v7.312c-4.5-.099-9-.099-13.5 0"/><clipPath id="n"><path transform="matrix(1 0 0 -1 0 283.32)" d="M0 283.32h446.52V0H0" fill-rule="evenodd"/></clipPath><g clip-path="url(#n)"><path stroke-width="2" stroke-linecap="round" stroke-linejoin="round" fill="none" stroke="#000" d="M115.75 209.647v23.175"/></g><path stroke-width="2" stroke-linecap="round" stroke-linejoin="round" fill="none" stroke="#000" d="M115.75 230.572h13.5v9"/><clipPath id="o"><path transform="matrix(1 0 0 -1 0 283.32)" d="M0 283.32h446.52V0H0" fill-rule="evenodd"/></clipPath><g clip-path="url(#o)"><path stroke-width="2" stroke-linecap="round" stroke-linejoin="round" fill="none" stroke="#000" d="M111.25 210.322v22.5"/></g><path stroke-width="2" stroke-linecap="round" stroke-linejoin="round" fill="none" stroke="#000" d="M93.25 221.572h18M115.82 230.572h6.78"/><path d="m121.65 226.772 7.6 3.8-7.6 3.8v-7.6z" fill-rule="evenodd"/><path stroke-width="2" stroke-linecap="round" stroke-linejoin="round" fill="none" stroke="#000" d="M129.25 40.63v7.31c-2.28-.05-4.57-.07-6.85-.07"/><path d="m123.39 51.66-7.64-3.72 7.56-3.88.08 7.6z" fill-rule="evenodd"/><clipPath id="p"><path transform="matrix(1 0 0 -1 0 283.32)" d="M0 283.32h446.52V0H0" fill-rule="evenodd"/></clipPath><g clip-path="url(#p)"><path stroke-width="2" stroke-linecap="round" stroke-linejoin="round" fill="none" stroke="#000" d="M115.75 45.02v23.17"/></g><path stroke-width="2" stroke-linecap="round" stroke-linejoin="round" fill="none" stroke="#000" d="M115.75 65.94h13.5v9"/><clipPath id="q"><path transform="matrix(1 0 0 -1 0 283.32)" d="M0 283.32h446.52V0H0" fill-rule="evenodd"/></clipPath><g clip-path="url(#q)"><path stroke-width="2" stroke-linecap="round" stroke-linejoin="round" fill="none" stroke="#000" d="M111.25 45.69v22.5"/></g><path stroke-width="2" stroke-linecap="round" stroke-linejoin="round" fill="none" stroke="#000" d="M93.25 56.94h18"/><path d="M110.69 56.94a2.815 2.815 0 0 0-5.63 0c0 1.56 1.26 2.81 2.81 2.81 1.56 0 2.82-1.25 2.82-2.81z" fill="#fff" fill-rule="evenodd"/><path stroke-width="2" stroke-linecap="round" stroke-linejoin="round" fill="none" stroke="#000" d="M110.69 56.94a2.815 2.815 0 0 0-5.63 0c0 1.56 1.26 2.81 2.81 2.81 1.56 0 2.82-1.25 2.82-2.81zM129.25 40.63v7.31c-2.28-.05-4.57-.07-6.85-.07"/><path d="m123.39 51.66-7.64-3.72 7.56-3.88.08 7.6z" fill-rule="evenodd"/><clipPath id="r"><path transform="matrix(1 0 0 -1 0 283.32)" d="M0 283.32h446.52V0H0" fill-rule="evenodd"/></clipPath><g clip-path="url(#r)"><path stroke-width="2" stroke-linecap="round" stroke-linejoin="round" fill="none" stroke="#000" d="M115.75 45.02v23.17"/></g><path stroke-width="2" stroke-linecap="round" stroke-linejoin="round" fill="none" stroke="#000" d="M115.75 65.94h13.5v9"/><clipPath id="s"><path transform="matrix(1 0 0 -1 0 283.32)" d="M0 283.32h446.52V0H0" fill-rule="evenodd"/></clipPath><g clip-path="url(#s)"><path stroke-width="2" stroke-linecap="round" stroke-linejoin="round" fill="none" stroke="#000" d="M111.25 45.69v22.5"/></g><path stroke-width="2" stroke-linecap="round" stroke-linejoin="round" fill="none" stroke="#000" d="M93.25 56.94h18"/><path d="M110.69 56.94a2.815 2.815 0 0 0-5.63 0c0 1.56 1.26 2.81 2.81 2.81 1.56 0 2.82-1.25 2.82-2.81z" fill="#fff" fill-rule="evenodd"/><path stroke-width="2" stroke-linecap="round" stroke-linejoin="round" fill="none" stroke="#000" d="M110.69 56.94a2.815 2.815 0 0 0-5.63 0c0 1.56 1.26 2.81 2.81 2.81 1.56 0 2.82-1.25 2.82-2.81zM357.38 204.911v7.313c-4.5-.1-9-.1-13.5 0"/><clipPath id="t"><path transform="matrix(1 0 0 -1 0 283.32)" d="M0 283.32h446.52V0H0" fill-rule="evenodd"/></clipPath><g clip-path="url(#t)"><path stroke-width="2" stroke-linecap="round" stroke-linejoin="round" fill="none" stroke="#000" d="M343.88 209.299v23.175"/></g><path stroke-width="2" stroke-linecap="round" stroke-linejoin="round" fill="none" stroke="#000" d="M343.88 230.224h13.5v9"/><clipPath id="u"><path transform="matrix(1 0 0 -1 0 283.32)" d="M0 283.32h446.52V0H0" fill-rule="evenodd"/></clipPath><g clip-path="url(#u)"><path stroke-width="2" stroke-linecap="round" stroke-linejoin="round" fill="none" stroke="#000" d="M339.38 209.974v22.5"/></g><path stroke-width="2" stroke-linecap="round" stroke-linejoin="round" fill="none" stroke="#000" d="M321.38 221.224h18M343.95 230.224h6.78"/><path d="m349.78 226.424 7.6 3.8-7.6 3.8v-7.6z" fill-rule="evenodd"/><path stroke-width="2" stroke-linecap="round" stroke-linejoin="round" fill="none" stroke="#000" d="M357.38 204.911v7.313c-4.5-.1-9-.1-13.5 0"/><clipPath id="v"><path transform="matrix(1 0 0 -1 0 283.32)" d="M0 283.32h446.52V0H0" fill-rule="evenodd"/></clipPath><g clip-path="url(#v)"><path stroke-width="2" stroke-linecap="round" stroke-linejoin="round" fill="none" stroke="#000" d="M343.88 209.299v23.175"/></g><path stroke-width="2" stroke-linecap="round" stroke-linejoin="round" fill="none" stroke="#000" d="M343.88 230.224h13.5v9"/><clipPath id="w"><path transform="matrix(1 0 0 -1 0 283.32)" d="M0 283.32h446.52V0H0" fill-rule="evenodd"/></clipPath><g clip-path="url(#w)"><path stroke-width="2" stroke-linecap="round" stroke-linejoin="round" fill="none" stroke="#000" d="M339.38 209.974v22.5"/></g><path stroke-width="2" stroke-linecap="round" stroke-linejoin="round" fill="none" stroke="#000" d="M321.38 221.224h18M343.95 230.224h6.78"/><path d="m349.78 226.424 7.6 3.8-7.6 3.8v-7.6z" fill-rule="evenodd"/><path stroke-width="2" stroke-linecap="round" stroke-linejoin="round" fill="none" stroke="#000" d="M357.38 41.92v7.31c-2.29-.05-4.57-.07-6.85-.07"/><path d="m351.52 52.95-7.64-3.72 7.55-3.88.09 7.6z" fill-rule="evenodd"/><clipPath id="x"><path transform="matrix(1 0 0 -1 0 283.32)" d="M0 283.32h446.52V0H0" fill-rule="evenodd"/></clipPath><g clip-path="url(#x)"><path stroke-width="2" stroke-linecap="round" stroke-linejoin="round" fill="none" stroke="#000" d="M343.88 46.31v23.17"/></g><path stroke-width="2" stroke-linecap="round" stroke-linejoin="round" fill="none" stroke="#000" d="M343.88 67.23h13.5v9"/><clipPath id="y"><path transform="matrix(1 0 0 -1 0 283.32)" d="M0 283.32h446.52V0H0" fill-rule="evenodd"/></clipPath><g clip-path="url(#y)"><path stroke-width="2" stroke-linecap="round" stroke-linejoin="round" fill="none" stroke="#000" d="M339.38 46.98v22.5"/></g><path stroke-width="2" stroke-linecap="round" stroke-linejoin="round" fill="none" stroke="#000" d="M321.38 58.23h18"/><path d="M338.81 58.23c0-1.55-1.25-2.81-2.81-2.81-1.55 0-2.81 1.26-2.81 2.81 0 1.56 1.26 2.81 2.81 2.81a2.8 2.8 0 0 0 2.81-2.81z" fill="#fff" fill-rule="evenodd"/><path stroke-width="2" stroke-linecap="round" stroke-linejoin="round" fill="none" stroke="#000" d="M338.81 58.23c0-1.55-1.25-2.81-2.81-2.81-1.55 0-2.81 1.26-2.81 2.81 0 1.56 1.26 2.81 2.81 2.81a2.8 2.8 0 0 0 2.81-2.81zM357.38 41.92v7.31c-2.29-.05-4.57-.07-6.85-.07"/><path d="m351.52 52.95-7.64-3.72 7.55-3.88.09 7.6z" fill-rule="evenodd"/><clipPath id="z"><path transform="matrix(1 0 0 -1 0 283.32)" d="M0 283.32h446.52V0H0" fill-rule="evenodd"/></clipPath><g clip-path="url(#z)"><path stroke-width="2" stroke-linecap="round" stroke-linejoin="round" fill="none" stroke="#000" d="M343.88 46.31v23.17"/></g><path stroke-width="2" stroke-linecap="round" stroke-linejoin="round" fill="none" stroke="#000" d="M343.88 67.23h13.5v9"/><clipPath id="A"><path transform="matrix(1 0 0 -1 0 283.32)" d="M0 283.32h446.52V0H0" fill-rule="evenodd"/></clipPath><g clip-path="url(#A)"><path stroke-width="2" stroke-linecap="round" stroke-linejoin="round" fill="none" stroke="#000" d="M339.38 46.98v22.5"/></g><path stroke-width="2" stroke-linecap="round" stroke-linejoin="round" fill="none" stroke="#000" d="M321.38 58.23h18"/><path d="M338.81 58.23c0-1.55-1.25-2.81-2.81-2.81-1.55 0-2.81 1.26-2.81 2.81 0 1.56 1.26 2.81 2.81 2.81a2.8 2.8 0 0 0 2.81-2.81z" fill="#fff" fill-rule="evenodd"/><path stroke-width="2" stroke-linecap="round" stroke-linejoin="round" fill="none" stroke="#000" d="M338.81 58.23c0-1.55-1.25-2.81-2.81-2.81-1.55 0-2.81 1.26-2.81 2.81 0 1.56 1.26 2.81 2.81 2.81a2.8 2.8 0 0 0 2.81-2.81zM357.38 239.572H129.25"/><path d="M248.78 239.572a2.39 2.39 0 1 0-4.78 0 2.39 2.39 0 0 0 4.78 0z" fill-rule="evenodd"/><path stroke-width=".75" stroke-linecap="round" stroke-linejoin="round" fill="none" stroke="#000" d="M248.78 239.572a2.39 2.39 0 1 0-4.78 0 2.39 2.39 0 0 0 4.78 0z"/><path d="M93.25 112.03c0-2.26-1.826-4.08-4.078-4.08a4.075 4.075 0 1 0 0 8.15 4.073 4.073 0 0 0 4.078-4.07z" fill="#fff" fill-rule="evenodd"/><path stroke-width="2" stroke-linecap="round" stroke-linejoin="round" fill="none" stroke="#000" d="M93.25 112.03c0-2.26-1.826-4.08-4.078-4.08a4.075 4.075 0 1 0 0 8.15 4.073 4.073 0 0 0 4.078-4.07z"/><clipPath id="B"><path transform="matrix(1 0 0 -1 0 283.32)" d="M0 283.32h446.52V0H0" fill-rule="evenodd"/></clipPath><g clip-path="url(#B)"><path stroke-width="2" stroke-linecap="round" stroke-linejoin="round" fill="none" stroke="#000" d="M129.25 74.94v20.83"/></g><clipPath id="C"><path transform="matrix(1 0 0 -1 0 283.32)" d="M0 283.32h446.52V0H0" fill-rule="evenodd"/></clipPath><g clip-path="url(#C)"><path stroke-width="2" stroke-linecap="round" stroke-linejoin="round" fill="none" stroke="#000" d="M357.38 76.23v130.369"/></g><clipPath id="D"><path transform="matrix(1 0 0 -1 0 283.32)" d="M0 283.32h446.52V0H0" fill-rule="evenodd"/></clipPath><g clip-path="url(#D)"><path stroke-width="2" stroke-linecap="round" stroke-linejoin="round" fill="none" stroke="#000" d="M129.25 128.11v77.15"/></g><path stroke-width="2" stroke-linecap="round" stroke-linejoin="round" fill="none" stroke="#000" d="M357.3 40.5H129.25M129.25 95.77v7.32c-2.28-.05-4.57-.08-6.85-.08"/><path d="m123.39 106.8-7.64-3.71 7.56-3.89.08 7.6z" fill-rule="evenodd"/><clipPath id="E"><path transform="matrix(1 0 0 -1 0 283.32)" d="M0 283.32h446.52V0H0" fill-rule="evenodd"/></clipPath><g clip-path="url(#E)"><path stroke-width="2" stroke-linecap="round" stroke-linejoin="round" fill="none" stroke="#000" d="M115.75 100.16v23.18"/></g><path stroke-width="2" stroke-linecap="round" stroke-linejoin="round" fill="none" stroke="#000" d="M115.75 121.09h13.5v9"/><clipPath id="F"><path transform="matrix(1 0 0 -1 0 283.32)" d="M0 283.32h446.52V0H0" fill-rule="evenodd"/></clipPath><g clip-path="url(#F)"><path stroke-width="2" stroke-linecap="round" stroke-linejoin="round" fill="none" stroke="#000" d="M111.25 100.84v22.5"/></g><path stroke-width="2" stroke-linecap="round" stroke-linejoin="round" fill="none" stroke="#000" d="M93.25 112.09h18"/><path d="M110.69 112.09a2.815 2.815 0 1 0-5.63-.01 2.815 2.815 0 0 0 5.63.01z" fill="#fff" fill-rule="evenodd"/><path stroke-width="2" stroke-linecap="round" stroke-linejoin="round" fill="none" stroke="#000" d="M110.69 112.09a2.815 2.815 0 1 0-5.63-.01 2.815 2.815 0 0 0 5.63.01zM129.25 95.77v7.32c-2.28-.05-4.57-.08-6.85-.08"/><path d="m123.39 106.8-7.64-3.71 7.56-3.89.08 7.6z" fill-rule="evenodd"/><clipPath id="G"><path transform="matrix(1 0 0 -1 0 283.32)" d="M0 283.32h446.52V0H0" fill-rule="evenodd"/></clipPath><g clip-path="url(#G)"><path stroke-width="2" stroke-linecap="round" stroke-linejoin="round" fill="none" stroke="#000" d="M115.75 100.16v23.18"/></g><path stroke-width="2" stroke-linecap="round" stroke-linejoin="round" fill="none" stroke="#000" d="M115.75 121.09h13.5v9"/><clipPath id="H"><path transform="matrix(1 0 0 -1 0 283.32)" d="M0 283.32h446.52V0H0" fill-rule="evenodd"/></clipPath><g clip-path="url(#H)"><path stroke-width="2" stroke-linecap="round" stroke-linejoin="round" fill="none" stroke="#000" d="M111.25 100.84v22.5"/></g><path stroke-width="2" stroke-linecap="round" stroke-linejoin="round" fill="none" stroke="#000" d="M93.25 112.09h18"/><path d="M110.69 112.09a2.815 2.815 0 1 0-5.63-.01 2.815 2.815 0 0 0 5.63.01z" fill="#fff" fill-rule="evenodd"/><path stroke-width="2" stroke-linecap="round" stroke-linejoin="round" fill="none" stroke="#000" d="M110.69 112.09a2.815 2.815 0 1 0-5.63-.01 2.815 2.815 0 0 0 5.63.01z"/><path d="M275.17 150.77a4.076 4.076 0 1 0-8.15 0 4.076 4.076 0 1 0 8.15 0z" fill="#fff" fill-rule="evenodd"/><path stroke-width="2" stroke-linecap="round" stroke-linejoin="round" fill="none" stroke="#000" d="M275.17 150.77a4.076 4.076 0 1 0-8.15 0 4.076 4.076 0 1 0 8.15 0zM93.25 56.94H68.5v164.632h24.75M68.5 143.95H25.75"/><path d="M71.031 143.95a2.39 2.39 0 1 0-4.78 0 2.39 2.39 0 0 0 4.78 0z" fill-rule="evenodd"/><path stroke-width=".75" stroke-linecap="round" stroke-linejoin="round" fill="none" stroke="#000" d="M71.031 143.95a2.39 2.39 0 1 0-4.78 0 2.39 2.39 0 0 0 4.78 0z"/><path d="M27.156 143.95c0-2.26-1.826-4.08-4.078-4.08A4.075 4.075 0 0 0 19 143.95c0 2.25 1.826 4.08 4.078 4.08a4.081 4.081 0 0 0 4.078-4.08z" fill="#fff" fill-rule="evenodd"/><path stroke-width="2" stroke-linecap="round" stroke-linejoin="round" fill="none" stroke="#000" d="M27.156 143.95c0-2.26-1.826-4.08-4.078-4.08A4.075 4.075 0 0 0 19 143.95c0 2.25 1.826 4.08 4.078 4.08a4.081 4.081 0 0 0 4.078-4.08zM330.38 58.22h-24.75v163.004h24.75"/><path d="M307.88 139.1a2.39 2.39 0 1 0-4.78 0 2.39 2.39 0 0 0 4.78 0z" fill-rule="evenodd"/><path stroke-width=".75" stroke-linecap="round" stroke-linejoin="round" fill="none" stroke="#000" d="M307.88 139.1a2.39 2.39 0 1 0-4.78 0 2.39 2.39 0 0 0 4.78 0z"/><path stroke-width="2" stroke-linecap="round" stroke-linejoin="round" fill="none" stroke="#000" d="M393.38 140.16h-35.86"/><path d="M359.91 140.16a2.39 2.39 0 1 0-4.78 0 2.39 2.39 0 0 0 4.78 0z" fill-rule="evenodd"/><path stroke-width=".75" stroke-linecap="round" stroke-linejoin="round" fill="none" stroke="#000" d="M359.91 140.16a2.39 2.39 0 1 0-4.78 0 2.39 2.39 0 0 0 4.78 0z"/><path d="M400.13 140.16c0-2.25-1.83-4.08-4.08-4.08s-4.08 1.83-4.08 4.08 1.83 4.08 4.08 4.08 4.08-1.83 4.08-4.08z" fill="#fff" fill-rule="evenodd"/><path stroke-width="2" stroke-linecap="round" stroke-linejoin="round" fill="none" stroke="#000" d="M400.13 140.16c0-2.25-1.83-4.08-4.08-4.08s-4.08 1.83-4.08 4.08 1.83 4.08 4.08 4.08 4.08-1.83 4.08-4.08z"/><clipPath id="I"><path transform="matrix(1 0 0 -1 0 283.32)" d="M0 283.32h446.52V0H0" fill-rule="evenodd"/></clipPath><g clip-path="url(#I)"><path stroke-width="2" stroke-linecap="round" stroke-linejoin="round" fill="none" stroke="#000" d="M271.24 110.41v35.86"/></g><clipPath id="J"><path transform="matrix(1 0 0 -1 0 283.32)" d="M19.34 135.12h26.419v25.71H19.34z" fill-rule="evenodd"/></clipPath><g clip-path="url(#J)"><clipPath id="K"><path transform="matrix(.99596 0 0 -.99396 19.34 148.2)" d="M0 0h26.527v25.867H0z" fill-rule="evenodd"/></clipPath><g clip-path="url(#K)"><clipPath id="L"><path transform="matrix(.99596 0 0 -.99396 19.34 148.2)" d="M0 .02h26.52v25.847H0z" fill-rule="evenodd"/></clipPath><g clip-path="url(#L)"><symbol id="M"><path d="M.44.305A.181.181 0 0 0 .482.26.21.21 0 0 0 .505.194L.52.126A.318.318 0 0 1 .534.073a.078.078 0 0 1 .02-.026.083.083 0 0 1 .032-.015L.58 0H.405a.78.78 0 0 0-.028.109l-.016.08a.27.27 0 0 1-.016.059.067.067 0 0 1-.023.03.069.069 0 0 1-.038.01h-.03L.217.131A.34.34 0 0 1 .212.075C.212.06.216.049.223.043A.064.064 0 0 1 .26.033L.252 0H0l.007.032a.07.07 0 0 1 .04.028.231.231 0 0 1 .026.072l.089.403c.004.019.006.038.006.057 0 .013-.003.023-.01.03-.006.006-.016.01-.03.012l.006.033h.244A.801.801 0 0 0 .46.663.23.23 0 0 0 .523.648.153.153 0 0 0 .573.62.12.12 0 0 0 .605.575.187.187 0 0 0 .571.391.296.296 0 0 0 .44.31V.305m-.142.04c.042 0 .075.006.098.018a.14.14 0 0 1 .057.06.195.195 0 0 1 .02.092C.473.547.466.57.45.585.433.603.408.61.373.61h-.05L.266.343h.03z"/></symbol><symbol id="N"><path d="M.094.17A.176.176 0 0 1 .107.103.073.073 0 0 1 .141.067a.133.133 0 0 1 .056-.01c.036 0 .064.01.084.03.02.02.031.05.031.086a.12.12 0 0 1-.04.092.616.616 0 0 1-.07.057.251.251 0 0 0-.07.076.174.174 0 0 0-.007.163.18.18 0 0 0 .049.064c.022.019.049.033.082.042.033.01.071.015.115.015A.695.695 0 0 0 .545.66l-.03-.14H.453C.452.557.444.584.43.6.416.618.394.626.362.626a.114.114 0 0 1-.08-.028.098.098 0 0 1-.03-.076C.251.5.258.477.274.457A.364.364 0 0 1 .347.392.466.466 0 0 0 .414.333.18.18 0 0 0 .449.28.2.2 0 0 0 .386.057a.246.246 0 0 0-.08-.043A.398.398 0 0 0 .188 0 .603.603 0 0 0 0 .03l.03.14h.064z"/></symbol><symbol id="O"><path d="M.575.667.536.49H.474a.342.342 0 0 1-.007.075.06.06 0 0 1-.019.033.053.053 0 0 1-.036.011H.37L.264.132A.36.36 0 0 1 .257.075C.257.06.261.049.27.043a.064.064 0 0 1 .036-.01L.298 0h-.26l.007.032A.07.07 0 0 1 .08.045.071.071 0 0 1 .1.074a.327.327 0 0 1 .018.058l.105.477H.184A.098.098 0 0 1 .141.601.116.116 0 0 1 .104.567.315.315 0 0 1 .064.5H0l.037.167h.538z"/></symbol><use xlink:href="#M" transform="matrix(14.07886 0 0 -14.05062 19.732 135.705)"/><use xlink:href="#N" transform="matrix(14.07886 0 0 -14.05062 29.298 135.815)"/><use xlink:href="#O" transform="matrix(14.07886 0 0 -14.05062 37.56 135.705)"/></g></g></g><path stroke-width="2" stroke-linecap="round" stroke-linejoin="round" fill="none" stroke="#000" d="M228.25 206.036v7.313c-4.5-.1-9-.1-13.5 0"/><clipPath id="P"><path transform="matrix(1 0 0 -1 0 283.32)" d="M0 283.32h446.52V0H0" fill-rule="evenodd"/></clipPath><g clip-path="url(#P)"><path stroke-width="2" stroke-linecap="round" stroke-linejoin="round" fill="none" stroke="#000" d="M214.75 210.424v23.175"/></g><clipPath id="Q"><path transform="matrix(1 0 0 -1 0 283.32)" d="M0 283.32h446.52V0H0" fill-rule="evenodd"/></clipPath><g clip-path="url(#Q)"><path stroke-width="2" stroke-linecap="round" stroke-linejoin="round" fill="none" stroke="#000" d="M210.25 211.099v22.5"/></g><path stroke-width="2" stroke-linecap="round" stroke-linejoin="round" fill="none" stroke="#000" d="M192.25 222.349h18M214.82 231.349h6.78"/><path d="m220.65 227.549 7.6 3.8-7.6 3.8v-7.6z" fill-rule="evenodd"/><path stroke-width="2" stroke-linecap="round" stroke-linejoin="round" fill="none" stroke="#000" d="M228.25 41.41v7.31c-2.28-.05-4.57-.08-6.85-.08"/><path d="m222.39 52.43-7.64-3.71 7.56-3.89.08 7.6z" fill-rule="evenodd"/><clipPath id="R"><path transform="matrix(1 0 0 -1 0 283.32)" d="M0 283.32h446.52V0H0" fill-rule="evenodd"/></clipPath><g clip-path="url(#R)"><path stroke-width="2" stroke-linecap="round" stroke-linejoin="round" fill="none" stroke="#000" d="M214.75 45.79v23.18"/></g><path stroke-width="2" stroke-linecap="round" stroke-linejoin="round" fill="none" stroke="#000" d="M214.75 66.72h13.5v9"/><clipPath id="S"><path transform="matrix(1 0 0 -1 0 283.32)" d="M0 283.32h446.52V0H0" fill-rule="evenodd"/></clipPath><g clip-path="url(#S)"><path stroke-width="2" stroke-linecap="round" stroke-linejoin="round" fill="none" stroke="#000" d="M210.25 46.47v22.5"/></g><path stroke-width="2" stroke-linecap="round" stroke-linejoin="round" fill="none" stroke="#000" d="M192.25 57.72h18"/><path d="M209.69 57.72a2.815 2.815 0 0 0-5.63 0 2.815 2.815 0 0 0 5.63 0z" fill="#fff" fill-rule="evenodd"/><path stroke-width="2" stroke-linecap="round" stroke-linejoin="round" fill="none" stroke="#000" d="M209.69 57.72a2.815 2.815 0 0 0-5.63 0 2.815 2.815 0 0 0 5.63 0zM228.25 41.41v7.31c-2.28-.05-4.57-.08-6.85-.08"/><path d="m222.39 52.43-7.64-3.71 7.56-3.89.08 7.6z" fill-rule="evenodd"/><clipPath id="T"><path transform="matrix(1 0 0 -1 0 283.32)" d="M0 283.32h446.52V0H0" fill-rule="evenodd"/></clipPath><g clip-path="url(#T)"><path stroke-width="2" stroke-linecap="round" stroke-linejoin="round" fill="none" stroke="#000" d="M214.75 45.79v23.18"/></g><path stroke-width="2" stroke-linecap="round" stroke-linejoin="round" fill="none" stroke="#000" d="M214.75 66.72h13.5v9"/><clipPath id="U"><path transform="matrix(1 0 0 -1 0 283.32)" d="M0 283.32h446.52V0H0" fill-rule="evenodd"/></clipPath><g clip-path="url(#U)"><path stroke-width="2" stroke-linecap="round" stroke-linejoin="round" fill="none" stroke="#000" d="M210.25 46.47v22.5"/></g><path stroke-width="2" stroke-linecap="round" stroke-linejoin="round" fill="none" stroke="#000" d="M192.25 57.72h18"/><path d="M209.69 57.72a2.815 2.815 0 0 0-5.63 0 2.815 2.815 0 0 0 5.63 0z" fill="#fff" fill-rule="evenodd"/><path stroke-width="2" stroke-linecap="round" stroke-linejoin="round" fill="none" stroke="#000" d="M209.69 57.72a2.815 2.815 0 0 0-5.63 0 2.815 2.815 0 0 0 5.63 0z"/><clipPath id="V"><path transform="matrix(1 0 0 -1 0 283.32)" d="M0 283.32h446.52V0H0" fill-rule="evenodd"/></clipPath><g clip-path="url(#V)"><path stroke-width="2" stroke-linecap="round" stroke-linejoin="round" fill="none" stroke="#000" d="M228.25 75.72v20.83"/></g><clipPath id="W"><path transform="matrix(1 0 0 -1 0 283.32)" d="M0 283.32h446.52V0H0" fill-rule="evenodd"/></clipPath><g clip-path="url(#W)"><path stroke-width="2" stroke-linecap="round" stroke-linejoin="round" fill="none" stroke="#000" d="M228.25 128.88v77.156"/></g><path stroke-width="2" stroke-linecap="round" stroke-linejoin="round" fill="none" stroke="#000" d="M228.25 96.55v7.31c-2.28-.05-4.57-.07-6.85-.07"/><path d="m222.39 107.58-7.64-3.72 7.56-3.88.08 7.6z" fill-rule="evenodd"/><clipPath id="X"><path transform="matrix(1 0 0 -1 0 283.32)" d="M0 283.32h446.52V0H0" fill-rule="evenodd"/></clipPath><g clip-path="url(#X)"><path stroke-width="2" stroke-linecap="round" stroke-linejoin="round" fill="none" stroke="#000" d="M214.75 100.94v23.17"/></g><path stroke-width="2" stroke-linecap="round" stroke-linejoin="round" fill="none" stroke="#000" d="M214.75 121.86h13.5v9"/><clipPath id="Y"><path transform="matrix(1 0 0 -1 0 283.32)" d="M0 283.32h446.52V0H0" fill-rule="evenodd"/></clipPath><g clip-path="url(#Y)"><path stroke-width="2" stroke-linecap="round" stroke-linejoin="round" fill="none" stroke="#000" d="M210.25 101.61v22.5"/></g><path stroke-width="2" stroke-linecap="round" stroke-linejoin="round" fill="none" stroke="#000" d="M192.25 112.86h18"/><path d="M209.69 112.86a2.815 2.815 0 1 0-5.63.01 2.815 2.815 0 0 0 5.63-.01z" fill="#fff" fill-rule="evenodd"/><path stroke-width="2" stroke-linecap="round" stroke-linejoin="round" fill="none" stroke="#000" d="M209.69 112.86a2.815 2.815 0 1 0-5.63.01 2.815 2.815 0 0 0 5.63-.01zM228.25 96.55v7.31c-2.28-.05-4.57-.07-6.85-.07"/><path d="m222.39 107.58-7.64-3.72 7.56-3.88.08 7.6z" fill-rule="evenodd"/><clipPath id="Z"><path transform="matrix(1 0 0 -1 0 283.32)" d="M0 283.32h446.52V0H0" fill-rule="evenodd"/></clipPath><g clip-path="url(#Z)"><path stroke-width="2" stroke-linecap="round" stroke-linejoin="round" fill="none" stroke="#000" d="M214.75 100.94v23.17"/></g><path stroke-width="2" stroke-linecap="round" stroke-linejoin="round" fill="none" stroke="#000" d="M214.75 121.86h13.5v9"/><clipPath id="aa"><path transform="matrix(1 0 0 -1 0 283.32)" d="M0 283.32h446.52V0H0" fill-rule="evenodd"/></clipPath><g clip-path="url(#aa)"><path stroke-width="2" stroke-linecap="round" stroke-linejoin="round" fill="none" stroke="#000" d="M210.25 101.61v22.5"/></g><path stroke-width="2" stroke-linecap="round" stroke-linejoin="round" fill="none" stroke="#000" d="M192.25 112.86h18"/><path d="M209.69 112.86a2.815 2.815 0 1 0-5.63.01 2.815 2.815 0 0 0 5.63-.01z" fill="#fff" fill-rule="evenodd"/><path stroke-width="2" stroke-linecap="round" stroke-linejoin="round" fill="none" stroke="#000" d="M209.69 112.86a2.815 2.815 0 1 0-5.63.01 2.815 2.815 0 0 0 5.63-.01zM192.25 57.72H167.5v164.629h24.75"/><clipPath id="ab"><path transform="matrix(1 0 0 -1 0 283.32)" d="M0 283.32h446.52V0H0" fill-rule="evenodd"/></clipPath><g clip-path="url(#ab)"><path stroke-width="2" stroke-linecap="round" stroke-linejoin="round" fill="none" stroke="#000" d="M228.25 231.349v8.223"/></g><path stroke-width="2" stroke-linecap="round" stroke-linejoin="round" fill="none" stroke="#000" d="M228.25 231.349h-9.33M167.5 172.85h-38.25"/><path d="M131.46 172.71c0-1.32-1.08-2.39-2.4-2.39a2.39 2.39 0 1 0 0 4.78c1.32 0 2.4-1.07 2.4-2.39z" fill-rule="evenodd"/><path stroke-width=".75" stroke-linecap="round" stroke-linejoin="round" fill="none" stroke="#000" d="M131.46 172.71c0-1.32-1.08-2.39-2.4-2.39a2.39 2.39 0 1 0 0 4.78c1.32 0 2.4-1.07 2.4-2.39z"/><path d="M169.71 172.71c0-1.32-1.08-2.39-2.4-2.39a2.39 2.39 0 1 0 0 4.78c1.32 0 2.4-1.07 2.4-2.39z" fill-rule="evenodd"/><path stroke-width=".75" stroke-linecap="round" stroke-linejoin="round" fill="none" stroke="#000" d="M169.71 172.71c0-1.32-1.08-2.39-2.4-2.39a2.39 2.39 0 1 0 0 4.78c1.32 0 2.4-1.07 2.4-2.39z"/><clipPath id="ac"><path transform="matrix(1 0 0 -1 0 283.32)" d="M0 283.32h446.52V0H0" fill-rule="evenodd"/></clipPath><g clip-path="url(#ac)"><path stroke-width="2" stroke-linecap="round" stroke-linejoin="round" fill="none" stroke="#000" d="M192.25 112.86V87.35"/></g><path stroke-width="2" stroke-linecap="round" stroke-linejoin="round" fill="none" stroke="#000" d="M192.25 87.35H97.424v24.74"/><clipPath id="ad"><path transform="matrix(1 0 0 -1 0 283.32)" d="M74.924 167.85h27.866v-25.71H74.924v25.71z" fill-rule="evenodd"/></clipPath><g clip-path="url(#ad)"><clipPath id="ae"><path transform="matrix(.99616 0 0 -.99396 74.924 141.18)" d="M0 0h27.972v25.867H0z" fill-rule="evenodd"/></clipPath><g clip-path="url(#ae)"><clipPath id="af"><path transform="matrix(.99616 0 0 -.99396 74.924 141.18)" d="M0 .02h27.96v25.847H0z" fill-rule="evenodd"/></clipPath><g clip-path="url(#af)"><symbol id="ag"><path d="M.608.667.574.509H.51a.271.271 0 0 1-.009.065.049.049 0 0 1-.02.027.07.07 0 0 1-.036.008H.323L.271.375H.34c.013 0 .024.002.033.006.01.005.017.012.025.021A.19.19 0 0 1 .42.444h.054L.427.246h-.05a.21.21 0 0 1-.004.043.036.036 0 0 1-.013.022C.354.316.344.318.33.318h-.07L.202.058h.11c.014 0 .025 0 .033.002a.07.07 0 0 1 .022.01C.374.073.38.08.39.09a.488.488 0 0 1 .053.086h.066L.464 0H0l.007.032a.07.07 0 0 1 .04.028.231.231 0 0 1 .026.072l.089.403c.004.019.006.038.006.057 0 .013-.003.023-.01.03-.006.006-.016.01-.03.012l.006.033h.474z"/></symbol><symbol id="ah"><path d="M.218.132A.31.31 0 0 1 .212.075C.212.06.216.049.223.043A.064.064 0 0 1 .26.033L.252 0H0l.007.032a.07.07 0 0 1 .04.028.231.231 0 0 1 .026.072l.089.403c.004.019.006.038.006.057 0 .013-.003.023-.01.03-.006.006-.016.01-.03.012l.006.033h.462L.562.509H.499A.271.271 0 0 1 .49.574a.049.049 0 0 1-.02.027.07.07 0 0 1-.036.008h-.11L.27.365h.065a.06.06 0 0 1 .046.019.205.205 0 0 1 .036.06h.054L.42.226H.37c0 .023-.002.04-.004.05a.04.04 0 0 1-.013.025C.347.306.337.308.324.308H.257L.218.132z"/></symbol><use xlink:href="#M" transform="matrix(14.08177 0 0 -14.05062 75.316 128.685)"/><use xlink:href="#ag" transform="matrix(14.08177 0 0 -14.05062 85.173 128.685)"/><use xlink:href="#ah" transform="matrix(14.08177 0 0 -14.05062 94.326 128.685)"/></g></g></g><path stroke-width="2" stroke-linecap="round" stroke-linejoin="round" fill="none" stroke="#000" d="M228.25 87.35h42.99"/><clipPath id="ai"><path transform="matrix(1 0 0 -1 0 283.32)" d="M0 283.32h446.52V0H0" fill-rule="evenodd"/></clipPath><g clip-path="url(#ai)"><path stroke-width="2" stroke-linecap="round" stroke-linejoin="round" fill="none" stroke="#000" d="M271.24 110.41V87.35"/></g><path stroke-width="2" stroke-linecap="round" stroke-linejoin="round" fill="none" stroke="#000" d="M271.24 87.35h17.43"/><clipPath id="aj"><path transform="matrix(1 0 0 -1 0 283.32)" d="M0 283.32h446.52V0H0" fill-rule="evenodd"/></clipPath><g clip-path="url(#aj)"><path stroke-width="2" stroke-linecap="round" stroke-linejoin="round" fill="none" stroke="#000" d="M288.67 87.35v51.75"/></g><path stroke-width="2" stroke-linecap="round" stroke-linejoin="round" fill="none" stroke="#000" d="M288.67 139.1h14.43"/><path d="M273.63 87.49a2.39 2.39 0 1 0-4.78 0 2.39 2.39 0 0 0 4.78 0z" fill-rule="evenodd"/><path stroke-width=".75" stroke-linecap="round" stroke-linejoin="round" fill="none" stroke="#000" d="M273.63 87.49a2.39 2.39 0 1 0-4.78 0 2.39 2.39 0 0 0 4.78 0z"/><clipPath id="ak"><path transform="matrix(1 0 0 -1 0 283.32)" d="M0 283.32h446.52V0H0" fill-rule="evenodd"/></clipPath><g clip-path="url(#ak)"><path stroke-width="2" stroke-linecap="round" stroke-linejoin="round" fill="none" stroke="#000" d="m357.38 44.04-.08-3.54"/></g><clipPath id="al"><path transform="matrix(1 0 0 -1 0 283.32)" d="M402.97 152.24h25.2v-26.02h-25.2v26.02z" fill-rule="evenodd"/></clipPath><g clip-path="url(#al)"><clipPath id="am"><path transform="matrix(.99571 0 0 -.99401 402.97 157.1)" d="M0 0h25.308v26.179H0z" fill-rule="evenodd"/></clipPath><g clip-path="url(#am)"><clipPath id="an"><path transform="matrix(.99571 0 0 -.99401 402.97 157.1)" d="M0 .043h25.344V26.18H0z" fill-rule="evenodd"/></clipPath><g clip-path="url(#an)"><symbol id="ao"><path d="M.481.24A.462.462 0 0 0 .443.127.23.23 0 0 0 .386.053.213.213 0 0 0 .31.013.392.392 0 0 0 .123.01a.183.183 0 0 0-.064.033A.16.16 0 0 0 0 .176L.003.23C.006.248.011.277.02.317l.05.225A.26.26 0 0 1 .078.6c0 .013-.003.023-.01.03C.061.635.051.64.037.641l.006.032H.29L.282.642a.07.07 0 0 1-.04-.027.231.231 0 0 1-.026-.073L.15.243A.524.524 0 0 1 .138.147C.138.117.145.095.16.08.174.065.196.057.224.057c.027 0 .05.006.069.018.019.012.033.03.044.051a.372.372 0 0 1 .03.087l.072.33A.22.22 0 0 1 .445.6c0 .013-.003.023-.01.03C.43.635.42.64.406.641l.007.032H.62L.613.642A.072.072 0 0 1 .57.614.225.225 0 0 1 .547.542L.48.24z"/></symbol><symbol id="ap"><path d="M.378.667A.807.807 0 0 0 .46.663.223.223 0 0 0 .522.648a.15.15 0 0 0 .051-.03.12.12 0 0 0 .031-.045.16.16 0 0 0 .011-.06A.215.215 0 0 0 .537.34.25.25 0 0 0 .444.29.485.485 0 0 0 .315.277H.3c-.02 0-.037 0-.05.002L.218.132A.31.31 0 0 1 .212.075C.212.06.216.049.223.043A.064.064 0 0 1 .26.033L.252 0H0l.007.032a.07.07 0 0 1 .04.028.231.231 0 0 1 .026.072l.089.403c.004.019.006.038.006.057 0 .013-.003.023-.01.03-.006.006-.016.01-.03.012l.006.033h.244M.288.333c.045 0 .08.007.104.021a.135.135 0 0 1 .055.063c.012.028.019.06.019.094C.466.544.458.57.442.585.427.601.403.609.371.609a.99.99 0 0 1-.048 0L.263.332H.29z"/></symbol><use xlink:href="#ao" transform="matrix(14.02763 0 -.00001 -14.00366 406.88 144.356)"/><use xlink:href="#ap" transform="matrix(14.02763 0 -.00001 -14.00366 416.372 144.246)"/></g></g></g><clipPath id="aq"><path transform="matrix(1 0 0 -1 0 283.32)" d="M258.5 125.46h25.2V99.435h-25.2v26.025z" fill-rule="evenodd"/></clipPath><g clip-path="url(#aq)"><clipPath id="ar"><path transform="matrix(.99571 0 0 -.99401 258.5 183.885)" d="M0 0h25.308v26.179H0z" fill-rule="evenodd"/></clipPath><g clip-path="url(#ar)"><clipPath id="as"><path transform="matrix(.99571 0 0 -.99401 258.5 183.885)" d="M0 .043h25.344V26.18H0z" fill-rule="evenodd"/></clipPath><g clip-path="url(#as)"><use xlink:href="#ao" transform="matrix(14.02763 0 0 -14.00366 262.41 171.38)"/><use xlink:href="#ap" transform="matrix(14.02763 0 0 -14.00366 271.902 171.27)"/></g><clipPath id="at"><path transform="matrix(.99571 0 0 -.99401 258.5 183.885)" d="M0 .043h8.808V26.18H0z" fill-rule="evenodd"/></clipPath><g clip-path="url(#at)"><symbol id="au"><path d="M.43 0H0v.052h.43V0z"/></symbol><use xlink:href="#au" transform="matrix(14.02763 0 0 -14.00366 261.272 160.461)"/></g><clipPath id="av"><path transform="matrix(.99571 0 0 -.99401 258.5 183.885)" d="M8.688.043h4.704V26.18H8.688z" fill-rule="evenodd"/></clipPath><g clip-path="url(#av)"><use xlink:href="#au" transform="matrix(14.02763 0 0 -14.00366 265.836 160.461)"/></g><clipPath id="aw"><path transform="matrix(.99571 0 0 -.99401 258.5 183.885)" d="M13.272.043h4.704V26.18h-4.704z" fill-rule="evenodd"/></clipPath><g clip-path="url(#aw)"><use xlink:href="#au" transform="matrix(14.02763 0 0 -14.00366 270.4 160.461)"/></g><clipPath id="ax"><path transform="matrix(.99571 0 0 -.99401 258.5 183.885)" d="M17.856.043h7.488V26.18h-7.488z" fill-rule="evenodd"/></clipPath><g clip-path="url(#ax)"><use xlink:href="#au" transform="matrix(14.02763 0 0 -14.00366 275.085 160.461)"/></g></g></g><clipPath id="ay"><path transform="matrix(1 0 0 -1 0 283.32)" d="M130.5 43.748h19.956v25.71H130.5z" fill-rule="evenodd"/></clipPath><g clip-path="url(#ay)"><clipPath id="az"><path transform="matrix(.99449 0 0 -.99396 130.5 239.572)" d="M0 0h20.067v25.867H0z" fill-rule="evenodd"/></clipPath><g clip-path="url(#az)"><clipPath id="aA"><path transform="matrix(.99449 0 0 -.99396 130.5 239.572)" d="M0 .02h20.016v25.847H0z" fill-rule="evenodd"/></clipPath><g clip-path="url(#aA)"><symbol id="aB"><path d="M.362.667.4.259.63.667h.227L.852.634A.07.07 0 0 1 .81.607.231.231 0 0 1 .786.535L.696.132A.31.31 0 0 1 .69.075C.69.06.694.05.7.045A.056.056 0 0 1 .73.031L.724 0H.48l.006.032A.07.07 0 0 1 .526.06a.231.231 0 0 1 .025.072l.045.205A3.1 3.1 0 0 0 .65.542h-.01A3.88 3.88 0 0 0 .59.454L.37.074H.291L.259.367C.25.437.246.497.244.547H.236A3.695 3.695 0 0 0 .2.346L.152.131A.31.31 0 0 1 .146.075C.146.06.149.05.155.045A.056.056 0 0 1 .186.031L.179 0H0l.007.032a.07.07 0 0 1 .04.028.231.231 0 0 1 .026.072l.089.403c.004.019.006.038.006.057 0 .013-.003.023-.01.03-.006.006-.016.01-.03.012l.006.033h.228z"/></symbol><use xlink:href="#aB" transform="matrix(14.05805 0 0 -14.05062 131.236 227.077)"/></g><clipPath id="aC"><path transform="matrix(.99449 0 0 -.99396 130.5 239.572)" d="M0 .02h20.016v25.847H0z" fill-rule="evenodd"/></clipPath><g clip-path="url(#aC)"><symbol id="aD"><path d="M.314.136c0-.019.001-.033.003-.043A.056.056 0 0 1 .33.07.059.059 0 0 1 .352.056.216.216 0 0 1 .39.048.792.792 0 0 1 .45.044V0H.03v.044a.715.715 0 0 1 .076.007.096.096 0 0 1 .036.012.046.046 0 0 1 .018.024c.004.01.006.026.006.05v.352c0 .014-.003.023-.008.03a.025.025 0 0 1-.02.008.086.086 0 0 1-.035-.011A.794.794 0 0 1 .03.47L0 .52l.255.153h.062a2.211 2.211 0 0 1-.003-.13V.136z"/></symbol><use xlink:href="#aD" transform="matrix(9.97668 0 0 -9.9714 144.498 229.963)"/></g><clipPath id="aE"><path transform="matrix(.99449 0 0 -.99396 130.5 239.572)" d="M0 .02h20.016v25.847H0z" fill-rule="evenodd"/></clipPath><g clip-path="url(#aE)"><symbol id="aF"><path d="M0 0z"/></symbol><use xlink:href="#aF" transform="matrix(14.05805 0 0 -14.05062 150.167 227.077)"/></g></g></g><clipPath id="aG"><path transform="matrix(1 0 0 -1 0 283.32)" d="M130.79 178.94h19.96v-25.71h-19.96v25.71z" fill-rule="evenodd"/></clipPath><g clip-path="url(#aG)"><clipPath id="aH"><path transform="matrix(.99449 0 0 -.99396 130.79 130.09)" d="M0 0h20.067v25.867H0z" fill-rule="evenodd"/></clipPath><g clip-path="url(#aH)"><clipPath id="aI"><path transform="matrix(.99449 0 0 -.99396 130.79 130.09)" d="M0 .02h20.016v25.847H0z" fill-rule="evenodd"/></clipPath><g clip-path="url(#aI)"><use xlink:href="#aB" transform="matrix(14.05805 .00001 0 -14.05062 131.526 117.595)"/></g><clipPath id="aJ"><path transform="matrix(.99449 0 0 -.99396 130.79 130.09)" d="M0 .02h20.016v25.847H0z" fill-rule="evenodd"/></clipPath><g clip-path="url(#aJ)"><symbol id="aK"><path d="M.315.12C.337.12.352.12.363.124.373.127.38.133.387.14c.006.008.011.02.015.035h.056L.448 0H0v.032a.986.986 0 0 0 .154.223c.035.041.062.075.08.102a.362.362 0 0 1 .041.076C.285.456.29.48.29.506A.132.132 0 0 1 .265.59.078.078 0 0 1 .2.621C.147.621.113.583.098.506H.01v.116a.804.804 0 0 0 .128.042.5.5 0 0 0 .103.01.3.3 0 0 0 .117-.02.133.133 0 0 0 .066-.051.141.141 0 0 0 .02-.077A.176.176 0 0 0 .43.454.317.317 0 0 0 .38.378 1.52 1.52 0 0 0 .26.257 1.15 1.15 0 0 1 .143.125V.12h.173z"/></symbol><use xlink:href="#aK" transform="matrix(9.97668 0 0 -9.9714 144.544 120.481)"/></g><clipPath id="aL"><path transform="matrix(.99449 0 0 -.99396 130.79 130.09)" d="M0 .02h20.016v25.847H0z" fill-rule="evenodd"/></clipPath><g clip-path="url(#aL)"><use xlink:href="#aF" transform="matrix(14.05805 .00001 0 -14.05062 150.457 117.595)"/></g></g></g><clipPath id="aM"><path transform="matrix(1 0 0 -1 0 283.32)" d="M130.5 212.28h19.956v25.71H130.5z" fill-rule="evenodd"/></clipPath><g clip-path="url(#aM)"><clipPath id="aN"><path transform="matrix(.99449 0 0 -.99396 130.5 71.04)" d="M0 0h20.067v25.867H0z" fill-rule="evenodd"/></clipPath><g clip-path="url(#aN)"><clipPath id="aO"><path transform="matrix(.99449 0 0 -.99396 130.5 71.04)" d="M0 .02h20.016v25.847H0z" fill-rule="evenodd"/></clipPath><g clip-path="url(#aO)"><use xlink:href="#aB" transform="matrix(14.05805 .00001 0 -14.05062 131.236 58.545)"/></g><clipPath id="aP"><path transform="matrix(.99449 0 0 -.99396 130.5 71.04)" d="M0 .02h20.016v25.847H0z" fill-rule="evenodd"/></clipPath><g clip-path="url(#aP)"><symbol id="aQ"><path d="M.01.514v.115a.578.578 0 0 0 .223.053C.295.682.344.67.381.645A.12.12 0 0 0 .436.54C.436.502.426.47.403.442A.291.291 0 0 0 .295.366V.36A.198.198 0 0 0 .407.304.152.152 0 0 0 .45.195a.186.186 0 0 0-.028-.1.184.184 0 0 0-.084-.07A.335.335 0 0 0 .201 0a.6.6 0 0 0-.108.01A.41.41 0 0 0 0 .038v.123h.088A.171.171 0 0 1 .128.08.094.094 0 0 1 .196.055c.069 0 .103.042.103.128C.3.229.287.263.263.285.239.308.202.32.153.32h-.04v.056c.057.002.1.015.13.04.029.023.044.059.044.105C.287.556.279.583.265.6.25.62.229.63.2.63a.087.087 0 0 1-.068-.03.17.17 0 0 1-.036-.085H.01z"/></symbol><use xlink:href="#aQ" transform="matrix(9.97668 0 0 -9.9714 144.347 61.51)"/></g><clipPath id="aR"><path transform="matrix(.99449 0 0 -.99396 130.5 71.04)" d="M0 .02h20.016v25.847H0z" fill-rule="evenodd"/></clipPath><g clip-path="url(#aR)"><use xlink:href="#aF" transform="matrix(14.05805 .00001 0 -14.05062 150.167 58.545)"/></g></g></g><clipPath id="aS"><path transform="matrix(1 0 0 -1 0 283.32)" d="M228.83 69.103h19.95v-25.71h-19.95v25.71z" fill-rule="evenodd"/></clipPath><g clip-path="url(#aS)"><clipPath id="aT"><path transform="matrix(.99449 0 0 -.99396 228.83 239.927)" d="M0 0h20.067v25.867H0z" fill-rule="evenodd"/></clipPath><g clip-path="url(#aT)"><clipPath id="aU"><path transform="matrix(.99449 0 0 -.99396 228.83 239.927)" d="M0 .02h20.016v25.847H0z" fill-rule="evenodd"/></clipPath><g clip-path="url(#aU)"><use xlink:href="#aB" transform="matrix(14.05805 0 -.00001 -14.05062 229.566 227.432)"/></g><clipPath id="aV"><path transform="matrix(.99449 0 0 -.99396 228.83 239.927)" d="M0 .02h20.016v25.847H0z" fill-rule="evenodd"/></clipPath><g clip-path="url(#aV)"><symbol id="aW"><path d="M.21.032a.09.09 0 0 1 .035.015C.25.053.255.061.258.07.26.08.262.097.262.12v.073H0v.053L.296.67h.11V.255h.015c.016 0 .028 0 .034.003A.036.036 0 0 1 .472.27a.09.09 0 0 1 .013.031h.052L.53.193H.406V.121A.21.21 0 0 1 .411.069.044.044 0 0 1 .424.047.11.11 0 0 1 .459.032V0h-.25v.032M.095.255h.167v.112c0 .047.001.096.005.148H.262L.095.263V.255z"/></symbol><use xlink:href="#aW" transform="matrix(9.97668 0 -.00001 -9.9714 242.311 230.318)"/></g><clipPath id="aX"><path transform="matrix(.99449 0 0 -.99396 228.83 239.927)" d="M0 .02h20.016v25.847H0z" fill-rule="evenodd"/></clipPath><g clip-path="url(#aX)"><use xlink:href="#aF" transform="matrix(14.05805 0 -.00001 -14.05062 248.497 227.432)"/></g></g></g><clipPath id="aY"><path transform="matrix(1 0 0 -1 0 283.32)" d="M230.62 180h19.96v-25.71h-19.96V180z" fill-rule="evenodd"/></clipPath><g clip-path="url(#aY)"><clipPath id="aZ"><path transform="matrix(.99445 0 0 -.99396 230.62 129.03)" d="M0 0h20.067v25.867H0z" fill-rule="evenodd"/></clipPath><g clip-path="url(#aZ)"><clipPath id="ba"><path transform="matrix(.99445 0 0 -.99396 230.62 129.03)" d="M0 .02h20.016v25.847H0z" fill-rule="evenodd"/></clipPath><g clip-path="url(#ba)"><use xlink:href="#aB" transform="matrix(14.05755 .00001 -.00001 -14.05062 231.356 116.535)"/></g><clipPath id="bb"><path transform="matrix(.99445 0 0 -.99396 230.62 129.03)" d="M0 .02h20.016v25.847H0z" fill-rule="evenodd"/></clipPath><g clip-path="url(#bb)"><symbol id="bc"><path d="M0 .038V.16h.088a.159.159 0 0 1 .04-.08.096.096 0 0 1 .069-.025c.035 0 .061.01.078.032C.292.11.301.144.301.19.3.235.29.27.268.293.246.317.215.329.173.329a.333.333 0 0 1-.1-.016L.029.341v.333h.288c.018 0 .03.002.035.007.006.004.012.013.017.026h.054L.413.55h-.3V.375a.543.543 0 0 0 .135.017C.288.392.324.385.354.37a.162.162 0 0 0 .07-.066.191.191 0 0 0 .026-.1.183.183 0 0 0-.066-.152A.296.296 0 0 0 .196 0 .552.552 0 0 0 0 .038z"/></symbol><use xlink:href="#bc" transform="matrix(9.97632 0 -.00001 -9.9714 244.612 119.5)"/></g><clipPath id="bd"><path transform="matrix(.99445 0 0 -.99396 230.62 129.03)" d="M0 .02h20.016v25.847H0z" fill-rule="evenodd"/></clipPath><g clip-path="url(#bd)"><use xlink:href="#aF" transform="matrix(14.05755 .00001 -.00001 -14.05062 250.286 116.535)"/></g></g></g><clipPath id="be"><path transform="matrix(1 0 0 -1 0 283.32)" d="M230.77 233.31h19.96V207.6h-19.96v25.71z" fill-rule="evenodd"/></clipPath><g clip-path="url(#be)"><clipPath id="bf"><path transform="matrix(.99445 0 0 -.99396 230.77 75.72)" d="M0 0h20.067v25.867H0z" fill-rule="evenodd"/></clipPath><g clip-path="url(#bf)"><clipPath id="bg"><path transform="matrix(.99445 0 0 -.99396 230.77 75.72)" d="M0 .02h20.016v25.847H0z" fill-rule="evenodd"/></clipPath><g clip-path="url(#bg)"><use xlink:href="#aB" transform="matrix(14.05755 0 -.00001 -14.05062 231.506 63.225)"/></g><clipPath id="bh"><path transform="matrix(.99445 0 0 -.99396 230.77 75.72)" d="M0 .02h20.016v25.847H0z" fill-rule="evenodd"/></clipPath><g clip-path="url(#bh)"><symbol id="bi"><path d="M.411.648v-.03A.248.248 0 0 1 .238.552.326.326 0 0 1 .149.37L.154.368a.279.279 0 0 0 .161.05C.353.418.385.41.412.394a.153.153 0 0 0 .06-.07A.25.25 0 0 0 .494.22.235.235 0 0 0 .466.105.186.186 0 0 0 .38.028.314.314 0 0 0 .242 0c-.05 0-.094.01-.13.03a.2.2 0 0 0-.083.09A.325.325 0 0 0 0 .263C0 .34.016.408.048.47a.384.384 0 0 0 .137.148.422.422 0 0 0 .2.064L.41.648M.258.351A.135.135 0 0 1 .176.325a.108.108 0 0 1-.022-.02.051.051 0 0 1-.008-.021.34.34 0 0 1-.002-.05C.144.174.152.13.168.1A.082.082 0 0 1 .245.055c.034 0 .06.012.078.037A.211.211 0 0 1 .349.21a.193.193 0 0 1-.024.106.075.075 0 0 1-.067.036z"/></symbol><use xlink:href="#bi" transform="matrix(9.97632 0 -.00001 -9.9714 244.533 66.19)"/></g><clipPath id="bj"><path transform="matrix(.99445 0 0 -.99396 230.77 75.72)" d="M0 .02h20.016v25.847H0z" fill-rule="evenodd"/></clipPath><g clip-path="url(#bj)"><use xlink:href="#aF" transform="matrix(14.05755 0 -.00001 -14.05062 250.436 63.225)"/></g></g></g><clipPath id="bk"><path transform="matrix(1 0 0 -1 0 283.32)" d="M359.17 71.353h19.95v-25.71h-19.95v25.71z" fill-rule="evenodd"/></clipPath><g clip-path="url(#bk)"><clipPath id="bl"><path transform="matrix(.99445 0 0 -.99396 359.17 237.677)" d="M0 0h20.067v25.867H0z" fill-rule="evenodd"/></clipPath><g clip-path="url(#bl)"><clipPath id="bm"><path transform="matrix(.99445 0 0 -.99396 359.17 237.677)" d="M0 .02h20.016v25.847H0z" fill-rule="evenodd"/></clipPath><g clip-path="url(#bm)"><use xlink:href="#aB" transform="matrix(14.05755 0 -.00001 -14.05062 359.906 225.182)"/></g><clipPath id="bn"><path transform="matrix(.99445 0 0 -.99396 359.17 237.677)" d="M0 .02h20.016v25.847H0z" fill-rule="evenodd"/></clipPath><g clip-path="url(#bn)"><symbol id="bo"><path d="M.48.636.21 0h-.1v.034L.353.53v.008H.137A.136.136 0 0 1 .1.533.047.047 0 0 1 .075.516a.15.15 0 0 1-.018-.05H0l.013.202H.48V.636z"/></symbol><use xlink:href="#bo" transform="matrix(9.97632 0 -.00001 -9.9714 373.011 228.083)"/></g><clipPath id="bp"><path transform="matrix(.99445 0 0 -.99396 359.17 237.677)" d="M0 .02h20.016v25.847H0z" fill-rule="evenodd"/></clipPath><g clip-path="url(#bp)"><use xlink:href="#aF" transform="matrix(14.05755 0 -.00001 -14.05062 378.836 225.182)"/></g></g></g><clipPath id="bq"><path transform="matrix(1 0 0 -1 0 283.32)" d="M362.25 232.8h19.96v-25.71h-19.96v25.71z" fill-rule="evenodd"/></clipPath><g clip-path="url(#bq)"><clipPath id="br"><path transform="matrix(.99449 0 0 -.99396 362.25 76.23)" d="M0 0h20.067v25.867H0z" fill-rule="evenodd"/></clipPath><g clip-path="url(#br)"><clipPath id="bs"><path transform="matrix(.99449 0 0 -.99396 362.25 76.23)" d="M0 .02h20.016v25.847H0z" fill-rule="evenodd"/></clipPath><g clip-path="url(#bs)"><use xlink:href="#aB" transform="matrix(14.05805 .00001 -.00001 -14.05062 362.986 63.735)"/></g><clipPath id="bt"><path transform="matrix(.99449 0 0 -.99396 362.25 76.23)" d="M0 .02h20.016v25.847H0z" fill-rule="evenodd"/></clipPath><g clip-path="url(#bt)"><symbol id="bu"><path d="M.383.36.384.354A.18.18 0 0 0 .47.291C.49.263.499.23.499.19a.17.17 0 0 0-.03-.1.199.199 0 0 0-.09-.068A.358.358 0 0 0 .244 0a.354.354 0 0 0-.129.021.19.19 0 0 0-.085.064.164.164 0 0 0-.03.099C0 .22.01.252.028.279c.02.027.049.05.089.067L.116.353C.044.383.008.436.008.508c0 .034.01.063.03.09.021.026.05.047.089.062.038.015.08.023.127.023.08 0 .14-.015.18-.044.04-.029.06-.07.06-.123A.156.156 0 0 0 .466.424.187.187 0 0 0 .383.36M.154.512C.154.47.163.437.18.414A.087.087 0 0 1 .253.38c.032 0 .055.011.07.032a.15.15 0 0 1 .025.091c0 .04-.009.072-.025.093a.083.083 0 0 1-.071.032C.22.628.195.618.179.598.162.58.154.55.154.513M.148.195C.148.15.157.114.174.09.19.067.217.055.25.055S.308.067.325.09a.162.162 0 0 1 .026.097.17.17 0 0 1-.028.103.087.087 0 0 1-.073.037C.216.327.19.316.174.293A.16.16 0 0 1 .148.195z"/></symbol><use xlink:href="#bu" transform="matrix(9.97668 0 -.00001 -9.9714 375.946 66.704)"/></g><clipPath id="bv"><path transform="matrix(.99449 0 0 -.99396 362.25 76.23)" d="M0 .02h20.016v25.847H0z" fill-rule="evenodd"/></clipPath><g clip-path="url(#bv)"><use xlink:href="#aF" transform="matrix(14.05805 .00001 -.00001 -14.05062 381.917 63.735)"/></g></g></g></svg>