<svg xmlns="http://www.w3.org/2000/svg" xmlns:xlink="http://www.w3.org/1999/xlink" width="471.84" height="431.68" viewBox="0 0 353.88 323.76"><clipPath id="a"><path transform="matrix(1 0 0 -1 0 323.76)" d="M0 323.76h353.88V0H0" fill-rule="evenodd"/></clipPath><g clip-path="url(#a)"><path stroke-width="2" stroke-linecap="round" stroke-linejoin="round" fill="none" stroke="#000" d="M203.22 91.4v15.75"/></g><path stroke-width="2" stroke-linecap="round" stroke-linejoin="round" fill="none" stroke="#000" d="M140.84 107.15h118.12-20.47M140.84 129.09v7.31c-2.29-.05-4.57-.08-6.85-.08"/><path d="m134.98 140.11-7.64-3.71 7.55-3.89.09 7.6z" fill-rule="evenodd"/><clipPath id="b"><path transform="matrix(1 0 0 -1 0 323.76)" d="M0 323.76h353.88V0H0" fill-rule="evenodd"/></clipPath><g clip-path="url(#b)"><path stroke-width="2" stroke-linecap="round" stroke-linejoin="round" fill="none" stroke="#000" d="M127.34 133.47v23.18"/></g><path stroke-width="2" stroke-linecap="round" stroke-linejoin="round" fill="none" stroke="#000" d="M127.34 154.4h13.5v9"/><clipPath id="c"><path transform="matrix(1 0 0 -1 0 323.76)" d="M0 323.76h353.88V0H0" fill-rule="evenodd"/></clipPath><g clip-path="url(#c)"><path stroke-width="2" stroke-linecap="round" stroke-linejoin="round" fill="none" stroke="#000" d="M122.84 134.15v22.5"/></g><path stroke-width="2" stroke-linecap="round" stroke-linejoin="round" fill="none" stroke="#000" d="M104.84 145.4h18"/><path d="M122.27 145.4a2.8 2.8 0 0 0-2.81-2.81c-1.55 0-2.81 1.25-2.81 2.81 0 1.55 1.26 2.81 2.81 2.81 1.56 0 2.81-1.26 2.81-2.81z" fill="#fff" fill-rule="evenodd"/><path stroke-width="2" stroke-linecap="round" stroke-linejoin="round" fill="none" stroke="#000" d="M122.27 145.4a2.8 2.8 0 0 0-2.81-2.81c-1.55 0-2.81 1.25-2.81 2.81 0 1.55 1.26 2.81 2.81 2.81 1.56 0 2.81-1.26 2.81-2.81zM140.84 129.09v7.31c-2.29-.05-4.57-.08-6.85-.08"/><path d="m134.98 140.11-7.64-3.71 7.55-3.89.09 7.6z" fill-rule="evenodd"/><clipPath id="d"><path transform="matrix(1 0 0 -1 0 323.76)" d="M0 323.76h353.88V0H0" fill-rule="evenodd"/></clipPath><g clip-path="url(#d)"><path stroke-width="2" stroke-linecap="round" stroke-linejoin="round" fill="none" stroke="#000" d="M127.34 133.47v23.18"/></g><path stroke-width="2" stroke-linecap="round" stroke-linejoin="round" fill="none" stroke="#000" d="M127.34 154.4h13.5v9"/><clipPath id="e"><path transform="matrix(1 0 0 -1 0 323.76)" d="M0 323.76h353.88V0H0" fill-rule="evenodd"/></clipPath><g clip-path="url(#e)"><path stroke-width="2" stroke-linecap="round" stroke-linejoin="round" fill="none" stroke="#000" d="M122.84 134.15v22.5"/></g><path stroke-width="2" stroke-linecap="round" stroke-linejoin="round" fill="none" stroke="#000" d="M104.84 145.4h18"/><path d="M122.27 145.4a2.8 2.8 0 0 0-2.81-2.81c-1.55 0-2.81 1.25-2.81 2.81 0 1.55 1.26 2.81 2.81 2.81 1.56 0 2.81-1.26 2.81-2.81z" fill="#fff" fill-rule="evenodd"/><path stroke-width="2" stroke-linecap="round" stroke-linejoin="round" fill="none" stroke="#000" d="M122.27 145.4a2.8 2.8 0 0 0-2.81-2.81c-1.55 0-2.81 1.25-2.81 2.81 0 1.55 1.26 2.81 2.81 2.81 1.56 0 2.81-1.26 2.81-2.81zM258.96 129.09v7.31c2.29-.05 4.57-.08 6.85-.08"/><path d="m264.82 140.11 7.64-3.71-7.55-3.89-.09 7.6z" fill-rule="evenodd"/><clipPath id="f"><path transform="matrix(1 0 0 -1 0 323.76)" d="M0 323.76h353.88V0H0" fill-rule="evenodd"/></clipPath><g clip-path="url(#f)"><path stroke-width="2" stroke-linecap="round" stroke-linejoin="round" fill="none" stroke="#000" d="M272.46 133.47v23.18"/></g><path stroke-width="2" stroke-linecap="round" stroke-linejoin="round" fill="none" stroke="#000" d="M272.46 154.4h-13.5v9"/><clipPath id="g"><path transform="matrix(1 0 0 -1 0 323.76)" d="M0 323.76h353.88V0H0" fill-rule="evenodd"/></clipPath><g clip-path="url(#g)"><path stroke-width="2" stroke-linecap="round" stroke-linejoin="round" fill="none" stroke="#000" d="M276.96 134.15v22.5"/></g><path stroke-width="2" stroke-linecap="round" stroke-linejoin="round" fill="none" stroke="#000" d="M294.96 145.4h-18"/><path d="M277.52 145.4c0-1.56 1.26-2.81 2.82-2.81 1.55 0 2.81 1.25 2.81 2.81a2.815 2.815 0 0 1-5.63 0z" fill="#fff" fill-rule="evenodd"/><path stroke-width="2" stroke-linecap="round" stroke-linejoin="round" fill="none" stroke="#000" d="M277.52 145.4c0-1.56 1.26-2.81 2.82-2.81 1.55 0 2.81 1.25 2.81 2.81a2.815 2.815 0 0 1-5.63 0zM258.96 129.09v7.31c2.29-.05 4.57-.08 6.85-.08"/><path d="m264.82 140.11 7.64-3.71-7.55-3.89-.09 7.6z" fill-rule="evenodd"/><clipPath id="h"><path transform="matrix(1 0 0 -1 0 323.76)" d="M0 323.76h353.88V0H0" fill-rule="evenodd"/></clipPath><g clip-path="url(#h)"><path stroke-width="2" stroke-linecap="round" stroke-linejoin="round" fill="none" stroke="#000" d="M272.46 133.47v23.18"/></g><path stroke-width="2" stroke-linecap="round" stroke-linejoin="round" fill="none" stroke="#000" d="M272.46 154.4h-13.5v9"/><clipPath id="i"><path transform="matrix(1 0 0 -1 0 323.76)" d="M0 323.76h353.88V0H0" fill-rule="evenodd"/></clipPath><g clip-path="url(#i)"><path stroke-width="2" stroke-linecap="round" stroke-linejoin="round" fill="none" stroke="#000" d="M276.96 134.15v22.5"/></g><path stroke-width="2" stroke-linecap="round" stroke-linejoin="round" fill="none" stroke="#000" d="M294.96 145.4h-18"/><path d="M277.52 145.4c0-1.56 1.26-2.81 2.82-2.81 1.55 0 2.81 1.25 2.81 2.81a2.815 2.815 0 0 1-5.63 0z" fill="#fff" fill-rule="evenodd"/><path stroke-width="2" stroke-linecap="round" stroke-linejoin="round" fill="none" stroke="#000" d="M277.52 145.4c0-1.56 1.26-2.81 2.82-2.81 1.55 0 2.81 1.25 2.81 2.81a2.815 2.815 0 0 1-5.63 0z"/><clipPath id="j"><path transform="matrix(1 0 0 -1 0 323.76)" d="M0 323.76h353.88V0H0" fill-rule="evenodd"/></clipPath><g clip-path="url(#j)"><path stroke-width="2" stroke-linecap="round" stroke-linejoin="round" fill="none" stroke="#000" d="M140.84 131.9v-24.75"/></g><clipPath id="k"><path transform="matrix(1 0 0 -1 0 323.76)" d="M0 323.76h353.88V0H0" fill-rule="evenodd"/></clipPath><g clip-path="url(#k)"><path stroke-width="2" stroke-linecap="round" stroke-linejoin="round" fill="none" stroke="#000" d="M258.96 129.09v-21.94"/></g><path stroke-width="2" stroke-linecap="round" stroke-linejoin="round" fill="none" stroke="#000" d="M140.84 181.4v7.31c-4.5-.1-9-.1-13.5 0"/><clipPath id="l"><path transform="matrix(1 0 0 -1 0 323.76)" d="M0 323.76h353.88V0H0" fill-rule="evenodd"/></clipPath><g clip-path="url(#l)"><path stroke-width="2" stroke-linecap="round" stroke-linejoin="round" fill="none" stroke="#000" d="M127.34 185.79v23.17"/></g><path stroke-width="2" stroke-linecap="round" stroke-linejoin="round" fill="none" stroke="#000" d="M127.34 206.71h13.5v9"/><clipPath id="m"><path transform="matrix(1 0 0 -1 0 323.76)" d="M0 323.76h353.88V0H0" fill-rule="evenodd"/></clipPath><g clip-path="url(#m)"><path stroke-width="2" stroke-linecap="round" stroke-linejoin="round" fill="none" stroke="#000" d="M122.84 186.46v22.5"/></g><path stroke-width="2" stroke-linecap="round" stroke-linejoin="round" fill="none" stroke="#000" d="M104.84 197.71h18M127.41 206.71h6.78"/><path d="m133.24 202.91 7.6 3.8-7.6 3.8v-7.6z" fill-rule="evenodd"/><path stroke-width="2" stroke-linecap="round" stroke-linejoin="round" fill="none" stroke="#000" d="M140.84 181.4v7.31c-4.5-.1-9-.1-13.5 0"/><clipPath id="n"><path transform="matrix(1 0 0 -1 0 323.76)" d="M0 323.76h353.88V0H0" fill-rule="evenodd"/></clipPath><g clip-path="url(#n)"><path stroke-width="2" stroke-linecap="round" stroke-linejoin="round" fill="none" stroke="#000" d="M127.34 185.79v23.17"/></g><path stroke-width="2" stroke-linecap="round" stroke-linejoin="round" fill="none" stroke="#000" d="M127.34 206.71h13.5v9"/><clipPath id="o"><path transform="matrix(1 0 0 -1 0 323.76)" d="M0 323.76h353.88V0H0" fill-rule="evenodd"/></clipPath><g clip-path="url(#o)"><path stroke-width="2" stroke-linecap="round" stroke-linejoin="round" fill="none" stroke="#000" d="M122.84 186.46v22.5"/></g><path stroke-width="2" stroke-linecap="round" stroke-linejoin="round" fill="none" stroke="#000" d="M104.84 197.71h18M127.41 206.71h6.78"/><path d="m133.24 202.91 7.6 3.8-7.6 3.8v-7.6z" fill-rule="evenodd"/><path stroke-width="2" stroke-linecap="round" stroke-linejoin="round" fill="none" stroke="#000" d="M258.96 181.4v7.31c4.5-.1 9-.1 13.5 0"/><clipPath id="p"><path transform="matrix(1 0 0 -1 0 323.76)" d="M0 323.76h353.88V0H0" fill-rule="evenodd"/></clipPath><g clip-path="url(#p)"><path stroke-width="2" stroke-linecap="round" stroke-linejoin="round" fill="none" stroke="#000" d="M272.46 185.79v23.17"/></g><path stroke-width="2" stroke-linecap="round" stroke-linejoin="round" fill="none" stroke="#000" d="M272.46 206.71h-13.5v9"/><clipPath id="q"><path transform="matrix(1 0 0 -1 0 323.76)" d="M0 323.76h353.88V0H0" fill-rule="evenodd"/></clipPath><g clip-path="url(#q)"><path stroke-width="2" stroke-linecap="round" stroke-linejoin="round" fill="none" stroke="#000" d="M276.96 186.46v22.5"/></g><path stroke-width="2" stroke-linecap="round" stroke-linejoin="round" fill="none" stroke="#000" d="M294.96 197.71h-18M272.39 206.71h-6.78"/><path d="m266.56 202.91-7.6 3.8 7.6 3.8v-7.6z" fill-rule="evenodd"/><path stroke-width="2" stroke-linecap="round" stroke-linejoin="round" fill="none" stroke="#000" d="M258.96 181.4v7.31c4.5-.1 9-.1 13.5 0"/><clipPath id="r"><path transform="matrix(1 0 0 -1 0 323.76)" d="M0 323.76h353.88V0H0" fill-rule="evenodd"/></clipPath><g clip-path="url(#r)"><path stroke-width="2" stroke-linecap="round" stroke-linejoin="round" fill="none" stroke="#000" d="M272.46 185.79v23.17"/></g><path stroke-width="2" stroke-linecap="round" stroke-linejoin="round" fill="none" stroke="#000" d="M272.46 206.71h-13.5v9"/><clipPath id="s"><path transform="matrix(1 0 0 -1 0 323.76)" d="M0 323.76h353.88V0H0" fill-rule="evenodd"/></clipPath><g clip-path="url(#s)"><path stroke-width="2" stroke-linecap="round" stroke-linejoin="round" fill="none" stroke="#000" d="M276.96 186.46v22.5"/></g><path stroke-width="2" stroke-linecap="round" stroke-linejoin="round" fill="none" stroke="#000" d="M294.96 197.71h-18M272.39 206.71h-6.78"/><path d="m266.56 202.91-7.6 3.8 7.6 3.8v-7.6z" fill-rule="evenodd"/><clipPath id="t"><path transform="matrix(1 0 0 -1 0 323.76)" d="M0 323.76h353.88V0H0" fill-rule="evenodd"/></clipPath><g clip-path="url(#t)"><path stroke-width="2" stroke-linecap="round" stroke-linejoin="round" fill="none" stroke="#000" d="M140.84 181.4v-18"/></g><clipPath id="u"><path transform="matrix(1 0 0 -1 0 323.76)" d="M0 323.76h353.88V0H0" fill-rule="evenodd"/></clipPath><g clip-path="url(#u)"><path stroke-width="2" stroke-linecap="round" stroke-linejoin="round" fill="none" stroke="#000" d="M258.96 188.71V163.4"/></g><path stroke-width="2" stroke-linecap="round" stroke-linejoin="round" fill="none" stroke="#000" d="M258.96 215.71H140.84"/><path d="M200.4 215.71a2.815 2.815 0 0 1 5.63 0 2.815 2.815 0 0 1-5.63 0z" fill-rule="evenodd"/><path stroke-width="2" stroke-linecap="round" stroke-linejoin="round" fill="none" stroke="#000" d="M200.4 215.71a2.815 2.815 0 0 1 5.63 0 2.815 2.815 0 0 1-5.63 0z"/><path d="M294.4 145.4c0-1.56 1.26-2.81 2.81-2.81a2.8 2.8 0 0 1 2.81 2.81c0 1.55-1.25 2.81-2.81 2.81-1.55 0-2.81-1.26-2.81-2.81z" fill-rule="evenodd"/><path stroke-width="2" stroke-linecap="round" stroke-linejoin="round" fill="none" stroke="#000" d="M294.4 145.4c0-1.56 1.26-2.81 2.81-2.81a2.8 2.8 0 0 1 2.81 2.81c0 1.55-1.25 2.81-2.81 2.81-1.55 0-2.81-1.26-2.81-2.81z"/><path d="M293.27 197.64a2.815 2.815 0 0 1 5.63 0 2.815 2.815 0 0 1-5.63 0z" fill-rule="evenodd"/><path stroke-width="2" stroke-linecap="round" stroke-linejoin="round" fill="none" stroke="#000" d="M293.27 197.64a2.815 2.815 0 0 1 5.63 0 2.815 2.815 0 0 1-5.63 0z"/><path d="M100.34 145.4c0-1.56 1.26-2.81 2.81-2.81s2.81 1.25 2.81 2.81c0 1.55-1.26 2.81-2.81 2.81s-2.81-1.26-2.81-2.81z" fill-rule="evenodd"/><path stroke-width="2" stroke-linecap="round" stroke-linejoin="round" fill="none" stroke="#000" d="M100.34 145.4c0-1.56 1.26-2.81 2.81-2.81s2.81 1.25 2.81 2.81c0 1.55-1.26 2.81-2.81 2.81s-2.81-1.26-2.81-2.81z"/><path d="M100.9 197.64c0-1.55 1.26-2.81 2.81-2.81 1.56 0 2.81 1.26 2.81 2.81s-1.25 2.81-2.81 2.81c-1.55 0-2.81-1.26-2.81-2.81z" fill-rule="evenodd"/><path stroke-width="2" stroke-linecap="round" stroke-linejoin="round" fill="none" stroke="#000" d="M100.9 197.64c0-1.55 1.26-2.81 2.81-2.81 1.56 0 2.81 1.26 2.81 2.81s-1.25 2.81-2.81 2.81c-1.55 0-2.81-1.26-2.81-2.81z"/><path d="M200.4 107.15c0-1.56 1.26-2.81 2.82-2.81 1.55 0 2.81 1.25 2.81 2.81a2.815 2.815 0 0 1-5.63 0z" fill-rule="evenodd"/><path stroke-width="2" stroke-linecap="round" stroke-linejoin="round" fill="none" stroke="#000" d="M200.4 107.15c0-1.56 1.26-2.81 2.82-2.81 1.55 0 2.81 1.25 2.81 2.81a2.815 2.815 0 0 1-5.63 0z"/><path d="M220.71 188.15v-54l-54 27 54 27z" fill="#fff" fill-rule="evenodd"/><path stroke-width="2" stroke-linecap="round" stroke-linejoin="round" fill="none" stroke="#000" d="M220.71 188.15v-54l-54 27 54 27z"/><clipPath id="v"><path transform="matrix(1 0 0 -1 0 323.76)" d="M0 0h353.88v323.76H0z" fill-rule="evenodd"/></clipPath><g clip-path="url(#v)"><symbol id="w"><path d="M.154 0v.186H0v.128h.154V.5h.102V.314h.155V.186H.256V0H.154z"/></symbol><use xlink:href="#w" transform="matrix(-18 0 0 18 216.184 168.605)"/></g><clipPath id="x"><path transform="matrix(1 0 0 -1 0 323.76)" d="M0 0h353.88v323.76H0z" fill-rule="evenodd"/></clipPath><g clip-path="url(#x)"><symbol id="y"><path d="M0 0v.137h.221V0H0z"/></symbol><use xlink:href="#y" transform="matrix(-18.024 0 0 18.024 216.324 147.441)"/></g><path d="M220.71 188.15v-54l-54 27 54 27z" fill="#fff" fill-rule="evenodd"/><path stroke-width="2" stroke-linecap="round" stroke-linejoin="round" fill="none" stroke="#000" d="M220.71 188.15v-54l-54 27 54 27z"/><clipPath id="z"><path transform="matrix(1 0 0 -1 0 323.76)" d="M0 0h353.88v323.76H0z" fill-rule="evenodd"/></clipPath><g clip-path="url(#z)"><use xlink:href="#w" transform="matrix(-18 0 0 18 216.184 168.605)"/></g><clipPath id="A"><path transform="matrix(1 0 0 -1 0 323.76)" d="M0 0h353.88v323.76H0z" fill-rule="evenodd"/></clipPath><g clip-path="url(#A)"><use xlink:href="#y" transform="matrix(-18.024 0 0 18.024 216.324 147.441)"/></g><path stroke-width="2" stroke-linecap="round" stroke-linejoin="round" fill="none" stroke="#000" d="M220.71 172.4h38.25M166.71 161.15h-25.87M162.21 161.15v-36h65.25M220.71 149.9h9v-24.75"/><path d="M160.24 161.15c0-1.09.89-1.97 1.97-1.97 1.09 0 1.97.88 1.97 1.97 0 1.09-.88 1.97-1.97 1.97-1.08 0-1.97-.88-1.97-1.97z" fill-rule="evenodd"/><path stroke-width="2" stroke-linecap="round" stroke-linejoin="round" fill="none" stroke="#000" d="M160.24 161.15c0-1.09.89-1.97 1.97-1.97 1.09 0 1.97.88 1.97 1.97 0 1.09-.88 1.97-1.97 1.97-1.08 0-1.97-.88-1.97-1.97zM229.71 125.15h-4.5"/><clipPath id="B"><path transform="matrix(1 0 0 -1 0 323.76)" d="M302.84 161.34h25.2v26.022h-25.2z" fill-rule="evenodd"/></clipPath><g clip-path="url(#B)"><clipPath id="C"><path transform="matrix(.99571 0 0 -.99401 302.84 162.42)" d="M0 0h25.308v26.179H0z" fill-rule="evenodd"/></clipPath><g clip-path="url(#C)"><clipPath id="D"><path transform="matrix(.99571 0 0 -.99401 302.84 162.42)" d="M0 .043h25.344V26.18H0z" fill-rule="evenodd"/></clipPath><g clip-path="url(#D)"><symbol id="E"><path d="M.481.24A.462.462 0 0 0 .443.127.23.23 0 0 0 .386.053.213.213 0 0 0 .31.013.392.392 0 0 0 .123.01a.183.183 0 0 0-.064.033A.16.16 0 0 0 0 .176L.003.23C.006.248.011.277.02.317l.05.225A.26.26 0 0 1 .078.6c0 .013-.003.023-.01.03C.061.635.051.64.037.641l.006.032H.29L.282.642a.07.07 0 0 1-.04-.027.231.231 0 0 1-.026-.073L.15.243A.524.524 0 0 1 .138.147C.138.117.145.095.16.08.174.065.196.057.224.057c.027 0 .05.006.069.018.019.012.033.03.044.051a.372.372 0 0 1 .03.087l.072.33A.22.22 0 0 1 .445.6c0 .013-.003.023-.01.03C.43.635.42.64.406.641l.007.032H.62L.613.642A.072.072 0 0 1 .57.614.225.225 0 0 1 .547.542L.48.24z"/></symbol><symbol id="F"><path d="M.378.667A.807.807 0 0 0 .46.663.223.223 0 0 0 .522.648a.15.15 0 0 0 .051-.03.12.12 0 0 0 .031-.045.16.16 0 0 0 .011-.06A.215.215 0 0 0 .537.34.25.25 0 0 0 .444.29.485.485 0 0 0 .315.277H.3c-.02 0-.037 0-.05.002L.218.132A.31.31 0 0 1 .212.075C.212.06.216.049.223.043A.064.064 0 0 1 .26.033L.252 0H0l.007.032a.07.07 0 0 1 .04.028.231.231 0 0 1 .026.072l.089.403c.004.019.006.038.006.057 0 .013-.003.023-.01.03-.006.006-.016.01-.03.012l.006.033h.244M.288.333c.045 0 .08.007.104.021a.135.135 0 0 1 .055.063c.012.028.019.06.019.094C.466.544.458.57.442.585.427.601.403.609.371.609a.99.99 0 0 1-.048 0L.263.332H.29z"/></symbol><use xlink:href="#E" transform="matrix(14.02763 0 -.00001 -14.00366 306.75 149.914)"/><use xlink:href="#F" transform="matrix(14.02763 0 -.00001 -14.00366 316.242 149.805)"/></g><clipPath id="G"><path transform="matrix(.99571 0 0 -.99401 302.84 162.42)" d="M0 .043h8.808V26.18H0z" fill-rule="evenodd"/></clipPath><g clip-path="url(#G)"><symbol id="H"><path d="M.43 0H0v.052h.43V0z"/></symbol><use xlink:href="#H" transform="matrix(14.02763 0 -.00001 -14.00366 305.612 138.996)"/></g><clipPath id="I"><path transform="matrix(.99571 0 0 -.99401 302.84 162.42)" d="M8.688.043h4.704V26.18H8.688z" fill-rule="evenodd"/></clipPath><g clip-path="url(#I)"><use xlink:href="#H" transform="matrix(14.02763 0 -.00001 -14.00366 310.176 138.996)"/></g><clipPath id="J"><path transform="matrix(.99571 0 0 -.99401 302.84 162.42)" d="M13.272.043h4.704V26.18h-4.704z" fill-rule="evenodd"/></clipPath><g clip-path="url(#J)"><use xlink:href="#H" transform="matrix(14.02763 0 -.00001 -14.00366 314.74 138.996)"/></g><clipPath id="K"><path transform="matrix(.99571 0 0 -.99401 302.84 162.42)" d="M17.856.043h7.488V26.18h-7.488z" fill-rule="evenodd"/></clipPath><g clip-path="url(#K)"><use xlink:href="#H" transform="matrix(14.02763 0 -.00001 -14.00366 319.425 138.996)"/></g></g></g><clipPath id="L"><path transform="matrix(1 0 0 -1 0 323.76)" d="M62.626 108.05h34.923v26.022H62.626z" fill-rule="evenodd"/></clipPath><g clip-path="url(#L)"><clipPath id="M"><path transform="matrix(.99705 0 0 -.99401 62.626 215.71)" d="M0 0h35.027v26.179H0z" fill-rule="evenodd"/></clipPath><g clip-path="url(#M)"><clipPath id="N"><path transform="matrix(.99705 0 0 -.99401 62.626 215.71)" d="M0 .043h35.064V26.18H0z" fill-rule="evenodd"/></clipPath><g clip-path="url(#N)"><symbol id="O"><path d="m0 0 .007.032a.07.07 0 0 1 .04.028.231.231 0 0 1 .026.072l.089.403c.004.019.006.038.006.057 0 .013-.003.023-.01.03-.006.006-.016.01-.03.012l.006.033h.198a.752.752 0 0 0 .129-.01.273.273 0 0 0 .08-.026.206.206 0 0 0 .058-.042A.197.197 0 0 0 .64.518a.29.29 0 0 0 .015-.1.52.52 0 0 0-.014-.125.43.43 0 0 0-.044-.11A.348.348 0 0 0 .36.009.666.666 0 0 0 .24 0H0m.202.06A.437.437 0 0 1 .238.058c.042 0 .078.008.109.025.03.016.057.041.08.075a.402.402 0 0 1 .056.125.55.55 0 0 1 .02.148.274.274 0 0 1-.01.084A.143.143 0 0 1 .46.57.109.109 0 0 1 .416.6.162.162 0 0 1 .36.61L.323.607.203.06z"/></symbol><symbol id="P"><path d="M.71.48C.723.506.733.53.74.546c.007.018.01.033.01.044 0 .01 0 .018-.003.024a.03.03 0 0 1-.013.014.066.066 0 0 1-.025.009L.717.67h.208L.917.638A.073.073 0 0 1 .89.626.114.114 0 0 1 .865.603a1.95 1.95 0 0 1-.05-.086L.534 0H.417v.464H.411A1.323 1.323 0 0 0 .378.396L.18 0H.062l-.01.52a.32.32 0 0 1-.007.07.073.073 0 0 1-.016.034A.049.049 0 0 1 0 .638L.007.67h.25L.25.638A.078.078 0 0 1 .225.63.044.044 0 0 1 .21.617.06.06 0 0 1 .2.597.131.131 0 0 1 .197.572V.51L.193.328C.194.295.192.243.19.172h.007c.01.025.035.074.071.147l.176.35H.55V.35L.552.307c0-.046 0-.09-.003-.135h.006l.083.165.072.142z"/></symbol><symbol id="Q"><path d="M.134.667H.32L.414.39C.44.315.46.25.475.19h.006c.01.057.022.12.038.188l.034.157a.27.27 0 0 1 .006.057c0 .013-.003.023-.01.03C.543.628.533.632.52.634l.006.033h.18L.698.634a.07.07 0 0 1-.04-.027.231.231 0 0 1-.026-.072L.515 0H.403L.286.341a2.763 2.763 0 0 0-.05.164H.229A2.52 2.52 0 0 0 .187.291L.152.131A.31.31 0 0 1 .146.076c0-.014.003-.024.01-.03a.056.056 0 0 1 .03-.013L.18 0H0l.007.032a.07.07 0 0 1 .04.028.231.231 0 0 1 .026.072l.089.403c.004.019.006.038.006.057 0 .013-.003.023-.01.03-.006.006-.016.01-.03.012l.006.033z"/></symbol><use xlink:href="#O" transform="matrix(14.04641 0 0 -14.00366 63.017 203.095)"/><use xlink:href="#P" transform="matrix(14.04641 0 0 -14.00366 74.022 203.143)"/><use xlink:href="#Q" transform="matrix(14.04641 0 0 -14.00366 87.584 203.095)"/></g><clipPath id="R"><path transform="matrix(.99705 0 0 -.99401 62.626 215.71)" d="M0 .043h6.144V26.18H0z" fill-rule="evenodd"/></clipPath><g clip-path="url(#R)"><use xlink:href="#H" transform="matrix(14.04641 0 0 -14.00366 62.746 192.286)"/></g><clipPath id="S"><path transform="matrix(.99705 0 0 -.99401 62.626 215.71)" d="M6.024.043h4.224V26.18H6.024z" fill-rule="evenodd"/></clipPath><g clip-path="url(#S)"><use xlink:href="#H" transform="matrix(14.04641 0 0 -14.00366 66.838 192.286)"/></g><clipPath id="T"><path transform="matrix(.99705 0 0 -.99401 62.626 215.71)" d="M10.128.043h4.32V26.18h-4.32z" fill-rule="evenodd"/></clipPath><g clip-path="url(#T)"><use xlink:href="#H" transform="matrix(14.04641 0 0 -14.00366 71.025 192.286)"/></g><clipPath id="U"><path transform="matrix(.99705 0 0 -.99401 62.626 215.71)" d="M14.328.043h4.224V26.18h-4.224z" fill-rule="evenodd"/></clipPath><g clip-path="url(#U)"><use xlink:href="#H" transform="matrix(14.04641 0 0 -14.00366 75.117 192.286)"/></g><clipPath id="V"><path transform="matrix(.99705 0 0 -.99401 62.626 215.71)" d="M18.432.043h4.344V26.18h-4.344z" fill-rule="evenodd"/></clipPath><g clip-path="url(#V)"><use xlink:href="#H" transform="matrix(14.04641 0 0 -14.00366 79.329 192.286)"/></g><clipPath id="W"><path transform="matrix(.99705 0 0 -.99401 62.626 215.71)" d="M22.656.043h4.2V26.18h-4.2z" fill-rule="evenodd"/></clipPath><g clip-path="url(#W)"><use xlink:href="#H" transform="matrix(14.04641 0 0 -14.00366 83.397 192.286)"/></g><clipPath id="X"><path transform="matrix(.99705 0 0 -.99401 62.626 215.71)" d="M26.736.043h4.224V26.18h-4.224z" fill-rule="evenodd"/></clipPath><g clip-path="url(#X)"><use xlink:href="#H" transform="matrix(14.04641 0 0 -14.00366 87.488 192.286)"/></g><clipPath id="Y"><path transform="matrix(.99705 0 0 -.99401 62.626 215.71)" d="M30.84.043h4.224V26.18H30.84z" fill-rule="evenodd"/></clipPath><g clip-path="url(#Y)"><use xlink:href="#H" transform="matrix(14.04641 0 0 -14.00366 91.7 192.286)"/></g></g></g><clipPath id="Z"><path transform="matrix(1 0 0 -1 0 323.76)" d="M67.487 187.09h25.2v-26.02h-25.2v26.02z" fill-rule="evenodd"/></clipPath><g clip-path="url(#Z)"><clipPath id="aa"><path transform="matrix(.99571 0 0 -.99401 67.487 162.69)" d="M0 0h25.308v26.179H0z" fill-rule="evenodd"/></clipPath><g clip-path="url(#aa)"><clipPath id="ab"><path transform="matrix(.99571 0 0 -.99401 67.487 162.69)" d="M0 .043h25.344V26.18H0z" fill-rule="evenodd"/></clipPath><g clip-path="url(#ab)"><use xlink:href="#E" transform="matrix(14.02763 0 0 -14.00366 71.396 149.946)"/><use xlink:href="#F" transform="matrix(14.02763 0 0 -14.00366 80.89 149.836)"/></g></g></g><clipPath id="ac"><path transform="matrix(1 0 0 -1 0 323.76)" d="M300.59 109.9h34.923v25.71H300.59z" fill-rule="evenodd"/></clipPath><g clip-path="url(#ac)"><clipPath id="ad"><path transform="matrix(.99705 0 0 -.99396 300.59 213.86)" d="M0 0h35.027v25.867H0z" fill-rule="evenodd"/></clipPath><g clip-path="url(#ad)"><clipPath id="ae"><path transform="matrix(.99705 0 0 -.99396 300.59 213.86)" d="M0 .02h35.064v25.847H0z" fill-rule="evenodd"/></clipPath><g clip-path="url(#ae)"><use xlink:href="#O" transform="matrix(14.09427 0 -.00001 -14.05062 300.982 201.365)"/><use xlink:href="#P" transform="matrix(14.09427 0 -.00001 -14.05062 312.024 201.413)"/><use xlink:href="#Q" transform="matrix(14.09427 0 -.00001 -14.05062 325.492 201.365)"/></g></g></g><path d="M256.15 172.4c0-1.56 1.26-2.81 2.81-2.81a2.8 2.8 0 0 1 2.81 2.81c0 1.55-1.25 2.81-2.81 2.81-1.55 0-2.81-1.26-2.81-2.81z" fill-rule="evenodd"/><path stroke-width="2" stroke-linecap="round" stroke-linejoin="round" fill="none" stroke="#000" d="M256.15 172.4c0-1.56 1.26-2.81 2.81-2.81a2.8 2.8 0 0 1 2.81 2.81c0 1.55-1.25 2.81-2.81 2.81-1.55 0-2.81-1.26-2.81-2.81zM140.84 173.52H21.812"/><path d="M138.81 161.15c0-1.09.88-1.97 1.97-1.97 1.09 0 1.97.88 1.97 1.97 0 1.09-.88 1.97-1.97 1.97-1.09 0-1.97-.88-1.97-1.97z" fill-rule="evenodd"/><path stroke-width="2" stroke-linecap="round" stroke-linejoin="round" fill="none" stroke="#000" d="M138.81 161.15c0-1.09.88-1.97 1.97-1.97 1.09 0 1.97.88 1.97 1.97 0 1.09-.88 1.97-1.97 1.97-1.09 0-1.97-.88-1.97-1.97z"/><path d="M138.81 173.52c0-1.08.88-1.97 1.97-1.97 1.09 0 1.97.89 1.97 1.97 0 1.09-.88 1.97-1.97 1.97-1.09 0-1.97-.88-1.97-1.97z" fill-rule="evenodd"/><path stroke-width="2" stroke-linecap="round" stroke-linejoin="round" fill="none" stroke="#000" d="M138.81 173.52c0-1.08.88-1.97 1.97-1.97 1.09 0 1.97.89 1.97 1.97 0 1.09-.88 1.97-1.97 1.97-1.09 0-1.97-.88-1.97-1.97z"/><path d="M19 173.52c0-1.08.881-1.97 1.969-1.97 1.087 0 1.968.89 1.968 1.97a1.968 1.968 0 1 1-3.937 0z" fill-rule="evenodd"/><path stroke-width="2" stroke-linecap="round" stroke-linejoin="round" fill="none" stroke="#000" d="M19 173.52c0-1.08.881-1.97 1.969-1.97 1.087 0 1.968.89 1.968 1.97a1.968 1.968 0 1 1-3.937 0z"/><clipPath id="af"><path transform="matrix(1 0 0 -1 0 323.76)" d="M0 323.76h353.88V0H0" fill-rule="evenodd"/></clipPath><g clip-path="url(#af)"><path stroke-width="2" stroke-linecap="round" stroke-linejoin="round" fill="none" stroke="#000" d="M203.15 55.94V40.13"/></g><clipPath id="ag"><path transform="matrix(1 0 0 -1 0 323.76)" d="M0 323.76h353.88V0H0" fill-rule="evenodd"/></clipPath><g clip-path="url(#ag)"><path stroke-width="2" stroke-linecap="round" stroke-linejoin="round" fill="none" stroke="#000" d="M203.15 106.02V91.14"/></g><path d="M216.12 69.04c0-7.23-5.78-13.1-12.9-13.1-7.13 0-12.91 5.87-12.91 13.1 0 7.24 5.78 13.1 12.91 13.1 7.12 0 12.9-5.86 12.9-13.1z" fill="#fff" fill-rule="evenodd"/><path stroke-width="2" stroke-linecap="round" stroke-linejoin="round" fill="none" stroke="#000" d="M216.12 69.04c0-7.23-5.78-13.1-12.9-13.1-7.13 0-12.91 5.87-12.91 13.1 0 7.24 5.78 13.1 12.91 13.1 7.12 0 12.9-5.86 12.9-13.1z"/><path d="M216.12 78.67c0-7.23-5.78-13.1-12.9-13.1-7.13 0-12.91 5.87-12.91 13.1 0 7.24 5.78 13.11 12.91 13.11 7.12 0 12.9-5.87 12.9-13.11z" fill="#fff" fill-rule="evenodd"/><path stroke-width="2" stroke-linecap="round" stroke-linejoin="round" fill="none" stroke="#000" d="M216.12 78.67c0-7.23-5.78-13.1-12.9-13.1-7.13 0-12.91 5.87-12.91 13.1 0 7.24 5.78 13.11 12.91 13.11 7.12 0 12.9-5.87 12.9-13.11z"/><clipPath id="ah"><path transform="matrix(1 0 0 -1 0 323.76)" d="M0 323.76h353.88V0H0" fill-rule="evenodd"/></clipPath><g clip-path="url(#ah)"><path stroke-width="2" stroke-linecap="round" stroke-linejoin="round" fill="none" stroke="#000" d="m203.12 68.66-.1 13.11"/></g><clipPath id="ai"><path transform="matrix(1 0 0 -1 0 323.76)" d="M0 323.76h353.88V0H0" fill-rule="evenodd"/></clipPath><g clip-path="url(#ai)"><path d="m206.46 81.74-3.49 6.86-3.39-6.91a7.71 7.71 0 0 1 6.88.05z" fill-rule="evenodd"/></g><clipPath id="aj"><path transform="matrix(1 0 0 -1 0 323.76)" d="M0 323.76h353.88V0H0" fill-rule="evenodd"/></clipPath><g clip-path="url(#aj)"><path stroke-width="2" stroke-linecap="round" stroke-linejoin="round" fill="none" stroke="#000" d="M203.15 55.94V40.13"/></g><clipPath id="ak"><path transform="matrix(1 0 0 -1 0 323.76)" d="M0 323.76h353.88V0H0" fill-rule="evenodd"/></clipPath><g clip-path="url(#ak)"><path stroke-width="2" stroke-linecap="round" stroke-linejoin="round" fill="none" stroke="#000" d="M203.15 106.02V91.14"/></g><path d="M216.12 69.04c0-7.23-5.78-13.1-12.9-13.1-7.13 0-12.91 5.87-12.91 13.1 0 7.24 5.78 13.1 12.91 13.1 7.12 0 12.9-5.86 12.9-13.1z" fill="#fff" fill-rule="evenodd"/><path stroke-width="2" stroke-linecap="round" stroke-linejoin="round" fill="none" stroke="#000" d="M216.12 69.04c0-7.23-5.78-13.1-12.9-13.1-7.13 0-12.91 5.87-12.91 13.1 0 7.24 5.78 13.1 12.91 13.1 7.12 0 12.9-5.86 12.9-13.1z"/><path d="M216.12 78.67c0-7.23-5.78-13.1-12.9-13.1-7.13 0-12.91 5.87-12.91 13.1 0 7.24 5.78 13.11 12.91 13.11 7.12 0 12.9-5.87 12.9-13.11z" fill="#fff" fill-rule="evenodd"/><path stroke-width="2" stroke-linecap="round" stroke-linejoin="round" fill="none" stroke="#000" d="M216.12 78.67c0-7.23-5.78-13.1-12.9-13.1-7.13 0-12.91 5.87-12.91 13.1 0 7.24 5.78 13.11 12.91 13.11 7.12 0 12.9-5.87 12.9-13.11z"/><clipPath id="al"><path transform="matrix(1 0 0 -1 0 323.76)" d="M0 323.76h353.88V0H0" fill-rule="evenodd"/></clipPath><g clip-path="url(#al)"><path stroke-width="2" stroke-linecap="round" stroke-linejoin="round" fill="none" stroke="#000" d="m203.12 68.66-.1 13.11"/></g><clipPath id="am"><path transform="matrix(1 0 0 -1 0 323.76)" d="M0 323.76h353.88V0H0" fill-rule="evenodd"/></clipPath><g clip-path="url(#am)"><path d="m206.46 81.74-3.49 6.86-3.39-6.91a7.71 7.71 0 0 1 6.88.05z" fill-rule="evenodd"/></g><clipPath id="an"><path transform="matrix(1 0 0 -1 0 323.76)" d="M0 323.76h353.88V0H0" fill-rule="evenodd"/></clipPath><g clip-path="url(#an)"><path stroke-width="2" stroke-linecap="round" stroke-linejoin="round" fill="none" stroke="#000" d="M203.15 230.956V215.15"/></g><clipPath id="ao"><path transform="matrix(1 0 0 -1 0 323.76)" d="M0 323.76h353.88V0H0" fill-rule="evenodd"/></clipPath><g clip-path="url(#ao)"><path stroke-width="2" stroke-linecap="round" stroke-linejoin="round" fill="none" stroke="#000" d="M203.15 281.039V266.16"/></g><path d="M216.12 244.058c0-7.236-5.78-13.102-12.9-13.102-7.13 0-12.91 5.866-12.91 13.102 0 7.235 5.78 13.101 12.91 13.101 7.12 0 12.9-5.866 12.9-13.101z" fill="#fff" fill-rule="evenodd"/><path stroke-width="2" stroke-linecap="round" stroke-linejoin="round" fill="none" stroke="#000" d="M216.12 244.058c0-7.236-5.78-13.102-12.9-13.102-7.13 0-12.91 5.866-12.91 13.102 0 7.235 5.78 13.101 12.91 13.101 7.12 0 12.9-5.866 12.9-13.101z"/><path d="M216.12 253.691c0-7.236-5.78-13.101-12.9-13.101-7.13 0-12.91 5.865-12.91 13.101 0 7.236 5.78 13.102 12.91 13.102 7.12 0 12.9-5.866 12.9-13.102z" fill="#fff" fill-rule="evenodd"/><path stroke-width="2" stroke-linecap="round" stroke-linejoin="round" fill="none" stroke="#000" d="M216.12 253.691c0-7.236-5.78-13.101-12.9-13.101-7.13 0-12.91 5.865-12.91 13.101 0 7.236 5.78 13.102 12.91 13.102 7.12 0 12.9-5.866 12.9-13.102z"/><clipPath id="ap"><path transform="matrix(1 0 0 -1 0 323.76)" d="M0 323.76h353.88V0H0" fill-rule="evenodd"/></clipPath><g clip-path="url(#ap)"><path stroke-width="2" stroke-linecap="round" stroke-linejoin="round" fill="none" stroke="#000" d="m203.12 243.672-.1 13.109"/></g><clipPath id="aq"><path transform="matrix(1 0 0 -1 0 323.76)" d="M0 323.76h353.88V0H0" fill-rule="evenodd"/></clipPath><g clip-path="url(#aq)"><path d="m206.46 256.759-3.49 6.854-3.39-6.904a7.69 7.69 0 0 1 6.88.05z" fill-rule="evenodd"/></g><clipPath id="ar"><path transform="matrix(1 0 0 -1 0 323.76)" d="M0 323.76h353.88V0H0" fill-rule="evenodd"/></clipPath><g clip-path="url(#ar)"><path stroke-width="2" stroke-linecap="round" stroke-linejoin="round" fill="none" stroke="#000" d="M203.15 230.956V215.15"/></g><clipPath id="as"><path transform="matrix(1 0 0 -1 0 323.76)" d="M0 323.76h353.88V0H0" fill-rule="evenodd"/></clipPath><g clip-path="url(#as)"><path stroke-width="2" stroke-linecap="round" stroke-linejoin="round" fill="none" stroke="#000" d="M203.15 281.039V266.16"/></g><path d="M216.12 244.058c0-7.236-5.78-13.102-12.9-13.102-7.13 0-12.91 5.866-12.91 13.102 0 7.235 5.78 13.101 12.91 13.101 7.12 0 12.9-5.866 12.9-13.101z" fill="#fff" fill-rule="evenodd"/><path stroke-width="2" stroke-linecap="round" stroke-linejoin="round" fill="none" stroke="#000" d="M216.12 244.058c0-7.236-5.78-13.102-12.9-13.102-7.13 0-12.91 5.866-12.91 13.102 0 7.235 5.78 13.101 12.91 13.101 7.12 0 12.9-5.866 12.9-13.101z"/><path d="M216.12 253.691c0-7.236-5.78-13.101-12.9-13.101-7.13 0-12.91 5.865-12.91 13.101 0 7.236 5.78 13.102 12.91 13.102 7.12 0 12.9-5.866 12.9-13.102z" fill="#fff" fill-rule="evenodd"/><path stroke-width="2" stroke-linecap="round" stroke-linejoin="round" fill="none" stroke="#000" d="M216.12 253.691c0-7.236-5.78-13.101-12.9-13.101-7.13 0-12.91 5.865-12.91 13.101 0 7.236 5.78 13.102 12.91 13.102 7.12 0 12.9-5.866 12.9-13.102z"/><clipPath id="at"><path transform="matrix(1 0 0 -1 0 323.76)" d="M0 323.76h353.88V0H0" fill-rule="evenodd"/></clipPath><g clip-path="url(#at)"><path stroke-width="2" stroke-linecap="round" stroke-linejoin="round" fill="none" stroke="#000" d="m203.12 243.672-.1 13.109"/></g><clipPath id="au"><path transform="matrix(1 0 0 -1 0 323.76)" d="M0 323.76h353.88V0H0" fill-rule="evenodd"/></clipPath><g clip-path="url(#au)"><path d="m206.46 256.759-3.49 6.854-3.39-6.904a7.69 7.69 0 0 1 6.88.05z" fill-rule="evenodd"/></g><clipPath id="av"><path transform="matrix(1 0 0 -1 0 323.76)" d="M0 323.76h353.88V0H0" fill-rule="evenodd"/></clipPath><g clip-path="url(#av)"><path stroke-width="2" stroke-linecap="round" stroke-linejoin="round" fill="none" stroke="#000" d="M203.21 280.116v18.563"/></g><path stroke-width="2" stroke-linecap="round" stroke-linejoin="round" fill="none" stroke="#000" d="M197.31 298.679h11.25M199.26 301.773h7.48M202.03 304.866h2.21"/><clipPath id="aw"><path transform="matrix(1 0 0 -1 0 323.76)" d="M0 323.76h353.88V0H0" fill-rule="evenodd"/></clipPath><g clip-path="url(#aw)"><path stroke-width="2" stroke-linecap="round" stroke-linejoin="round" fill="none" stroke="#000" d="M203.21 280.116v18.563"/></g><path stroke-width="2" stroke-linecap="round" stroke-linejoin="round" fill="none" stroke="#000" d="M197.31 298.679h11.25M199.26 301.773h7.48M202.03 304.866h2.21M203.18 40.88v-5M194.18 34.99h18"/><clipPath id="ax"><path transform="matrix(1 0 0 -1 0 323.76)" d="M188.31 304.76h30.11v-25.71h-30.11v25.71z" fill-rule="evenodd"/></clipPath><g clip-path="url(#ax)"><clipPath id="ay"><path transform="matrix(.99648 0 0 -.99396 188.31 44.71)" d="M0 0h30.21v25.867H0z" fill-rule="evenodd"/></clipPath><g clip-path="url(#ay)"><clipPath id="az"><path transform="matrix(.99648 0 0 -.99396 188.31 44.71)" d="M0 .02h30.264v25.847H0z" fill-rule="evenodd"/></clipPath><g clip-path="url(#az)"><symbol id="aA"><path d="M.366.457a.83.83 0 0 1 .047.095.137.137 0 0 1 .008.045c0 .024-.013.037-.041.04L.387.67h.208L.588.638a.08.08 0 0 1-.03-.014.11.11 0 0 1-.025-.025A.58.58 0 0 1 .5.545L.197 0H.074l-.02.522a.517.517 0 0 1-.005.05.133.133 0 0 1-.009.036.046.046 0 0 1-.016.02.051.051 0 0 1-.024.01L.007.67H.26L.252.638A.062.062 0 0 1 .22.627.053.053 0 0 1 .202.602.168.168 0 0 1 .197.555V.511L.201.34.203.16h.005l.158.297z"/></symbol><use xlink:href="#aA" transform="matrix(14.08626 .00001 0 -14.05062 188.963 32.263)"/><use xlink:href="#O" transform="matrix(14.08626 .00001 0 -14.05062 197.717 32.215)"/><use xlink:href="#O" transform="matrix(14.08626 .00001 0 -14.05062 208.422 32.215)"/></g><clipPath id="aB"><path transform="matrix(.99648 0 0 -.99396 188.31 44.71)" d="M0 .02h30.264v25.847H0z" fill-rule="evenodd"/></clipPath><g clip-path="url(#aB)"><symbol id="aC"><path d="M0 0z"/></symbol><use xlink:href="#aC" transform="matrix(14.08626 .00001 0 -14.05062 218.468 32.215)"/></g></g></g><clipPath id="aD"><path transform="matrix(1 0 0 -1 0 323.76)" d="M220.39 55.183h31.606v25.71H220.39z" fill-rule="evenodd"/></clipPath><g clip-path="url(#aD)"><clipPath id="aE"><path transform="matrix(.9967 0 0 -.99396 220.39 268.577)" d="M0 0h31.712v25.867H0z" fill-rule="evenodd"/></clipPath><g clip-path="url(#aE)"><clipPath id="aF"><path transform="matrix(.9967 0 0 -.99396 220.39 268.577)" d="M0 .02h31.656v25.847H0z" fill-rule="evenodd"/></clipPath><g clip-path="url(#aF)"><symbol id="aG"><path d="M.246 0H0l.007.032a.07.07 0 0 1 .04.028.231.231 0 0 1 .026.072l.089.403c.004.019.006.038.006.057 0 .013-.003.023-.01.03-.006.006-.016.01-.03.012l.006.033H.38L.373.634A.07.07 0 0 1 .332.607.231.231 0 0 1 .307.535L.218.132A.31.31 0 0 1 .212.075c0-.014.003-.024.01-.03a.056.056 0 0 1 .03-.013L.246 0z"/></symbol><use xlink:href="#aG" transform="matrix(14.0894 0 0 -14.05062 220.782 256.082)"/></g><clipPath id="aH"><path transform="matrix(.9967 0 0 -.99396 220.39 268.577)" d="M0 .02h31.656v25.847H0z" fill-rule="evenodd"/></clipPath><g clip-path="url(#aH)"><use xlink:href="#O" transform="matrix(9.99893 0 0 -9.9714 226.792 258.968)"/><use xlink:href="#P" transform="matrix(9.99893 0 0 -9.9714 234.426 259.002)"/><use xlink:href="#Q" transform="matrix(9.99893 0 0 -9.9714 243.98 258.968)"/></g></g></g><clipPath id="aI"><path transform="matrix(1 0 0 -1 0 323.76)" d="M224.95 260.69h25.2v-25.71h-25.2v25.71z" fill-rule="evenodd"/></clipPath><g clip-path="url(#aI)"><clipPath id="aJ"><path transform="matrix(.99571 0 0 -.99396 224.95 88.78)" d="M0 0h25.308v25.867H0z" fill-rule="evenodd"/></clipPath><g clip-path="url(#aJ)"><clipPath id="aK"><path transform="matrix(.99571 0 0 -.99396 224.95 88.78)" d="M0 .02h25.344v25.847H0z" fill-rule="evenodd"/></clipPath><g clip-path="url(#aK)"><use xlink:href="#aG" transform="matrix(14.07543 .00002 0 -14.05062 227.516 76.285)"/></g><clipPath id="aL"><path transform="matrix(.99571 0 0 -.99396 224.95 88.78)" d="M0 .02h25.344v25.847H0z" fill-rule="evenodd"/></clipPath><g clip-path="url(#aL)"><use xlink:href="#E" transform="matrix(9.98901 .00001 0 -9.9714 234.052 79.25)"/><use xlink:href="#F" transform="matrix(9.98901 .00001 0 -9.9714 240.712 79.171)"/></g></g></g><clipPath id="aM"><path transform="matrix(1 0 0 -1 0 323.76)" d="M4.854 144.54h32.23v25.71H4.854z" fill-rule="evenodd"/></clipPath><g clip-path="url(#aM)"><clipPath id="aN"><path transform="matrix(.99676 0 0 -.99396 4.854 179.22)" d="M0 0h32.335v25.867H0z" fill-rule="evenodd"/></clipPath><g clip-path="url(#aN)"><clipPath id="aO"><path transform="matrix(.99676 0 0 -.99396 4.854 179.22)" d="M0 .02h32.352v25.847H0z" fill-rule="evenodd"/></clipPath><g clip-path="url(#aO)"><symbol id="aP"><path d="M.225 0C.15 0 .095.02.057.058.019.098 0 .154 0 .23a.578.578 0 0 0 .085.298C.107.561.133.59.162.612c.03.024.063.041.099.053a.366.366 0 0 0 .114.017c.074 0 .13-.02.168-.058C.581.585.601.529.601.455A.601.601 0 0 0 .502.133a.329.329 0 0 0-.17-.12A.403.403 0 0 0 .225 0M.147.185c0-.045.006-.078.02-.098C.18.067.2.057.23.057c.019 0 .037.006.056.017A.211.211 0 0 1 .35.138a.518.518 0 0 1 .06.123.92.92 0 0 1 .044.238.181.181 0 0 1-.02.096C.421.615.4.625.37.625A.121.121 0 0 1 .288.588.35.35 0 0 1 .215.483.743.743 0 0 1 .147.185z"/></symbol><symbol id="aQ"><path d="M.575.667.536.49H.474a.342.342 0 0 1-.007.075.06.06 0 0 1-.019.033.053.053 0 0 1-.036.011H.37L.264.132A.36.36 0 0 1 .257.075C.257.06.261.049.27.043a.064.064 0 0 1 .036-.01L.298 0h-.26l.007.032A.07.07 0 0 1 .08.045.071.071 0 0 1 .1.074a.327.327 0 0 1 .018.058l.105.477H.184A.098.098 0 0 1 .141.601.116.116 0 0 1 .104.567.315.315 0 0 1 .064.5H0l.037.167h.538z"/></symbol><use xlink:href="#aP" transform="matrix(14.0902 0 0 -14.05062 5.783 166.835)"/><use xlink:href="#E" transform="matrix(14.0902 0 0 -14.05062 16.423 166.835)"/><use xlink:href="#aQ" transform="matrix(14.0902 0 0 -14.05062 26.048 166.725)"/></g><clipPath id="aR"><path transform="matrix(.99676 0 0 -.99396 4.854 179.22)" d="M0 .02h32.352v25.847H0z" fill-rule="evenodd"/></clipPath><g clip-path="url(#aR)"><symbol id="aS"><path d="M0 0z"/></symbol><use xlink:href="#aS" transform="matrix(14.0902 0 0 -14.05062 34.087 166.725)"/></g></g></g></svg>