<svg xmlns="http://www.w3.org/2000/svg" xmlns:xlink="http://www.w3.org/1999/xlink" width="431.68" height="387.84" viewBox="0 0 323.76 290.88"><clipPath id="a"><path transform="matrix(1 0 0 -1 0 290.88)" d="M0 290.88h323.76V0H0" fill-rule="evenodd"/></clipPath><g clip-path="url(#a)"><path stroke-width="2" stroke-linecap="round" stroke-linejoin="round" fill="none" stroke="#000" d="M59.199 65.99V50.18"/></g><clipPath id="b"><path transform="matrix(1 0 0 -1 0 290.88)" d="M0 290.88h323.76V0H0" fill-rule="evenodd"/></clipPath><g clip-path="url(#b)"><path stroke-width="2" stroke-linecap="round" stroke-linejoin="round" fill="none" stroke="#000" d="M59.199 116.07v-14.88"/></g><path d="M72.176 79.09c0-7.24-5.779-13.1-12.909-13.1-7.129 0-12.909 5.86-12.909 13.1 0 7.24 5.78 13.1 12.909 13.1 7.13 0 12.909-5.86 12.909-13.1z" fill="#fff" fill-rule="evenodd"/><path stroke-width="2" stroke-linecap="round" stroke-linejoin="round" fill="none" stroke="#000" d="M72.176 79.09c0-7.24-5.779-13.1-12.909-13.1-7.129 0-12.909 5.86-12.909 13.1 0 7.24 5.78 13.1 12.909 13.1 7.13 0 12.909-5.86 12.909-13.1z"/><path d="M72.176 88.72c0-7.23-5.779-13.1-12.909-13.1-7.129 0-12.909 5.87-12.909 13.1 0 7.24 5.78 13.1 12.909 13.1 7.13 0 12.909-5.86 12.909-13.1z" fill="#fff" fill-rule="evenodd"/><path stroke-width="2" stroke-linecap="round" stroke-linejoin="round" fill="none" stroke="#000" d="M72.176 88.72c0-7.23-5.779-13.1-12.909-13.1-7.129 0-12.909 5.87-12.909 13.1 0 7.24 5.78 13.1 12.909 13.1 7.13 0 12.909-5.86 12.909-13.1z"/><clipPath id="c"><path transform="matrix(1 0 0 -1 0 290.88)" d="M0 290.88h323.76V0H0" fill-rule="evenodd"/></clipPath><g clip-path="url(#c)"><path stroke-width="2" stroke-linecap="round" stroke-linejoin="round" fill="none" stroke="#000" d="m59.171 78.7-.095 13.11"/></g><clipPath id="d"><path transform="matrix(1 0 0 -1 0 290.88)" d="M0 290.88h323.76V0H0" fill-rule="evenodd"/></clipPath><g clip-path="url(#d)"><path d="m62.516 91.79-3.49 6.86-3.39-6.91a7.678 7.678 0 0 1 6.88.05z" fill-rule="evenodd"/></g><clipPath id="e"><path transform="matrix(1 0 0 -1 0 290.88)" d="M0 290.88h323.76V0H0" fill-rule="evenodd"/></clipPath><g clip-path="url(#e)"><path stroke-width="2" stroke-linecap="round" stroke-linejoin="round" fill="none" stroke="#000" d="M59.199 65.99V50.18"/></g><clipPath id="f"><path transform="matrix(1 0 0 -1 0 290.88)" d="M0 290.88h323.76V0H0" fill-rule="evenodd"/></clipPath><g clip-path="url(#f)"><path stroke-width="2" stroke-linecap="round" stroke-linejoin="round" fill="none" stroke="#000" d="M59.199 116.07v-14.88"/></g><path d="M72.176 79.09c0-7.24-5.779-13.1-12.909-13.1-7.129 0-12.909 5.86-12.909 13.1 0 7.24 5.78 13.1 12.909 13.1 7.13 0 12.909-5.86 12.909-13.1z" fill="#fff" fill-rule="evenodd"/><path stroke-width="2" stroke-linecap="round" stroke-linejoin="round" fill="none" stroke="#000" d="M72.176 79.09c0-7.24-5.779-13.1-12.909-13.1-7.129 0-12.909 5.86-12.909 13.1 0 7.24 5.78 13.1 12.909 13.1 7.13 0 12.909-5.86 12.909-13.1z"/><path d="M72.176 88.72c0-7.23-5.779-13.1-12.909-13.1-7.129 0-12.909 5.87-12.909 13.1 0 7.24 5.78 13.1 12.909 13.1 7.13 0 12.909-5.86 12.909-13.1z" fill="#fff" fill-rule="evenodd"/><path stroke-width="2" stroke-linecap="round" stroke-linejoin="round" fill="none" stroke="#000" d="M72.176 88.72c0-7.23-5.779-13.1-12.909-13.1-7.129 0-12.909 5.87-12.909 13.1 0 7.24 5.78 13.1 12.909 13.1 7.13 0 12.909-5.86 12.909-13.1z"/><clipPath id="g"><path transform="matrix(1 0 0 -1 0 290.88)" d="M0 290.88h323.76V0H0" fill-rule="evenodd"/></clipPath><g clip-path="url(#g)"><path stroke-width="2" stroke-linecap="round" stroke-linejoin="round" fill="none" stroke="#000" d="m59.171 78.7-.095 13.11"/></g><clipPath id="h"><path transform="matrix(1 0 0 -1 0 290.88)" d="M0 290.88h323.76V0H0" fill-rule="evenodd"/></clipPath><g clip-path="url(#h)"><path d="m62.516 91.79-3.49 6.86-3.39-6.91a7.678 7.678 0 0 1 6.88.05z" fill-rule="evenodd"/></g><clipPath id="i"><path transform="matrix(1 0 0 -1 0 290.88)" d="M0 290.88h323.76V0H0" fill-rule="evenodd"/></clipPath><g clip-path="url(#i)"><path stroke-width="2" stroke-linecap="round" stroke-linejoin="round" fill="none" stroke="#000" d="M59.199 186.04v-15.81"/></g><clipPath id="j"><path transform="matrix(1 0 0 -1 0 290.88)" d="M0 290.88h323.76V0H0" fill-rule="evenodd"/></clipPath><g clip-path="url(#j)"><path stroke-width="2" stroke-linecap="round" stroke-linejoin="round" fill="none" stroke="#000" d="M59.199 236.125v-14.879"/></g><path d="M72.176 199.144c0-7.236-5.779-13.104-12.909-13.104-7.129 0-12.909 5.868-12.909 13.104 0 7.235 5.78 13.101 12.909 13.101 7.13 0 12.909-5.866 12.909-13.101z" fill="#fff" fill-rule="evenodd"/><path stroke-width="2" stroke-linecap="round" stroke-linejoin="round" fill="none" stroke="#000" d="M72.176 199.144c0-7.236-5.779-13.104-12.909-13.104-7.129 0-12.909 5.868-12.909 13.104 0 7.235 5.78 13.101 12.909 13.101 7.13 0 12.909-5.866 12.909-13.101z"/><path d="M72.176 208.777c0-7.236-5.779-13.101-12.909-13.101-7.129 0-12.909 5.865-12.909 13.101 0 7.236 5.78 13.102 12.909 13.102 7.13 0 12.909-5.866 12.909-13.102z" fill="#fff" fill-rule="evenodd"/><path stroke-width="2" stroke-linecap="round" stroke-linejoin="round" fill="none" stroke="#000" d="M72.176 208.777c0-7.236-5.779-13.101-12.909-13.101-7.129 0-12.909 5.865-12.909 13.101 0 7.236 5.78 13.102 12.909 13.102 7.13 0 12.909-5.866 12.909-13.102z"/><clipPath id="k"><path transform="matrix(1 0 0 -1 0 290.88)" d="M0 290.88h323.76V0H0" fill-rule="evenodd"/></clipPath><g clip-path="url(#k)"><path stroke-width="2" stroke-linecap="round" stroke-linejoin="round" fill="none" stroke="#000" d="m59.171 198.758-.095 13.11"/></g><clipPath id="l"><path transform="matrix(1 0 0 -1 0 290.88)" d="M0 290.88h323.76V0H0" fill-rule="evenodd"/></clipPath><g clip-path="url(#l)"><path d="m62.516 211.845-3.49 6.855-3.39-6.905a7.69 7.69 0 0 1 6.88.05z" fill-rule="evenodd"/></g><clipPath id="m"><path transform="matrix(1 0 0 -1 0 290.88)" d="M0 290.88h323.76V0H0" fill-rule="evenodd"/></clipPath><g clip-path="url(#m)"><path stroke-width="2" stroke-linecap="round" stroke-linejoin="round" fill="none" stroke="#000" d="M59.199 186.04v-15.81"/></g><clipPath id="n"><path transform="matrix(1 0 0 -1 0 290.88)" d="M0 290.88h323.76V0H0" fill-rule="evenodd"/></clipPath><g clip-path="url(#n)"><path stroke-width="2" stroke-linecap="round" stroke-linejoin="round" fill="none" stroke="#000" d="M59.199 236.125v-14.879"/></g><path d="M72.176 199.144c0-7.236-5.779-13.104-12.909-13.104-7.129 0-12.909 5.868-12.909 13.104 0 7.235 5.78 13.101 12.909 13.101 7.13 0 12.909-5.866 12.909-13.101z" fill="#fff" fill-rule="evenodd"/><path stroke-width="2" stroke-linecap="round" stroke-linejoin="round" fill="none" stroke="#000" d="M72.176 199.144c0-7.236-5.779-13.104-12.909-13.104-7.129 0-12.909 5.868-12.909 13.104 0 7.235 5.78 13.101 12.909 13.101 7.13 0 12.909-5.866 12.909-13.101z"/><path d="M72.176 208.777c0-7.236-5.779-13.101-12.909-13.101-7.129 0-12.909 5.865-12.909 13.101 0 7.236 5.78 13.102 12.909 13.102 7.13 0 12.909-5.866 12.909-13.102z" fill="#fff" fill-rule="evenodd"/><path stroke-width="2" stroke-linecap="round" stroke-linejoin="round" fill="none" stroke="#000" d="M72.176 208.777c0-7.236-5.779-13.101-12.909-13.101-7.129 0-12.909 5.865-12.909 13.101 0 7.236 5.78 13.102 12.909 13.102 7.13 0 12.909-5.866 12.909-13.102z"/><clipPath id="o"><path transform="matrix(1 0 0 -1 0 290.88)" d="M0 290.88h323.76V0H0" fill-rule="evenodd"/></clipPath><g clip-path="url(#o)"><path stroke-width="2" stroke-linecap="round" stroke-linejoin="round" fill="none" stroke="#000" d="m59.171 198.758-.095 13.11"/></g><clipPath id="p"><path transform="matrix(1 0 0 -1 0 290.88)" d="M0 290.88h323.76V0H0" fill-rule="evenodd"/></clipPath><g clip-path="url(#p)"><path d="m62.516 211.845-3.49 6.855-3.39-6.905a7.69 7.69 0 0 1 6.88.05z" fill-rule="evenodd"/></g><clipPath id="q"><path transform="matrix(1 0 0 -1 0 290.88)" d="M0 290.88h323.76V0H0" fill-rule="evenodd"/></clipPath><g clip-path="url(#q)"><path stroke-width="2" stroke-linecap="round" stroke-linejoin="round" fill="none" stroke="#000" d="M217.91 138.7v7.43"/></g><clipPath id="r"><path transform="matrix(1 0 0 -1 0 290.88)" d="M0 290.88h323.76V0H0" fill-rule="evenodd"/></clipPath><g clip-path="url(#r)"><path stroke-width="2" stroke-linecap="round" stroke-linejoin="round" fill="none" stroke="#000" d="m217.91 146.13 8.24 2.26"/></g><clipPath id="s"><path transform="matrix(1 0 0 -1 0 290.88)" d="M0 290.88h323.76V0H0" fill-rule="evenodd"/></clipPath><g clip-path="url(#s)"><path stroke-width="2" stroke-linecap="round" stroke-linejoin="round" fill="none" stroke="#000" d="m226.15 148.39-16.31 3.83"/></g><clipPath id="t"><path transform="matrix(1 0 0 -1 0 290.88)" d="M0 290.88h323.76V0H0" fill-rule="evenodd"/></clipPath><g clip-path="url(#t)"><path stroke-width="2" stroke-linecap="round" stroke-linejoin="round" fill="none" stroke="#000" d="m209.84 152.22 16.31 3.82"/></g><path stroke-width="2" stroke-linecap="round" stroke-linejoin="round" fill="none" stroke="#000" d="m226.15 156.04-16.31 4.09 16.31 4.08M226.15 164.21l-16.31 4.59 8.2 2.55v6.13"/><clipPath id="u"><path transform="matrix(1 0 0 -1 0 290.88)" d="M0 290.88h323.76V0H0" fill-rule="evenodd"/></clipPath><g clip-path="url(#u)"><path stroke-width="2" stroke-linecap="round" stroke-linejoin="round" fill="none" stroke="#000" d="M217.91 138.7v7.43"/></g><clipPath id="v"><path transform="matrix(1 0 0 -1 0 290.88)" d="M0 290.88h323.76V0H0" fill-rule="evenodd"/></clipPath><g clip-path="url(#v)"><path stroke-width="2" stroke-linecap="round" stroke-linejoin="round" fill="none" stroke="#000" d="m217.91 146.13 8.24 2.26"/></g><clipPath id="w"><path transform="matrix(1 0 0 -1 0 290.88)" d="M0 290.88h323.76V0H0" fill-rule="evenodd"/></clipPath><g clip-path="url(#w)"><path stroke-width="2" stroke-linecap="round" stroke-linejoin="round" fill="none" stroke="#000" d="m226.15 148.39-16.31 3.83"/></g><clipPath id="x"><path transform="matrix(1 0 0 -1 0 290.88)" d="M0 290.88h323.76V0H0" fill-rule="evenodd"/></clipPath><g clip-path="url(#x)"><path stroke-width="2" stroke-linecap="round" stroke-linejoin="round" fill="none" stroke="#000" d="m209.84 152.22 16.31 3.82"/></g><path stroke-width="2" stroke-linecap="round" stroke-linejoin="round" fill="none" stroke="#000" d="m226.15 156.04-16.31 4.09 16.31 4.08M226.15 164.21l-16.31 4.59 8.2 2.55v6.13"/><clipPath id="y"><path transform="matrix(1 0 0 -1 0 290.88)" d="M0 290.88h323.76V0H0" fill-rule="evenodd"/></clipPath><g clip-path="url(#y)"><path stroke-width="2" stroke-linecap="round" stroke-linejoin="round" fill="none" stroke="#000" d="M285.91 157.84v15.51"/></g><path stroke-width="2" stroke-linecap="round" stroke-linejoin="round" fill="none" stroke="#000" d="M271.83 173.35h28.37M272.69 182.46c8.47-5.28 18.19-5.28 26.65 0"/><clipPath id="z"><path transform="matrix(1 0 0 -1 0 290.88)" d="M0 290.88h323.76V0H0" fill-rule="evenodd"/></clipPath><g clip-path="url(#z)"><path stroke-width="2" stroke-linecap="round" stroke-linejoin="round" fill="none" stroke="#000" d="M285.91 179.88v27.745"/></g><clipPath id="A"><path transform="matrix(1 0 0 -1 0 290.88)" d="M0 290.88h323.76V0H0" fill-rule="evenodd"/></clipPath><g clip-path="url(#A)"><path stroke-width="2" stroke-linecap="round" stroke-linejoin="round" fill="none" stroke="#000" d="M285.91 157.84v15.51"/></g><path stroke-width="2" stroke-linecap="round" stroke-linejoin="round" fill="none" stroke="#000" d="M271.83 173.35h28.37M272.69 182.46c8.47-5.28 18.19-5.28 26.65 0"/><clipPath id="B"><path transform="matrix(1 0 0 -1 0 290.88)" d="M0 290.88h323.76V0H0" fill-rule="evenodd"/></clipPath><g clip-path="url(#B)"><path stroke-width="2" stroke-linecap="round" stroke-linejoin="round" fill="none" stroke="#000" d="M285.91 179.88v27.745"/></g><clipPath id="C"><path transform="matrix(1 0 0 -1 0 290.88)" d="M185.27 140.42h26.25V113.4h-26.25v27.02z" fill-rule="evenodd"/></clipPath><g clip-path="url(#C)"><clipPath id="D"><path transform="matrix(1.03662 0 0 -1.0458 185.27 177.48)" d="M0 0h25.322v25.831H0z" fill-rule="evenodd"/></clipPath><g clip-path="url(#D)"><clipPath id="E"><path transform="matrix(1.03662 0 0 -1.0458 185.27 177.48)" d="M0 .055h25.32v25.776H0z" fill-rule="evenodd"/></clipPath><g clip-path="url(#E)"><symbol id="F"><path d="M.44.305A.181.181 0 0 0 .482.26.21.21 0 0 0 .505.194L.52.126A.318.318 0 0 1 .534.073a.078.078 0 0 1 .02-.026.083.083 0 0 1 .032-.015L.58 0H.405a.78.78 0 0 0-.028.109l-.016.08a.27.27 0 0 1-.016.059.067.067 0 0 1-.023.03.069.069 0 0 1-.038.01h-.03L.217.131A.34.34 0 0 1 .212.075C.212.06.216.049.223.043A.064.064 0 0 1 .26.033L.252 0H0l.007.032a.07.07 0 0 1 .04.028.231.231 0 0 1 .026.072l.089.403c.004.019.006.038.006.057 0 .013-.003.023-.01.03-.006.006-.016.01-.03.012l.006.033h.244A.801.801 0 0 0 .46.663.23.23 0 0 0 .523.648.153.153 0 0 0 .573.62.12.12 0 0 0 .605.575.187.187 0 0 0 .571.391.296.296 0 0 0 .44.31V.305m-.142.04c.042 0 .075.006.098.018a.14.14 0 0 1 .057.06.195.195 0 0 1 .02.092C.473.547.466.57.45.585.433.603.408.61.373.61h-.05L.266.343h.03z"/></symbol><use xlink:href="#F" transform="matrix(14.60388 0 0 -14.73316 190.304 164.446)"/></g><clipPath id="G"><path transform="matrix(1.03662 0 0 -1.0458 185.27 177.48)" d="M0 .055h25.32v25.776H0z" fill-rule="evenodd"/></clipPath><g clip-path="url(#G)"><symbol id="H"><path d="M.314.136c0-.019.001-.033.003-.043A.056.056 0 0 1 .33.07.059.059 0 0 1 .352.056.216.216 0 0 1 .39.048.792.792 0 0 1 .45.044V0H.03v.044a.715.715 0 0 1 .076.007.096.096 0 0 1 .036.012.046.046 0 0 1 .018.024c.004.01.006.026.006.05v.352c0 .014-.003.023-.008.03a.025.025 0 0 1-.02.008.086.086 0 0 1-.035-.011A.794.794 0 0 1 .03.47L0 .52l.255.153h.062a2.211 2.211 0 0 1-.003-.13V.136z"/></symbol><use xlink:href="#H" transform="matrix(10.3496 0 0 -10.44122 200.976 167.458)"/></g><clipPath id="I"><path transform="matrix(1.03662 0 0 -1.0458 185.27 177.48)" d="M0 .055h25.32v25.776H0z" fill-rule="evenodd"/></clipPath><g clip-path="url(#I)"><symbol id="J"><path d="M0 0z"/></symbol><use xlink:href="#J" transform="matrix(14.60388 0 0 -14.73316 206.89 164.446)"/></g></g></g><clipPath id="K"><path transform="matrix(1 0 0 -1 0 290.88)" d="M181.52 104.27h26.25V77.255h-26.25v27.015z" fill-rule="evenodd"/></clipPath><g clip-path="url(#K)"><clipPath id="L"><path transform="matrix(1.03662 0 0 -1.0458 181.52 213.625)" d="M0 0h25.322v25.831H0z" fill-rule="evenodd"/></clipPath><g clip-path="url(#L)"><clipPath id="M"><path transform="matrix(1.03662 0 0 -1.0458 181.52 213.625)" d="M0 .055h25.32v25.776H0z" fill-rule="evenodd"/></clipPath><g clip-path="url(#M)"><symbol id="N"><path d="M.547.658.516.516H.452a.246.246 0 0 1-.01.065.062.062 0 0 1-.022.033.071.071 0 0 1-.043.011.129.129 0 0 1-.08-.032.304.304 0 0 1-.075-.098.72.72 0 0 1-.075-.314c0-.027.002-.05.007-.068A.08.08 0 0 1 .181.072.084.084 0 0 1 .233.057c.034 0 .062.009.084.026a.214.214 0 0 1 .06.087h.064L.411.026A.614.614 0 0 0 .214 0C.146 0 .093.019.055.057.02.095 0 .149 0 .22a.609.609 0 0 0 .056.248c.021.046.049.086.082.118s.07.056.111.072a.375.375 0 0 0 .134.023c.055 0 .11-.008.164-.024z"/></symbol><use xlink:href="#N" transform="matrix(14.60388 0 0 -14.73316 187.608 200.706)"/></g><clipPath id="O"><path transform="matrix(1.03662 0 0 -1.0458 181.52 213.625)" d="M0 .055h25.32v25.776H0z" fill-rule="evenodd"/></clipPath><g clip-path="url(#O)"><use xlink:href="#H" transform="matrix(10.3496 0 0 -10.44122 196.604 203.603)"/></g><clipPath id="P"><path transform="matrix(1.03662 0 0 -1.0458 181.52 213.625)" d="M0 .055h25.32v25.776H0z" fill-rule="evenodd"/></clipPath><g clip-path="url(#P)"><use xlink:href="#J" transform="matrix(14.60388 0 0 -14.73316 202.642 200.591)"/></g></g></g><clipPath id="Q"><path transform="matrix(1 0 0 -1 0 290.88)" d="M0 290.88h323.76V0H0" fill-rule="evenodd"/></clipPath><g clip-path="url(#Q)"><path stroke-width="2" stroke-linecap="round" stroke-linejoin="round" fill="none" stroke="#000" d="M218 177.53v15.133"/></g><path stroke-width="2" stroke-linecap="round" stroke-linejoin="round" fill="none" stroke="#000" d="M204.26 192.663h27.68M205.1 201.554c8.26-5.279 17.74-5.279 26.01 0"/><clipPath id="R"><path transform="matrix(1 0 0 -1 0 290.88)" d="M0 290.88h323.76V0H0" fill-rule="evenodd"/></clipPath><g clip-path="url(#R)"><path stroke-width="2" stroke-linecap="round" stroke-linejoin="round" fill="none" stroke="#000" d="M218 199.037v27.072"/></g><clipPath id="S"><path transform="matrix(1 0 0 -1 0 290.88)" d="M0 290.88h323.76V0H0" fill-rule="evenodd"/></clipPath><g clip-path="url(#S)"><path stroke-width="2" stroke-linecap="round" stroke-linejoin="round" fill="none" stroke="#000" d="M218 177.53v15.133"/></g><path stroke-width="2" stroke-linecap="round" stroke-linejoin="round" fill="none" stroke="#000" d="M204.26 192.663h27.68M205.1 201.554c8.26-5.279 17.74-5.279 26.01 0"/><clipPath id="T"><path transform="matrix(1 0 0 -1 0 290.88)" d="M0 290.88h323.76V0H0" fill-rule="evenodd"/></clipPath><g clip-path="url(#T)"><path stroke-width="2" stroke-linecap="round" stroke-linejoin="round" fill="none" stroke="#000" d="M218 199.037v27.072"/></g><clipPath id="U"><path transform="matrix(1 0 0 -1 0 290.88)" d="M0 290.88h323.76V0H0" fill-rule="evenodd"/></clipPath><g clip-path="url(#U)"><path stroke-width="2" stroke-linecap="round" stroke-linejoin="round" fill="none" stroke="#000" d="M217.9 218.59v26.651"/></g><path stroke-width="2" stroke-linecap="round" stroke-linejoin="round" fill="none" stroke="#000" d="M209.45 245.241h16.14M212.25 249.683h10.73M216.21 254.125h3.17"/><clipPath id="V"><path transform="matrix(1 0 0 -1 0 290.88)" d="M0 290.88h323.76V0H0" fill-rule="evenodd"/></clipPath><g clip-path="url(#V)"><path stroke-width="2" stroke-linecap="round" stroke-linejoin="round" fill="none" stroke="#000" d="M217.9 218.59v26.651"/></g><path stroke-width="2" stroke-linecap="round" stroke-linejoin="round" fill="none" stroke="#000" d="M209.45 245.241h16.14M212.25 249.683h10.73M216.21 254.125h3.17"/><clipPath id="W"><path transform="matrix(1 0 0 -1 0 290.88)" d="M0 290.88h323.76V0H0" fill-rule="evenodd"/></clipPath><g clip-path="url(#W)"><path stroke-width="2" stroke-linecap="round" stroke-linejoin="round" fill="none" stroke="#000" d="M285.96 218.59v26.651"/></g><path stroke-width="2" stroke-linecap="round" stroke-linejoin="round" fill="none" stroke="#000" d="M277.5 245.241h16.14M280.3 249.683h10.73M284.26 254.125h3.17"/><clipPath id="X"><path transform="matrix(1 0 0 -1 0 290.88)" d="M0 290.88h323.76V0H0" fill-rule="evenodd"/></clipPath><g clip-path="url(#X)"><path stroke-width="2" stroke-linecap="round" stroke-linejoin="round" fill="none" stroke="#000" d="M285.96 218.59v26.651"/></g><path stroke-width="2" stroke-linecap="round" stroke-linejoin="round" fill="none" stroke="#000" d="M277.5 245.241h16.14M280.3 249.683h10.73M284.26 254.125h3.17"/><clipPath id="Y"><path transform="matrix(1 0 0 -1 0 290.88)" d="M0 290.88h323.76V0H0" fill-rule="evenodd"/></clipPath><g clip-path="url(#Y)"><path stroke-width="2" stroke-linecap="round" stroke-linejoin="round" fill="none" stroke="#000" d="M285.96 222.527v-18"/></g><path stroke-width="2" stroke-linecap="round" stroke-linejoin="round" fill="none" stroke="#000" d="M199.53 138.7h102.74"/><clipPath id="Z"><path transform="matrix(1 0 0 -1 0 290.88)" d="M0 290.88h323.76V0H0" fill-rule="evenodd"/></clipPath><g clip-path="url(#Z)"><path stroke-width="2" stroke-linecap="round" stroke-linejoin="round" fill="none" stroke="#000" d="M285.91 157.84V138.7"/></g><path d="M299.71 138.7c0-1.42 1.14-2.56 2.56-2.56 1.41 0 2.56 1.14 2.56 2.56 0 1.41-1.15 2.55-2.56 2.55a2.55 2.55 0 0 1-2.56-2.55z" fill-rule="evenodd"/><path stroke-width="2" stroke-linecap="round" stroke-linejoin="round" fill="none" stroke="#000" d="M299.71 138.7c0-1.42 1.14-2.56 2.56-2.56 1.41 0 2.56 1.14 2.56 2.56 0 1.41-1.15 2.55-2.56 2.55a2.55 2.55 0 0 1-2.56-2.55zM217.91 138.7h-10.88"/><clipPath id="aa"><path transform="matrix(1 0 0 -1 0 290.88)" d="M249.17 122.35h25.2V96.642h-25.2v25.708z" fill-rule="evenodd"/></clipPath><g clip-path="url(#aa)"><clipPath id="ab"><path transform="matrix(.99571 0 0 -.99396 249.17 194.238)" d="M0 0h25.308v25.867H0z" fill-rule="evenodd"/></clipPath><g clip-path="url(#ab)"><clipPath id="ac"><path transform="matrix(.99571 0 0 -.99396 249.17 194.238)" d="M0 .02h25.344v25.847H0z" fill-rule="evenodd"/></clipPath><g clip-path="url(#ac)"><use xlink:href="#N" transform="matrix(14.07543 0 -.00001 -14.05062 255.02 181.853)"/></g><clipPath id="ad"><path transform="matrix(.99571 0 0 -.99396 249.17 194.238)" d="M0 .02h25.344v25.847H0z" fill-rule="evenodd"/></clipPath><g clip-path="url(#ad)"><symbol id="ae"><path d="M.315.12C.337.12.352.12.363.124.373.127.38.133.387.14c.006.008.011.02.015.035h.056L.448 0H0v.032a.986.986 0 0 0 .154.223c.035.041.062.075.08.102a.362.362 0 0 1 .041.076C.285.456.29.48.29.506A.132.132 0 0 1 .265.59.078.078 0 0 1 .2.621C.147.621.113.583.098.506H.01v.116a.804.804 0 0 0 .128.042.5.5 0 0 0 .103.01.3.3 0 0 0 .117-.02.133.133 0 0 0 .066-.051.141.141 0 0 0 .02-.077A.176.176 0 0 0 .43.454.317.317 0 0 0 .38.378 1.52 1.52 0 0 0 .26.257 1.15 1.15 0 0 1 .143.125V.12h.173z"/></symbol><use xlink:href="#ae" transform="matrix(9.98901 0 -.00001 -9.9714 263.42 184.63)"/></g><clipPath id="af"><path transform="matrix(.99571 0 0 -.99396 249.17 194.238)" d="M0 .02h25.344v25.847H0z" fill-rule="evenodd"/></clipPath><g clip-path="url(#af)"><use xlink:href="#J" transform="matrix(14.07543 0 -.00001 -14.05062 269.459 181.743)"/></g></g></g><clipPath id="ag"><path transform="matrix(1 0 0 -1 0 290.88)" d="M204.43 149.35h34.809v25.71H204.43z" fill-rule="evenodd"/></clipPath><g clip-path="url(#ag)"><clipPath id="ah"><path transform="matrix(.997 0 0 -.99396 204.43 141.53)" d="M0 0h34.913v25.867H0z" fill-rule="evenodd"/></clipPath><g clip-path="url(#ah)"><clipPath id="ai"><path transform="matrix(.997 0 0 -.99396 204.43 141.53)" d="M0 .02h34.92v25.847H0z" fill-rule="evenodd"/></clipPath><g clip-path="url(#ai)"><symbol id="aj"><path d="M.366.457a.83.83 0 0 1 .047.095.137.137 0 0 1 .008.045c0 .024-.013.037-.041.04L.387.67h.208L.588.638a.08.08 0 0 1-.03-.014.11.11 0 0 1-.025-.025A.58.58 0 0 1 .5.545L.197 0H.074l-.02.522a.517.517 0 0 1-.005.05.133.133 0 0 1-.009.036.046.046 0 0 1-.016.02.051.051 0 0 1-.024.01L.007.67H.26L.252.638A.062.062 0 0 1 .22.627.053.053 0 0 1 .202.602.168.168 0 0 1 .197.555V.511L.201.34.203.16h.005l.158.297z"/></symbol><use xlink:href="#aj" transform="matrix(14.09347 0 0 -14.05062 205.084 129.083)"/></g><clipPath id="ak"><path transform="matrix(.997 0 0 -.99396 204.43 141.53)" d="M0 .02h34.92v25.847H0z" fill-rule="evenodd"/></clipPath><g clip-path="url(#ak)"><symbol id="al"><path d="M.575.667.536.49H.474a.342.342 0 0 1-.007.075.06.06 0 0 1-.019.033.053.053 0 0 1-.036.011H.37L.264.132A.36.36 0 0 1 .257.075C.257.06.261.049.27.043a.064.064 0 0 1 .036-.01L.298 0h-.26l.007.032A.07.07 0 0 1 .08.045.071.071 0 0 1 .1.074a.327.327 0 0 1 .018.058l.105.477H.184A.098.098 0 0 1 .141.601.116.116 0 0 1 .104.567.315.315 0 0 1 .064.5H0l.037.167h.538z"/></symbol><symbol id="am"><path d="M.294.058C.31.058.322.06.33.062a.072.072 0 0 1 .024.012.198.198 0 0 1 .05.061.476.476 0 0 1 .025.059h.067L.447 0H0l.007.032a.07.07 0 0 1 .04.028.231.231 0 0 1 .026.072l.089.403c.004.019.006.038.006.057 0 .013-.003.023-.01.03-.006.006-.016.01-.03.012l.006.033H.38L.373.634A.07.07 0 0 1 .332.607.231.231 0 0 1 .307.535L.202.058h.092z"/></symbol><use xlink:href="#N" transform="matrix(10.00182 0 0 -9.9714 214.206 132)"/><use xlink:href="#al" transform="matrix(10.00182 0 0 -9.9714 220.09 131.921)"/><use xlink:href="#F" transform="matrix(10.00182 0 0 -9.9714 226.227 131.921)"/><use xlink:href="#am" transform="matrix(10.00182 0 0 -9.9714 233.228 131.921)"/></g><clipPath id="an"><path transform="matrix(.997 0 0 -.99396 204.43 141.53)" d="M0 .02h34.92v25.847H0z" fill-rule="evenodd"/></clipPath><g clip-path="url(#an)"><use xlink:href="#J" transform="matrix(14.09347 0 0 -14.05062 239.245 129.035)"/></g></g></g><clipPath id="ao"><path transform="matrix(1 0 0 -1 0 290.88)" d="M0 290.88h323.76V0H0" fill-rule="evenodd"/></clipPath><g clip-path="url(#ao)"><path stroke-width="2" stroke-linecap="round" stroke-linejoin="round" fill="none" stroke="#000" d="M59.177 236.357v26.652"/></g><path stroke-width="2" stroke-linecap="round" stroke-linejoin="round" fill="none" stroke="#000" d="M50.725 263.009h16.136M53.525 267.451h10.724M57.487 271.892h3.169"/><clipPath id="ap"><path transform="matrix(1 0 0 -1 0 290.88)" d="M0 290.88h323.76V0H0" fill-rule="evenodd"/></clipPath><g clip-path="url(#ap)"><path stroke-width="2" stroke-linecap="round" stroke-linejoin="round" fill="none" stroke="#000" d="M59.177 236.357v26.652"/></g><path stroke-width="2" stroke-linecap="round" stroke-linejoin="round" fill="none" stroke="#000" d="M50.725 263.009h16.136M53.525 267.451h10.724M57.487 271.892h3.169M164.56 138.7H59.548"/><clipPath id="aq"><path transform="matrix(1 0 0 -1 0 290.88)" d="M0 290.88h323.76V0H0" fill-rule="evenodd"/></clipPath><g clip-path="url(#aq)"><path stroke-width="2" stroke-linecap="round" stroke-linejoin="round" fill="none" stroke="#000" d="m59.199 116.07 9.068 9.8"/></g><clipPath id="ar"><path transform="matrix(1 0 0 -1 0 290.88)" d="M0 290.88h323.76V0H0" fill-rule="evenodd"/></clipPath><g clip-path="url(#ar)"><path stroke-width="2" stroke-linecap="round" stroke-linejoin="round" fill="none" stroke="#000" d="M59.267 152.87v-14.06"/></g><clipPath id="as"><path transform="matrix(1 0 0 -1 0 290.88)" d="M0 290.88h323.76V0H0" fill-rule="evenodd"/></clipPath><g clip-path="url(#as)"><path stroke-width="2" stroke-linecap="round" stroke-linejoin="round" fill="none" stroke="#000" d="m59.267 152.87 9.069 9.81"/></g><path d="M55.797 170.23c0-1.87 1.523-3.4 3.402-3.4a3.406 3.406 0 0 1 0 6.81 3.408 3.408 0 0 1-3.402-3.41z" fill-rule="evenodd"/><path stroke-width="2" stroke-linecap="round" stroke-linejoin="round" fill="none" stroke="#000" d="M55.797 170.23c0-1.87 1.523-3.4 3.402-3.4a3.406 3.406 0 0 1 0 6.81 3.408 3.408 0 0 1-3.402-3.41z"/><clipPath id="at"><path transform="matrix(1 0 0 -1 0 290.88)" d="M0 290.88h323.76V0H0" fill-rule="evenodd"/></clipPath><g clip-path="url(#at)"><path stroke-width="2" stroke-linecap="round" stroke-linejoin="round" fill="none" stroke="#000" d="M59.267 138.81v-9.56"/></g><path d="M55.866 129.25a3.4 3.4 0 0 1 3.401-3.4 3.4 3.4 0 1 1 0 6.8 3.4 3.4 0 0 1-3.401-3.4z" fill-rule="evenodd"/><path stroke-width="2" stroke-linecap="round" stroke-linejoin="round" fill="none" stroke="#000" d="M55.866 129.25a3.4 3.4 0 0 1 3.401-3.4 3.4 3.4 0 1 1 0 6.8 3.4 3.4 0 0 1-3.401-3.4zM49.965 38.81h18"/><clipPath id="au"><path transform="matrix(1 0 0 -1 0 290.88)" d="M46.038 271.88h30.104v-25.71H46.038v25.71z" fill-rule="evenodd"/></clipPath><g clip-path="url(#au)"><clipPath id="av"><path transform="matrix(.99648 0 0 -.99396 46.038 44.71)" d="M0 0h30.21v25.867H0z" fill-rule="evenodd"/></clipPath><g clip-path="url(#av)"><clipPath id="aw"><path transform="matrix(.99648 0 0 -.99396 46.038 44.71)" d="M0 .02h30.264v25.847H0z" fill-rule="evenodd"/></clipPath><g clip-path="url(#aw)"><symbol id="ax"><path d="m0 0 .007.032a.07.07 0 0 1 .04.028.231.231 0 0 1 .026.072l.089.403c.004.019.006.038.006.057 0 .013-.003.023-.01.03-.006.006-.016.01-.03.012l.006.033h.198a.752.752 0 0 0 .129-.01.273.273 0 0 0 .08-.026.206.206 0 0 0 .058-.042A.197.197 0 0 0 .64.518a.29.29 0 0 0 .015-.1.52.52 0 0 0-.014-.125.43.43 0 0 0-.044-.11A.348.348 0 0 0 .36.009.666.666 0 0 0 .24 0H0m.202.06A.437.437 0 0 1 .238.058c.042 0 .078.008.109.025.03.016.057.041.08.075a.402.402 0 0 1 .056.125.55.55 0 0 1 .02.148.274.274 0 0 1-.01.084A.143.143 0 0 1 .46.57.109.109 0 0 1 .416.6.162.162 0 0 1 .36.61L.323.607.203.06z"/></symbol><use xlink:href="#aj" transform="matrix(14.08626 .00001 0 -14.05062 46.691 32.263)"/><use xlink:href="#ax" transform="matrix(14.08626 .00001 0 -14.05062 55.445 32.215)"/><use xlink:href="#ax" transform="matrix(14.08626 .00001 0 -14.05062 66.15 32.215)"/></g><clipPath id="ay"><path transform="matrix(.99648 0 0 -.99396 46.038 44.71)" d="M0 .02h30.264v25.847H0z" fill-rule="evenodd"/></clipPath><g clip-path="url(#ay)"><use xlink:href="#J" transform="matrix(14.08626 .00001 0 -14.05062 76.196 32.215)"/></g></g></g><clipPath id="az"><path transform="matrix(1 0 0 -1 0 290.88)" d="M0 290.88h323.76V0H0" fill-rule="evenodd"/></clipPath><g clip-path="url(#az)"><path stroke-width="2" stroke-linecap="round" stroke-linejoin="round" fill="none" stroke="#000" d="M59.267 39.25v18"/></g><path stroke-width="2" stroke-linecap="round" stroke-linejoin="round" fill="none" stroke="#000" d="M24.392 129.25h22.259"/><path d="m45.747 124.73 4.52 4.52-4.52 4.52v-9.04z" fill-rule="evenodd"/><path stroke-width="2" stroke-linecap="round" stroke-linejoin="round" fill="none" stroke="#000" d="M24.392 170.2h22.259"/><path d="m45.747 165.68 4.52 4.52-4.52 4.52v-9.04z" fill-rule="evenodd"/><clipPath id="aA"><path transform="matrix(1 0 0 -1 0 290.88)" d="M23.267 156.65h25.2v25.71h-25.2z" fill-rule="evenodd"/></clipPath><g clip-path="url(#aA)"><clipPath id="aB"><path transform="matrix(.99571 0 0 -.99396 23.267 134.23)" d="M0 0h25.308v25.867H0z" fill-rule="evenodd"/></clipPath><g clip-path="url(#aB)"><clipPath id="aC"><path transform="matrix(.99571 0 0 -.99396 23.267 134.23)" d="M0 .02h25.344v25.847H0z" fill-rule="evenodd"/></clipPath><g clip-path="url(#aC)"><symbol id="aD"><path d="M.481.24A.462.462 0 0 0 .443.127.23.23 0 0 0 .386.053.213.213 0 0 0 .31.013.392.392 0 0 0 .123.01a.183.183 0 0 0-.064.033A.16.16 0 0 0 0 .176L.003.23C.006.248.011.277.02.317l.05.225A.26.26 0 0 1 .078.6c0 .013-.003.023-.01.03C.061.635.051.64.037.641l.006.032H.29L.282.642a.07.07 0 0 1-.04-.027.231.231 0 0 1-.026-.073L.15.243A.524.524 0 0 1 .138.147C.138.117.145.095.16.08.174.065.196.057.224.057c.027 0 .05.006.069.018.019.012.033.03.044.051a.372.372 0 0 1 .03.087l.072.33A.22.22 0 0 1 .445.6c0 .013-.003.023-.01.03C.43.635.42.64.406.641l.007.032H.62L.613.642A.072.072 0 0 1 .57.614.225.225 0 0 1 .547.542L.48.24z"/></symbol><symbol id="aE"><path d="M.257.592a.36.36 0 0 0 .087.084c.028.017.06.026.097.026a.1.1 0 0 0 .086-.04.187.187 0 0 0 .03-.116.463.463 0 0 0-.018-.13.347.347 0 0 0-.055-.113.256.256 0 0 0-.212-.1.238.238 0 0 0-.084.014L.17.13A.99.99 0 0 1 .162.075c0-.014.003-.024.01-.03A.073.073 0 0 1 .21.031L.205 0H.002l.123.55a.247.247 0 0 1 .008.048c0 .01-.002.019-.006.025C.124.628.117.63.11.63A.055.055 0 0 1 .076.618a.312.312 0 0 1-.04-.04L0 .611a.38.38 0 0 0 .086.07.17.17 0 0 0 .08.02A.09.09 0 0 0 .232.68.077.077 0 0 0 .255.62.092.092 0 0 0 .252.597L.257.592M.222.391A.334.334 0 0 1 .214.32c0-.024.004-.041.012-.051.008-.01.022-.016.04-.016.017 0 .032.004.045.01.013.008.026.02.038.037a.53.53 0 0 1 .076.26.103.103 0 0 1-.01.053.035.035 0 0 1-.033.017C.36.63.338.62.316.6A.245.245 0 0 1 .263.526.553.553 0 0 1 .226.409L.222.39z"/></symbol><use xlink:href="#aD" transform="matrix(14.07543 0 0 -14.05062 27.538 121.964)"/><use xlink:href="#aE" transform="matrix(14.07543 0 0 -14.05062 36.837 124.804)"/></g><clipPath id="aF"><path transform="matrix(.99571 0 0 -.99396 23.267 134.23)" d="M0 .02h25.344v25.847H0z" fill-rule="evenodd"/></clipPath><g clip-path="url(#aF)"><use xlink:href="#J" transform="matrix(14.07543 0 0 -14.05062 45.252 121.854)"/></g></g></g><clipPath id="aG"><path transform="matrix(1 0 0 -1 0 290.88)" d="M20.574 114.54H51.16v25.71H20.574z" fill-rule="evenodd"/></clipPath><g clip-path="url(#aG)"><clipPath id="aH"><path transform="matrix(.99654 0 0 -.99396 20.574 176.34)" d="M0 0h30.692v25.867H0z" fill-rule="evenodd"/></clipPath><g clip-path="url(#aH)"><clipPath id="aI"><path transform="matrix(.99654 0 0 -.99396 20.574 176.34)" d="M0 .02h30.744v25.847H0z" fill-rule="evenodd"/></clipPath><g clip-path="url(#aI)"><symbol id="aJ"><path d="M.73.492.747.459a1.12 1.12 0 0 0-.1-.192A3.369 3.369 0 0 0 .462 0H.38L.365.145a2.28 2.28 0 0 0-.01.135H.35A1.899 1.899 0 0 0 .18 0h-.09L.052.375a.252.252 0 0 1-.009.05.047.047 0 0 1-.014.025A.049.049 0 0 1 0 .46l.007.032h.17L.206.137c.048.076.082.136.102.18.02.045.031.093.036.142L.35.492h.11L.49.137C.537.208.572.266.593.31a.27.27 0 0 1 .032.11c0 .012-.003.022-.009.028C.61.455.6.459.586.459l.006.033H.73z"/></symbol><symbol id="aK"><path d="M.035.375 0 .41a.38.38 0 0 0 .086.07.17.17 0 0 0 .08.02.09.09 0 0 0 .065-.023.077.077 0 0 0 .024-.06.092.092 0 0 0-.003-.023L.257.39c.03.038.06.066.087.084C.372.49.404.5.441.5.474.5.5.49.52.472A.103.103 0 0 0 .548.395a.373.373 0 0 0-.01-.08L.499.161A.237.237 0 0 1 .491.104C.49.092.493.083.497.078A.023.023 0 0 1 .515.071c.01 0 .02.004.032.013a.32.32 0 0 1 .041.041L.624.09A.38.38 0 0 0 .538.02.17.17 0 0 0 .455 0C.42 0 .395.008.379.025.363.043.355.068.355.101c0 .024.005.054.014.091l.022.081a.923.923 0 0 1 .02.112C.41.4.408.411.4.418a.033.033 0 0 1-.026.01C.359.429.341.42.32.4A.261.261 0 0 1 .271.34a.272.272 0 0 1-.03-.082L.188.008h-.14l.078.34a.234.234 0 0 1 .008.048C.133.406.13.415.127.42.124.426.117.43.11.43A.055.055 0 0 1 .076.415a.312.312 0 0 1-.04-.041z"/></symbol><use xlink:href="#ax" transform="matrix(14.08707 0 0 -14.05062 20.966 163.964)"/><use xlink:href="#aJ" transform="matrix(14.08707 0 0 -14.05062 31.658 164.067)"/><use xlink:href="#aK" transform="matrix(14.08707 0 0 -14.05062 42.433 164.074)"/></g><clipPath id="aL"><path transform="matrix(.99654 0 0 -.99396 20.574 176.34)" d="M0 .02h30.744v25.847H0z" fill-rule="evenodd"/></clipPath><g clip-path="url(#aL)"><use xlink:href="#J" transform="matrix(14.08707 0 0 -14.05062 51.212 163.964)"/></g></g></g><clipPath id="aM"><path transform="matrix(1 0 0 -1 0 290.88)" d="M0 290.88h323.76V0H0" fill-rule="evenodd"/></clipPath><g clip-path="url(#aM)"><path stroke-width="2" stroke-linecap="round" stroke-linejoin="round" fill="none" stroke="#000" d="M81.767 65.12c1.688 40.69 45.663 54.48 81.883 54.09"/></g><clipPath id="aN"><path transform="matrix(1 0 0 -1 0 290.88)" d="M0 290.88h323.76V0H0" fill-rule="evenodd"/></clipPath><g clip-path="url(#aN)"><path d="m162.64 114.71 4.63 4.41-4.41 4.63-.22-9.04z" fill-rule="evenodd"/></g><clipPath id="aO"><path transform="matrix(1 0 0 -1 0 290.88)" d="M0 290.88h323.76V0H0" fill-rule="evenodd"/></clipPath><g clip-path="url(#aO)"><path stroke-width="2" stroke-linecap="round" stroke-linejoin="round" fill="none" stroke="#000" d="M84.426 206.218c1.688-40.678 45.664-54.478 81.884-54.088"/></g><clipPath id="aP"><path transform="matrix(1 0 0 -1 0 290.88)" d="M0 290.88h323.76V0H0" fill-rule="evenodd"/></clipPath><g clip-path="url(#aP)"><path d="m165.3 156.63 4.63-4.41-4.41-4.63-.22 9.04z" fill-rule="evenodd"/></g><path stroke-width="2" stroke-linecap="round" stroke-linejoin="round" fill="none" stroke="#000" d="M153.77 138.7h45.76"/><clipPath id="aQ"><path transform="matrix(1 0 0 -1 0 290.88)" d="M98.72 179.74h92.098v20.665H98.72z" fill-rule="evenodd"/></clipPath><g clip-path="url(#aQ)"><clipPath id="aR"><path transform="matrix(.99913 0 0 -.99283 98.72 111.14)" d="M0 0h92.175v20.814H0z" fill-rule="evenodd"/></clipPath><g clip-path="url(#aR)"><clipPath id="aS"><path transform="matrix(.99913 0 0 -.99283 98.72 111.14)" d="M0 .102h92.256v20.712H0z" fill-rule="evenodd"/></clipPath><g clip-path="url(#aS)"><symbol id="aT"><path d="M.219.409.225.407a.292.292 0 0 0 .08.07A.176.176 0 0 0 .394.5C.427.5.453.49.472.472A.104.104 0 0 0 .5.395a.373.373 0 0 0-.01-.08L.45.161A.237.237 0 0 1 .443.104C.442.092.444.083.45.078A.023.023 0 0 1 .467.071c.01 0 .02.004.031.013A.298.298 0 0 1 .54.125L.575.09A.38.38 0 0 0 .49.02.17.17 0 0 0 .406 0C.373 0 .348.008.332.024.315.041.307.066.307.1c0 .026.004.056.013.09l.022.084a.985.985 0 0 1 .02.112.051.051 0 0 1-.008.032C.348.425.339.43.327.43.311.429.291.419.27.397a.25.25 0 0 1-.05-.062.29.29 0 0 1-.025-.077L.14.008H0L.124.56a.36.36 0 0 1 .01.07c0 .007 0 .012-.002.016a.022.022 0 0 1-.007.01.028.028 0 0 1-.011.006.192.192 0 0 1-.029.005L.093.7l.146.008h.055L.219.409z"/></symbol><symbol id="aU"><path d="M.433.16A.243.243 0 0 1 .425.104c0-.01.002-.019.006-.024C.434.074.44.07.449.07.46.07.47.076.482.085c.012.01.025.023.04.041L.559.09A.397.397 0 0 0 .47.019.169.169 0 0 0 .392 0a.091.091 0 0 0-.065.022.08.08 0 0 0-.024.06c0 .009 0 .016.003.024H.299A.531.531 0 0 0 .237.044.175.175 0 0 0 .12 0C.08 0 .05.013.03.04A.19.19 0 0 0 0 .156C0 .2.006.243.019.286.032.33.05.368.074.399a.25.25 0 0 0 .09.075A.268.268 0 0 0 .285.5C.334.5.376.488.41.465L.457.5.512.492.432.16M.337.312a.341.341 0 0 1 .008.072.082.082 0 0 1-.012.049C.323.443.31.449.292.449.262.45.234.434.21.403a.521.521 0 0 1-.078-.26C.133.119.136.1.143.089A.036.036 0 0 1 .176.072c.021 0 .043.01.065.031a.25.25 0 0 1 .054.074.54.54 0 0 1 .037.116l.004.019z"/></symbol><symbol id="aV"><path d="M.254.375A.338.338 0 0 0 .34.462c.03.02.063.03.1.03a.275.275 0 0 0 .068-.01L.479.353H.392a.099.099 0 0 1-.008.045C.38.405.372.41.36.41A.057.057 0 0 1 .332.4a.252.252 0 0 1-.07-.087.335.335 0 0 1-.02-.063L.187 0h-.14l.078.34a.234.234 0 0 1 .008.048c0 .01-.002.019-.006.025C.124.418.117.42.11.42A.055.055 0 0 1 .076.408a.312.312 0 0 1-.04-.04L0 .401a.38.38 0 0 0 .086.07.17.17 0 0 0 .08.02A.09.09 0 0 0 .232.47.077.077 0 0 0 .255.41.133.133 0 0 0 .25.377L.254.375z"/></symbol><symbol id="aW"><path d="M.136.178a.112.112 0 0 1-.019-.03.094.094 0 0 1-.005-.031c0-.022.008-.039.023-.05a.12.12 0 0 1 .07-.016c.05 0 .09.018.118.056A.527.527 0 0 1 .397.31L.391.315A.353.353 0 0 0 .31.235.174.174 0 0 0 .214.21a.103.103 0 0 0-.086.04.187.187 0 0 0-.03.116c0 .045.006.089.019.132A.348.348 0 0 0 .172.61a.253.253 0 0 0 .212.1.242.242 0 0 0 .063-.007.194.194 0 0 0 .06-.028L.55.71.605.703.563.512A7.051 7.051 0 0 0 .508.244.572.572 0 0 0 .471.129.206.206 0 0 0 .34.017.45.45 0 0 0 .207 0C.138 0 .087.01.052.028a.09.09 0 0 0-.03.14.225.225 0 0 0 .063.05l.05-.04m.298.344a.332.332 0 0 1 .008.07c0 .023-.004.04-.012.051C.42.654.407.66.389.66.359.66.333.645.309.616A.35.35 0 0 1 .253.494.525.525 0 0 1 .23.353C.23.329.233.312.24.3A.036.036 0 0 1 .273.282a.08.08 0 0 1 .042.013.25.25 0 0 1 .085.11c.011.026.02.06.03.1l.003.017z"/></symbol><symbol id="aX"><path d="M.256.687.23.567H.104l.027.12h.125M.144.162A.198.198 0 0 1 .136.105c0-.013.002-.022.006-.027A.023.023 0 0 1 .16.071c.01 0 .02.004.032.013a.32.32 0 0 1 .041.041L.27.09A.38.38 0 0 0 .183.02.17.17 0 0 0 .1 0C.065 0 .04.008.024.025S0 .068 0 .102C0 .124.004.15.01.18l.042.17c.007.03.011.055.011.073 0 .013-.003.022-.01.027C.049.454.036.458.017.46l.007.032.144.006h.055L.144.162z"/></symbol><use xlink:href="#N" transform="matrix(9.97532 0 0 -9.91236 121.462 99.989)"/><use xlink:href="#aT" transform="matrix(9.97532 0 0 -9.91236 127.438 99.989)"/><use xlink:href="#aU" transform="matrix(9.97532 0 0 -9.91236 133.686 99.989)"/><use xlink:href="#aV" transform="matrix(9.97532 0 0 -9.91236 139.471 99.911)"/><use xlink:href="#aW" transform="matrix(9.97532 0 0 -9.91236 144.892 102.075)"/><use xlink:href="#aX" transform="matrix(9.97532 0 0 -9.91236 152.21 99.989)"/><use xlink:href="#aK" transform="matrix(9.97532 0 0 -9.91236 155.337 99.989)"/></g><clipPath id="aY"><path transform="matrix(.99913 0 0 -.99283 98.72 111.14)" d="M0 .102h92.256v20.712H0z" fill-rule="evenodd"/></clipPath><g clip-path="url(#aY)"><use xlink:href="#aW" transform="matrix(9.97532 0 0 -9.91236 162.003 102.075)"/></g><clipPath id="aZ"><path transform="matrix(.99913 0 0 -.99283 98.72 111.14)" d="M0 .102h92.256v20.712H0z" fill-rule="evenodd"/></clipPath><g clip-path="url(#aZ)"><use xlink:href="#J" transform="matrix(9.97532 0 0 -9.91236 168.691 99.911)"/></g></g></g><clipPath id="ba"><path transform="matrix(1 0 0 -1 0 290.88)" d="M96.396 102.31h96.746v21.742H96.396z" fill-rule="evenodd"/></clipPath><g clip-path="url(#ba)"><clipPath id="bb"><path transform="matrix(1.0496 0 0 -1.04457 96.396 188.57)" d="M0 0h92.175v20.814H0z" fill-rule="evenodd"/></clipPath><g clip-path="url(#bb)"><clipPath id="bc"><path transform="matrix(1.0496 0 0 -1.04457 96.396 188.57)" d="M0 .102h92.256v20.712H0z" fill-rule="evenodd"/></clipPath><g clip-path="url(#bc)"><symbol id="bd"><path d="M.09.145a.118.118 0 0 1 .022-.07C.125.06.146.052.174.052.2.05.22.057.234.069c.014.013.02.03.02.054a.08.08 0 0 1-.006.034.085.085 0 0 1-.022.028.396.396 0 0 1-.051.035.236.236 0 0 0-.071.06.122.122 0 0 0-.022.071c0 .048.017.085.053.11A.254.254 0 0 0 .285.5a.553.553 0 0 0 .16-.022L.42.36H.358a.117.117 0 0 1-.024.067C.322.442.304.449.281.449A.078.078 0 0 1 .228.432a.056.056 0 0 1-.02-.045C.208.37.214.355.225.342A.29.29 0 0 1 .29.294.232.232 0 0 0 .364.231.132.132 0 0 0 .386.154.136.136 0 0 0 .36.07.155.155 0 0 0 .287.017.3.3 0 0 0 .182 0 .695.695 0 0 0 0 .023l.027.122H.09z"/></symbol><symbol id="be"><path d="m.333.137.04-.042A.335.335 0 0 0 .27.02.289.289 0 0 0 .157 0a.148.148 0 0 0-.116.046.19.19 0 0 0-.041.13c0 .052.012.105.035.158a.265.265 0 0 0 .103.124.297.297 0 0 0 .16.042.51.51 0 0 0 .139-.02L.409.361H.321l.001.021c0 .024-.003.04-.01.051A.036.036 0 0 1 .28.45C.256.45.233.435.21.408A.461.461 0 0 1 .134.163C.135.102.158.071.202.071c.023 0 .044.005.064.015.02.01.043.027.068.051z"/></symbol><use xlink:href="#ax" transform="matrix(10.47912 0 0 -10.42903 112.079 176.756)"/><use xlink:href="#aX" transform="matrix(10.47912 0 0 -10.42903 120.258 176.837)"/><use xlink:href="#bd" transform="matrix(10.47912 0 0 -10.42903 123.675 176.837)"/><use xlink:href="#be" transform="matrix(10.47912 0 0 -10.42903 129.196 176.837)"/><use xlink:href="#aT" transform="matrix(10.47912 0 0 -10.42903 134.369 176.837)"/><use xlink:href="#aU" transform="matrix(10.47912 0 0 -10.42903 140.933 176.837)"/><use xlink:href="#aV" transform="matrix(10.47912 0 0 -10.42903 147.01 176.756)"/><use xlink:href="#aW" transform="matrix(10.47912 0 0 -10.42903 152.705 179.032)"/><use xlink:href="#aX" transform="matrix(10.47912 0 0 -10.42903 160.393 176.837)"/><use xlink:href="#aK" transform="matrix(10.47912 0 0 -10.42903 163.677 176.837)"/><use xlink:href="#aW" transform="matrix(10.47912 0 0 -10.42903 170.414 179.032)"/></g><clipPath id="bf"><path transform="matrix(1.0496 0 0 -1.04457 96.396 188.57)" d="M0 .102h92.256v20.712H0z" fill-rule="evenodd"/></clipPath><g clip-path="url(#bf)"><use xlink:href="#J" transform="matrix(10.47912 0 0 -10.42903 177.861 176.756)"/></g></g></g></svg>