<svg xmlns="http://www.w3.org/2000/svg" xmlns:xlink="http://www.w3.org/1999/xlink" width="289.12" height="289.28" viewBox="0 0 216.84 216.96"><path stroke-width="2" stroke-linecap="round" stroke-linejoin="round" fill="none" stroke="#000" d="M35.88 162.5h31.5v20.25l22.5 9V171.5h31.5V149l22.5-6.75v20.25h54M35.88 108.5h31.5v20.25h22.5V108.5h31.5v-18M121.38 90.5h22.5v18h54M35.88 54.5h54v20.25h54V54.5h54M197.88 48.87h-75.37V27.5H67.38v20.25M35.88 47.75h31.5"/><clipPath id="a"><path transform="matrix(1 0 0 -1 0 216.96)" d="M0 216.96h216.84V0H0" fill-rule="evenodd"/></clipPath><g clip-path="url(#a)"><path stroke-linecap="round" stroke-dasharray="0,3" stroke-linejoin="round" fill="none" stroke="#b4b4b4" d="M67.38 198.5v-180"/></g><clipPath id="b"><path transform="matrix(1 0 0 -1 0 216.96)" d="M0 216.96h216.84V0H0" fill-rule="evenodd"/></clipPath><g clip-path="url(#b)"><path stroke-linecap="round" stroke-dasharray="0,3" stroke-linejoin="round" fill="none" stroke="#b4b4b4" d="M89.88 198.5v-180"/></g><clipPath id="c"><path transform="matrix(1 0 0 -1 0 216.96)" d="M0 216.96h216.84V0H0" fill-rule="evenodd"/></clipPath><g clip-path="url(#c)"><path stroke-linecap="round" stroke-dasharray="0,3" stroke-linejoin="round" fill="none" stroke="#b4b4b4" d="M121.38 194V18.5"/></g><clipPath id="d"><path transform="matrix(1 0 0 -1 0 216.96)" d="M0 216.96h216.84V0H0" fill-rule="evenodd"/></clipPath><g clip-path="url(#d)"><path stroke-linecap="round" stroke-dasharray="0,3" stroke-linejoin="round" fill="none" stroke="#919191" d="M143.88 194V18.5"/></g><clipPath id="e"><path transform="matrix(1 0 0 -1 0 216.96)" d="M22.756 190.59h26.249v-27.02H22.756v27.02z" fill-rule="evenodd"/></clipPath><g clip-path="url(#e)"><clipPath id="f"><path transform="matrix(1.03717 0 0 -1.02745 22.756 53.39)" d="M0 0h25.308v26.293H0z" fill-rule="evenodd"/></clipPath><g clip-path="url(#f)"><clipPath id="g"><path transform="matrix(1.03717 0 0 -1.02745 22.756 53.39)" d="M0 .037h25.344v26.256H0z" fill-rule="evenodd"/></clipPath><g clip-path="url(#g)"><symbol id="h"><path d="m.324.19.002.001.01-.028a.26.26 0 0 1 .02-.045.067.067 0 0 1 .021-.022.056.056 0 0 1 .031-.008c.013 0 .025.003.037.01a.194.194 0 0 1 .04.033L.523.094A.436.436 0 0 0 .435.022.17.17 0 0 0 .349 0 .135.135 0 0 0 .26.03a.195.195 0 0 0-.056.093l-.02.058h.002a.198.198 0 0 0-.139.067A.247.247 0 0 0 0 .409a.578.578 0 0 0 .085.299c.022.032.048.06.077.084.03.023.063.04.099.052A.366.366 0 0 0 .375.86c.074 0 .13-.019.168-.058C.581.764.601.708.601.634A.605.605 0 0 0 .499.31.316.316 0 0 0 .324.19M.147.364c0-.045.006-.078.02-.098C.18.246.2.236.23.236c.019 0 .037.006.056.017A.211.211 0 0 1 .35.317.518.518 0 0 1 .41.44a.92.92 0 0 1 .044.238.181.181 0 0 1-.02.096C.421.794.4.804.37.804A.121.121 0 0 1 .288.768.35.35 0 0 1 .215.662.743.743 0 0 1 .147.364z"/></symbol><use xlink:href="#h" transform="matrix(14.61158 0 0 -14.47468 27.727 43.31)"/></g><clipPath id="i"><path transform="matrix(1.03717 0 0 -1.02745 22.756 53.39)" d="M0 .037h25.344v26.256H0z" fill-rule="evenodd"/></clipPath><g clip-path="url(#i)"><symbol id="j"><path d="M.415.207h-.19L.216.194A.59.59 0 0 1 .181.12.144.144 0 0 1 .17.073c0-.024.015-.037.042-.04L.206 0H0l.007.032a.08.08 0 0 1 .03.013.113.113 0 0 1 .025.025C.07.081.081.1.095.125L.398.67H.54L.56.148c0-.019.002-.035.004-.05a.132.132 0 0 1 .01-.036A.051.051 0 0 1 .588.04.058.058 0 0 1 .613.032L.606 0H.354L.36.032a.062.062 0 0 1 .034.011.05.05 0 0 1 .017.026.17.17 0 0 1 .005.046L.416.159.415.207m-.16.057h.159L.412.38a6.85 6.85 0 0 0 0 .167H.404L.255.264z"/></symbol><use xlink:href="#j" transform="matrix(10.37995 0 0 -10.2827 37.451 43.587)"/></g><clipPath id="k"><path transform="matrix(1.03717 0 0 -1.02745 22.756 53.39)" d="M0 .037h10.008v26.256H0z" fill-rule="evenodd"/></clipPath><g clip-path="url(#k)"><symbol id="l"><path d="M.43 0H0v.052h.43V0z"/></symbol><use xlink:href="#l" transform="matrix(14.61158 0 0 -14.47468 26.888 29.308)"/></g><clipPath id="m"><path transform="matrix(1.03717 0 0 -1.02745 22.756 53.39)" d="M9.888.037h3.984v26.256H9.888z" fill-rule="evenodd"/></clipPath><g clip-path="url(#m)"><use xlink:href="#l" transform="matrix(14.61158 0 0 -14.47468 30.896 29.308)"/></g><clipPath id="n"><path transform="matrix(1.03717 0 0 -1.02745 22.756 53.39)" d="M13.752.037h3.864v26.256h-3.864z" fill-rule="evenodd"/></clipPath><g clip-path="url(#n)"><use xlink:href="#l" transform="matrix(14.61158 0 0 -14.47468 34.779 29.308)"/></g><clipPath id="o"><path transform="matrix(1.03717 0 0 -1.02745 22.756 53.39)" d="M17.496.037h7.848v26.256h-7.848z" fill-rule="evenodd"/></clipPath><g clip-path="url(#o)"><use xlink:href="#l" transform="matrix(14.61158 0 0 -14.47468 38.762 29.308)"/></g><clipPath id="p"><path transform="matrix(1.03717 0 0 -1.02745 22.756 53.39)" d="M0 .037h25.344v26.256H0z" fill-rule="evenodd"/></clipPath><g clip-path="url(#p)"><symbol id="q"><path d="M0 0z"/></symbol><use xlink:href="#q" transform="matrix(14.61158 0 0 -14.47468 44.91 40.603)"/></g></g></g><clipPath id="r"><path transform="matrix(1 0 0 -1 0 216.96)" d="M22.756 162.46h26.249v-27.01H22.756v27.01z" fill-rule="evenodd"/></clipPath><g clip-path="url(#r)"><clipPath id="s"><path transform="matrix(1.03717 0 0 -1.04437 22.756 81.51)" d="M0 0h25.308v25.867H0z" fill-rule="evenodd"/></clipPath><g clip-path="url(#s)"><clipPath id="t"><path transform="matrix(1.03717 0 0 -1.04437 22.756 81.51)" d="M0 .02h25.344v25.847H0z" fill-rule="evenodd"/></clipPath><g clip-path="url(#t)"><use xlink:href="#h" transform="matrix(14.66137 0 0 -14.7632 27.481 71.267)"/></g><clipPath id="u"><path transform="matrix(1.03717 0 0 -1.04437 22.756 81.51)" d="M0 .02h25.344v25.847H0z" fill-rule="evenodd"/></clipPath><g clip-path="url(#u)"><symbol id="v"><path d="M.415.667A.463.463 0 0 0 .548.65a.13.13 0 0 0 .07-.045A.125.125 0 0 0 .64.531.166.166 0 0 0 .602.42a.294.294 0 0 0-.12-.076L.48.338a.161.161 0 0 0 .07-.052A.123.123 0 0 0 .578.21C.577.17.567.135.548.105A.218.218 0 0 0 .458.03.463.463 0 0 0 .265 0H0l.007.032a.07.07 0 0 1 .04.028.231.231 0 0 1 .026.072l.089.403c.004.019.006.038.006.057 0 .013-.003.023-.01.03-.006.006-.016.01-.03.012l.006.033h.28M.348.375c.029 0 .054.006.075.019.021.013.038.03.05.053a.174.174 0 0 1 .016.079C.488.554.48.575.462.588.444.602.417.61.38.61A.57.57 0 0 1 .322.607L.271.375h.076M.202.059A.964.964 0 0 1 .265.057c.04 0 .072.008.095.023a.134.134 0 0 1 .053.063.212.212 0 0 1 .017.083c0 .06-.034.091-.104.091H.26L.202.06z"/></symbol><use xlink:href="#v" transform="matrix(10.40484 0 0 -10.47711 37.558 71.54)"/></g><clipPath id="w"><path transform="matrix(1.03717 0 0 -1.04437 22.756 81.51)" d="M0 .02h25.344v25.847H0z" fill-rule="evenodd"/></clipPath><g clip-path="url(#w)"><use xlink:href="#q" transform="matrix(14.66137 0 0 -14.7632 45.408 68.507)"/></g></g></g><clipPath id="x"><path transform="matrix(1 0 0 -1 0 216.96)" d="M22.756 108.46h26.249V81.446H22.756v27.014z" fill-rule="evenodd"/></clipPath><g clip-path="url(#x)"><clipPath id="y"><path transform="matrix(1.03717 0 0 -1.04437 22.756 135.514)" d="M0 0h25.308v25.867H0z" fill-rule="evenodd"/></clipPath><g clip-path="url(#y)"><clipPath id="z"><path transform="matrix(1.03717 0 0 -1.04437 22.756 135.514)" d="M0 .02h25.344v25.847H0z" fill-rule="evenodd"/></clipPath><g clip-path="url(#z)"><symbol id="A"><path d="M.246 0H0l.007.032a.07.07 0 0 1 .04.028.231.231 0 0 1 .026.072l.089.403c.004.019.006.038.006.057 0 .013-.003.023-.01.03-.006.006-.016.01-.03.012l.006.033H.38L.373.634A.07.07 0 0 1 .332.607.231.231 0 0 1 .307.535L.218.132A.31.31 0 0 1 .212.075c0-.014.003-.024.01-.03a.056.056 0 0 1 .03-.013L.246 0z"/></symbol><use xlink:href="#A" transform="matrix(14.66137 0 0 -14.7632 25.927 122.51)"/></g><clipPath id="B"><path transform="matrix(1.03717 0 0 -1.04437 22.756 135.514)" d="M0 .02h25.344v25.847H0z" fill-rule="evenodd"/></clipPath><g clip-path="url(#B)"><symbol id="C"><path d="M.547.658.516.516H.452a.246.246 0 0 1-.01.065.062.062 0 0 1-.022.033.071.071 0 0 1-.043.011.129.129 0 0 1-.08-.032.304.304 0 0 1-.075-.098.72.72 0 0 1-.075-.314c0-.027.002-.05.007-.068A.08.08 0 0 1 .181.072.084.084 0 0 1 .233.057c.034 0 .062.009.084.026a.214.214 0 0 1 .06.087h.064L.411.026A.614.614 0 0 0 .214 0C.146 0 .093.019.055.057.02.095 0 .149 0 .22a.609.609 0 0 0 .056.248c.021.046.049.086.082.118s.07.056.111.072a.375.375 0 0 0 .134.023c.055 0 .11-.008.164-.024z"/></symbol><symbol id="D"><path d="M.378.667A.807.807 0 0 0 .46.663.223.223 0 0 0 .522.648a.15.15 0 0 0 .051-.03.12.12 0 0 0 .031-.045.16.16 0 0 0 .011-.06A.215.215 0 0 0 .537.34.25.25 0 0 0 .444.29.485.485 0 0 0 .315.277H.3c-.02 0-.037 0-.05.002L.218.132A.31.31 0 0 1 .212.075C.212.06.216.049.223.043A.064.064 0 0 1 .26.033L.252 0H0l.007.032a.07.07 0 0 1 .04.028.231.231 0 0 1 .026.072l.089.403c.004.019.006.038.006.057 0 .013-.003.023-.01.03-.006.006-.016.01-.03.012l.006.033h.244M.288.333c.045 0 .08.007.104.021a.135.135 0 0 1 .055.063c.012.028.019.06.019.094C.466.544.458.57.442.585.427.601.403.609.371.609a.99.99 0 0 1-.048 0L.263.332H.29z"/></symbol><use xlink:href="#C" transform="matrix(10.40484 0 0 -10.47711 32.577 125.625)"/><use xlink:href="#D" transform="matrix(10.40484 0 0 -10.47711 38.632 125.543)"/></g><clipPath id="E"><path transform="matrix(1.03717 0 0 -1.04437 22.756 135.514)" d="M0 .02h25.344v25.847H0z" fill-rule="evenodd"/></clipPath><g clip-path="url(#E)"><use xlink:href="#q" transform="matrix(14.66137 0 0 -14.7632 46.154 122.51)"/></g></g></g><clipPath id="F"><path transform="matrix(1 0 0 -1 0 216.96)" d="M19 27.446h33.761V54.46H19z" fill-rule="evenodd"/></clipPath><g clip-path="url(#F)"><clipPath id="G"><path transform="matrix(1.03955 0 0 -1.04437 19 189.514)" d="M0 0h32.477v25.867H0z" fill-rule="evenodd"/></clipPath><g clip-path="url(#G)"><clipPath id="H"><path transform="matrix(1.03955 0 0 -1.04437 19 189.514)" d="M0 .02h32.568v25.847H0z" fill-rule="evenodd"/></clipPath><g clip-path="url(#H)"><symbol id="I"><path d="M.366.457a.83.83 0 0 1 .047.095.137.137 0 0 1 .008.045c0 .024-.013.037-.041.04L.387.67h.208L.588.638a.08.08 0 0 1-.03-.014.11.11 0 0 1-.025-.025A.58.58 0 0 1 .5.545L.197 0H.074l-.02.522a.517.517 0 0 1-.005.05.133.133 0 0 1-.009.036.046.046 0 0 1-.016.02.051.051 0 0 1-.024.01L.007.67H.26L.252.638A.062.062 0 0 1 .22.627.053.053 0 0 1 .202.602.168.168 0 0 1 .197.555V.511L.201.34.203.16h.005l.158.297z"/></symbol><use xlink:href="#I" transform="matrix(14.6951 0 0 -14.7632 19.682 176.561)"/></g><clipPath id="J"><path transform="matrix(1.03955 0 0 -1.04437 19 189.514)" d="M0 .02h32.568v25.847H0z" fill-rule="evenodd"/></clipPath><g clip-path="url(#J)"><symbol id="K"><path d="M.182 0a.223.223 0 0 0-.095.019.148.148 0 0 0-.064.059A.189.189 0 0 0 0 .174c0 .038.006.078.018.12.012.043.03.08.056.112a.232.232 0 0 0 .092.071A.308.308 0 0 0 .287.5.21.21 0 0 0 .39.478a.138.138 0 0 0 .06-.062.2.2 0 0 0 .02-.092.41.41 0 0 0-.021-.13.315.315 0 0 0-.06-.108.23.23 0 0 0-.09-.065A.31.31 0 0 0 .183 0m-.05.142A.13.13 0 0 1 .145.073C.156.058.172.051.193.051c.028 0 .052.013.072.04.02.027.038.068.051.122.014.054.02.101.02.141a.133.133 0 0 1-.014.072C.312.442.297.45.276.45.249.45.225.436.205.41A.587.587 0 0 1 .132.142z"/></symbol><symbol id="L"><path d="M.035.375 0 .41a.38.38 0 0 0 .086.07.17.17 0 0 0 .08.02.09.09 0 0 0 .065-.023.077.077 0 0 0 .024-.06.092.092 0 0 0-.003-.023L.257.39c.03.038.06.066.087.084C.372.49.404.5.441.5.474.5.5.49.52.472A.103.103 0 0 0 .548.395a.373.373 0 0 0-.01-.08L.499.161A.237.237 0 0 1 .491.104C.49.092.493.083.497.078A.023.023 0 0 1 .515.071c.01 0 .02.004.032.013a.32.32 0 0 1 .041.041L.624.09A.38.38 0 0 0 .538.02.17.17 0 0 0 .455 0C.42 0 .395.008.379.025.363.043.355.068.355.101c0 .024.005.054.014.091l.022.081a.923.923 0 0 1 .02.112C.41.4.408.411.4.418a.033.033 0 0 1-.026.01C.359.429.341.42.32.4A.261.261 0 0 1 .271.34a.272.272 0 0 1-.03-.082L.188.008h-.14l.078.34a.234.234 0 0 1 .008.048C.133.406.13.415.127.42.124.426.117.43.11.43A.055.055 0 0 1 .076.415a.312.312 0 0 1-.04-.041z"/></symbol><symbol id="M"><path d="M.312.097A.345.345 0 0 0 .22.02.21.21 0 0 0 .124 0C.086 0 .058.01.038.028a.105.105 0 0 0-.03.08c0 .015.001.03.004.043l.014.068.05.212H0l.01.04A.16.16 0 0 1 .06.477c.012.004.022.01.03.02a.132.132 0 0 1 .023.038.678.678 0 0 1 .026.08h.117L.23.491h.119L.334.432h-.12L.168.235A1.548 1.548 0 0 1 .15.159.27.27 0 0 1 .146.115C.146.1.149.09.154.082.16.075.168.072.18.072a.08.08 0 0 1 .045.015c.015.01.032.026.05.048L.312.097z"/></symbol><use xlink:href="#C" transform="matrix(10.42878 0 0 -10.47711 29.218 179.625)"/><use xlink:href="#K" transform="matrix(10.42878 0 0 -10.47711 35.557 179.625)"/><use xlink:href="#L" transform="matrix(10.42878 0 0 -10.47711 41.167 179.625)"/><use xlink:href="#M" transform="matrix(10.42878 0 0 -10.47711 48.524 179.625)"/></g><clipPath id="N"><path transform="matrix(1.03955 0 0 -1.04437 19 189.514)" d="M0 .02h32.568v25.847H0z" fill-rule="evenodd"/></clipPath><g clip-path="url(#N)"><use xlink:href="#q" transform="matrix(14.6951 0 0 -14.7632 52.856 176.51)"/></g></g></g></svg>