<?xml version="1.0" encoding="UTF-8" standalone="no"?>
<!DOCTYPE svg PUBLIC "-//W3C//DTD SVG 1.1//EN" "http://www.w3.org/Graphics/SVG/1.1/DTD/svg11.dtd">
<svg xmlns="http://www.w3.org/2000/svg" xmlns:xlink="http://www.w3.org/1999/xlink" version="1.1" width="443.52pt" height="181.68pt" viewBox="0 0 443.52 181.68">
<g enable-background="new">
<g>
<path transform="matrix(1,0,0,-1,0,181.68)" stroke-width="1.5" stroke-linecap="butt" stroke-miterlimit="10" stroke-linejoin="miter" fill="none" stroke="#000000" d="M 88.813 94.68 L 88.813 101.06 M 88.813 132.18 L 88.813 125.8 L 79.078 116.52 M 63 113.44 L 76.669 113.44 M 67.5 113.44 C 67.5 105.57 73.879 99.194 81.75 99.193 C 89.618 99.193 96 105.57 96 113.44 C 96 121.31 89.618 127.69 81.75 127.69 C 73.879 127.69 67.5 121.31 67.5 113.44 Z "/>
<path transform="matrix(1,0,0,-1,0,181.68)" d="M 80.887 103.66 L 88.813 101.06 L 84.985 108.35 L 80.887 103.66 Z M 76.669 104.82 L 76.669 122.07 L 79.669 122.07 L 79.669 104.82 L 76.669 104.82 Z " fill-rule="evenodd"/>
<path transform="matrix(1,0,0,-1,0,181.68)" stroke-width="1.5" stroke-linecap="round" stroke-linejoin="round" fill="none" stroke="#000000" d="M 82.944 106.01 L 79.078 109.35 "/>
<path transform="matrix(1,0,0,-1,0,181.68)" d="M 143.64 113.43 C 143.64 120.18 138.09 125.65 131.25 125.65 C 124.41 125.65 118.86 120.18 118.86 113.43 C 118.86 106.68 124.41 101.21 131.25 101.21 C 138.09 101.21 143.64 106.68 143.64 113.43 Z " fill="#ffffff" fill-rule="evenodd"/>
<path transform="matrix(1,0,0,-1,0,181.68)" stroke-width="1.5" stroke-linecap="round" stroke-linejoin="round" fill="none" stroke="#000000" d="M 143.64 113.43 C 143.64 120.18 138.09 125.65 131.25 125.65 C 124.41 125.65 118.86 120.18 118.86 113.43 C 118.86 106.68 124.41 101.21 131.25 101.21 C 138.09 101.21 143.64 106.68 143.64 113.43 Z "/>
<path transform="matrix(1,0,0,-1,0,181.68)" d="M 58.138 65.212 C 58.138 71.96 52.592 77.43 45.75 77.43 C 38.908 77.43 33.362 71.96 33.362 65.212 C 33.362 58.464 38.908 52.993 45.75 52.993 C 52.592 52.993 58.138 58.464 58.138 65.212 Z " fill="#ffffff" fill-rule="evenodd"/>
<path transform="matrix(1,0,0,-1,0,181.68)" stroke-width="1.5" stroke-linecap="round" stroke-linejoin="round" fill="none" stroke="#000000" d="M 58.138 65.212 C 58.138 71.96 52.592 77.43 45.75 77.43 C 38.908 77.43 33.362 71.96 33.362 65.212 C 33.362 58.464 38.908 52.993 45.75 52.993 C 52.592 52.993 58.138 58.464 58.138 65.212 Z "/>
<clipPath id="cp0">
<path transform="matrix(1,0,0,-1,0,181.68)" d="M .000003815 181.68 L 443.52 181.68 L 443.52 .000015259 L .000003815 .000015259 " fill-rule="evenodd"/>
</clipPath>
<g clip-path="url(#cp0)">
<path transform="matrix(1,0,0,-1,0,181.68)" stroke-width="1.5" stroke-linecap="round" stroke-linejoin="round" fill="none" stroke="#000000" d="M 45.75 77.413 L 45.75 113.43 "/>
</g>
<path transform="matrix(1,0,0,-1,0,181.68)" stroke-width="1.5" stroke-linecap="round" stroke-linejoin="round" fill="none" stroke="#000000" d="M 63 113.43 L 45.75 113.43 "/>
<path transform="matrix(1,0,0,-1,0,181.68)" stroke-width="1.5" stroke-linecap="round" stroke-linejoin="round" fill="none" stroke="#000000" d="M 18.75 113.43 L 45.75 113.43 "/>
<clipPath id="cp1">
<path transform="matrix(1,0,0,-1,0,181.68)" d="M -.000022888 181.68 L 443.52 181.68 L 443.52 -.000015259 L -.000030518 0 " fill-rule="evenodd"/>
</clipPath>
<g clip-path="url(#cp1)">
<path transform="matrix(1,0,0,-1,0,181.68)" stroke-width="1.5" stroke-linecap="round" stroke-linejoin="round" fill="none" stroke="#000000" d="M 88.811 132.18 L 88.781 158.43 "/>
</g>
<path transform="matrix(1,0,0,-1,0,181.68)" stroke-width="1.5" stroke-linecap="round" stroke-linejoin="round" fill="none" stroke="#000000" d="M 88.781 146.43 L 130.97 146.43 "/>
<clipPath id="cp2">
<path transform="matrix(1,0,0,-1,0,181.68)" d="M 0 181.68 L 443.52 181.68 L 443.52 .000015259 L 0 .000015259 " fill-rule="evenodd"/>
</clipPath>
<g clip-path="url(#cp2)">
<path transform="matrix(1,0,0,-1,0,181.68)" stroke-width="1.5" stroke-linecap="round" stroke-linejoin="round" fill="none" stroke="#000000" d="M 131.25 126.37 L 131.25 146.34 "/>
</g>
<clipPath id="cp3">
<path transform="matrix(1,0,0,-1,0,181.68)" d="M 0 181.68 L 443.52 181.68 L 443.52 .000045776 L 0 .000045776 " fill-rule="evenodd"/>
</clipPath>
<g clip-path="url(#cp3)">
<path transform="matrix(1,0,0,-1,0,181.68)" stroke-width="1.5" stroke-linecap="round" stroke-linejoin="round" fill="none" stroke="#000000" d="M 88.811 94.68 L 88.781 53.805 "/>
</g>
<path transform="matrix(1,0,0,-1,0,181.68)" stroke-width="1.5" stroke-linecap="round" stroke-linejoin="round" fill="none" stroke="#000000" d="M 58.117 64.493 L 88.782 64.493 "/>
<path transform="matrix(1,0,0,-1,0,181.68)" stroke-width="1.5" stroke-linecap="round" stroke-linejoin="round" fill="none" stroke="#000000" d="M 131.25 101.23 L 131.25 77.43 L 88.794 77.43 "/>
<path transform="matrix(1,0,0,-1,0,181.68)" d="M 86.223 77.43 C 86.223 78.843 87.369 79.988 88.781 79.988 C 90.194 79.988 91.339 78.843 91.339 77.43 C 91.339 76.017 90.194 74.872 88.781 74.872 C 87.369 74.872 86.223 76.017 86.223 77.43 Z " fill-rule="evenodd"/>
<path transform="matrix(1,0,0,-1,0,181.68)" stroke-width="2" stroke-linecap="round" stroke-linejoin="round" fill="none" stroke="#000000" d="M 86.223 77.43 C 86.223 78.843 87.369 79.988 88.781 79.988 C 90.194 79.988 91.339 78.843 91.339 77.43 C 91.339 76.017 90.194 74.872 88.781 74.872 C 87.369 74.872 86.223 76.017 86.223 77.43 Z "/>
<path transform="matrix(1,0,0,-1,0,181.68)" d="M 86.223 146.36 C 86.223 147.78 87.369 148.92 88.781 148.92 C 90.194 148.92 91.339 147.78 91.339 146.36 C 91.339 144.95 90.194 143.8 88.781 143.8 C 87.369 143.8 86.223 144.95 86.223 146.36 Z " fill-rule="evenodd"/>
<path transform="matrix(1,0,0,-1,0,181.68)" stroke-width="2" stroke-linecap="round" stroke-linejoin="round" fill="none" stroke="#000000" d="M 86.223 146.36 C 86.223 147.78 87.369 148.92 88.781 148.92 C 90.194 148.92 91.339 147.78 91.339 146.36 C 91.339 144.95 90.194 143.8 88.781 143.8 C 87.369 143.8 86.223 144.95 86.223 146.36 Z "/>
<path transform="matrix(1,0,0,-1,0,181.68)" d="M 43.192 113.43 C 43.192 114.84 44.337 115.99 45.75 115.99 C 47.163 115.99 48.308 114.84 48.308 113.43 C 48.308 112.02 47.163 110.87 45.75 110.87 C 44.337 110.87 43.192 112.02 43.192 113.43 Z " fill-rule="evenodd"/>
<path transform="matrix(1,0,0,-1,0,181.68)" stroke-width="2" stroke-linecap="round" stroke-linejoin="round" fill="none" stroke="#000000" d="M 43.192 113.43 C 43.192 114.84 44.337 115.99 45.75 115.99 C 47.163 115.99 48.308 114.84 48.308 113.43 C 48.308 112.02 47.163 110.87 45.75 110.87 C 44.337 110.87 43.192 112.02 43.192 113.43 Z "/>
<path transform="matrix(1,0,0,-1,0,181.68)" d="M 86.223 64.238 C 86.223 65.65 87.369 66.796 88.781 66.796 C 90.194 66.796 91.339 65.65 91.339 64.238 C 91.339 62.825 90.194 61.68 88.781 61.68 C 87.369 61.68 86.223 62.825 86.223 64.238 Z " fill-rule="evenodd"/>
<path transform="matrix(1,0,0,-1,0,181.68)" stroke-width="2" stroke-linecap="round" stroke-linejoin="round" fill="none" stroke="#000000" d="M 86.223 64.238 C 86.223 65.65 87.369 66.796 88.781 66.796 C 90.194 66.796 91.339 65.65 91.339 64.238 C 91.339 62.825 90.194 61.68 88.781 61.68 C 87.369 61.68 86.223 62.825 86.223 64.238 Z "/>
<path transform="matrix(1,0,0,-1,0,181.68)" stroke-width=".75" stroke-linecap="round" stroke-linejoin="round" fill="none" stroke="#000000" d="M 45.75 75.18 L 43.5 74.618 L 45.75 73.493 L 41.25 72.93 L 50.25 71.243 L 47.437 71.243 L 43.5 70.118 L 45.75 68.993 L 41.25 68.993 L 50.25 67.305 "/>
<path transform="matrix(1,0,0,-1,0,181.68)" stroke-width=".75" stroke-linecap="round" stroke-linejoin="round" fill="none" stroke="#000000" d="M 50.25 67.305 L 48 66.18 L 41.25 67.305 "/>
<path transform="matrix(1,0,0,-1,0,181.68)" stroke-width=".75" stroke-linecap="round" stroke-linejoin="round" fill="none" stroke="#000000" d="M 48 56.055 L 50.25 56.618 L 48 57.743 L 45.75 57.18 L 41.25 57.18 L 48 59.43 L 41.25 61.118 L 43.5 62.243 L 45.75 61.118 L 50.25 62.243 L 48 63.368 L 50.25 63.93 L 41.25 64.493 L 45.75 65.055 L 41.25 67.305 "/>
<path transform="matrix(1,0,0,-1,0,181.68)" stroke-width=".75" stroke-linecap="round" stroke-linejoin="round" fill="none" stroke="#000000" d="M 45.75 75.18 L 43.5 74.618 L 45.75 73.493 L 41.25 72.93 L 50.25 71.243 L 47.437 71.243 L 43.5 70.118 L 45.75 68.993 L 41.25 68.993 L 50.25 67.305 "/>
<path transform="matrix(1,0,0,-1,0,181.68)" stroke-width=".75" stroke-linecap="round" stroke-linejoin="round" fill="none" stroke="#000000" d="M 50.25 67.305 L 48 66.18 L 41.25 67.305 "/>
<path transform="matrix(1,0,0,-1,0,181.68)" stroke-width=".75" stroke-linecap="round" stroke-linejoin="round" fill="none" stroke="#000000" d="M 48 56.055 L 50.25 56.618 L 48 57.743 L 45.75 57.18 L 41.25 57.18 L 48 59.43 L 41.25 61.118 L 43.5 62.243 L 45.75 61.118 L 50.25 62.243 L 48 63.368 L 50.25 63.93 L 41.25 64.493 L 45.75 65.055 L 41.25 67.305 "/>
<path transform="matrix(1,0,0,-1,0,181.68)" stroke-width=".75" stroke-linecap="round" stroke-linejoin="round" fill="none" stroke="#000000" d="M 131.25 122.99 L 129 122.43 L 131.25 121.3 L 126.75 120.74 L 135.75 119.05 L 132.94 119.05 L 129 117.93 L 131.25 116.8 L 126.75 116.8 L 135.75 115.12 "/>
<path transform="matrix(1,0,0,-1,0,181.68)" stroke-width=".75" stroke-linecap="round" stroke-linejoin="round" fill="none" stroke="#000000" d="M 135.75 115.12 L 133.5 113.99 L 126.75 115.12 "/>
<path transform="matrix(1,0,0,-1,0,181.68)" stroke-width=".75" stroke-linecap="round" stroke-linejoin="round" fill="none" stroke="#000000" d="M 133.5 103.87 L 135.75 104.43 L 133.5 105.55 L 131.25 104.99 L 126.75 104.99 L 133.5 107.24 L 126.75 108.93 L 129 110.05 L 131.25 108.93 L 135.75 110.05 L 133.5 111.18 L 135.75 111.74 L 126.75 112.3 L 131.25 112.87 L 126.75 115.12 "/>
<path transform="matrix(1,0,0,-1,0,181.68)" stroke-width=".75" stroke-linecap="round" stroke-linejoin="round" fill="none" stroke="#000000" d="M 131.25 122.99 L 129 122.43 L 131.25 121.3 L 126.75 120.74 L 135.75 119.05 L 132.94 119.05 L 129 117.93 L 131.25 116.8 L 126.75 116.8 L 135.75 115.12 "/>
<path transform="matrix(1,0,0,-1,0,181.68)" stroke-width=".75" stroke-linecap="round" stroke-linejoin="round" fill="none" stroke="#000000" d="M 135.75 115.12 L 133.5 113.99 L 126.75 115.12 "/>
<path transform="matrix(1,0,0,-1,0,181.68)" stroke-width=".75" stroke-linecap="round" stroke-linejoin="round" fill="none" stroke="#000000" d="M 133.5 103.87 L 135.75 104.43 L 133.5 105.55 L 131.25 104.99 L 126.75 104.99 L 133.5 107.24 L 126.75 108.93 L 129 110.05 L 131.25 108.93 L 135.75 110.05 L 133.5 111.18 L 135.75 111.74 L 126.75 112.3 L 131.25 112.87 L 126.75 115.12 "/>
<clipPath id="cp4">
<path transform="matrix(1,0,0,-1,0,181.68)" d="M 58.025 25.68 L 119.537 25.68 L 119.537 45.919 L 58.025 45.919 Z " fill-rule="evenodd"/>
</clipPath>
<g clip-path="url(#cp4)">
<clipPath id="cp5">
<path transform="matrix(1.0401467,0,-.0000003464276,-1.0359659,58.025,156)" d="M 0 0 L 59.138 0 L 59.138 19.537 L 0 19.537 Z " fill-rule="evenodd"/>
</clipPath>
<g clip-path="url(#cp5)">
<text fill="#ff0000" xml:space="preserve" transform="matrix(1.0401467 0 .0000003464276 1.0359659 58.025 156)" font-size="9.072" font-family="CambriaMath"><tspan y="-10.945" x="0 5.8061 9.2535 12.7009 17.2369 22.6801 27.578999">&#x1d46d;&#x1d48d;&#x1d48a;&#x1d484;&#x1d48c;&#x1d486;&#x1d493;</tspan></text>
<text fill="#ff0000" xml:space="preserve" transform="matrix(1.0401467 0 .0000003464276 1.0359659 58.025 156)" font-size="9.072" font-family="CambriaMath"><tspan y="-10.945" x="32.352"> </tspan></text>
<text fill="#ff0000" xml:space="preserve" transform="matrix(1.0401467 0 .0000003464276 1.0359659 58.025 156)" font-size="9.072" font-family="CambriaMath"><tspan y="-10.945" x="34.392 41.196 46.367 49.8144 54.3504">&#x1d475;&#x1d490;&#x1d48a;&#x1d494;&#x1d486;</tspan></text>
<text fill="#ff0000" xml:space="preserve" transform="matrix(1.0401467 0 .0000003464276 1.0359659 58.025 156)" font-size="9.072" font-family="Calibri" font-weight="bold"><tspan y="-10.945" x="59.184"> </tspan></text>
</g>
</g>
<path transform="matrix(1,0,0,-1,0,181.68)" stroke-width="1.5" stroke-linecap="round" stroke-linejoin="round" fill="none" stroke="#000000" d="M 239.06 113.43 L 221.81 113.43 "/>
<path transform="matrix(1,0,0,-1,0,181.68)" stroke-width="1.5" stroke-linecap="round" stroke-linejoin="round" fill="none" stroke="#000000" d="M 194.81 113.43 L 221.81 113.43 "/>
<clipPath id="cp6">
<path transform="matrix(1,0,0,-1,0,181.68)" d="M -.000030518 181.68 L 443.52 181.68 L 443.52 .000015259 L -.000030518 .000015259 " fill-rule="evenodd"/>
</clipPath>
<g clip-path="url(#cp6)">
<path transform="matrix(1,0,0,-1,0,181.68)" stroke-width="1.5" stroke-linecap="round" stroke-linejoin="round" fill="none" stroke="#000000" d="M 264.84 128.62 L 264.84 158.43 "/>
</g>
<path transform="matrix(1,0,0,-1,0,181.68)" stroke-width="1.5" stroke-linecap="round" stroke-linejoin="round" fill="none" stroke="#000000" d="M 264.84 146.43 L 307.02 146.43 "/>
<clipPath id="cp7">
<path transform="matrix(1,0,0,-1,0,181.68)" d="M 0 181.68 L 443.52 181.68 L 443.52 .000015259 L 0 .000015259 " fill-rule="evenodd"/>
</clipPath>
<g clip-path="url(#cp7)">
<path transform="matrix(1,0,0,-1,0,181.68)" stroke-width="1.5" stroke-linecap="round" stroke-linejoin="round" fill="none" stroke="#000000" d="M 307.31 126.37 L 307.31 146.34 "/>
</g>
<clipPath id="cp8">
<path transform="matrix(1,0,0,-1,0,181.68)" d="M -.000030518 181.68 L 443.52 181.68 L 443.52 .000045776 L -.000030518 .000045776 " fill-rule="evenodd"/>
</clipPath>
<g clip-path="url(#cp8)">
<path transform="matrix(1,0,0,-1,0,181.68)" stroke-width="1.5" stroke-linecap="round" stroke-linejoin="round" fill="none" stroke="#000000" d="M 264.84 95.43 L 264.84 53.805 "/>
</g>
<path transform="matrix(1,0,0,-1,0,181.68)" stroke-width="1.5" stroke-linecap="round" stroke-linejoin="round" fill="none" stroke="#000000" d="M 307.31 101.23 L 307.31 77.43 L 264.85 77.43 "/>
<path transform="matrix(1,0,0,-1,0,181.68)" d="M 262.28 77.43 C 262.28 78.843 263.42 79.988 264.84 79.988 C 266.25 79.988 267.4 78.843 267.4 77.43 C 267.4 76.017 266.25 74.872 264.84 74.872 C 263.42 74.872 262.28 76.017 262.28 77.43 Z " fill-rule="evenodd"/>
<path transform="matrix(1,0,0,-1,0,181.68)" stroke-width="2" stroke-linecap="round" stroke-linejoin="round" fill="none" stroke="#000000" d="M 262.28 77.43 C 262.28 78.843 263.42 79.988 264.84 79.988 C 266.25 79.988 267.4 78.843 267.4 77.43 C 267.4 76.017 266.25 74.872 264.84 74.872 C 263.42 74.872 262.28 76.017 262.28 77.43 Z "/>
<path transform="matrix(1,0,0,-1,0,181.68)" d="M 262.28 146.36 C 262.28 147.78 263.42 148.92 264.84 148.92 C 266.25 148.92 267.4 147.78 267.4 146.36 C 267.4 144.95 266.25 143.8 264.84 143.8 C 263.42 143.8 262.28 144.95 262.28 146.36 Z " fill-rule="evenodd"/>
<path transform="matrix(1,0,0,-1,0,181.68)" stroke-width="2" stroke-linecap="round" stroke-linejoin="round" fill="none" stroke="#000000" d="M 262.28 146.36 C 262.28 147.78 263.42 148.92 264.84 148.92 C 266.25 148.92 267.4 147.78 267.4 146.36 C 267.4 144.95 266.25 143.8 264.84 143.8 C 263.42 143.8 262.28 144.95 262.28 146.36 Z "/>
<clipPath id="cp9">
<path transform="matrix(1,0,0,-1,0,181.68)" d="M 234.75 18.93 L 296.262 18.93 L 296.262 39.169 L 234.75 39.169 Z " fill-rule="evenodd"/>
</clipPath>
<g clip-path="url(#cp9)">
<clipPath id="cp10">
<path transform="matrix(1.0401467,0,-.0000013893957,-1.0359659,234.75,162.75)" d="M 0 0 L 59.138 0 L 59.138 19.537 L 0 19.537 Z " fill-rule="evenodd"/>
</clipPath>
<g clip-path="url(#cp10)">
<text fill="#ff0000" xml:space="preserve" transform="matrix(1.0401467 0 .0000013893957 1.0359659 234.75 162.75)" font-size="9.072" font-family="CambriaMath"><tspan y="-10.945" x="0 5.8061 9.2535 12.7009 17.2369 22.6801 27.578999">&#x1d46d;&#x1d48d;&#x1d48a;&#x1d484;&#x1d48c;&#x1d486;&#x1d493;</tspan></text>
<text fill="#ff0000" xml:space="preserve" transform="matrix(1.0401467 0 .0000013893957 1.0359659 234.75 162.75)" font-size="9.072" font-family="CambriaMath"><tspan y="-10.945" x="32.352"> </tspan></text>
<text fill="#ff0000" xml:space="preserve" transform="matrix(1.0401467 0 .0000013893957 1.0359659 234.75 162.75)" font-size="9.072" font-family="CambriaMath"><tspan y="-10.945" x="34.392 41.196 46.367 49.8144 54.3504">&#x1d475;&#x1d490;&#x1d48a;&#x1d494;&#x1d486;</tspan></text>
<text fill="#ff0000" xml:space="preserve" transform="matrix(1.0401467 0 .0000013893957 1.0359659 234.75 162.75)" font-size="9.072" font-family="Calibri" font-weight="bold"><tspan y="-10.945" x="59.184"> </tspan></text>
</g>
</g>
<path transform="matrix(1,0,0,-1,0,181.68)" stroke-width="1.5" stroke-linecap="round" stroke-linejoin="round" fill="none" stroke="#000000" d="M 264.84 129.74 L 264.84 122.43 C 260.34 122.53 255.84 122.53 251.34 122.43 "/>
<clipPath id="cp11">
<path transform="matrix(1,0,0,-1,0,181.68)" d="M 0 181.68 L 443.52 181.68 L 443.52 .000045776 L 0 .000045776 " fill-rule="evenodd"/>
</clipPath>
<g clip-path="url(#cp11)">
<path transform="matrix(1,0,0,-1,0,181.68)" stroke-width="1.5" stroke-linecap="round" stroke-linejoin="round" fill="none" stroke="#000000" d="M 251.34 125.35 L 251.34 102.18 "/>
</g>
<path transform="matrix(1,0,0,-1,0,181.68)" stroke-width="1.5" stroke-linecap="round" stroke-linejoin="round" fill="none" stroke="#000000" d="M 251.34 104.43 L 264.84 104.43 L 264.84 95.43 "/>
<clipPath id="cp12">
<path transform="matrix(1,0,0,-1,0,181.68)" d="M 0 181.68 L 443.52 181.68 L 443.52 .000030518 L 0 .000030518 " fill-rule="evenodd"/>
</clipPath>
<g clip-path="url(#cp12)">
<path transform="matrix(1,0,0,-1,0,181.68)" stroke-width="1.5" stroke-linecap="round" stroke-linejoin="round" fill="none" stroke="#000000" d="M 246.84 124.68 L 246.84 102.18 "/>
</g>
<path transform="matrix(1,0,0,-1,0,181.68)" stroke-width="1.5" stroke-linecap="round" stroke-linejoin="round" fill="none" stroke="#000000" d="M 228.84 113.43 L 246.84 113.43 "/>
<path transform="matrix(1,0,0,-1,0,181.68)" stroke-width="1.5" stroke-linecap="round" stroke-linejoin="round" fill="none" stroke="#000000" d="M 251.42 104.43 L 259.07 104.43 "/>
<path transform="matrix(1,0,0,-1,0,181.68)" d="M 258.24 107.73 L 264.84 104.43 L 258.24 101.13 L 258.24 107.73 Z " fill-rule="evenodd"/>
<path transform="matrix(1,0,0,-1,0,181.68)" stroke-width="1.5" stroke-linecap="round" stroke-linejoin="round" fill="none" stroke="#000000" d="M 264.84 129.74 L 264.84 122.43 C 260.34 122.53 255.84 122.53 251.34 122.43 "/>
<clipPath id="cp13">
<path transform="matrix(1,0,0,-1,0,181.68)" d="M 0 181.68 L 443.52 181.68 L 443.52 .000045776 L 0 .000045776 " fill-rule="evenodd"/>
</clipPath>
<g clip-path="url(#cp13)">
<path transform="matrix(1,0,0,-1,0,181.68)" stroke-width="1.5" stroke-linecap="round" stroke-linejoin="round" fill="none" stroke="#000000" d="M 251.34 125.35 L 251.34 102.18 "/>
</g>
<path transform="matrix(1,0,0,-1,0,181.68)" stroke-width="1.5" stroke-linecap="round" stroke-linejoin="round" fill="none" stroke="#000000" d="M 251.34 104.43 L 264.84 104.43 L 264.84 95.43 "/>
<clipPath id="cp14">
<path transform="matrix(1,0,0,-1,0,181.68)" d="M 0 181.68 L 443.52 181.68 L 443.52 .000030518 L 0 .000030518 " fill-rule="evenodd"/>
</clipPath>
<g clip-path="url(#cp14)">
<path transform="matrix(1,0,0,-1,0,181.68)" stroke-width="1.5" stroke-linecap="round" stroke-linejoin="round" fill="none" stroke="#000000" d="M 246.84 124.68 L 246.84 102.18 "/>
</g>
<path transform="matrix(1,0,0,-1,0,181.68)" stroke-width="1.5" stroke-linecap="round" stroke-linejoin="round" fill="none" stroke="#000000" d="M 228.84 113.43 L 246.84 113.43 "/>
<path transform="matrix(1,0,0,-1,0,181.68)" stroke-width="1.5" stroke-linecap="round" stroke-linejoin="round" fill="none" stroke="#000000" d="M 251.42 104.43 L 259.07 104.43 "/>
<path transform="matrix(1,0,0,-1,0,181.68)" d="M 258.24 107.73 L 264.84 104.43 L 258.24 101.13 L 258.24 107.73 Z " fill-rule="evenodd"/>
<path transform="matrix(1,0,0,-1,0,181.68)" d="M 262.29 95.43 C 262.29 96.843 263.43 97.988 264.84 97.988 C 266.26 97.988 267.4 96.843 267.4 95.43 C 267.4 94.017 266.26 92.872 264.84 92.872 C 263.43 92.872 262.29 94.017 262.29 95.43 Z " fill-rule="evenodd"/>
<path transform="matrix(1,0,0,-1,0,181.68)" stroke-width="2" stroke-linecap="round" stroke-linejoin="round" fill="none" stroke="#000000" d="M 262.29 95.43 C 262.29 96.843 263.43 97.988 264.84 97.988 C 266.26 97.988 267.4 96.843 267.4 95.43 C 267.4 94.017 266.26 92.872 264.84 92.872 C 263.43 92.872 262.29 94.017 262.29 95.43 Z "/>
<path transform="matrix(1,0,0,-1,0,181.68)" stroke-width="1.5" stroke-linecap="round" stroke-linejoin="round" fill="none" stroke="#000000" d="M 268.5 95.43 L 279.75 95.43 L 279.75 113.43 L 258.38 113.43 "/>
<path transform="matrix(1,0,0,-1,0,181.68)" d="M 259.38 109.41 L 251.34 113.43 L 259.38 117.45 L 259.38 109.41 Z " fill-rule="evenodd"/>
<clipPath id="cp15">
<path transform="matrix(1,0,0,-1,0,181.68)" d="M 237.75 34.691 L 293.252 34.691 L 293.252 54.93 L 237.75 54.93 Z " fill-rule="evenodd"/>
</clipPath>
<g clip-path="url(#cp15)">
<clipPath id="cp16">
<path transform="matrix(1.0374369,.0000000632526,-.0000013893957,-1.0359659,237.75,146.98899)" d="M 0 0 L 53.5 0 L 53.5 19.537 L 0 19.537 Z " fill-rule="evenodd"/>
</clipPath>
<g clip-path="url(#cp16)">
<text fill="#ff0000" xml:space="preserve" transform="matrix(1.0374369 .0000000632526 .0000013893957 1.0359659 237.75 146.98899)" font-size="9.072" font-family="CambriaMath"><tspan y="-10.945" x="0 8.8906 14.5152 17.9626 21.6821">&#x1d47e;&#x1d489;&#x1d48a;&#x1d495;&#x1d486;</tspan></text>
<text fill="#ff0000" xml:space="preserve" transform="matrix(1.0374369 .0000000632526 .0000013893957 1.0359659 237.75 146.98899)" font-size="9.072" font-family="CambriaMath"><tspan y="-10.945" x="26.712"> </tspan></text>
<text fill="#ff0000" xml:space="preserve" transform="matrix(1.0374369 .0000000632526 .0000013893957 1.0359659 237.75 146.98899)" font-size="9.072" font-family="CambriaMath"><tspan y="-10.945" x="28.752 35.556 40.727 44.1744 48.7104">&#x1d475;&#x1d490;&#x1d48a;&#x1d494;&#x1d486;</tspan></text>
<text fill="#ff0000" xml:space="preserve" transform="matrix(1.0374369 .0000000632526 .0000013893957 1.0359659 237.75 146.98899)" font-size="9.072" font-family="Calibri" font-weight="bold"><tspan y="-10.945" x="53.544"> </tspan></text>
</g>
</g>
<clipPath id="cp17">
<path transform="matrix(1,0,0,-1,0,181.68)" d="M 262.13 26.81 L 268.8764 26.81 L 268.8764 47.049 L 262.13 47.049 Z " fill-rule="evenodd"/>
</clipPath>
<g clip-path="url(#cp17)">
<clipPath id="cp18">
<path transform="matrix(.9870358,0,-.0000013893957,-1.0359659,262.13,154.87)" d="M 0 0 L 6.835 0 L 6.835 19.537 L 0 19.537 Z " fill-rule="evenodd"/>
</clipPath>
<g clip-path="url(#cp18)">
<text fill="#ff0000" xml:space="preserve" transform="matrix(.9870358 0 .0000013893957 1.0359659 262.13 154.87)" font-size="9.072" font-family="CambriaMath"><tspan y="-10.945" x="0">+</tspan></text>
<text fill="#ff0000" xml:space="preserve" transform="matrix(.9870358 0 .0000013893957 1.0359659 262.13 154.87)" font-size="9.072" font-family="Calibri" font-weight="bold"><tspan y="-10.945" x="6.84"> </tspan></text>
</g>
</g>
<path transform="matrix(1,0,0,-1,0,181.68)" stroke-width="1.5" stroke-linecap="round" stroke-linejoin="round" fill="none" stroke="#000000" d="M 413.03 113.52 L 405.6 113.52 "/>
<clipPath id="cp19">
<path transform="matrix(1,0,0,-1,0,181.68)" d="M -.000030518 181.68 L 443.52 181.68 L 443.52 .000015259 L .000030518 .000015259 " fill-rule="evenodd"/>
</clipPath>
<g clip-path="url(#cp19)">
<path transform="matrix(1,0,0,-1,0,181.68)" stroke-width="1.5" stroke-linecap="round" stroke-linejoin="round" fill="none" stroke="#000000" d="M 405.6 113.52 L 403.34 105.27 "/>
</g>
<clipPath id="cp20">
<path transform="matrix(1,0,0,-1,0,181.68)" d="M -.000030518 181.68 L 443.52 181.68 L 443.52 -.000030518 L -.000061035 -.000030518 " fill-rule="evenodd"/>
</clipPath>
<g clip-path="url(#cp20)">
<path transform="matrix(1,0,0,-1,0,181.68)" stroke-width="1.5" stroke-linecap="round" stroke-linejoin="round" fill="none" stroke="#000000" d="M 403.34 105.27 L 399.51 121.59 "/>
</g>
<clipPath id="cp21">
<path transform="matrix(1,0,0,-1,0,181.68)" d="M 0 181.68 L 443.52 181.68 L 443.52 .000015259 L .000030518 .000030518 " fill-rule="evenodd"/>
</clipPath>
<g clip-path="url(#cp21)">
<path transform="matrix(1,0,0,-1,0,181.68)" stroke-width="1.5" stroke-linecap="round" stroke-linejoin="round" fill="none" stroke="#000000" d="M 399.51 121.59 L 395.68 105.27 "/>
</g>
<clipPath id="cp22">
<path transform="matrix(1,0,0,-1,0,181.68)" d="M 0 181.68 L 443.52 181.68 L 443.52 .000030518 L 0 .000030518 " fill-rule="evenodd"/>
</clipPath>
<g clip-path="url(#cp22)">
<path transform="matrix(1,0,0,-1,0,181.68)" stroke-width="1.5" stroke-linecap="round" stroke-linejoin="round" fill="none" stroke="#000000" d="M 395.68 105.27 L 391.6 121.59 L 387.52 105.27 "/>
</g>
<clipPath id="cp23">
<path transform="matrix(1,0,0,-1,0,181.68)" d="M 0 181.68 L 443.52 181.68 L 443.52 .000030518 L 0 .000030518 " fill-rule="evenodd"/>
</clipPath>
<g clip-path="url(#cp23)">
<path transform="matrix(1,0,0,-1,0,181.68)" stroke-width="1.5" stroke-linecap="round" stroke-linejoin="round" fill="none" stroke="#000000" d="M 387.52 105.27 L 382.92 121.59 L 380.37 113.39 L 374.25 113.39 "/>
</g>
<path transform="matrix(1,0,0,-1,0,181.68)" stroke-width="1.5" stroke-linecap="round" stroke-linejoin="round" fill="none" stroke="#000000" d="M 413.03 113.52 L 405.6 113.52 "/>
<clipPath id="cp24">
<path transform="matrix(1,0,0,-1,0,181.68)" d="M -.000030518 181.68 L 443.52 181.68 L 443.52 .000015259 L .000030518 .000015259 " fill-rule="evenodd"/>
</clipPath>
<g clip-path="url(#cp24)">
<path transform="matrix(1,0,0,-1,0,181.68)" stroke-width="1.5" stroke-linecap="round" stroke-linejoin="round" fill="none" stroke="#000000" d="M 405.6 113.52 L 403.34 105.27 "/>
</g>
<clipPath id="cp25">
<path transform="matrix(1,0,0,-1,0,181.68)" d="M -.000030518 181.68 L 443.52 181.68 L 443.52 -.000030518 L -.000061035 -.000030518 " fill-rule="evenodd"/>
</clipPath>
<g clip-path="url(#cp25)">
<path transform="matrix(1,0,0,-1,0,181.68)" stroke-width="1.5" stroke-linecap="round" stroke-linejoin="round" fill="none" stroke="#000000" d="M 403.34 105.27 L 399.51 121.59 "/>
</g>
<clipPath id="cp26">
<path transform="matrix(1,0,0,-1,0,181.68)" d="M 0 181.68 L 443.52 181.68 L 443.52 .000015259 L .000030518 .000030518 " fill-rule="evenodd"/>
</clipPath>
<g clip-path="url(#cp26)">
<path transform="matrix(1,0,0,-1,0,181.68)" stroke-width="1.5" stroke-linecap="round" stroke-linejoin="round" fill="none" stroke="#000000" d="M 399.51 121.59 L 395.68 105.27 "/>
</g>
<clipPath id="cp27">
<path transform="matrix(1,0,0,-1,0,181.68)" d="M 0 181.68 L 443.52 181.68 L 443.52 .000030518 L 0 .000030518 " fill-rule="evenodd"/>
</clipPath>
<g clip-path="url(#cp27)">
<path transform="matrix(1,0,0,-1,0,181.68)" stroke-width="1.5" stroke-linecap="round" stroke-linejoin="round" fill="none" stroke="#000000" d="M 395.68 105.27 L 391.6 121.59 L 387.52 105.27 "/>
</g>
<clipPath id="cp28">
<path transform="matrix(1,0,0,-1,0,181.68)" d="M 0 181.68 L 443.52 181.68 L 443.52 .000030518 L 0 .000030518 " fill-rule="evenodd"/>
</clipPath>
<g clip-path="url(#cp28)">
<path transform="matrix(1,0,0,-1,0,181.68)" stroke-width="1.5" stroke-linecap="round" stroke-linejoin="round" fill="none" stroke="#000000" d="M 387.52 105.27 L 382.92 121.59 L 380.37 113.39 L 374.25 113.39 "/>
</g>
<path transform="matrix(1,0,0,-1,0,181.68)" d="M 319.69 113.43 C 319.69 120.18 314.15 125.65 307.31 125.65 C 300.46 125.65 294.92 120.18 294.92 113.43 C 294.92 106.68 300.46 101.21 307.31 101.21 C 314.15 101.21 319.69 106.68 319.69 113.43 Z " fill="#ffffff" fill-rule="evenodd"/>
<path transform="matrix(1,0,0,-1,0,181.68)" stroke-width="1.5" stroke-linecap="round" stroke-linejoin="round" fill="none" stroke="#000000" d="M 319.69 113.43 C 319.69 120.18 314.15 125.65 307.31 125.65 C 300.46 125.65 294.92 120.18 294.92 113.43 C 294.92 106.68 300.46 101.21 307.31 101.21 C 314.15 101.21 319.69 106.68 319.69 113.43 Z "/>
<path transform="matrix(1,0,0,-1,0,181.68)" stroke-width=".75" stroke-linecap="round" stroke-linejoin="round" fill="none" stroke="#000000" d="M 307.31 122.99 L 305.06 122.43 L 307.31 121.3 L 302.81 120.74 L 311.81 119.05 L 308.99 119.05 L 305.06 117.93 L 307.31 116.8 L 302.81 116.8 L 311.81 115.12 "/>
<path transform="matrix(1,0,0,-1,0,181.68)" stroke-width=".75" stroke-linecap="round" stroke-linejoin="round" fill="none" stroke="#000000" d="M 311.81 115.12 L 309.56 113.99 L 302.81 115.12 "/>
<path transform="matrix(1,0,0,-1,0,181.68)" stroke-width=".75" stroke-linecap="round" stroke-linejoin="round" fill="none" stroke="#000000" d="M 309.56 103.87 L 311.81 104.43 L 309.56 105.55 L 307.31 104.99 L 302.81 104.99 L 309.56 107.24 L 302.81 108.93 L 305.06 110.05 L 307.31 108.93 L 311.81 110.05 L 309.56 111.18 L 311.81 111.74 L 302.81 112.3 L 307.31 112.87 L 302.81 115.12 "/>
<path transform="matrix(1,0,0,-1,0,181.68)" stroke-width=".75" stroke-linecap="round" stroke-linejoin="round" fill="none" stroke="#000000" d="M 307.31 122.99 L 305.06 122.43 L 307.31 121.3 L 302.81 120.74 L 311.81 119.05 L 308.99 119.05 L 305.06 117.93 L 307.31 116.8 L 302.81 116.8 L 311.81 115.12 "/>
<path transform="matrix(1,0,0,-1,0,181.68)" stroke-width=".75" stroke-linecap="round" stroke-linejoin="round" fill="none" stroke="#000000" d="M 311.81 115.12 L 309.56 113.99 L 302.81 115.12 "/>
<path transform="matrix(1,0,0,-1,0,181.68)" stroke-width=".75" stroke-linecap="round" stroke-linejoin="round" fill="none" stroke="#000000" d="M 309.56 103.87 L 311.81 104.43 L 309.56 105.55 L 307.31 104.99 L 302.81 104.99 L 309.56 107.24 L 302.81 108.93 L 305.06 110.05 L 307.31 108.93 L 311.81 110.05 L 309.56 111.18 L 311.81 111.74 L 302.81 112.3 L 307.31 112.87 L 302.81 115.12 "/>
<path transform="matrix(1,0,0,-1,0,181.68)" d="M 319.69 113.43 C 319.69 120.18 314.15 125.65 307.31 125.65 C 300.46 125.65 294.92 120.18 294.92 113.43 C 294.92 106.68 300.46 101.21 307.31 101.21 C 314.15 101.21 319.69 106.68 319.69 113.43 Z " fill="#ffffff" fill-rule="evenodd"/>
<path transform="matrix(1,0,0,-1,0,181.68)" stroke-width="1.5" stroke-linecap="round" stroke-linejoin="round" fill="none" stroke="#000000" d="M 319.69 113.43 C 319.69 120.18 314.15 125.65 307.31 125.65 C 300.46 125.65 294.92 120.18 294.92 113.43 C 294.92 106.68 300.46 101.21 307.31 101.21 C 314.15 101.21 319.69 106.68 319.69 113.43 Z "/>
<path transform="matrix(1,0,0,-1,0,181.68)" stroke-width=".75" stroke-linecap="round" stroke-linejoin="round" fill="none" stroke="#000000" d="M 307.31 122.99 L 305.06 122.43 L 307.31 121.3 L 302.81 120.74 L 311.81 119.05 L 308.99 119.05 L 305.06 117.93 L 307.31 116.8 L 302.81 116.8 L 311.81 115.12 "/>
<path transform="matrix(1,0,0,-1,0,181.68)" stroke-width=".75" stroke-linecap="round" stroke-linejoin="round" fill="none" stroke="#000000" d="M 311.81 115.12 L 309.56 113.99 L 302.81 115.12 "/>
<path transform="matrix(1,0,0,-1,0,181.68)" stroke-width=".75" stroke-linecap="round" stroke-linejoin="round" fill="none" stroke="#000000" d="M 309.56 103.87 L 311.81 104.43 L 309.56 105.55 L 307.31 104.99 L 302.81 104.99 L 309.56 107.24 L 302.81 108.93 L 305.06 110.05 L 307.31 108.93 L 311.81 110.05 L 309.56 111.18 L 311.81 111.74 L 302.81 112.3 L 307.31 112.87 L 302.81 115.12 "/>
<clipPath id="cp29">
<path transform="matrix(1,0,0,-1,0,181.68)" d="M 0 181.68 L 443.52 181.68 L 443.52 .000030518 L 0 .000030518 " fill-rule="evenodd"/>
</clipPath>
<g clip-path="url(#cp29)">
<path transform="matrix(1,0,0,-1,0,181.68)" d="M 393.64 162.93 C 386.89 162.93 381.42 157.38 381.42 150.54 C 381.42 143.7 386.89 138.15 393.64 138.15 C 400.39 138.15 405.86 143.7 405.86 150.54 C 405.86 157.38 400.39 162.93 393.64 162.93 Z " fill="#ffffff" fill-rule="evenodd"/>
</g>
<clipPath id="cp30">
<path transform="matrix(1,0,0,-1,0,181.68)" d="M 0 181.68 L 443.52 181.68 L 443.52 .000030518 L 0 .000030518 " fill-rule="evenodd"/>
</clipPath>
<g clip-path="url(#cp30)">
<path transform="matrix(1,0,0,-1,0,181.68)" stroke-width="1.5" stroke-linecap="round" stroke-linejoin="round" fill="none" stroke="#000000" d="M 393.64 162.93 C 386.89 162.93 381.42 157.38 381.42 150.54 C 381.42 143.7 386.89 138.15 393.64 138.15 C 400.39 138.15 405.86 143.7 405.86 150.54 C 405.86 157.38 400.39 162.93 393.64 162.93 Z "/>
</g>
<clipPath id="cp31">
<path transform="matrix(1,0,0,-1,0,181.68)" d="M 0 181.68 L 443.52 181.68 L 443.52 .000015259 L 0 .000015259 " fill-rule="evenodd"/>
</clipPath>
<g clip-path="url(#cp31)">
<path transform="matrix(1,0,0,-1,0,181.68)" stroke-width=".75" stroke-linecap="round" stroke-linejoin="round" fill="none" stroke="#000000" d="M 384.08 150.54 L 384.64 148.29 L 385.77 150.54 L 386.33 146.04 L 388.02 155.04 L 388.02 152.23 L 389.14 148.29 L 390.27 150.54 L 390.27 146.04 L 391.95 155.04 "/>
</g>
<clipPath id="cp32">
<path transform="matrix(1,0,0,-1,0,181.68)" d="M 0 181.68 L 443.52 181.68 L 443.52 .000015259 L 0 .000015259 " fill-rule="evenodd"/>
</clipPath>
<g clip-path="url(#cp32)">
<path transform="matrix(1,0,0,-1,0,181.68)" stroke-width=".75" stroke-linecap="round" stroke-linejoin="round" fill="none" stroke="#000000" d="M 391.95 155.04 L 393.08 152.79 L 391.95 146.04 "/>
</g>
<clipPath id="cp33">
<path transform="matrix(1,0,0,-1,0,181.68)" d="M 0 181.68 L 443.52 181.68 L 443.52 .000015259 L 0 .000015259 " fill-rule="evenodd"/>
</clipPath>
<g clip-path="url(#cp33)">
<path transform="matrix(1,0,0,-1,0,181.68)" stroke-width=".75" stroke-linecap="round" stroke-linejoin="round" fill="none" stroke="#000000" d="M 403.2 152.79 L 402.64 155.04 L 401.52 152.79 L 402.08 150.54 L 402.08 146.04 L 399.83 152.79 L 398.14 146.04 L 397.02 148.29 L 398.14 150.54 L 397.02 155.04 L 395.89 152.79 L 395.33 155.04 L 394.77 146.04 L 394.2 150.54 L 391.95 146.04 "/>
</g>
<clipPath id="cp34">
<path transform="matrix(1,0,0,-1,0,181.68)" d="M 0 181.68 L 443.52 181.68 L 443.52 .000015259 L 0 .000015259 " fill-rule="evenodd"/>
</clipPath>
<g clip-path="url(#cp34)">
<path transform="matrix(1,0,0,-1,0,181.68)" stroke-width=".75" stroke-linecap="round" stroke-linejoin="round" fill="none" stroke="#000000" d="M 384.08 150.54 L 384.64 148.29 L 385.77 150.54 L 386.33 146.04 L 388.02 155.04 L 388.02 152.23 L 389.14 148.29 L 390.27 150.54 L 390.27 146.04 L 391.95 155.04 "/>
</g>
<clipPath id="cp35">
<path transform="matrix(1,0,0,-1,0,181.68)" d="M 0 181.68 L 443.52 181.68 L 443.52 .000015259 L 0 .000015259 " fill-rule="evenodd"/>
</clipPath>
<g clip-path="url(#cp35)">
<path transform="matrix(1,0,0,-1,0,181.68)" stroke-width=".75" stroke-linecap="round" stroke-linejoin="round" fill="none" stroke="#000000" d="M 391.95 155.04 L 393.08 152.79 L 391.95 146.04 "/>
</g>
<clipPath id="cp36">
<path transform="matrix(1,0,0,-1,0,181.68)" d="M 0 181.68 L 443.52 181.68 L 443.52 .000015259 L 0 .000015259 " fill-rule="evenodd"/>
</clipPath>
<g clip-path="url(#cp36)">
<path transform="matrix(1,0,0,-1,0,181.68)" stroke-width=".75" stroke-linecap="round" stroke-linejoin="round" fill="none" stroke="#000000" d="M 403.2 152.79 L 402.64 155.04 L 401.52 152.79 L 402.08 150.54 L 402.08 146.04 L 399.83 152.79 L 398.14 146.04 L 397.02 148.29 L 398.14 150.54 L 397.02 155.04 L 395.89 152.79 L 395.33 155.04 L 394.77 146.04 L 394.2 150.54 L 391.95 146.04 "/>
</g>
<clipPath id="cp37">
<path transform="matrix(1,0,0,-1,0,181.68)" d="M 0 181.68 L 443.52 181.68 L 443.52 .000030518 L 0 .000030518 " fill-rule="evenodd"/>
</clipPath>
<g clip-path="url(#cp37)">
<path transform="matrix(1,0,0,-1,0,181.68)" d="M 393.64 162.93 C 386.89 162.93 381.42 157.38 381.42 150.54 C 381.42 143.7 386.89 138.15 393.64 138.15 C 400.39 138.15 405.86 143.7 405.86 150.54 C 405.86 157.38 400.39 162.93 393.64 162.93 Z " fill="#ffffff" fill-rule="evenodd"/>
</g>
<clipPath id="cp38">
<path transform="matrix(1,0,0,-1,0,181.68)" d="M 0 181.68 L 443.52 181.68 L 443.52 .000030518 L 0 .000030518 " fill-rule="evenodd"/>
</clipPath>
<g clip-path="url(#cp38)">
<path transform="matrix(1,0,0,-1,0,181.68)" stroke-width="1.5" stroke-linecap="round" stroke-linejoin="round" fill="none" stroke="#000000" d="M 393.64 162.93 C 386.89 162.93 381.42 157.38 381.42 150.54 C 381.42 143.7 386.89 138.15 393.64 138.15 C 400.39 138.15 405.86 143.7 405.86 150.54 C 405.86 157.38 400.39 162.93 393.64 162.93 Z "/>
</g>
<clipPath id="cp39">
<path transform="matrix(1,0,0,-1,0,181.68)" d="M 0 181.68 L 443.52 181.68 L 443.52 .000015259 L 0 .000015259 " fill-rule="evenodd"/>
</clipPath>
<g clip-path="url(#cp39)">
<path transform="matrix(1,0,0,-1,0,181.68)" stroke-width=".75" stroke-linecap="round" stroke-linejoin="round" fill="none" stroke="#000000" d="M 384.08 150.54 L 384.64 148.29 L 385.77 150.54 L 386.33 146.04 L 388.02 155.04 L 388.02 152.23 L 389.14 148.29 L 390.27 150.54 L 390.27 146.04 L 391.95 155.04 "/>
</g>
<clipPath id="cp40">
<path transform="matrix(1,0,0,-1,0,181.68)" d="M 0 181.68 L 443.52 181.68 L 443.52 .000015259 L 0 .000015259 " fill-rule="evenodd"/>
</clipPath>
<g clip-path="url(#cp40)">
<path transform="matrix(1,0,0,-1,0,181.68)" stroke-width=".75" stroke-linecap="round" stroke-linejoin="round" fill="none" stroke="#000000" d="M 391.95 155.04 L 393.08 152.79 L 391.95 146.04 "/>
</g>
<clipPath id="cp41">
<path transform="matrix(1,0,0,-1,0,181.68)" d="M 0 181.68 L 443.52 181.68 L 443.52 .000015259 L 0 .000015259 " fill-rule="evenodd"/>
</clipPath>
<g clip-path="url(#cp41)">
<path transform="matrix(1,0,0,-1,0,181.68)" stroke-width=".75" stroke-linecap="round" stroke-linejoin="round" fill="none" stroke="#000000" d="M 403.2 152.79 L 402.64 155.04 L 401.52 152.79 L 402.08 150.54 L 402.08 146.04 L 399.83 152.79 L 398.14 146.04 L 397.02 148.29 L 398.14 150.54 L 397.02 155.04 L 395.89 152.79 L 395.33 155.04 L 394.77 146.04 L 394.2 150.54 L 391.95 146.04 "/>
</g>
<clipPath id="cp42">
<path transform="matrix(1,0,0,-1,0,181.68)" d="M 0 181.68 L 443.52 181.68 L 443.52 0 L 0 0 " fill-rule="evenodd"/>
</clipPath>
<g clip-path="url(#cp42)">
<path transform="matrix(1,0,0,-1,0,181.68)" stroke-width="1.5" stroke-linecap="round" stroke-linejoin="round" fill="none" stroke="#000000" d="M 374.25 113.39 L 374.25 151.06 "/>
</g>
<path transform="matrix(1,0,0,-1,0,181.68)" stroke-width="1.5" stroke-linecap="round" stroke-linejoin="round" fill="none" stroke="#000000" d="M 381.43 151.06 L 374.25 151.06 "/>
<clipPath id="cp43">
<path transform="matrix(1,0,0,-1,0,181.68)" d="M 0 181.68 L 443.52 181.68 L 443.52 0 L 0 0 " fill-rule="evenodd"/>
</clipPath>
<g clip-path="url(#cp43)">
<path transform="matrix(1,0,0,-1,0,181.68)" stroke-width=".75" stroke-linecap="round" stroke-linejoin="round" fill="none" stroke="#000000" d="M 374.25 147.18 L 374.25 151.06 "/>
</g>
<path transform="matrix(1,0,0,-1,0,181.68)" stroke-width="1.5" stroke-linecap="round" stroke-linejoin="round" fill="none" stroke="#000000" d="M 413.03 113.52 L 413.03 151.68 L 405.81 151.68 "/>
<clipPath id="cp44">
<path transform="matrix(1,0,0,-1,0,181.68)" d="M -.000030518 181.68 L 443.52 181.68 L 443.52 -.000015259 L -.000030518 -.000015259 " fill-rule="evenodd"/>
</clipPath>
<g clip-path="url(#cp44)">
<path transform="matrix(1,0,0,-1,0,181.68)" stroke-width="1.5" stroke-linecap="round" stroke-linejoin="round" fill="none" stroke="#000000" d="M 380.37 113.39 L 360.75 113.43 "/>
</g>
<clipPath id="cp45">
<path transform="matrix(1,0,0,-1,0,181.68)" d="M -.000030518 181.68 L 443.52 181.68 L 443.52 -.000015259 L 0 0 " fill-rule="evenodd"/>
</clipPath>
<g clip-path="url(#cp45)">
<path transform="matrix(1,0,0,-1,0,181.68)" stroke-width="1.5" stroke-linecap="round" stroke-linejoin="round" fill="none" stroke="#000000" d="M 424.87 113.43 L 411.37 113.52 "/>
</g>
<path transform="matrix(1,0,0,-1,0,181.68)" d="M 371.69 113.39 C 371.69 114.8 372.84 115.95 374.25 115.95 C 375.66 115.95 376.81 114.8 376.81 113.39 C 376.81 111.98 375.66 110.83 374.25 110.83 C 372.84 110.83 371.69 111.98 371.69 113.39 Z " fill-rule="evenodd"/>
<path transform="matrix(1,0,0,-1,0,181.68)" stroke-width="2" stroke-linecap="round" stroke-linejoin="round" fill="none" stroke="#000000" d="M 371.69 113.39 C 371.69 114.8 372.84 115.95 374.25 115.95 C 375.66 115.95 376.81 114.8 376.81 113.39 C 376.81 111.98 375.66 110.83 374.25 110.83 C 372.84 110.83 371.69 111.98 371.69 113.39 Z "/>
<path transform="matrix(1,0,0,-1,0,181.68)" d="M 410.47 113.52 C 410.47 114.93 411.62 116.07 413.03 116.07 C 414.44 116.07 415.59 114.93 415.59 113.52 C 415.59 112.1 414.44 110.96 413.03 110.96 C 411.62 110.96 410.47 112.1 410.47 113.52 Z " fill-rule="evenodd"/>
<path transform="matrix(1,0,0,-1,0,181.68)" stroke-width="2" stroke-linecap="round" stroke-linejoin="round" fill="none" stroke="#000000" d="M 410.47 113.52 C 410.47 114.93 411.62 116.07 413.03 116.07 C 414.44 116.07 415.59 114.93 415.59 113.52 C 415.59 112.1 414.44 110.96 413.03 110.96 C 411.62 110.96 410.47 112.1 410.47 113.52 Z "/>
<clipPath id="cp46">
<path transform="matrix(1,0,0,-1,0,181.68)" d="M 367.87 84.18 L 423.372 84.18 L 423.372 104.419 L 367.87 104.419 Z " fill-rule="evenodd"/>
</clipPath>
<g clip-path="url(#cp46)">
<clipPath id="cp47">
<path transform="matrix(1.0374369,.0000001265052,-.0000013893957,-1.0359659,367.87,97.49999)" d="M 0 0 L 53.5 0 L 53.5 19.537 L 0 19.537 Z " fill-rule="evenodd"/>
</clipPath>
<g clip-path="url(#cp47)">
<text fill="#ff0000" xml:space="preserve" transform="matrix(1.0374369 .0000001265052 .0000013893957 1.0359659 367.87 97.49999)" font-size="9.072" font-family="CambriaMath"><tspan y="-10.945" x="0 8.8906 14.5152 17.9626 21.6821">&#x1d47e;&#x1d489;&#x1d48a;&#x1d495;&#x1d486;</tspan></text>
<text fill="#ff0000" xml:space="preserve" transform="matrix(1.0374369 .0000001265052 .0000013893957 1.0359659 367.87 97.49999)" font-size="9.072" font-family="CambriaMath"><tspan y="-10.945" x="26.712"> </tspan></text>
<text fill="#ff0000" xml:space="preserve" transform="matrix(1.0374369 .0000001265052 .0000013893957 1.0359659 367.87 97.49999)" font-size="9.072" font-family="CambriaMath"><tspan y="-10.945" x="28.752 35.556 40.727 44.1744 48.7104">&#x1d475;&#x1d490;&#x1d48a;&#x1d494;&#x1d486;</tspan></text>
<text fill="#ff0000" xml:space="preserve" transform="matrix(1.0374369 .0000001265052 .0000013893957 1.0359659 367.87 97.49999)" font-size="9.072" font-family="Calibri" font-weight="bold"><tspan y="-10.945" x="53.544"> </tspan></text>
</g>
</g>
</g>
</g>
</svg>
