<?xml version="1.0" encoding="UTF-8" standalone="no"?>
<svg
   xmlns:dc="http://purl.org/dc/elements/1.1/"
   xmlns:cc="http://creativecommons.org/ns#"
   xmlns:rdf="http://www.w3.org/1999/02/22-rdf-syntax-ns#"
   xmlns:svg="http://www.w3.org/2000/svg"
   xmlns="http://www.w3.org/2000/svg"
   viewBox="0 0 375.84 134.56"
   height="134.56"
   width="375.84"
   xml:space="preserve"
   id="svg2"
   version="1.1"><metadata
     id="metadata8"><rdf:RDF><cc:Work
         rdf:about=""><dc:format>image/svg+xml</dc:format><dc:type
           rdf:resource="http://purl.org/dc/dcmitype/StillImage" /></cc:Work></rdf:RDF></metadata><defs
     id="defs6"><clipPath
       id="clipPath28"
       clipPathUnits="userSpaceOnUse"><path
         style="clip-rule:evenodd"
         id="path26"
         d="M 0,100.92 H 281.88 V 3.0518e-5 H 0" /></clipPath><clipPath
       id="clipPath38"
       clipPathUnits="userSpaceOnUse"><path
         style="clip-rule:evenodd"
         id="path36"
         d="M 0,100.92 H 281.88 V 7.629e-6 H 0" /></clipPath><clipPath
       id="clipPath68"
       clipPathUnits="userSpaceOnUse"><path
         style="clip-rule:evenodd"
         id="path66"
         d="M 19,34.542 H 45.249 V 59.288 H 19 Z" /></clipPath><clipPath
       id="clipPath78"
       clipPathUnits="userSpaceOnUse"><path
         id="path76"
         d="M 0,0 H 28.085 V 25.867 H 0 Z" /></clipPath><clipPath
       id="clipPath86"
       clipPathUnits="userSpaceOnUse"><path
         style="clip-rule:evenodd"
         id="path84"
         d="m 0,0.019093 h 28.08 v 25.848 H 0 Z" /></clipPath><clipPath
       id="clipPath98"
       clipPathUnits="userSpaceOnUse"><path
         style="clip-rule:evenodd"
         id="path96"
         d="m 0,0.019093 h 28.08 v 25.848 H 0 Z" /></clipPath><clipPath
       id="clipPath110"
       clipPathUnits="userSpaceOnUse"><path
         style="clip-rule:evenodd"
         id="path108"
         d="m 0,0.019093 h 28.08 v 25.848 H 0 Z" /></clipPath><clipPath
       id="clipPath122"
       clipPathUnits="userSpaceOnUse"><path
         style="clip-rule:evenodd"
         id="path120"
         d="m 113.14,53.171 h 18.737 V 79.42 H 113.14 Z" /></clipPath><clipPath
       id="clipPath132"
       clipPathUnits="userSpaceOnUse"><path
         id="path130"
         d="M 0,0 H 20.067 V 27.712 H 0 Z" /></clipPath><clipPath
       id="clipPath140"
       clipPathUnits="userSpaceOnUse"><path
         style="clip-rule:evenodd"
         id="path138"
         d="M 0,-0.0077477 H 20.016 V 27.712252 H 0 Z" /></clipPath><clipPath
       id="clipPath152"
       clipPathUnits="userSpaceOnUse"><path
         style="clip-rule:evenodd"
         id="path150"
         d="M 0,-0.0077477 H 20.016 V 27.712252 H 0 Z" /></clipPath><clipPath
       id="clipPath164"
       clipPathUnits="userSpaceOnUse"><path
         style="clip-rule:evenodd"
         id="path162"
         d="M 0,-0.0077477 H 20.016 V 27.712252 H 0 Z" /></clipPath><clipPath
       id="clipPath172"
       clipPathUnits="userSpaceOnUse"><path
         style="clip-rule:evenodd"
         id="path170"
         d="m 112.53,48.026 h 19.95 V 22.315 h -19.95 z" /></clipPath><clipPath
       id="clipPath182"
       clipPathUnits="userSpaceOnUse"><path
         id="path180"
         d="M 0,0 H 20.067 V 25.867 H 0 Z" /></clipPath><clipPath
       id="clipPath190"
       clipPathUnits="userSpaceOnUse"><path
         style="clip-rule:evenodd"
         id="path188"
         d="m 0,0.019093 h 20.016 v 25.848 H 0 Z" /></clipPath><clipPath
       id="clipPath202"
       clipPathUnits="userSpaceOnUse"><path
         style="clip-rule:evenodd"
         id="path200"
         d="m 0,0.019093 h 20.016 v 25.848 H 0 Z" /></clipPath><clipPath
       id="clipPath214"
       clipPathUnits="userSpaceOnUse"><path
         style="clip-rule:evenodd"
         id="path212"
         d="m 0,0.019093 h 20.016 v 25.848 H 0 Z" /></clipPath><clipPath
       id="clipPath222"
       clipPathUnits="userSpaceOnUse"><path
         style="clip-rule:evenodd"
         id="path220"
         d="m 202.75,53.442 h 18.737 V 78.188 H 202.75 Z" /></clipPath><clipPath
       id="clipPath232"
       clipPathUnits="userSpaceOnUse"><path
         id="path230"
         d="M 0,0 H 20.067 V 25.867 H 0 Z" /></clipPath><clipPath
       id="clipPath240"
       clipPathUnits="userSpaceOnUse"><path
         style="clip-rule:evenodd"
         id="path238"
         d="m 0,0.019093 h 20.016 v 25.848 H 0 Z" /></clipPath><clipPath
       id="clipPath252"
       clipPathUnits="userSpaceOnUse"><path
         style="clip-rule:evenodd"
         id="path250"
         d="m 0,0.019093 h 20.016 v 25.848 H 0 Z" /></clipPath><clipPath
       id="clipPath264"
       clipPathUnits="userSpaceOnUse"><path
         style="clip-rule:evenodd"
         id="path262"
         d="m 0,0.019093 h 20.016 v 25.848 H 0 Z" /></clipPath><clipPath
       id="clipPath272"
       clipPathUnits="userSpaceOnUse"><path
         style="clip-rule:evenodd"
         id="path270"
         d="M 223.75,78.188 H 247 V 53.442 h -23.25 z" /></clipPath><clipPath
       id="clipPath282"
       clipPathUnits="userSpaceOnUse"><path
         id="path280"
         d="M 0,0 H 24.997 V 25.867 H 0 Z" /></clipPath><clipPath
       id="clipPath290"
       clipPathUnits="userSpaceOnUse"><path
         style="clip-rule:evenodd"
         id="path288"
         d="m 0,0.019093 h 24.912 v 25.848 H 0 Z" /></clipPath><clipPath
       id="clipPath302"
       clipPathUnits="userSpaceOnUse"><path
         style="clip-rule:evenodd"
         id="path300"
         d="m 0,0.019093 h 24.912 v 25.848 H 0 Z" /></clipPath><clipPath
       id="clipPath314"
       clipPathUnits="userSpaceOnUse"><path
         style="clip-rule:evenodd"
         id="path312"
         d="m 0,0.019093 h 24.912 v 25.848 H 0 Z" /></clipPath></defs><g
     transform="matrix(1.3333333,0,0,-1.3333333,0,134.56)"
     id="g10"><path
       id="path12"
       style="fill:#ffffff;fill-opacity:1;fill-rule:evenodd;stroke:none"
       d="m 150.31,56.045 v 25.2 l 23.8,-11.76 z" /><path
       id="path14"
       style="fill:none;stroke:#000000;stroke-width:2;stroke-linecap:round;stroke-linejoin:round;stroke-miterlimit:10;stroke-dasharray:none;stroke-opacity:1"
       d="m 150.31,56.045 v 25.2 l 23.8,-11.76 z" /><path
       id="path16"
       style="fill:#ffffff;fill-opacity:1;fill-rule:evenodd;stroke:none"
       d="m 150.31,18.92 v 25.2 l 23.8,-11.76 z" /><path
       id="path18"
       style="fill:none;stroke:#000000;stroke-width:2;stroke-linecap:round;stroke-linejoin:round;stroke-miterlimit:10;stroke-dasharray:none;stroke-opacity:1"
       d="m 150.31,18.92 v 25.2 l 23.8,-11.76 z" /><path
       id="path20"
       style="fill:none;stroke:#000000;stroke-width:2;stroke-linecap:round;stroke-linejoin:round;stroke-miterlimit:10;stroke-dasharray:none;stroke-opacity:1"
       d="M 134,21.17 H 70.999" /><g
       id="g22"><g
         clip-path="url(#clipPath28)"
         id="g24"><path
           id="path30"
           style="fill:none;stroke:#000000;stroke-width:2;stroke-linecap:round;stroke-linejoin:round;stroke-miterlimit:10;stroke-dasharray:none;stroke-opacity:1"
           d="M 70.999,79.67 V 21.17" /></g></g><g
       id="g32"><g
         clip-path="url(#clipPath38)"
         id="g34"><path
           id="path40"
           style="fill:none;stroke:#000000;stroke-width:2;stroke-linecap:round;stroke-linejoin:round;stroke-miterlimit:10;stroke-dasharray:none;stroke-opacity:1"
           d="m 134,21.17 v 58.5" /></g></g><path
       id="path42"
       style="fill:none;stroke:#000000;stroke-width:2;stroke-linecap:round;stroke-linejoin:round;stroke-miterlimit:10;stroke-dasharray:none;stroke-opacity:1"
       d="M 134,79.67 H 70.999" /><path
       id="path44"
       style="fill:none;stroke:#000000;stroke-width:2;stroke-linecap:round;stroke-linejoin:round;stroke-miterlimit:10;stroke-dasharray:none;stroke-opacity:1"
       d="m 134,32.42 h 16.31" /><path
       id="path46"
       style="fill:none;stroke:#000000;stroke-width:2;stroke-linecap:round;stroke-linejoin:round;stroke-miterlimit:10;stroke-dasharray:none;stroke-opacity:1"
       d="m 134,69.545 h 16.31" /><path
       id="path48"
       style="fill:#ffffff;fill-opacity:1;fill-rule:evenodd;stroke:none"
       d="m 172.5,32.42 c 0,1.413 1.15,2.558 2.56,2.558 1.41,0 2.56,-1.145 2.56,-2.558 0,-1.413 -1.15,-2.558 -2.56,-2.558 -1.41,0 -2.56,1.145 -2.56,2.558 z" /><path
       id="path50"
       style="fill:none;stroke:#000000;stroke-width:2;stroke-linecap:round;stroke-linejoin:round;stroke-miterlimit:10;stroke-dasharray:none;stroke-opacity:1"
       d="m 172.5,32.42 c 0,1.413 1.15,2.558 2.56,2.558 1.41,0 2.56,-1.145 2.56,-2.558 0,-1.413 -1.15,-2.558 -2.56,-2.558 -1.41,0 -2.56,1.145 -2.56,2.558 z" /><path
       id="path52"
       style="fill:#ffffff;fill-opacity:1;fill-rule:evenodd;stroke:none"
       d="m 172.5,69.545 c 0,1.413 1.15,2.558 2.56,2.558 1.41,0 2.56,-1.145 2.56,-2.558 0,-1.413 -1.15,-2.558 -2.56,-2.558 -1.41,0 -2.56,1.145 -2.56,2.558 z" /><path
       id="path54"
       style="fill:none;stroke:#000000;stroke-width:2;stroke-linecap:round;stroke-linejoin:round;stroke-miterlimit:10;stroke-dasharray:none;stroke-opacity:1"
       d="m 172.5,69.545 c 0,1.413 1.15,2.558 2.56,2.558 1.41,0 2.56,-1.145 2.56,-2.558 0,-1.413 -1.15,-2.558 -2.56,-2.558 -1.41,0 -2.56,1.145 -2.56,2.558 z" /><path
       id="path56"
       style="fill:none;stroke:#000000;stroke-width:2;stroke-linecap:round;stroke-linejoin:round;stroke-miterlimit:10;stroke-dasharray:none;stroke-opacity:1"
       d="m 201.5,54.92 h 47.25 v 27 H 201.5 Z" /><path
       id="path58"
       style="fill:none;stroke:#000000;stroke-width:2;stroke-linecap:round;stroke-linejoin:round;stroke-miterlimit:10;stroke-dasharray:none;stroke-opacity:1"
       d="M 177.62,69.545 H 201.5" /><path
       id="path60"
       style="fill:none;stroke:#000000;stroke-width:2;stroke-linecap:round;stroke-linejoin:round;stroke-miterlimit:10;stroke-dasharray:none;stroke-opacity:1"
       d="M 70.999,47.045 H 50.749" /><g
       id="g62"><g
         clip-path="url(#clipPath68)"
         id="g64"><g
           transform="matrix(0.36457,0,-2.4e-8,0.3437,19,34.542)"
           id="g70"><g
             transform="scale(2.5636,2.7835)"
             id="g72"><g
               clip-path="url(#clipPath78)"
               id="g74"><g
                 id="g80"><g
                   clip-path="url(#clipPath86)"
                   id="g82"><text
                     id="text90"
                     style="font-variant:normal;font-weight:normal;font-size:14.13599968px;font-family:CambriaMath;-inkscape-font-specification:CambriaMath;writing-mode:lr-tb;fill:#000000;fill-opacity:1;fill-rule:nonzero;stroke:none"
                     transform="matrix(1,0,0,-1,0,12.451)"><tspan
                       id="tspan88"
                       y="0"
                       x="0">푽</tspan></text>
</g></g><g
                 id="g92"><g
                   clip-path="url(#clipPath98)"
                   id="g94"><text
                     id="text102"
                     style="font-variant:normal;font-weight:normal;font-size:10.03199959px;font-family:CambriaMath;-inkscape-font-specification:CambriaMath;writing-mode:lr-tb;fill:#000000;fill-opacity:1;fill-rule:nonzero;stroke:none"
                     transform="matrix(1,0,0,-1,9.168,9.5471)"><tspan
                       id="tspan100"
                       y="0"
                       x="0 5.0159998 9.2293997 14.6467">풄풕풓풍</tspan></text>
</g></g><g
                 id="g104"><g
                   clip-path="url(#clipPath110)"
                   id="g106" /></g></g></g></g></g></g><path
       id="path112"
       style="fill:#000000;fill-opacity:1;fill-rule:evenodd;stroke:none"
       d="m 47.499,46.915 c 0,1.413 1.145,2.558 2.558,2.558 1.412,0 2.557,-1.145 2.557,-2.558 0,-1.412 -1.145,-2.557 -2.557,-2.557 -1.413,0 -2.558,1.145 -2.558,2.557 z" /><path
       id="path114"
       style="fill:none;stroke:#000000;stroke-width:2;stroke-linecap:round;stroke-linejoin:round;stroke-miterlimit:10;stroke-dasharray:none;stroke-opacity:1"
       d="m 47.499,46.915 c 0,1.413 1.145,2.558 2.558,2.558 1.412,0 2.557,-1.145 2.557,-2.558 0,-1.412 -1.145,-2.557 -2.557,-2.557 -1.413,0 -2.558,1.145 -2.558,2.557 z" /><g
       id="g116"><g
         clip-path="url(#clipPath122)"
         id="g118"><g
           transform="matrix(0.26024,-4.7e-8,-9.4e-8,0.36457,113.14,53.171)"
           id="g124"><g
             transform="scale(3.588,2.5981)"
             id="g126"><g
               clip-path="url(#clipPath132)"
               id="g128"><g
                 id="g134"><g
                   clip-path="url(#clipPath140)"
                   id="g136"><text
                     id="text144"
                     style="font-variant:normal;font-weight:normal;font-size:14.11200047px;font-family:CambriaMath;-inkscape-font-specification:CambriaMath;writing-mode:lr-tb;fill:#000000;fill-opacity:1;fill-rule:nonzero;stroke:none"
                     transform="matrix(1,0,0,-1,2.04,14.2)"><tspan
                       id="tspan142"
                       y="0"
                       x="0">푽</tspan></text>
</g></g><g
                 id="g146"><g
                   clip-path="url(#clipPath152)"
                   id="g148"><text
                     id="text156"
                     style="font-variant:normal;font-weight:normal;font-size:10.00800037px;font-family:CambriaMath;-inkscape-font-specification:CambriaMath;writing-mode:lr-tb;fill:#000000;fill-opacity:1;fill-rule:nonzero;stroke:none"
                     transform="matrix(1,0,0,-1,11.208,11.32)"><tspan
                       id="tspan154"
                       y="0"
                       x="0">풑</tspan></text>
</g></g><g
                 id="g158"><g
                   clip-path="url(#clipPath164)"
                   id="g160" /></g></g></g></g></g></g><g
       id="g166"><g
         clip-path="url(#clipPath172)"
         id="g168"><g
           transform="matrix(0.27716,-2.4e-8,-9.4e-8,0.35709,112.53,22.315)"
           id="g174"><g
             transform="scale(3.588,2.7835)"
             id="g176"><g
               clip-path="url(#clipPath182)"
               id="g178"><g
                 id="g184"><g
                   clip-path="url(#clipPath190)"
                   id="g186"><text
                     id="text194"
                     style="font-variant:normal;font-weight:normal;font-size:14.13599968px;font-family:CambriaMath;-inkscape-font-specification:CambriaMath;writing-mode:lr-tb;fill:#000000;fill-opacity:1;fill-rule:nonzero;stroke:none"
                     transform="matrix(1,0,0,-1,1.92,12.451)"><tspan
                       id="tspan192"
                       y="0"
                       x="0">푽</tspan></text>
</g></g><g
                 id="g196"><g
                   clip-path="url(#clipPath202)"
                   id="g198"><text
                     id="text206"
                     style="font-variant:normal;font-weight:normal;font-size:10.03199959px;font-family:CambriaMath;-inkscape-font-specification:CambriaMath;writing-mode:lr-tb;fill:#000000;fill-opacity:1;fill-rule:nonzero;stroke:none"
                     transform="matrix(1,0,0,-1,11.088,9.5471)"><tspan
                       id="tspan204"
                       y="0"
                       x="0">풏</tspan></text>
</g></g><g
                 id="g208"><g
                   clip-path="url(#clipPath214)"
                   id="g210" /></g></g></g></g></g></g><g
       id="g216"><g
         clip-path="url(#clipPath222)"
         id="g218"><g
           transform="matrix(0.26024,-4.7e-8,-1.88e-7,0.3437,202.75,53.442)"
           id="g224"><g
             transform="scale(3.588,2.7835)"
             id="g226"><g
               clip-path="url(#clipPath232)"
               id="g228"><g
                 id="g234"><g
                   clip-path="url(#clipPath240)"
                   id="g236"><text
                     id="text244"
                     style="font-variant:normal;font-weight:normal;font-size:14.13599968px;font-family:CambriaMath;-inkscape-font-specification:CambriaMath;writing-mode:lr-tb;fill:#000000;fill-opacity:1;fill-rule:nonzero;stroke:none"
                     transform="matrix(1,0,0,-1,0.6,12.451)"><tspan
                       id="tspan242"
                       y="0"
                       x="0">풇</tspan></text>
</g></g><g
                 id="g246"><g
                   clip-path="url(#clipPath252)"
                   id="g248"><text
                     id="text256"
                     style="font-variant:normal;font-weight:normal;font-size:10.03199959px;font-family:CambriaMath;-inkscape-font-specification:CambriaMath;writing-mode:lr-tb;fill:#000000;fill-opacity:1;fill-rule:nonzero;stroke:none"
                     transform="matrix(1,0,0,-1,8.568,9.5471)"><tspan
                       id="tspan254"
                       y="0"
                       x="0 3.7118001">풊풏</tspan></text>
</g></g><g
                 id="g258"><g
                   clip-path="url(#clipPath264)"
                   id="g260" /></g></g></g></g></g></g><g
       id="g266"><g
         clip-path="url(#clipPath272)"
         id="g268"><g
           transform="matrix(0.32283,-4.7e-8,-1.88e-7,0.3437,223.75,53.442)"
           id="g274"><g
             transform="scale(2.8804,2.7835)"
             id="g276"><g
               clip-path="url(#clipPath282)"
               id="g278"><g
                 id="g284"><g
                   clip-path="url(#clipPath290)"
                   id="g286"><text
                     id="text294"
                     style="font-variant:normal;font-weight:normal;font-size:14.13599968px;font-family:CambriaMath;-inkscape-font-specification:CambriaMath;writing-mode:lr-tb;fill:#000000;fill-opacity:1;fill-rule:nonzero;stroke:none"
                     transform="matrix(1,0,0,-1,0,12.451)"><tspan
                       id="tspan292"
                       y="0"
                       x="0">풇</tspan></text>
</g></g><g
                 id="g296"><g
                   clip-path="url(#clipPath302)"
                   id="g298"><text
                     id="text306"
                     style="font-variant:normal;font-weight:normal;font-size:10.03199959px;font-family:CambriaMath;-inkscape-font-specification:CambriaMath;writing-mode:lr-tb;fill:#000000;fill-opacity:1;fill-rule:nonzero;stroke:none"
                     transform="matrix(1,0,0,-1,7.944,9.5471)"><tspan
                       id="tspan304"
                       y="0"
                       x="0 5.8186002 12.2391">풐풖풕</tspan></text>
</g></g><g
                 id="g308"><g
                   clip-path="url(#clipPath314)"
                   id="g310" /></g></g></g></g></g></g><path
       id="path316"
       style="fill:none;stroke:#000000;stroke-width:2;stroke-linecap:round;stroke-linejoin:round;stroke-miterlimit:10;stroke-dasharray:none;stroke-opacity:1"
       d="m 248.75,69.67 h 10.66" /><path
       id="path318"
       style="fill:#000000;fill-opacity:1;fill-rule:evenodd;stroke:none"
       d="m 257.87,69.67 c 0,1.413 1.15,2.558 2.56,2.558 1.41,0 2.56,-1.145 2.56,-2.558 0,-1.413 -1.15,-2.558 -2.56,-2.558 -1.41,0 -2.56,1.145 -2.56,2.558 z" /><path
       id="path320"
       style="fill:none;stroke:#000000;stroke-width:2;stroke-linecap:round;stroke-linejoin:round;stroke-miterlimit:10;stroke-dasharray:none;stroke-opacity:1"
       d="m 257.87,69.67 c 0,1.413 1.15,2.558 2.56,2.558 1.41,0 2.56,-1.145 2.56,-2.558 0,-1.413 -1.15,-2.558 -2.56,-2.558 -1.41,0 -2.56,1.145 -2.56,2.558 z" /></g></svg>